<svg width="16" height="16" viewBox="0 0 16 16" fill="none" xmlns="http://www.w3.org/2000/svg">
<path d="M14.9333 16H1.06667C0.477333 16 0 15.5227 0 14.9333V1.06667C0 0.477333 0.477333 0 1.06667 0H14.9333C15.5227 0 16 0.477333 16 1.06667V14.9333C16 15.5227 15.5227 16 14.9333 16Z" fill="url(#paint0_linear_424_600)"/>
<g opacity="0.2">
<path d="M14.9333 0.4C15.3013 0.4 15.6 0.698667 15.6 1.06667V14.9333C15.6 15.3013 15.3013 15.6 14.9333 15.6H1.06667C0.698667 15.6 0.4 15.3013 0.4 14.9333V1.06667C0.4 0.698667 0.698667 0.4 1.06667 0.4H14.9333ZM14.9333 0H1.06667C0.477333 0 0 0.477333 0 1.06667V14.9333C0 15.5227 0.477333 16 1.06667 16H14.9333C15.5227 16 16 15.5227 16 14.9333V1.06667C16 0.477333 15.5227 0 14.9333 0Z" fill="#424242"/>
</g>
<g opacity="0.2">
<path d="M11.3722 5.39466C12.9682 5.39466 14.2668 6.68266 14.2668 8.26533C14.2668 9.84799 12.9682 11.136 11.3722 11.136C9.9455 11.136 8.93483 10.144 8.00016 9.05999C7.0575 10.1507 6.0495 11.136 4.62816 11.136C3.03216 11.136 1.7335 9.84799 1.7335 8.26533C1.7335 6.68266 3.03216 5.39466 4.62816 5.39466C6.05483 5.39466 7.09616 6.40666 8.00016 7.44933C8.90416 6.40799 9.94683 5.39466 11.3722 5.39466ZM4.62816 10.0907C5.65616 10.0907 6.4775 9.23599 7.31616 8.25333C6.48283 7.28133 5.6655 6.43866 4.62816 6.43866C3.60816 6.43866 2.77883 7.25866 2.77883 8.26533C2.7775 9.27199 3.60816 10.0907 4.62816 10.0907ZM11.3722 10.092C12.3922 10.092 13.2215 9.27333 13.2215 8.26533C13.2215 7.25866 12.3922 6.43866 11.3722 6.43866H11.3708C10.3335 6.43866 9.51616 7.28133 8.68416 8.25333C9.53083 9.24533 10.3495 10.092 11.3722 10.092ZM11.3722 4.99466C9.97083 4.99466 8.91616 5.84799 8.00016 6.84799C7.08416 5.84799 6.0295 4.99466 4.62816 4.99466C2.81216 4.99466 1.3335 6.46133 1.3335 8.26533C1.3335 10.0693 2.81083 11.536 4.62816 11.536C6.08016 11.536 7.13216 10.6227 8.00016 9.66399C8.86683 10.6227 9.9175 11.536 11.3735 11.536C13.1895 11.536 14.6682 10.0693 14.6682 8.26533C14.6682 6.46133 13.1895 4.99466 11.3722 4.99466ZM4.62816 9.69066C3.82816 9.69066 3.17883 9.05066 3.17883 8.26399C3.17883 7.47733 3.8295 6.83733 4.62816 6.83733C5.4175 6.83733 6.1055 7.47999 6.78683 8.25333C6.09883 9.03866 5.40683 9.69066 4.62816 9.69066ZM9.2135 8.25466C9.8935 7.48266 10.5802 6.83999 11.3708 6.83999C12.1708 6.83999 12.8215 7.47999 12.8215 8.26666C12.8215 9.05333 12.1708 9.69333 11.3722 9.69333C10.5962 9.69199 9.90283 9.03866 9.2135 8.25466Z" fill="#424242"/>
</g>
<path d="M11.3721 11.136C9.9454 11.136 8.93473 10.144 8.00007 9.06C7.0574 10.1507 6.0494 11.136 4.62807 11.136C3.03207 11.136 1.7334 9.848 1.7334 8.26534C1.7334 6.68267 3.03207 5.39467 4.62807 5.39467C6.05473 5.39467 7.09607 6.40667 8.00007 7.44934C8.90407 6.408 9.94673 5.39467 11.3721 5.39467C12.9681 5.39467 14.2667 6.68267 14.2667 8.26534C14.2667 9.848 12.9681 11.136 11.3721 11.136ZM8.68407 8.25467C9.53073 9.24534 10.3494 10.092 11.3721 10.092C12.3921 10.092 13.2214 9.27334 13.2214 8.26534C13.2214 7.25867 12.3921 6.43867 11.3721 6.43867C10.3347 6.43867 9.51607 7.28134 8.68407 8.25467ZM4.62807 6.43867C3.60807 6.43867 2.77873 7.25867 2.77873 8.26534C2.77873 9.27334 3.60807 10.092 4.62807 10.092C5.65607 10.092 6.4774 9.23734 7.31607 8.25467C6.48273 7.28134 5.6654 6.43867 4.62807 6.43867Z" fill="white"/>
<defs>
<linearGradient id="paint0_linear_424_600" x1="8" y1="0.0333333" x2="8" y2="16.0547" gradientUnits="userSpaceOnUse">
<stop stop-color="#B388FF"/>
<stop offset="0.3773" stop-color="#A175FF"/>
<stop offset="1" stop-color="#7C4DFF"/>
</linearGradient>
</defs>
</svg>
