<svg width="72" height="64" viewBox="0 0 72 64" fill="none" xmlns="http://www.w3.org/2000/svg">
<path d="M5.44194 48.9028C0.277778 54.067 0 63.4799 0 63.4799C0 63.4799 9.4066 63.2021 14.5771 58.038C19.7475 52.8738 21.8877 46.6427 19.3624 44.1238C16.8372 41.5985 10.6061 43.7387 5.44194 48.9028Z" fill="url(#paint0_linear_424_129)"/>
<path opacity="0.2" d="M16.4142 44.3258C17.317 44.3258 18.0051 44.5594 18.466 45.0139C20.2021 46.7501 18.6617 52.1604 13.6806 57.1478C10.0821 60.7463 4.09092 61.8069 1.37627 62.11C1.6793 59.3953 2.73991 53.4041 6.33209 49.8056C9.65912 46.4723 13.6175 44.3258 16.4142 44.3258ZM16.4142 43.0632C13.3776 43.0632 9.13513 45.2097 5.44194 48.9092C0.277778 54.0733 0 63.4862 0 63.4862C0 63.4862 9.4066 63.2085 14.5771 58.0443C19.7475 52.8801 21.8877 46.6491 19.3624 44.1301C18.6427 43.3978 17.6263 43.0632 16.4142 43.0632Z" fill="#424242"/>
<path d="M7.00751 50.721C3.75624 53.9723 3.57947 59.894 3.57947 59.894C3.57947 59.894 9.5012 59.7173 12.7525 56.466C16.0037 53.2147 17.3548 49.2879 15.7639 47.7033C14.1729 46.1187 10.2651 47.4634 7.00751 50.721Z" fill="url(#paint1_linear_424_129)"/>
<path d="M13.6742 50.7779C16.7676 54.0796 20.827 53.7324 21.1616 53.1895L23.9899 48.5935C24.1603 48.3157 24.0025 47.8738 23.8826 47.7602L16.25 40.1276C16.13 40.0076 15.707 39.8687 15.4293 40.0392L10.8333 42.8675C10.2967 43.2021 9.6906 46.5165 13.6742 50.7779Z" fill="#546E7A"/>
<path d="M34.4572 59.1744C33.8259 59.6857 32.98 59.5721 32.8726 58.8145C32.5759 56.7185 32.7716 52.5077 30.1327 49.8688C27.557 47.293 23.3713 46.9142 23.3713 46.9142L39.129 39.149C39.129 39.149 42.0961 43.7261 40.461 50.2412C39.0974 55.6264 36.7678 57.2867 34.4572 59.1744Z" fill="#0288D1"/>
<path opacity="0.2" d="M38.2388 41.6932C38.3524 42.0026 38.4724 42.3561 38.5797 42.7475C39.009 44.3132 39.3688 46.8069 38.6176 49.7741C37.6643 53.5746 36.2375 55.2034 34.5645 56.6302C34.3499 54.2185 33.8827 50.9357 31.4648 48.5241C30.5809 47.6402 29.5456 46.971 28.5291 46.4723L38.2388 41.6932ZM39.1226 39.149L23.365 46.9142C23.365 46.9142 27.5569 47.2993 30.1264 49.8688C32.7653 52.5077 32.5696 56.7185 32.8663 58.8145C32.9294 59.2627 33.2577 59.49 33.6428 59.49C33.908 59.49 34.1984 59.3827 34.4509 59.1744C36.7615 57.2867 39.0911 55.6264 40.4484 50.2412C42.0961 43.7198 39.1226 39.149 39.1226 39.149Z" fill="#424242"/>
<path d="M4.49504 30.1149C3.87635 30.6452 4.09731 31.5922 4.85489 31.6995C6.95086 31.9962 11.1617 31.8005 13.8006 34.4394C16.3764 37.0152 16.913 40.6642 16.913 40.6642L24.5267 24.5467C24.5267 24.5467 20.4989 22.6591 14.6403 24.1805C10.5999 25.2348 6.59101 28.3094 4.49504 30.1149Z" fill="#0288D1"/>
<path opacity="0.2" d="M19.1857 25.4811C20.24 25.4811 21.149 25.5947 21.8687 25.7336L17.1339 35.7715C16.6288 34.8687 15.9786 33.9407 15.1389 33.1073C12.8978 30.8662 9.91795 30.3043 7.56946 30.0644C9.60861 28.5114 12.3801 26.7311 15.1074 26.0177C16.471 25.6578 17.841 25.4811 19.1857 25.4811ZM19.1857 23.5871C17.8536 23.5871 16.3195 23.7449 14.6402 24.1805C10.5998 25.2348 6.59723 28.3093 4.50127 30.1149C3.88258 30.6452 4.10354 31.5922 4.86112 31.6995C6.95708 31.9962 11.168 31.8005 13.8069 34.4394C16.3826 37.0152 16.9192 40.6642 16.9192 40.6642L24.5266 24.5467C24.5266 24.5467 22.4811 23.5871 19.1857 23.5871Z" fill="#424242"/>
<path opacity="0.2" d="M15.6061 42.1604L21.8688 48.4231L19.8928 51.6364C19.8296 51.6428 19.7602 51.6428 19.6844 51.6428C19.072 51.6428 16.9382 51.4849 15.0569 49.4773C12.6768 46.9331 12.3043 44.9445 12.3359 44.168L15.6061 42.1604ZM15.7387 39.9571C15.6314 39.9571 15.5241 39.9824 15.4294 40.0329L10.8334 42.8612C10.2905 43.1958 9.68439 46.5102 13.668 50.7715C15.6945 52.937 18.1377 53.5367 19.6781 53.5367C20.4862 53.5367 21.0418 53.3726 21.1554 53.1832L23.9837 48.5872C24.1541 48.3094 23.9963 47.8675 23.8764 47.7539L16.2501 40.1276C16.1743 40.0518 15.9597 39.9571 15.7387 39.9571Z" fill="#424242"/>
<path d="M44.5204 3.49866C47.0772 4.6729 50.5242 6.69311 53.8133 9.98226C54.9749 11.1439 55.9661 12.3308 56.8247 13.4924C58.485 15.7335 59.6214 17.8737 60.3664 19.5467C58.706 23.9091 55.5747 28.9848 52.5128 32.0467C40.0065 44.5531 26.1933 51.6933 19.0468 46.6364C18.6301 46.3397 18.2198 46.0682 17.8473 45.7336C11.7172 40.2223 18.7374 24.4457 31.49 11.6931C34.6908 8.49236 40.0254 5.22215 44.5204 3.49866Z" fill="url(#paint2_radial_424_129)"/>
<path d="M41.1934 27.2298C44.2965 27.2298 46.8121 24.7142 46.8121 21.6111C46.8121 18.508 44.2965 15.9924 41.1934 15.9924C38.0903 15.9924 35.5747 18.508 35.5747 21.6111C35.5747 24.7142 38.0903 27.2298 41.1934 27.2298Z" fill="#455A64"/>
<path opacity="0.2" d="M41.1934 17.255C42.355 17.255 43.4535 17.7096 44.2742 18.5303C45.0949 19.351 45.5494 20.4495 45.5494 21.6111C45.5494 22.7727 45.0949 23.8712 44.2742 24.6919C43.4535 25.5126 42.355 25.9672 41.1934 25.9672C40.0318 25.9672 38.9333 25.5126 38.1126 24.6919C36.4143 22.9937 36.4143 20.2285 38.1126 18.5303C38.9333 17.7096 40.0254 17.255 41.1934 17.255ZM41.1934 15.9924C39.754 15.9924 38.3146 16.5416 37.2161 17.6401C35.0191 19.8371 35.0191 23.3914 37.2161 25.5884C38.3146 26.6869 39.754 27.2361 41.1934 27.2361C42.6328 27.2361 44.0722 26.6869 45.1707 25.5884C47.3676 23.3914 47.3676 19.8371 45.1707 17.6401C44.0722 16.5416 42.6328 15.9924 41.1934 15.9924Z" fill="#424242"/>
<path d="M29.6023 37.9811C31.8477 37.9811 33.668 36.1608 33.668 33.9154C33.668 31.67 31.8477 29.8498 29.6023 29.8498C27.3569 29.8498 25.5366 31.67 25.5366 33.9154C25.5366 36.1608 27.3569 37.9811 29.6023 37.9811Z" fill="#455A64"/>
<path d="M44.5203 3.49866C43.3523 9.26257 53.5291 20.5505 60.3663 19.5467C62.4938 14.0479 63.365 10.3169 63.9458 3.89639C64.2425 0.645116 63.2893 -0.282917 60.2779 0.070619C52.2918 1.00497 49.1352 1.61103 44.5203 3.49866Z" fill="#E53935"/>
<path opacity="0.2" d="M61.3575 1.89512C61.7363 1.89512 61.9257 1.93931 61.9952 1.96456C62.0457 2.0782 62.1719 2.52012 62.0646 3.72593C61.5027 9.94439 60.6946 13.4798 58.605 18.8712C57.0015 23.0694 53.9459 27.9369 51.1744 30.7083C41.509 40.3738 31.3574 46.3839 24.6781 46.3839C22.8789 46.3839 21.3511 45.9483 20.139 45.0897L19.9306 44.9445C19.6087 44.7235 19.3372 44.5278 19.1099 44.3258C18.0872 43.4041 17.5443 41.9963 17.4938 40.1402C17.317 33.3851 23.6175 22.2361 32.8221 13.0315C35.7072 10.1464 40.7956 6.95195 45.1895 5.27266L45.2274 5.25372C49.6908 3.42922 52.7969 2.85472 60.4863 1.95194C60.8209 1.91406 61.1113 1.89512 61.3575 1.89512ZM61.3575 0.00117493C61.0292 0.00117493 60.6757 0.0264279 60.278 0.07062C52.2918 1.00497 49.1353 1.61103 44.5204 3.49866C40.0254 5.21584 34.6908 8.48605 31.49 11.6868C18.7374 24.4394 11.7172 40.216 17.8473 45.7273C18.2135 46.0556 18.6238 46.3334 19.0468 46.6301C20.6251 47.7475 22.5316 48.2715 24.6781 48.2715C32.2413 48.2715 42.7716 41.7879 52.5191 32.0467C55.581 28.9849 58.7123 23.9091 60.3727 19.5467C62.5002 14.0479 63.3714 10.3169 63.9522 3.89639C64.1984 1.07441 63.5166 0.00117493 61.3575 0.00117493Z" fill="#424242"/>
<path opacity="0.2" d="M29.6024 31.1124C30.3537 31.1124 31.0545 31.4028 31.5848 31.9331C32.1151 32.4634 32.4055 33.1642 32.4055 33.9154C32.4055 34.6667 32.1151 35.3674 31.5848 35.8977C31.0545 36.428 30.3537 36.7185 29.6024 36.7185C28.8512 36.7185 28.1504 36.428 27.6201 35.8977C27.0898 35.3674 26.7994 34.6667 26.7994 33.9154C26.7994 33.1642 27.0898 32.4634 27.6201 31.9331C28.1567 31.4028 28.8575 31.1124 29.6024 31.1124ZM29.6024 29.8497C28.5608 29.8497 27.5254 30.2475 26.73 31.0429C25.1454 32.6275 25.1454 35.2033 26.73 36.7879C27.5254 37.5834 28.5608 37.9811 29.6024 37.9811C30.6441 37.9811 31.6795 37.5834 32.4749 36.7879C34.0595 35.2033 34.0595 32.6275 32.4749 31.0429C31.6858 30.2475 30.6441 29.8497 29.6024 29.8497Z" fill="#424242"/>
<path d="M63.3104 38.4115H48.6895C47.114 38.4115 45.8247 39.7864 45.8247 41.4635C45.8247 43.1433 47.114 44.5155 48.6895 44.5155H63.3077C64.8833 44.5155 66.1725 43.1407 66.1725 41.4635C66.1752 39.7864 64.8859 38.4115 63.3104 38.4115Z" fill="#7A4C32"/>
<path d="M55.9999 27.8831C51.3456 27.8831 47.0337 32.8611 47.0337 40.0244C47.0337 40.4497 47.0497 40.8616 47.0818 41.2629V41.2656C47.1648 42.3489 47.3574 43.3359 47.6409 44.232C47.6837 44.3684 47.7292 44.5022 47.7773 44.6332V44.6359C47.8067 44.7188 47.8362 44.7991 47.8683 44.8766C47.8923 44.9408 47.9164 45.005 47.9432 45.0666C47.9806 45.1602 48.0207 45.2538 48.0608 45.3447C48.1277 45.4972 48.1973 45.6443 48.2695 45.7861C48.2695 45.7915 48.2722 45.7968 48.2748 45.7995C48.3203 45.8878 48.3658 45.976 48.4113 46.0616C48.4567 46.1472 48.5049 46.2328 48.553 46.3157C49.3154 47.6345 50.3211 48.6536 51.4633 49.3705C51.6987 49.5202 51.9394 49.6567 52.1855 49.777C52.3407 49.8573 52.5012 49.9322 52.659 49.999C52.8302 50.0713 53.004 50.1381 53.1779 50.197C53.2555 50.2264 53.3304 50.2505 53.4079 50.2746C53.4588 50.2906 53.5096 50.3067 53.5577 50.32C53.5631 50.3227 53.5684 50.3227 53.5711 50.3227C53.6059 50.3361 53.6407 50.3441 53.6754 50.3521C53.7289 50.3709 53.7824 50.3842 53.8359 50.3949C53.8734 50.4083 53.9081 50.4163 53.9429 50.4244C53.9964 50.4377 54.0499 50.4511 54.1034 50.4591C54.7267 50.6036 55.3633 50.6731 55.9999 50.6731C56.6365 50.6731 57.2731 50.6036 57.8937 50.4591C57.9472 50.4511 58.0007 50.4377 58.0569 50.4244C58.089 50.4163 58.1238 50.4083 58.1585 50.3976C58.212 50.3842 58.2682 50.3709 58.3244 50.3521C58.3538 50.3468 58.3859 50.3388 58.418 50.3254C58.4207 50.3281 58.426 50.3254 58.4314 50.3227C58.4849 50.3093 58.5384 50.2933 58.5919 50.2746C58.6694 50.2505 58.7443 50.2264 58.8219 50.197C58.9958 50.1381 59.1696 50.0713 59.3435 49.9964C59.496 49.9322 59.6484 49.8626 59.7982 49.7877C59.8036 49.7851 59.8089 49.7824 59.8143 49.777C61.2641 49.0548 62.5453 47.8886 63.4682 46.2783C63.5163 46.1954 63.5618 46.1098 63.6073 46.0242C63.6501 45.9466 63.6902 45.8664 63.7303 45.7861C63.7357 45.7781 63.741 45.7701 63.7437 45.7594C63.8132 45.6256 63.8774 45.4865 63.939 45.3447C63.9737 45.2645 64.0112 45.1816 64.0433 45.0987C64.0754 45.0264 64.1048 44.9515 64.1315 44.8766C64.1583 44.8098 64.1824 44.7429 64.2064 44.676C64.2573 44.545 64.3027 44.4085 64.3455 44.2721C64.6371 43.3653 64.835 42.3596 64.9206 41.2549C64.9206 41.2522 64.9206 41.2522 64.9206 41.2522C64.9501 40.8536 64.9661 40.447 64.9661 40.0244C64.9661 32.8611 60.6542 27.8831 55.9999 27.8831Z" fill="#A56C43"/>
<path d="M51.6024 42.0172C52.3307 42.0172 52.9211 41.4064 52.9211 40.653C52.9211 39.8996 52.3307 39.2888 51.6024 39.2888C50.8741 39.2888 50.2837 39.8996 50.2837 40.653C50.2837 41.4064 50.8741 42.0172 51.6024 42.0172Z" fill="#42312C"/>
<path d="M60.3976 42.0172C61.1259 42.0172 61.7163 41.4064 61.7163 40.653C61.7163 39.8996 61.1259 39.2888 60.3976 39.2888C59.6693 39.2888 59.0789 39.8996 59.0789 40.653C59.0789 41.4064 59.6693 42.0172 60.3976 42.0172Z" fill="#42312C"/>
<path d="M57.0326 43.1273C57.0032 43.1166 56.9764 43.1086 56.947 43.1059H55.0558C55.0264 43.1086 54.997 43.1166 54.9703 43.1273C54.7991 43.1968 54.7054 43.3734 54.7857 43.5633C54.8659 43.7532 55.2431 44.2828 56.0028 44.2828C56.7624 44.2828 57.1396 43.7505 57.2198 43.5633C57.2974 43.3734 57.2038 43.1968 57.0326 43.1273Z" fill="#875334"/>
<path d="M57.6986 47.1931C57.6986 48.0437 56.9389 48.2229 56.0001 48.2229C55.0612 48.2229 54.3015 48.0277 54.3015 47.1931C54.3015 46.3157 55.0612 45.7754 56.0001 45.7754C56.9389 45.7754 57.6986 46.297 57.6986 47.1931Z" fill="#473530"/>
<path d="M55.9734 50.518V47.9929L63.6155 47.3884L64.311 48.2443C64.311 48.2443 62.6659 50.5207 58.3647 50.5207L55.9734 50.518Z" fill="url(#paint3_radial_424_129)"/>
<path d="M55.9839 50.518V47.9929L48.3417 47.3884L47.6462 48.2443C47.6462 48.2443 49.2913 50.5207 53.5925 50.5207L55.9839 50.518Z" fill="url(#paint4_radial_424_129)"/>
<path d="M67.7186 58.0638C67.7186 53.3453 61.866 50.9513 55.9759 50.9593C50.1232 50.9674 44.2332 53.0671 44.2332 58.0638H67.7186Z" fill="url(#paint5_linear_424_129)"/>
<path opacity="0.4" d="M67.7455 57.9354C67.4512 54.1692 61.8928 51.5157 56.0027 51.5237C50.1501 51.5318 45.124 53.6342 44.26 57.9354H67.7455Z" fill="url(#paint6_linear_424_129)"/>
<path d="M44.7014 46.84L41.521 45.4839C41.077 45.2939 40.871 44.783 41.0609 44.339L41.085 44.2828C41.2749 43.8388 41.7858 43.6328 42.2298 43.8228L45.4103 45.1762C45.8543 45.3662 45.1455 47.0273 44.7014 46.84Z" fill="#875334"/>
<path d="M49.3101 45.2859C49.3101 45.2859 44.4873 42.2499 43.3077 41.2468C42.6095 40.653 41.8418 39.6339 41.4433 39.1444C41.0822 38.7003 40.0711 39.2032 40.0095 39.773C39.9721 40.1073 40.039 40.5166 40.3145 41.0007C40.3145 41.0007 42.104 45.2752 44.2492 46.717L47.1836 48.0063L49.3101 45.2859Z" fill="url(#paint7_linear_424_129)"/>
<path d="M66.218 52.7943L48.5798 44.4406C48.5156 44.4112 48.446 44.3978 48.3792 44.3978C48.2133 44.3978 48.0528 44.4834 47.9619 44.6359L46.2259 47.6826C46.0948 47.9046 46.1644 48.1908 46.381 48.3299L61.133 58.0638H69.821C69.5562 55.8383 68.2241 53.8616 66.218 52.7943Z" fill="url(#paint8_linear_424_129)"/>
<path d="M63.3213 51.4515L57.2974 55.5575L49.4734 50.3655L55.0131 47.49L63.3213 51.4515Z" fill="url(#paint9_linear_424_129)"/>
<path d="M67.2961 46.84L70.4765 45.4865C70.9205 45.2966 71.1265 44.7857 70.9366 44.3417L70.9125 44.2855C70.7226 43.8415 70.2117 43.6355 69.7676 43.8254L66.5872 45.1789C66.1459 45.3662 66.852 47.0273 67.2961 46.84Z" fill="#875334"/>
<path d="M62.6899 45.2859C62.6899 45.2859 67.5128 42.2499 68.6924 41.2468C69.3905 40.653 70.1582 39.6339 70.5568 39.1444C70.9179 38.7003 71.929 39.2032 71.9905 39.773C72.028 40.1073 71.9611 40.5166 71.6856 41.0007C71.6856 41.0007 69.8961 45.2752 67.7508 46.717L64.8165 48.0063L62.6899 45.2859Z" fill="url(#paint10_linear_424_129)"/>
<path d="M65.7258 47.6826L63.9871 44.6359C63.8988 44.4834 63.7383 44.3978 63.5698 44.3978C63.5029 44.3978 63.4334 44.4112 63.3692 44.4406L45.7337 52.7943C43.7275 53.8616 42.3954 55.8383 42.1306 58.0638H50.8186L65.5706 48.3272C65.7846 48.1882 65.8542 47.9046 65.7258 47.6826Z" fill="url(#paint11_linear_424_129)"/>
<path d="M56.0054 26C56.0027 26 56.0027 26 56 26C55.9974 26 55.9974 26 55.9947 26C43.8427 26.0642 46.333 39.9468 46.333 39.9468C46.333 39.9468 46.8787 41.3779 47.1275 42.0092C47.1622 42.1001 47.296 42.0894 47.3174 41.9958C47.5742 40.8349 48.5104 36.7183 48.9812 35.4664C49.2593 34.7281 50.0244 34.3002 50.8001 34.4419C51.9904 34.6586 53.8896 34.9261 55.9813 34.9261H56.0027C56.0027 34.9261 56.0188 34.9261 56.0241 34.9261C58.1159 34.9261 60.015 34.6586 61.2054 34.4419C61.9811 34.3002 62.7461 34.7308 63.0216 35.4664C63.4897 36.7129 64.4179 40.8055 64.68 41.9824C64.7014 42.0787 64.8352 42.0867 64.87 41.9958L65.6671 39.9442C65.6698 39.9468 68.1601 26.0642 56.0054 26Z" fill="#3C2C23"/>
<path d="M65.6696 39.9468C65.6696 39.9468 68.1599 26.0642 56.0053 26C56.0026 26 56.0026 26 55.9999 26C55.9973 26 55.9973 26 55.9946 26C55.8047 26 55.6201 26.0053 55.4382 26.0134C55.0798 26.0294 54.7294 26.0562 54.395 26.0963C54.3923 26.0963 54.387 26.0963 54.3843 26.0963C54.3602 26.099 54.3388 26.1043 54.3148 26.107C44.0833 27.3936 46.3329 39.9468 46.3329 39.9468L47.13 42.0012C47.1648 42.0921 47.2959 42.0841 47.3173 41.9878C47.5794 40.8135 48.5103 36.7156 48.981 35.4691C49.2592 34.7308 50.0242 34.3028 50.8 34.4446C51.9903 34.6613 53.8894 34.9288 55.9812 34.9288H56.0026C56.0026 34.9288 56.0187 34.9288 56.024 34.9288C58.1158 34.9288 60.0149 34.6613 61.2053 34.4446C61.981 34.3028 62.746 34.7335 63.0215 35.4691C63.4923 36.7209 64.4258 40.8456 64.6826 42.0012C64.704 42.0974 64.8351 42.1055 64.8698 42.0145C65.1213 41.3833 65.6696 39.9468 65.6696 39.9468Z" fill="url(#paint12_radial_424_129)"/>
<path d="M49.5882 37.9594C50.4388 36.753 52.4396 36.7129 53.4427 37.7401C53.6166 37.9193 53.8011 38.1493 53.6701 38.4088C53.5256 38.695 53.2287 38.6495 52.9853 38.5506C52.3353 38.2884 51.6639 38.1707 50.9658 38.3125C50.6635 38.374 50.404 38.4997 50.1178 38.6014C49.73 38.7351 49.3394 38.3312 49.5882 37.9594Z" fill="#42312C"/>
<path d="M61.9087 38.6014C61.3122 38.3419 60.7077 38.1921 60.0497 38.267C59.7501 38.3018 59.4559 38.3794 59.1777 38.489C58.9557 38.5773 58.7176 38.7191 58.4876 38.5639C57.8322 38.1119 58.9931 37.3763 59.3355 37.2292C60.0738 36.9108 60.9538 36.9403 61.668 37.3121C61.9515 37.4592 62.2591 37.6732 62.4277 37.9541C62.639 38.3045 62.3233 38.7699 61.9087 38.6014Z" fill="#42312C"/>
<defs>
<linearGradient id="paint0_linear_424_129" x1="20.4129" y1="53.2703" x2="-0.00631301" y2="53.2703" gradientUnits="userSpaceOnUse">
<stop stop-color="#FF6D00"/>
<stop offset="0.2487" stop-color="#FF9B00"/>
<stop offset="0.5135" stop-color="#FFC600"/>
<stop offset="0.721" stop-color="#FFE000"/>
<stop offset="0.8439" stop-color="#FFEA00"/>
</linearGradient>
<linearGradient id="paint1_linear_424_129" x1="13.488" y1="49.8789" x2="2.91659" y2="60.7716" gradientUnits="userSpaceOnUse">
<stop offset="0.0044475" stop-color="#C62828"/>
<stop offset="0.2711" stop-color="#D75327"/>
<stop offset="0.5983" stop-color="#E98126"/>
<stop offset="0.8504" stop-color="#F59D25"/>
<stop offset="0.9953" stop-color="#F9A825"/>
</linearGradient>
<radialGradient id="paint2_radial_424_129" cx="0" cy="0" r="1" gradientUnits="userSpaceOnUse" gradientTransform="translate(43.1883 12.3434) rotate(180) scale(23.026)">
<stop offset="0.0112" stop-color="#F5F5F5"/>
<stop offset="0.9995" stop-color="#BDBDBD"/>
</radialGradient>
<radialGradient id="paint3_radial_424_129" cx="0" cy="0" r="1" gradientUnits="userSpaceOnUse" gradientTransform="translate(59.8768 46.8695) scale(6.26431 3.07703)">
<stop offset="0.7275" stop-color="#554138" stop-opacity="0"/>
<stop offset="1" stop-color="#554138"/>
</radialGradient>
<radialGradient id="paint4_radial_424_129" cx="0" cy="0" r="1" gradientUnits="userSpaceOnUse" gradientTransform="translate(52.0809 46.8695) rotate(180) scale(6.26431 3.07703)">
<stop offset="0.7275" stop-color="#554138" stop-opacity="0"/>
<stop offset="1" stop-color="#554138"/>
</radialGradient>
<linearGradient id="paint5_linear_424_129" x1="55.9756" y1="44.6744" x2="55.9756" y2="57.889" gradientUnits="userSpaceOnUse">
<stop stop-color="#00BFA5"/>
<stop offset="0.4701" stop-color="#00B29A"/>
<stop offset="1" stop-color="#009E89"/>
</linearGradient>
<linearGradient id="paint6_linear_424_129" x1="56.0027" y1="54.9224" x2="56.0027" y2="57.9381" gradientUnits="userSpaceOnUse">
<stop offset="0.2651" stop-color="#212121"/>
<stop offset="1" stop-color="#212121" stop-opacity="0"/>
</linearGradient>
<linearGradient id="paint7_linear_424_129" x1="39.9969" y1="43.4912" x2="46.956" y2="43.4912" gradientUnits="userSpaceOnUse">
<stop offset="0.5999" stop-color="#A56C43"/>
<stop offset="1" stop-color="#8D5738"/>
</linearGradient>
<linearGradient id="paint8_linear_424_129" x1="57.991" y1="44.6744" x2="57.991" y2="57.889" gradientUnits="userSpaceOnUse">
<stop stop-color="#00BFA5"/>
<stop offset="0.4701" stop-color="#00B29A"/>
<stop offset="1" stop-color="#009E89"/>
</linearGradient>
<linearGradient id="paint9_linear_424_129" x1="54.5566" y1="47.6222" x2="58.1786" y2="54.0893" gradientUnits="userSpaceOnUse">
<stop stop-color="#212121" stop-opacity="0"/>
<stop offset="0.5036" stop-color="#212121"/>
<stop offset="1" stop-color="#212121" stop-opacity="0"/>
</linearGradient>
<linearGradient id="paint10_linear_424_129" x1="71.3769" y1="43.4912" x2="64.5801" y2="43.4912" gradientUnits="userSpaceOnUse">
<stop offset="0.5999" stop-color="#A56C43"/>
<stop offset="1" stop-color="#8D5738"/>
</linearGradient>
<linearGradient id="paint11_linear_424_129" x1="53.9605" y1="44.6744" x2="53.9605" y2="57.889" gradientUnits="userSpaceOnUse">
<stop stop-color="#00BFA5"/>
<stop offset="0.4701" stop-color="#00B29A"/>
<stop offset="1" stop-color="#009E89"/>
</linearGradient>
<radialGradient id="paint12_radial_424_129" cx="0" cy="0" r="1" gradientUnits="userSpaceOnUse" gradientTransform="translate(56.0019 37.5202) scale(10.1893 11.4956)">
<stop offset="0.7945" stop-color="#554138" stop-opacity="0"/>
<stop offset="1" stop-color="#554138"/>
</radialGradient>
</defs>
</svg>
