<svg width="39" height="28" viewBox="0 0 39 28" fill="none" xmlns="http://www.w3.org/2000/svg">
<path d="M17.9932 23.9715C17.9932 23.9715 18.3199 25.3621 20.1298 26.3964C21.2706 27.048 23.6693 27.7241 24.894 26.8192C26.2882 25.7884 26.5887 24.7681 26.6551 24.3925C26.7214 24.0169 26.5223 22.9809 26.5223 22.9809L24.2284 22.165C24.2284 22.165 20.4355 23.091 20.3692 23.091C20.3045 23.0927 17.9932 23.9715 17.9932 23.9715Z" fill="#E06767"/>
<path d="M26.5294 24.8398C26.58 24.7087 26.6115 24.5969 26.6342 24.5043C26.2289 24.396 25.7589 24.2213 25.3326 24.0396C25.3676 24.0239 25.4025 24.0082 25.4357 23.9907C25.6454 23.8841 25.8515 23.7601 26 23.5784C26.1607 23.3827 26.2341 23.1294 26.2254 22.8761L24.2285 22.165C24.2285 22.165 20.4356 23.091 20.3693 23.091C20.3029 23.091 17.9933 23.9697 17.9915 23.9715C17.9618 23.982 18.2064 24.4956 18.2221 24.5218C18.444 24.9358 18.9541 25.5124 19.3035 25.8251C19.3035 25.8251 19.1428 25.4547 19.4468 25.3167C19.5813 25.2556 19.7438 25.2853 19.8818 25.3394C20.2277 25.4774 20.661 26.0085 21.7442 26.5781C22.4797 26.9659 23.2362 27.2629 23.4808 27.2524C23.8075 27.2385 24.3997 27.0795 24.3997 27.0795C24.3997 27.0795 23.645 27.0078 22.4325 26.4436C22.0656 26.2723 20.7082 25.605 20.5789 25.2328C20.5422 25.128 20.4112 24.9428 20.6488 24.838C21.0122 24.6755 22.0027 25.5298 22.8536 25.9212C23.8669 26.3859 24.971 26.758 24.971 26.758C25.0898 26.6672 25.2016 26.5763 25.3064 26.4855C24.7421 26.3405 24.1901 26.1413 23.6572 25.909C23.1261 25.6783 22.6055 25.3796 22.125 25.0511C21.8193 24.8415 21.6079 24.4886 21.9364 24.4432C22.4745 24.3681 23.1698 24.8799 23.8669 25.2416C24.4958 25.5683 25.2505 25.7185 25.9581 25.8076C26.0489 25.6941 26.1974 25.4774 26.1974 25.4774C26.1974 25.4774 25.9301 25.432 25.1405 25.2573C24.7945 25.1804 24.4591 25.0808 24.1516 24.9079C24.0713 24.8625 23.79 24.5742 24.1743 24.4414C24.5587 24.3087 24.9238 24.5725 25.5038 24.707C26.0856 24.845 26.5241 24.852 26.5294 24.8398Z" fill="#B05353"/>
<path d="M27.8589 17.6122C27.8589 17.6122 27.8152 16.1971 27.0552 14.9444C26.4001 13.8648 25.4654 13.7547 25.4654 13.7547C25.4654 13.7547 25.2802 13.0751 24.6303 12.5545C23.9804 12.0338 22.6439 11.5988 22.6439 11.5988C19.9674 10.3934 18.299 11.3805 18.299 11.3805C18.299 11.3805 14.3297 10.437 11.1518 13.1327C11.1518 13.1327 9.54801 13.8875 8.89287 15.3131C8.53123 16.1027 8.68672 17.3903 8.68672 17.3903C7.57384 18.6831 7.87958 20.7307 9.12872 21.7562C9.72447 22.2436 10.46 22.5668 11.2269 22.6489C11.5274 22.6804 11.6794 22.6088 11.8052 22.9145C11.9904 23.3652 12.1354 23.8282 12.5075 24.1514C12.8866 24.4799 13.3286 24.7349 13.7986 24.9096C14.7106 25.2468 15.7413 25.2835 16.662 24.9533C16.9678 24.8432 17.9478 24.8328 17.9478 24.8328C17.9478 24.8328 18.4667 25.2608 20.3081 25.1927C22.1495 25.1245 22.927 24.3296 23.348 24.1811C23.6712 24.0676 24.0678 23.8177 24.4207 23.8824C24.6216 23.9191 24.8015 24.0221 24.985 24.1095C25.4986 24.3558 26.0751 24.4903 26.6412 24.4379C28.7813 24.2405 29.0067 21.7754 28.7953 20.0808C28.5822 18.3704 27.8589 17.6122 27.8589 17.6122Z" fill="#FFB3B3"/>
<path d="M12.0516 20.9578C12.0079 21.0574 11.5712 22.0113 11.2043 22.165C10.5701 22.4323 9.58825 21.7964 9.21263 21.6217C9.13926 21.5867 9.09034 21.6741 9.09034 21.6741C9.02919 21.7527 9.18818 21.9152 9.26854 21.9728C9.57952 22.1965 10.3255 22.7031 10.8793 22.8411C11.5939 23.0193 12.1302 22.8411 12.1302 22.8411C12.1302 22.8411 12.3259 21.4103 12.3416 21.3456C12.3573 21.281 12.3416 20.7115 12.3416 20.7115L12.0516 20.9578Z" fill="#EA6363"/>
<path d="M18.2937 24.9952C18.2937 24.9952 17.9338 24.9393 17.3818 24.9481C16.8297 24.9568 16.0522 25.1158 16.0522 25.1158C16.0522 25.1158 16.6008 24.866 16.8454 24.6476C17.09 24.4274 17.1389 23.8928 17.0987 23.5749C17.0568 23.2499 16.9467 23.0857 16.1151 22.9128L18.6064 22.7747C17.7713 23.3303 17.6194 24.4746 18.2937 24.9952Z" fill="#F07371"/>
<path d="M25.8357 19.7384C25.4024 19.796 24.9814 19.7139 24.6075 19.492C24.445 19.3942 24.4276 19.1636 24.5708 19.0395C24.6669 18.9574 24.8049 18.9522 24.9115 19.0221C25.516 19.4186 26.131 19.1583 26.4594 18.9539C27.298 18.4316 27.7138 17.5056 27.6579 16.5343C27.8256 16.8313 27.9479 17.1597 27.9776 17.4986C28.0527 18.3215 27.4605 18.9627 26.7983 19.3767C26.4821 19.5759 26.1554 19.6964 25.8357 19.7384Z" fill="#F07371"/>
<path d="M27.7087 20.5577C27.52 20.5577 27.3156 20.5175 27.1217 20.3987C26.9225 20.2764 26.8107 20.1122 26.7111 19.9096C26.629 19.7436 26.5137 19.6405 26.3023 19.6562C26.1538 19.6685 26.0106 19.7523 25.8621 19.7314C26.0595 19.382 26.3757 19.1024 26.7478 18.9504C26.919 18.8806 27.1112 18.8369 27.2859 18.891C27.3051 19.0133 27.223 19.1269 27.1758 19.2422C27.0937 19.4466 27.1269 19.6912 27.2597 19.8659C27.3506 19.9847 27.5235 20.1122 27.6825 20.1017C27.7873 20.0948 27.8607 20.0057 27.9638 19.9969C28.2835 19.9742 28.3638 20.4424 28.0494 20.5158C27.948 20.5403 27.8327 20.5577 27.7087 20.5577Z" fill="#F07371"/>
<path d="M24.6339 14.0797C24.5064 14.0954 24.3771 14.0814 24.3107 13.9696C24.2251 13.8246 24.2967 13.6429 24.4557 13.587C24.8942 13.4332 25.3869 13.4612 25.8149 13.6324C26.1888 13.7827 26.4141 14.0377 26.5626 14.2107C26.7111 14.3836 26.8125 14.7261 26.8125 14.7261C26.4403 14.4029 26.2289 13.8945 24.6339 14.0797Z" fill="#F07371"/>
<path d="M22.9602 13.7425C22.5828 13.7267 22.9497 13.7425 22.9462 13.7425C22.3487 13.7425 21.6341 13.5363 21.5381 12.855C21.3651 11.6146 23.196 12.0967 23.8669 12.1893C23.8669 12.1893 23.3375 11.646 22.6439 11.5988C22.3207 11.5779 21.9871 11.5866 21.6726 11.6705C21.3267 11.7631 21.152 12.0234 20.8375 12.1526C20.5999 12.2487 20.3291 12.212 20.0845 12.1387C19.8591 12.0705 19.1271 11.6775 19.1062 12.1666C19.1009 12.3011 19.197 12.4165 19.328 12.4357C19.8591 12.5108 20.5929 12.7484 20.8654 13.255C20.9912 13.4874 21.0209 13.7687 20.9476 14.022C20.9126 14.146 20.862 14.305 20.965 14.3836C21.0436 14.4448 21.1642 14.4046 21.2358 14.3347C21.3074 14.2648 21.3529 14.1705 21.4245 14.1006C21.6481 13.8805 21.8508 14.0377 22.0884 14.1216C22.3627 14.2194 22.6527 14.2666 22.9444 14.2666C22.9514 14.2666 22.4326 14.2159 22.9637 14.2666C23.493 14.3155 23.3358 13.7582 22.9602 13.7425Z" fill="#F07371"/>
<path d="M14.5621 13.1729C14.2721 12.9109 14.1341 11.8906 14.9674 11.3647C14.9674 11.3647 14.5132 11.3805 14.1341 11.6775C13.8109 11.9308 13.7463 12.3693 13.8231 12.8323C13.8423 12.9511 13.7497 13.0594 13.6292 13.0524C13.1959 13.0297 12.7644 13.1083 12.3923 13.2795C12.2508 13.3459 12.2019 13.5241 12.2857 13.6569C12.3573 13.7687 12.4989 13.8071 12.6194 13.7512C13.037 13.559 13.6449 13.456 14.1324 13.5782C14.6268 13.7023 14.9744 13.8455 15.3623 14.5182C15.4287 14.6317 15.5719 14.6719 15.6802 14.5985C15.7641 14.5409 15.799 14.4326 15.7641 14.3382C15.4322 13.4228 14.9535 13.5258 14.5621 13.1729Z" fill="#F07371"/>
<path d="M15.6434 16.3194C15.6015 16.1761 15.4547 16.0975 15.3167 16.1394C14.8974 16.2652 14.2912 16.2285 14.0204 15.956C13.6587 15.1191 13.3845 14.9706 12.9459 14.8221C12.7712 14.7627 12.5965 14.913 12.614 15.0947C12.6245 15.1978 12.6926 15.2851 12.7922 15.3148C13.1032 15.4074 13.4159 15.825 13.5766 16.2512C13.7234 16.6373 13.7409 17.1457 13.4089 17.5091C13.3233 17.6035 13.3058 17.7397 13.381 17.8428L13.3845 17.848C13.4805 17.9808 13.6727 17.9913 13.7845 17.8708C13.9033 17.7415 14.0274 17.5738 14.0798 17.4043C14.1339 17.2243 14.1182 17.0636 14.2737 16.9204C14.4467 16.7596 14.6109 16.7928 14.8188 16.7928C15.0319 16.7928 15.2608 16.716 15.4617 16.6443C15.598 16.6006 15.6853 16.4556 15.6434 16.3194Z" fill="#F07371"/>
<path d="M10.287 18.6884C10.2276 18.6884 10.17 18.6866 10.1088 18.6814C9.29992 18.6115 8.87539 18.0297 8.68321 17.3921C8.49103 16.7544 8.65351 16.0608 8.65351 16.0608C8.8981 17.9476 9.88169 18.1346 10.1542 18.159C10.6696 18.2044 11.1623 17.9808 11.2968 17.6401C11.5099 17.1021 10.8565 16.5744 10.5368 16.2477C10.3254 16.0311 10.2468 15.6625 10.3027 15.3707C10.3307 15.2205 10.3971 15.0737 10.5211 14.9776C10.6434 14.8833 10.9509 14.7977 10.909 15.0667C10.8967 15.1506 10.8426 15.2205 10.8094 15.2973C10.57 15.8424 11.4208 16.3473 11.6532 16.7509C11.8436 17.0776 11.9275 17.4724 11.7842 17.8323C11.5816 18.346 10.9684 18.6884 10.287 18.6884Z" fill="#F07371"/>
<path d="M10.1 18.5486C10.2416 18.5661 10.3866 18.5416 10.5141 18.4787C10.6364 18.4193 10.7465 18.325 10.881 18.3145C10.9456 18.311 11.026 18.3495 11.0155 18.4123C11.012 18.4351 11.1605 18.477 11.1413 18.4892C10.7936 18.7058 9.91311 18.9207 10.5211 20.4809C10.57 20.6049 10.5316 20.7447 10.418 20.8128C10.2852 20.8932 10.1088 20.8407 10.0459 20.6992C9.87992 20.3341 9.79955 19.9305 9.80479 19.5287C9.81004 19.1374 9.85022 18.7949 9.58816 18.4682C9.56021 18.4351 9.53051 18.3879 9.55322 18.3512C9.5672 18.3285 9.59515 18.3198 9.62135 18.3128C9.72967 18.2848 9.84498 18.2551 9.95504 18.2778C10.004 18.2883 10.5508 18.5905 10.556 18.5801" fill="#F07371"/>
<path d="M25.6855 21.0714C25.3239 21.0277 24.9517 21.0539 24.6093 21.1832C24.3193 21.2932 24.1027 21.5151 23.769 21.4417C23.5698 21.3981 23.3934 21.2705 23.2693 21.108C23.0073 20.7674 23.0422 20.4092 23.14 20.0214C23.2379 19.637 23.2274 19.1915 23.0544 18.8299C23.009 18.7338 22.9321 18.6482 22.8326 18.6133C22.7312 18.5783 22.6072 18.608 22.5478 18.6971C22.4884 18.788 22.5111 18.9085 22.5321 19.0151C22.6002 19.3418 22.6876 19.6947 22.5897 20.0144C22.4971 20.3184 22.3696 20.5909 22.1512 20.825C21.7372 21.2705 21.1362 21.4749 20.6173 21.3439C20.2347 21.2478 19.9255 20.9805 19.7176 20.5717C19.6442 20.252 19.5673 19.8362 19.1707 19.7908C19.0904 19.782 19.003 19.7943 18.9419 19.8449C18.8807 19.8973 18.8528 19.9812 18.8528 20.0616C18.8528 20.2625 19.045 20.4127 19.0799 20.6101C19.19 21.2146 18.7881 21.9065 18.1784 22.2419C17.7067 22.5022 16.4121 22.6489 15.2521 21.6758C15.2032 21.6339 15.2032 21.5535 15.156 21.5099C15.1246 21.4819 15.0844 21.4644 15.0442 21.4575C14.8712 21.4243 14.6913 21.5885 14.707 21.7632C14.721 21.9222 14.852 22.0445 14.9691 22.1528C15.2731 22.4358 15.1368 22.5494 15.0844 22.7014C15.0722 22.7398 15.0494 22.7747 15.0459 22.8149C15.0355 22.9267 15.2067 22.89 15.3185 22.8813C15.4303 22.8726 15.5316 22.8114 15.6399 22.78C15.7762 22.7415 16.3999 22.9704 16.5222 22.9966C16.8769 23.0735 16.9992 23.1084 17.3049 23.1084C17.6875 23.1084 18.0124 23.3058 18.292 23.0438C18.6903 22.6717 18.9995 22.4288 19.3524 22.3083C19.5271 22.2489 19.7368 22.2192 19.8835 22.3327C19.9884 22.4131 20.0355 22.5476 20.0722 22.6734C20.1473 22.932 20.2032 23.1958 20.3133 23.4421C20.4234 23.6867 20.5981 23.9156 20.8427 24.0256C20.9195 24.0606 21.0069 24.0833 21.0908 24.0641C21.1746 24.0448 21.248 23.9732 21.2497 23.8894C21.2515 23.8317 21.2218 23.7793 21.1903 23.7321C21.0698 23.5399 20.9265 23.3617 20.82 23.1626C20.7134 22.9634 20.6435 22.7311 20.6872 22.5092C20.7675 22.0986 21.2427 21.9833 21.5834 21.8802C21.9101 21.7807 22.2368 21.5937 22.588 21.6129C22.8081 21.6252 23.2746 21.882 23.4143 22.0532C23.4423 22.0881 23.4545 22.1318 23.4615 22.1772C23.5209 22.5459 23.2501 22.8778 22.9933 23.1469C22.9479 23.194 22.9007 23.2657 22.9391 23.3198C22.9531 23.339 22.9741 23.3495 22.995 23.3565C23.1802 23.4281 23.3969 23.3652 23.5541 23.2447C23.9 22.9826 24.0206 22.5336 24.3158 22.2227C24.5587 21.9693 24.8854 21.8034 25.2155 21.6951C26.3966 21.3072 26.4577 22.2366 26.6691 22.7573C26.8805 23.2779 27.1932 22.918 27.1967 22.7747C27.2089 22.0951 26.7739 21.2006 25.6855 21.0714Z" fill="#F07371"/>
<path d="M14.6248 23.83C14.4449 23.8195 14.3261 23.6325 14.3995 23.4666C14.5165 23.201 14.7366 22.9372 15.0214 22.7346C15.4547 22.4271 15.888 22.3712 16.323 22.4952L16.4121 22.939C16.1308 22.8586 15.6276 22.9477 15.3254 23.1626C15.107 23.3181 14.9568 23.5085 14.8834 23.6675C14.8362 23.7706 14.7366 23.8369 14.6248 23.83Z" fill="#F07371"/>
<path d="M25.9388 15.7778C25.9056 15.5559 25.7326 15.3498 25.509 15.3428C25.399 15.3393 25.2767 15.3969 25.247 15.5035C25.233 15.5507 25.24 15.6031 25.2417 15.652C25.2557 16.0154 24.9639 16.3665 24.604 16.4172C24.197 16.4749 23.8965 16.2233 23.589 16.0136C23.2955 15.8145 22.9286 15.68 22.5897 15.5839C21.6865 15.3305 20.909 15.5 20.3168 16.246C20.0967 16.5238 19.887 16.8278 19.5778 16.999C19.0921 17.268 18.0666 17.2872 17.7643 16.7596C17.3678 16.0695 17.3538 13.9486 18.6256 14.1897C19.0187 14.2648 19.3105 14.6055 19.3384 14.8588C19.3559 15.0196 19.2563 15.1593 19.1288 15.2677C19.0309 15.3515 19.01 15.493 19.0764 15.6013C19.1602 15.7394 19.3489 15.7691 19.4712 15.666C19.8294 15.3585 19.8853 15.0353 19.8591 14.8012C19.7769 14.0552 18.9366 13.6342 18.2692 13.6149C18.1225 13.6097 17.953 13.5625 17.8971 13.4245C17.8727 13.3651 17.8761 13.3005 17.8709 13.2376C17.836 12.7921 17.38 12.3081 17.0236 12.0775C16.8926 11.9919 16.7161 12.0478 16.648 12.1876C16.5903 12.3081 16.6357 12.4497 16.7475 12.523C17.0865 12.7467 17.2926 13.0716 17.3608 13.4909C17.4376 13.9731 17.3328 14.4658 17.1302 14.9043C17.0288 15.1244 16.9048 15.3375 16.7598 15.5332C16.6357 15.7027 16.4593 15.8162 16.3789 16.0189C16.3702 16.0416 16.3614 16.0661 16.3684 16.0888C16.3807 16.1324 16.4348 16.1447 16.4802 16.1464C16.6095 16.1517 16.7388 16.1237 16.8541 16.0695C16.7877 16.3264 16.9589 16.5762 17.1005 16.7998C17.242 17.0234 17.3555 17.3274 17.1948 17.5388C17.1878 17.5476 17.1791 17.5563 17.1721 17.5668C16.8279 17.7118 16.496 17.9092 16.2374 18.1817C15.7919 18.6534 15.4617 19.078 14.8101 19.2876C14.2335 19.4746 13.5924 19.4518 13.0316 19.2265C12.9232 19.1828 12.8132 19.1321 12.6961 19.1356C12.5791 19.1391 12.455 19.2212 12.4515 19.3383C12.4498 19.3977 12.4795 19.4518 12.5057 19.506C12.8027 20.1087 12.2576 20.5001 12.0253 21.0242C11.8069 21.5134 11.6951 22.0497 11.6951 22.5861C11.6951 23.1713 11.896 23.5976 12.621 24.3418C12.9495 24.6773 13.3792 24.8764 13.7409 24.9935C13.8544 25.0302 13.9261 24.8747 13.8247 24.8101C13.0787 24.3349 12.9617 23.9138 12.7346 23.4806C12.1895 22.4376 12.7852 20.8477 13.8108 20.0406C14.2073 19.7296 14.7699 19.7541 15.2486 19.9183C15.7622 20.0948 16.0662 20.4721 16.4523 20.8233C16.5571 20.9194 16.6916 21.0224 16.8262 20.9805C16.9485 20.9438 17.0096 20.7988 16.9956 20.673C16.9817 20.5472 16.91 20.4354 16.8419 20.3289C16.7668 20.2118 16.6916 20.0948 16.6148 19.9777C16.5152 19.824 16.4121 19.6632 16.3807 19.4815C16.3457 19.2841 16.5204 18.601 18.1801 18.1782C18.4614 18.1066 18.7479 18.1381 19.0309 18.2184C19.4118 18.3267 19.6843 18.6063 20.0041 18.8247C20.0932 18.8858 20.191 18.9504 20.2993 18.9539C20.4356 18.9592 20.5684 18.8561 20.5963 18.7216C20.6347 18.5364 20.495 18.3704 20.4024 18.2062C20.0949 17.6646 20.453 16.9413 20.9055 16.5954C21.3109 16.2879 21.8437 16.1744 22.3486 16.2268C23.1173 16.3054 23.8755 16.819 24.052 17.5703C24.0922 17.7397 24.1411 17.9581 24.314 17.9808C24.5062 18.007 24.6093 17.7502 24.5901 17.5563C24.5709 17.3624 24.508 17.144 24.6285 16.9902C24.6844 16.9204 24.7683 16.8802 24.8504 16.8435C25.0862 16.7404 25.3326 16.6548 25.544 16.5063C25.7554 16.3596 25.9318 16.1342 25.9475 15.8774C25.9458 15.8477 25.944 15.8127 25.9388 15.7778Z" fill="#EA6363"/>
<path d="M16.4786 16.1447C16.6079 16.1499 16.7372 16.122 16.8525 16.0678C16.7861 16.3246 16.9573 16.5744 17.0988 16.7981C17.2019 16.9623 17.3451 17.2541 17.1897 17.5528C17.1897 17.5528 17.4238 17.4218 17.8029 17.3117C18.182 17.2016 18.5524 17.1772 18.5524 17.1772C18.2833 17.1213 17.885 16.9693 17.7627 16.7579C17.3661 16.0678 17.3521 13.9469 18.624 14.188C19.0171 14.2631 19.3088 14.6038 19.3368 14.8571C19.3543 15.0178 19.2547 15.1576 19.1271 15.2659C19.0293 15.3498 19.0083 15.4913 19.0747 15.5996C19.1586 15.7376 19.3473 15.7673 19.4696 15.6642C19.8277 15.3568 19.8836 15.0335 19.8574 14.7994C19.7753 14.0534 18.935 13.6324 18.2676 13.6132C18.1208 13.6079 17.9514 13.5608 17.8955 13.4228C17.871 13.3634 17.8745 13.2987 17.8693 13.2358C17.8343 12.7903 17.3783 12.3064 17.0219 12.0758C16.8909 11.9902 16.7145 12.0461 16.6463 12.1858C16.5887 12.3064 16.6341 12.4479 16.7459 12.5213C17.0848 12.7449 17.291 13.0699 17.3591 13.4891C17.436 13.9713 17.3312 14.464 17.1285 14.9025C17.0272 15.1226 16.9031 15.3358 16.7581 15.5315C16.6341 15.7009 16.4576 15.8145 16.3773 16.0171C16.3685 16.0398 16.3598 16.0643 16.3668 16.087C16.379 16.1307 16.4332 16.1429 16.4786 16.1447Z" fill="#F07371"/>
<path d="M23.3005 15.9927C23.5349 16.3143 24.7227 15.9659 25.6612 15.6846C26.3643 15.4748 29.1592 14.7747 30.5515 14.4039C30.9274 14.3039 31.4713 14.1803 31.9075 13.7555C32.2948 13.3773 33.4117 11.7006 31.8852 9.64844C30.3361 7.56497 28.4197 7.82825 27.6657 8.20963C27.2219 8.43394 26.8073 9.01751 26.6161 9.31675C25.8081 10.5812 24.5832 12.9319 24.0893 13.8544C23.7266 14.5346 23.0683 15.6737 23.3005 15.9927Z" fill="#FFC107"/>
<path d="M26.3845 9.69916C26.3744 9.90326 26.3727 10.2372 26.4325 10.8886C26.4731 11.3356 26.5734 11.8118 26.6641 12.1296C26.9361 13.0856 27.4383 13.5232 27.9572 13.8898C28.8388 14.5124 29.4707 14.691 29.4707 14.691L28.6575 14.8933C28.6575 14.8933 28.2021 14.737 27.6044 14.3481C27.0348 13.9772 26.4667 13.4021 26.1315 12.3799C25.9866 11.9367 25.9239 11.5175 25.8994 11.1884C25.8694 10.7806 25.8862 10.5538 25.8862 10.5538L26.3845 9.69916Z" fill="#FF8F00"/>
<path d="M25.1224 11.9256C25.1224 11.9256 25.1182 12.6914 25.6347 13.7271C26.2402 14.9388 27.268 15.2609 27.268 15.2609L26.5316 15.4463C26.5316 15.4463 25.7814 15.1115 25.1693 14.0323C24.7876 13.3593 24.7553 12.6112 24.7553 12.6112L25.1224 11.9256Z" fill="#FF8F00"/>
<path d="M24.2192 13.6213C24.2192 13.6213 24.3079 14.2943 24.6272 14.8303C25.0072 15.4701 25.5667 15.7157 25.5667 15.7157L24.9999 15.8741C24.9999 15.8741 24.6042 15.7376 24.2317 15.1331C23.9485 14.6739 23.9158 14.1855 23.9158 14.1855L24.2192 13.6213Z" fill="#FF8F00"/>
<path opacity="0.44" d="M23.708 15.2323C23.691 15.1769 23.6989 15.1177 23.7309 15.07L27.6018 9.34877L27.8613 11.2429L24.0486 15.3059C23.9456 15.4197 23.7534 15.3776 23.708 15.2323Z" fill="#FFFDE7"/>
<path d="M28.022 11.8889C29.2346 13.6938 30.887 13.7082 31.4823 13.3719C32.0791 13.0345 32.6946 11.6842 31.4844 9.90681C30.2159 8.04488 28.4661 8.29491 28.0284 8.60266C27.5906 8.91042 26.9091 10.233 28.022 11.8889Z" fill="url(#paint0_linear_424_438)"/>
<path d="M32.8364 13.2061C32.372 12.7145 32.0849 12.7531 31.6931 12.8532C31.1876 12.982 30.414 13.0242 29.4342 12.5526L29.838 11.8755C30.4198 12.1548 30.8729 12.1171 31.2821 11.9508C31.8086 11.7375 32.5288 11.4449 33.4575 12.4292C33.8448 12.8397 34.2587 13.1333 34.5992 13.07C34.8469 13.025 35.0184 12.6995 35.1183 12.4354C35.1275 12.4118 35.1464 12.3435 35.1618 12.2829C35.276 11.8648 35.4943 10.9588 36.2646 10.5831C37.0884 10.1815 37.8838 10.2874 37.8838 10.2874L37.8437 11.6894C37.4847 11.5885 37.2208 11.6266 36.9908 11.7129C36.1244 12.0403 36.6062 13.8046 35.2731 14.1987C33.9902 14.5817 33.1255 13.5114 32.8364 13.2061Z" fill="#03A9F4"/>
<path d="M28.6182 10.8501L28.1577 10.3295C29.2512 9.4242 29.1002 8.63194 28.9902 8.05529C28.9678 7.93897 28.9471 7.82876 28.9377 7.7248C28.9037 7.35662 28.9283 7.04347 28.9896 6.77535C28.6813 6.28448 28.581 5.80003 28.5744 5.76727C28.4382 5.08441 28.6909 4.46985 29.1555 3.92362C30.0954 2.81489 31.5049 3.00249 31.5049 3.00249L31.8132 4.28206C31.4576 4.22056 30.2832 4.08198 29.8503 4.58283C29.3036 5.21376 29.5455 5.68045 29.5606 5.73205C29.6629 5.63349 29.7634 5.55713 29.8517 5.49922C30.4919 5.08264 31.0004 5.07829 31.3146 5.14844C31.6679 5.22734 31.9686 5.44447 32.1622 5.76067C32.3736 6.1076 32.4238 6.5287 32.2942 6.88809C32.1682 7.23851 31.8792 7.51058 31.4804 7.65467C30.7839 7.90674 30.2478 7.78817 29.8999 7.62262C29.9013 7.63106 29.9012 7.6405 29.9025 7.64894C29.908 7.70871 29.9236 7.79343 29.9423 7.89155C30.07 8.55557 30.3304 9.61742 28.6182 10.8501ZM30.0794 6.61341C30.1425 6.67139 30.2103 6.72174 30.282 6.7608C30.521 6.89178 30.8 6.89585 31.1335 6.77494C31.3297 6.70424 31.3649 6.60502 31.3766 6.57233C31.4116 6.47428 31.3927 6.34071 31.3276 6.23404C31.2705 6.14025 31.1972 6.08563 31.1036 6.06373C30.9257 6.0247 30.6675 6.10251 30.396 6.28008C30.2662 6.36553 30.1609 6.47785 30.0794 6.61341Z" fill="#F44336"/>
<path d="M30.6767 11.3165L29.9343 11.1976C29.9343 11.1976 30.5454 9.31192 31.7343 9.13955C31.9571 9.10781 32.2004 9.07761 32.4412 9.07542C32.5843 9.07321 32.8104 9.07143 32.9248 9.04651C32.9743 8.86772 32.926 8.62516 32.8723 8.34999C32.8299 8.13654 32.7858 7.91698 32.778 7.68216C32.7632 7.22445 32.9394 6.84529 33.2744 6.61241C33.6831 6.3303 34.2862 6.30312 34.9313 6.53775C35.2993 6.67173 35.5549 6.88875 35.7798 7.07926C36.1012 7.35226 36.291 7.49442 36.7577 7.27198C37.3222 7.00235 36.8197 5.58594 36.5605 4.77219L37.98 4.40854C38.1102 4.81549 38.7225 6.9018 37.9959 7.94918C37.7512 8.30153 37.3832 8.50757 36.9316 8.54311C35.9492 8.62253 35.4381 8.18849 35.0651 7.87201C34.8885 7.72217 34.7323 7.60221 34.5555 7.52674C33.3271 7.0055 34.8659 9.05689 33.9236 9.76151C33.3583 10.1834 32.1188 10.1494 32.0371 10.1575C31.2258 10.236 30.6767 11.3165 30.6767 11.3165Z" fill="#F48FB1"/>
<path d="M28.9881 6.77519C28.9313 7.02739 28.9003 7.17793 28.9245 7.51883C29.2233 7.79708 29.9418 7.89272 29.9418 7.89272C29.9231 7.79459 29.9064 7.70971 29.9021 7.65011C29.9008 7.64167 29.9008 7.63223 29.8995 7.62379C29.2159 7.17387 28.9881 6.77519 28.9881 6.77519Z" fill="#C92B27"/>
<path d="M27.3415 7.719L26.1793 6.96572L26.912 6.1848L27.802 6.93727L27.3415 7.719Z" fill="#FFC107"/>
<path d="M25.7298 5.84685C25.1074 5.68018 24.5311 5.07454 24.4682 5.00596L25.1849 4.38229C25.3527 4.56166 25.7177 4.87353 25.9806 4.94394L25.7298 5.84685Z" fill="#FB8C00"/>
<path d="M27.0539 4.44918L26.1806 4.03897C26.326 3.74426 26.398 3.41497 26.3867 3.08643L27.3541 3.06522C27.37 3.54197 27.266 4.02048 27.0539 4.44918Z" fill="#03A9F4"/>
<path d="M32.8394 4.51723L33.8033 4.44366L33.9147 5.6765L32.9508 5.75006L32.8394 4.51723Z" fill="#FB8C00"/>
<path d="M35.1275 5.11042L34.5574 4.34857C34.945 4.07783 35.0793 3.6742 35.0799 3.66955L36.0077 3.94534C35.986 4.01683 35.7775 4.65735 35.1275 5.11042Z" fill="#FFC107"/>
<path d="M35.0183 8.73375L35.8902 8.59198L36.0586 9.51596L35.1867 9.65773L35.0183 8.73375Z" fill="#FB8C00"/>
<path d="M34.2673 16.2432L33.3281 16.0072C33.4126 15.6843 33.2131 15.2481 33.1554 15.1495L33.9973 14.6948C34.0451 14.7755 34.4563 15.5115 34.2673 16.2432Z" fill="#F44336"/>
<path d="M37.1612 15.4311C36.8095 15.3312 36.4452 15.2615 36.0812 15.226L36.1723 14.2936C36.5953 14.3357 37.018 14.4156 37.4261 14.5325L37.1612 15.4311Z" fill="#FB8C00"/>
<path d="M35.7009 16.5369L36.4631 15.9662L37.2731 16.9758L36.5109 17.5465L35.7009 16.5369Z" fill="#F48FB1"/>
<path d="M34.5007 10.4064L35.0921 11.2653L34.21 11.8304L33.6187 10.9714L34.5007 10.4064Z" fill="#F44336"/>
<path d="M14.6135 16.9582C14.9649 16.7603 14.7309 15.5389 14.54 14.5733C14.3979 13.85 13.9694 10.9894 13.7335 9.5619C13.67 9.17654 13.5995 8.62128 13.2113 8.13996C12.8656 7.71252 11.272 6.41525 9.02733 7.70886C6.7484 9.0216 6.82149 10.9591 7.1331 11.7521C7.31634 12.2187 7.86834 12.696 8.15357 12.9195C9.35877 13.8637 11.6276 15.3429 12.5166 15.9366C13.1722 16.373 14.2651 17.1543 14.6135 16.9582Z" fill="#FFC107"/>
<path d="M8.51934 13.1923C8.72612 13.2249 9.06592 13.2634 9.73528 13.2758C10.1945 13.2847 10.6895 13.2374 11.0224 13.1821C12.0234 13.0168 12.52 12.565 12.9461 12.0887C13.6698 11.2795 13.9158 10.67 13.9158 10.67L14.0391 11.5021C14.0391 11.5021 13.8337 11.9383 13.3769 12.4906C12.9412 13.0169 12.298 13.5192 11.2231 13.7402C10.7571 13.8356 10.3239 13.8517 9.98628 13.8398C9.56803 13.8246 9.33879 13.7829 9.33879 13.7829L8.51934 13.1923Z" fill="#FF8F00"/>
<path d="M10.6578 14.6949C10.6578 14.6949 11.437 14.7836 12.5441 14.3835C13.8394 13.9143 14.272 12.9263 14.272 12.9263L14.3858 13.6802C14.3858 13.6802 13.9686 14.3903 12.8076 14.8808C12.0835 15.1866 11.3185 15.1362 11.3185 15.1362L10.6578 14.6949Z" fill="#FF8F00"/>
<path d="M12.2925 15.7815C12.2925 15.7815 12.9867 15.7675 13.565 15.5087C14.255 15.2008 14.562 14.6709 14.562 14.6709L14.6656 15.2528C14.6656 15.2528 14.4864 15.6318 13.833 15.936C13.3366 16.1673 12.836 16.1459 12.836 16.1459L12.2925 15.7815Z" fill="#FF8F00"/>
<path opacity="0.44" d="M13.8806 16.4683C13.8224 16.4792 13.763 16.4648 13.7177 16.4277L8.28628 11.9412L10.2412 11.8919L13.9902 16.1373C14.0956 16.2525 14.0332 16.4392 13.8806 16.4683Z" fill="#FFFDE7"/>
<path d="M10.9154 11.8033C12.8765 10.7949 13.0593 9.15099 12.7774 8.52095C12.4946 7.88945 11.1825 7.12741 9.24961 8.13638C7.22478 9.19412 7.30133 10.9643 7.57015 11.4342C7.83896 11.9041 9.11627 12.7287 10.9154 11.8033Z" fill="url(#paint1_linear_424_438)"/>
<path d="M12.7464 7.15426C12.1986 7.5625 12.2087 7.85272 12.2708 8.25395C12.3504 8.77154 12.3148 9.54655 11.7349 10.4703L11.0866 9.99334C11.4302 9.44478 11.4379 8.98942 11.3101 8.56361C11.1465 8.01575 10.9219 7.26625 12.0186 6.45004C12.4759 6.10963 12.8169 5.72988 12.7871 5.3838C12.7665 5.13215 12.4526 4.92542 12.1938 4.79682C12.1707 4.78501 12.1031 4.75869 12.043 4.73669C11.6289 4.57677 10.7286 4.2594 10.4245 3.45082C10.0994 2.58609 10.2881 1.80573 10.2881 1.80573L11.7115 2.00041C11.5723 2.34672 11.5842 2.61372 11.6487 2.85231C11.8939 3.75131 13.7393 3.46621 14.0049 4.83731C14.2643 6.1571 13.0866 6.90015 12.7464 7.15426Z" fill="#03A9F4"/>
<path d="M9.91821 11.095L9.34131 11.4962C8.53082 10.3073 7.70881 10.3702 7.11048 10.4161C6.98977 10.4255 6.87545 10.434 6.76864 10.4319C6.39031 10.4251 6.07397 10.3661 5.80721 10.2754C5.27606 10.5282 4.7726 10.5746 4.73857 10.5776C4.02945 10.6379 3.42942 10.3184 2.92053 9.79543C1.88727 8.73704 2.22167 7.35404 2.22167 7.35404L3.55587 7.18827C3.45707 7.53564 3.1965 8.68982 3.66241 9.17623C4.2492 9.79029 4.74897 9.60092 4.80305 9.59157C4.7131 9.47887 4.64558 9.37035 4.5956 9.27604C4.23657 8.59248 4.28387 8.08564 4.38726 7.78049C4.50354 7.43735 4.75521 7.16183 5.09686 7.00399C5.4716 6.83173 5.90545 6.82824 6.25819 6.997C6.60216 7.16115 6.84978 7.47892 6.95592 7.89203C7.14171 8.61345 6.96645 9.13419 6.7625 9.46237C6.77123 9.46198 6.78084 9.46306 6.78956 9.46268C6.85097 9.46382 6.93882 9.45766 7.04062 9.44988C7.7297 9.39598 8.83734 9.25392 9.91821 11.095ZM5.7532 9.17223C5.81866 9.1158 5.87681 9.05386 5.92388 8.98675C6.08155 8.76325 6.11409 8.48582 6.02491 8.14034C5.97288 7.93715 5.87544 7.89116 5.84335 7.87593C5.74707 7.83022 5.60916 7.83425 5.49392 7.88737C5.39262 7.93388 5.32954 8.00086 5.29774 8.09159C5.23989 8.26448 5.29285 8.53019 5.44603 8.82013C5.51983 8.95882 5.62348 9.07608 5.7532 9.17223Z" fill="#F44336"/>
<path d="M10.6026 9.09643L10.4061 9.82257C10.4061 9.82257 8.54828 9.00585 8.49373 7.80288C8.48406 7.57754 8.47807 7.3319 8.50034 7.09186C8.51266 6.94907 8.53384 6.72371 8.52011 6.60702C8.3431 6.53806 8.09121 6.55938 7.80558 6.58251C7.58394 6.60118 7.3559 6.62079 7.11602 6.60265C6.64849 6.56685 6.28036 6.34951 6.07733 5.99021C5.83167 5.55207 5.86535 4.94851 6.16987 4.33195C6.34372 3.9803 6.59069 3.74973 6.80754 3.54677C7.11821 3.25686 7.28226 3.08349 7.10326 2.59419C6.88616 2.00225 5.39289 2.34633 4.53798 2.51462L4.31212 1.06093C4.73972 0.976197 6.92624 0.596671 7.91874 1.4359C8.25259 1.71845 8.42494 2.10771 8.41518 2.56133C8.39611 3.54841 7.90217 4.00954 7.542 4.34603C7.37147 4.50538 7.23344 4.64767 7.13861 4.81535C6.48293 5.98114 8.72815 4.6752 9.34971 5.69135C9.72172 6.30081 9.56108 7.53148 9.56095 7.61367C9.5584 8.43033 10.6026 9.09643 10.6026 9.09643Z" fill="#F48FB1"/>
<path d="M5.80711 10.2766C6.05812 10.3609 6.20824 10.4084 6.5578 10.4219C6.8715 10.1552 7.04197 9.45015 7.04197 9.45015C6.94016 9.45793 6.85203 9.46527 6.79091 9.46295C6.78218 9.46333 6.77257 9.46226 6.76385 9.46264C6.23621 10.0938 5.80711 10.2766 5.80711 10.2766Z" fill="#C92B27"/>
<path d="M6.60048 12.0207L5.71529 13.0949L4.99471 12.2791L5.85141 11.4758L6.60048 12.0207Z" fill="#FFC107"/>
<path d="M4.5305 13.4188C4.29748 14.0203 3.62222 14.5273 3.54598 14.5824L2.98389 13.7999C3.18358 13.6525 3.53827 13.3234 3.6367 13.0694L4.5305 13.4188Z" fill="#FB8C00"/>
<path d="M3.24203 11.9462L2.73552 12.7706C2.45025 12.5932 2.12229 12.4852 1.78664 12.4601L1.86345 11.4945C2.35049 11.5313 2.82712 11.6877 3.24203 11.9462Z" fill="#03A9F4"/>
<path d="M3.8999 6.19215L3.92306 5.2241L5.18965 5.24921L5.16648 6.21725L3.8999 6.19215Z" fill="#FB8C00"/>
<path d="M4.7367 3.97916L3.903 4.46278C3.66678 4.04686 3.26947 3.86857 3.26481 3.86744L3.64 2.97395C3.71058 3.00347 4.34152 3.28186 4.7367 3.97916Z" fill="#FFC107"/>
<path d="M8.41479 4.48772L8.35914 3.60381L9.31705 3.53812L9.3727 4.42203L8.41479 4.48772Z" fill="#FB8C00"/>
<path d="M15.9842 6.06464L15.6483 6.97389C15.3282 6.85411 14.8637 7.00467 14.7574 7.05124L14.3801 6.16267C14.4672 6.12393 15.2584 5.79572 15.9842 6.06464Z" fill="#F44336"/>
<path d="M15.4517 3.0929C15.3142 3.43215 15.2061 3.78725 15.133 4.14581L14.1929 3.95214C14.2788 3.53562 14.4031 3.12341 14.5637 2.72992L15.4517 3.0929Z" fill="#FB8C00"/>
<path d="M16.4292 4.66928L15.9257 3.84727L17.0359 3.15206L17.5395 3.97407L16.4292 4.66928Z" fill="#F48FB1"/>
<path d="M10.0649 5.18792L10.9997 4.69386L11.4853 5.63461L10.5505 6.12867L10.0649 5.18792Z" fill="#F44336"/>
<defs>
<linearGradient id="paint0_linear_424_438" x1="32.2785" y1="9.93439" x2="28.4823" y2="11.6433" gradientUnits="userSpaceOnUse">
<stop offset="0.0235" stop-color="#8F4700"/>
<stop offset="1" stop-color="#703E2D"/>
</linearGradient>
<linearGradient id="paint1_linear_424_438" x1="9.35847" y1="7.34863" x2="10.6276" y2="11.3447" gradientUnits="userSpaceOnUse">
<stop offset="0.0235" stop-color="#8F4700"/>
<stop offset="1" stop-color="#703E2D"/>
</linearGradient>
</defs>
</svg>
