<svg width="37" height="34" viewBox="0 0 37 34" fill="none" xmlns="http://www.w3.org/2000/svg">
<path d="M25.7983 26.0746H0.889597C0.398095 26.0746 0 25.7076 0 25.2545V10.4932C0 10.0401 0.398095 9.67308 0.889597 9.67308H25.7983C26.2898 9.67308 26.6879 10.0401 26.6879 10.4932V25.2545C26.6879 25.7076 26.2898 26.0746 25.7983 26.0746Z" fill="url(#paint0_linear_424_591)"/>
<path opacity="0.3" d="M25.7983 26.0746H0.889597C0.398095 26.0746 0 25.7076 0 25.2545V10.4932C0 10.0401 0.398095 9.67308 0.889597 9.67308H25.7983C26.2898 9.67308 26.6879 10.0401 26.6879 10.4932V25.2545C26.6879 25.7076 26.2898 26.0746 25.7983 26.0746Z" fill="url(#paint1_linear_424_591)"/>
<path opacity="0.3" d="M25.8027 26.0746H0.893991C0.402489 26.0746 0.00439453 25.7076 0.00439453 25.2545V10.4932C0.00439453 10.0401 0.402489 9.67308 0.893991 9.67308H25.8027C26.2942 9.67308 26.6923 10.0401 26.6923 10.4932V25.2545C26.6923 25.7076 26.292 26.0746 25.8027 26.0746Z" fill="url(#paint2_linear_424_591)"/>
<path d="M1.77881 11.3132H7.11639V12.1333H1.77881V11.3132Z" fill="#76FF03"/>
<path d="M18.2368 11.3132H21.7952V12.1333H18.2368V11.3132Z" fill="#76FF03"/>
<path d="M23.1294 11.3132H24.9086V12.1333H23.1294V11.3132Z" fill="#76FF03"/>
<path d="M3.55859 13.7735H5.33779V14.5935H3.55859V13.7735Z" fill="#76FF03"/>
<path d="M1.77881 16.2337H5.3372V17.0538H1.77881V16.2337Z" fill="#76FF03"/>
<path d="M1.77881 18.6939H3.558V19.514H1.77881V18.6939Z" fill="#76FF03"/>
<path d="M20.9053 18.6939H23.5741V19.514H20.9053V18.6939Z" fill="#76FF03"/>
<path d="M22.24 16.2337H24.9088V17.0538H22.24V16.2337Z" fill="#76FF03"/>
<path d="M1.77881 21.1541H5.3372V21.9742H1.77881V21.1541Z" fill="#76FF03"/>
<path d="M20.4604 21.1541H24.9084V21.9742H20.4604V21.1541Z" fill="#76FF03"/>
<path d="M21.3503 13.7735H24.0191V14.5935H21.3503V13.7735Z" fill="#76FF03"/>
<path d="M0.809563 33.4511H3.66295C3.91203 33.4327 4.10997 33.2092 4.10997 32.9345V32.8012C4.10997 32.0673 3.75191 31.4255 3.21592 31.0688C3.21592 31.0996 3.21815 31.1303 3.21815 31.1611C3.21815 32.0017 2.7778 32.6823 2.23737 32.6823C1.69694 32.6823 1.25659 32.0017 1.25659 31.1611C1.25659 31.1303 1.25881 31.0996 1.25881 31.0688C0.722827 31.4276 0.364765 32.0673 0.364765 32.8012V32.9345C0.362541 33.2113 0.560476 33.4327 0.809563 33.4511Z" fill="#26A69A"/>
<path d="M2.23525 32.6844C4.23684 32.6844 3.21603 32.0037 3.21603 31.1631C3.21603 31.1324 3.21381 31.1016 3.21381 31.0709C2.92913 30.8802 2.59331 30.7674 2.23525 30.7674C1.87719 30.7674 1.54136 30.8802 1.25669 31.0709C1.25447 31.1016 1.25447 31.1324 1.25447 31.1631C1.25224 32.0037 0.22476 32.6844 2.23525 32.6844Z" fill="#00796B"/>
<path d="M5.33564 29.9289C5.31117 29.3466 4.83969 28.1452 4.22364 28.0448C4.18583 28.0386 4.15247 28.0222 4.13246 27.9935C4.0346 27.8562 3.72102 27.4871 3.14723 27.7783C2.93372 27.8869 2.85811 27.9833 2.89369 28.1227C2.867 28.1514 2.81808 28.1862 2.74691 28.1596C2.51561 27.9218 2.23094 27.8726 1.89957 28.1104C1.52371 28.381 1.52371 28.5737 1.59043 28.7644L1.58821 28.7664C1.58821 28.7664 1.57264 28.8997 1.46366 28.8895C1.35024 28.7992 1.21458 28.7992 0.99885 28.9428C0.420612 29.3282 0.65858 29.6931 0.756435 29.9084C0.743091 29.9289 0.720851 29.9433 0.685268 29.9412C0.609652 29.9043 0.51402 29.9043 0.385029 29.972C0.0781176 30.1339 0.122597 30.667 0.209333 30.8412C0.304965 31.0319 0.832051 31.7003 1.01219 31.8889C1.05445 31.9319 1.1056 31.9627 1.1612 31.9832C1.15453 31.9811 1.14786 31.9791 1.14341 31.977C1.30131 32.0672 1.57709 32.1759 1.84619 32.0221C1.84619 32.0221 2.01744 31.9073 2.03301 31.7864C2.32435 31.936 2.72689 31.6572 2.72689 31.6572C2.91593 31.5239 2.96486 31.3743 2.95819 31.2451C3.05382 31.2984 3.15835 31.3189 3.25843 31.321C3.56089 31.3292 3.83889 31.1652 3.83889 31.1652C4.27257 30.9376 4.3593 30.6998 4.35708 30.5419C4.5817 30.6711 4.8597 30.5747 4.8597 30.5747C5.3512 30.3676 5.33564 29.9289 5.33564 29.9289Z" fill="url(#paint3_linear_424_591)"/>
<path d="M23.1203 33.4511H25.9759C25.9759 33.4511 26.1004 31.444 22.6043 31.3476C19.1082 31.2533 23.1203 33.4511 23.1203 33.4511Z" fill="#26A69A"/>
<path d="M21.2325 30.9212C21.2569 30.339 21.7284 29.1375 22.3445 29.0371C22.3823 29.0309 22.4156 29.0145 22.4357 28.9858C22.5335 28.8485 22.8471 28.4794 23.4209 28.7706C23.6344 28.8792 23.71 28.9756 23.6744 29.115C23.7011 29.1437 23.75 29.1786 23.8212 29.1519C24.0525 28.9141 24.3372 28.8649 24.6685 29.1027C25.0444 29.3733 25.0444 29.566 24.9777 29.7567L24.9799 29.7588C24.9799 29.7588 24.9955 29.892 25.1044 29.8818C25.2179 29.7916 25.3535 29.7916 25.5693 29.9351C26.1475 30.3205 25.9095 30.6854 25.8117 30.9007C25.825 30.9212 25.845 30.9356 25.8828 30.9335C25.9585 30.8966 26.0541 30.8966 26.1831 30.9643C26.49 31.1262 26.4455 31.6593 26.3588 31.8335C26.2631 32.0242 25.7383 32.6926 25.5559 32.8812C25.5137 32.9242 25.4625 32.955 25.4069 32.9755C25.4136 32.9734 25.4203 32.9714 25.4247 32.9693C25.2668 33.0595 24.991 33.1682 24.7219 33.0144C24.7219 33.0144 24.5507 32.8996 24.5351 32.7787C24.2438 32.9283 23.8412 32.6495 23.8412 32.6495C23.6522 32.5163 23.6033 32.3666 23.6099 32.2374C23.5143 32.2907 23.4098 32.3112 23.3097 32.3133C23.0072 32.3215 22.7292 32.1575 22.7292 32.1575C22.2955 31.9299 22.2088 31.6921 22.211 31.5342C21.9864 31.6634 21.7084 31.567 21.7084 31.567C21.2169 31.362 21.2325 30.9212 21.2325 30.9212Z" fill="url(#paint4_linear_424_591)"/>
<path d="M24.9621 32.9529C24.9243 32.9345 24.8887 32.914 24.8554 32.8873C24.8509 32.8832 24.8442 32.8791 24.8398 32.873C24.7775 32.8094 24.7597 32.7069 24.9221 32.5019C25.3669 31.9586 25.5426 31.5526 25.5426 31.5526C25.6649 31.2677 25.6204 31.2205 25.6204 31.2205C25.5781 31.157 25.4914 31.3415 25.4914 31.3415C25.0511 32.0734 24.7486 32.3932 24.6174 32.5121C24.6107 32.5162 24.604 32.5203 24.5974 32.5224C24.5729 32.5367 24.5462 32.5511 24.5173 32.5613C24.5062 32.5654 24.4928 32.5695 24.4817 32.5736C24.4573 32.5818 24.4306 32.5859 24.4039 32.59C24.3905 32.5921 24.3772 32.5941 24.3616 32.5941C24.3327 32.5941 24.3038 32.5921 24.2727 32.5859C24.2593 32.5839 24.246 32.5839 24.2326 32.5798C24.1882 32.5675 24.1414 32.5531 24.0947 32.5265C24.0725 32.5142 24.0525 32.5019 24.0325 32.4875C24.0236 32.4793 24.0125 32.4711 24.0036 32.4629C23.9947 32.4547 23.9835 32.4465 23.9746 32.4383C23.9635 32.426 23.9524 32.4117 23.9413 32.3994C23.9368 32.3932 23.9302 32.3871 23.9257 32.3789C23.9146 32.3625 23.9057 32.3461 23.8968 32.3276C23.8946 32.3215 23.8901 32.3153 23.8879 32.3092C23.879 32.2907 23.8746 32.2702 23.8701 32.2497C23.8679 32.2435 23.8657 32.2374 23.8634 32.2312C23.859 32.2107 23.859 32.1882 23.8568 32.1677C23.8568 32.1595 23.8546 32.1533 23.8546 32.1472C23.8546 32.1246 23.859 32.1021 23.8634 32.0795C23.8657 32.0713 23.8657 32.0631 23.8679 32.0529C23.8723 32.0303 23.8835 32.0078 23.8924 31.9832C23.8968 31.9729 23.899 31.9627 23.9035 31.9545C24.4106 31.2943 24.673 30.7182 24.673 30.7182C24.7575 30.5583 24.7886 30.3902 24.7886 30.3902C24.733 30.2959 24.6441 30.4332 24.6441 30.4332C24.0658 31.4255 23.7233 31.8233 23.7233 31.8233C23.7233 31.8233 23.4542 32.2558 22.8649 31.9319C22.8649 31.9319 22.5735 31.7597 22.5246 31.6387C22.4823 31.5383 22.4557 31.3599 22.6047 31.1057C22.6047 31.1057 22.9583 30.4394 23.541 29.6009C23.541 29.6009 23.5788 29.4696 23.4476 29.5435C23.3453 29.6009 23.2719 29.7198 23.2363 29.7567C23.2363 29.7567 22.8916 30.1811 22.3912 31.0278C22.3912 31.0278 22.28 31.2226 22.151 31.3189C22.0242 31.3681 21.8641 31.3497 21.6884 31.2287C21.3081 30.9663 21.4504 30.5993 21.6617 30.2221C21.7773 30.017 22.042 29.5558 22.2933 29.1867C22.3178 29.1785 22.3422 29.1703 22.3667 29.1662C22.4468 29.1539 22.5113 29.115 22.5513 29.0576C22.7515 28.7767 22.5935 28.5225 22.3133 28.914C21.6105 29.0248 21.1124 30.2918 21.0879 30.9171C21.0879 30.9396 21.0768 31.4481 21.6461 31.6818C21.6639 31.6879 21.8708 31.7577 22.0932 31.7105C22.1488 31.8807 22.3 32.0795 22.6536 32.2661C22.6603 32.2702 22.9694 32.4445 23.3075 32.4404C23.3697 32.4383 23.432 32.4322 23.4898 32.4178C23.5254 32.5244 23.601 32.6413 23.7523 32.7479C23.77 32.7602 24.117 33.0001 24.4506 32.9386C24.5151 33.0329 24.6085 33.0985 24.633 33.1149C24.7353 33.1743 24.8442 33.2051 24.9554 33.2133H25.0555C25.1978 33.2051 25.3469 33.16 25.4936 33.0759C25.4959 33.0759 25.4959 33.0739 25.4981 33.0739C25.8428 32.8566 26.3388 31.9483 26.3388 31.8561C26.341 31.8561 25.5915 33.0534 24.9621 32.9529Z" fill="#875334"/>
<path d="M19.4242 18.37H7.26788C5.95795 18.37 4.88599 19.4238 4.88599 20.7092C4.88599 21.9967 5.95795 23.0485 7.26788 23.0485H19.422C20.7319 23.0485 21.8039 21.9947 21.8039 20.7092C21.8061 19.4238 20.7342 18.37 19.4242 18.37Z" fill="#7A4C32"/>
<path d="M13.3459 10.3004C9.47619 10.3004 5.89111 14.1158 5.89111 19.6062C5.89111 25.0679 9.58516 27.768 13.3459 27.768C17.1067 27.768 20.8008 25.0679 20.8008 19.6062C20.8008 14.1158 17.2157 10.3004 13.3459 10.3004Z" fill="#A56C43"/>
<path d="M9.68993 21.1336C10.2955 21.1336 10.7864 20.6655 10.7864 20.088C10.7864 19.5105 10.2955 19.0424 9.68993 19.0424C9.08439 19.0424 8.59351 19.5105 8.59351 20.088C8.59351 20.6655 9.08439 21.1336 9.68993 21.1336Z" fill="#42312C"/>
<path d="M17.0027 21.1336C17.6082 21.1336 18.0991 20.6655 18.0991 20.088C18.0991 19.5105 17.6082 19.0424 17.0027 19.0424C16.3971 19.0424 15.9062 19.5105 15.9062 20.088C15.9062 20.6655 16.3971 21.1336 17.0027 21.1336Z" fill="#42312C"/>
<path d="M14.2048 21.9844C14.1804 21.9762 14.1581 21.9701 14.1337 21.968H12.5613C12.5368 21.9701 12.5124 21.9762 12.4901 21.9844C12.3478 22.0377 12.27 22.1731 12.3367 22.3186C12.4034 22.4642 12.717 22.8701 13.3486 22.8701C13.9802 22.8701 14.2938 22.4621 14.3605 22.3186C14.425 22.1731 14.3472 22.0377 14.2048 21.9844Z" fill="#875334"/>
<path d="M8.01083 18.4253C8.6758 17.5581 10.1859 17.4761 11.051 18.1219C11.1889 18.2244 11.3713 18.3679 11.4247 18.5279C11.5136 18.7882 11.2423 18.9912 10.9776 18.9297C10.8086 18.8907 10.6507 18.8067 10.4839 18.7595C10.1792 18.6714 9.95905 18.6468 9.68549 18.6468C9.28073 18.6447 9.02052 18.6919 8.63577 18.8354C8.47787 18.8948 8.34887 18.9891 8.16873 18.9194C7.96412 18.8395 7.88628 18.5976 8.01083 18.4253Z" fill="#42312C"/>
<path d="M18.2546 18.9174C18.1901 18.8907 18.1278 18.8579 18.0633 18.8333C17.6674 18.6816 17.4428 18.6427 17.0136 18.6447C16.6355 18.6468 16.4109 18.6939 16.1151 18.7862C15.9349 18.8436 15.7059 18.9871 15.5057 18.9317C15.2122 18.8497 15.221 18.5545 15.3812 18.3659C15.5724 18.1445 15.8349 17.9764 16.1129 17.8656C16.7578 17.6073 17.5451 17.6442 18.1523 17.9784C18.3502 18.0871 18.5659 18.2367 18.686 18.4253C18.8617 18.6939 18.5971 19.0465 18.2546 18.9174Z" fill="#42312C"/>
<path d="M5.43547 29.8141C5.40878 29.1888 4.91061 27.9218 4.21005 27.8111C3.93205 27.4195 3.77192 27.6737 3.97208 27.9546C4.01211 28.012 4.07883 28.0489 4.15667 28.0633C4.18114 28.0674 4.2056 28.0756 4.23007 28.0838C4.48138 28.4528 4.74603 28.9161 4.86168 29.1191C5.07296 29.4943 5.21307 29.8613 4.83499 30.1257C4.6593 30.2467 4.50139 30.2652 4.3724 30.2159C4.24563 30.1196 4.13221 29.9248 4.13221 29.9248C3.63181 29.0781 3.28709 28.6537 3.28709 28.6537C3.25151 28.6168 3.18034 28.4999 3.07581 28.4405C2.9446 28.3667 2.98241 28.4979 2.98241 28.4979C3.56509 29.3344 3.91871 30.0027 3.91871 30.0027C4.06994 30.257 4.04325 30.4353 3.99877 30.5358C3.94984 30.6567 3.6585 30.829 3.6585 30.829C3.07137 31.1529 2.80004 30.7203 2.80004 30.7203C2.80004 30.7203 2.45532 30.3226 1.87931 29.3303C1.87931 29.3303 1.78812 29.1929 1.73475 29.2872C1.73475 29.2872 1.76588 29.4553 1.85039 29.6152C1.85039 29.6152 2.11283 30.1893 2.6199 30.8515C2.62434 30.8618 2.62657 30.872 2.63102 30.8802C2.63991 30.9028 2.64881 30.9274 2.65548 30.9499C2.6577 30.9581 2.6577 30.9663 2.65993 30.9766C2.66437 30.9991 2.66882 31.0217 2.66882 31.0442C2.66882 31.0524 2.6666 31.0586 2.6666 31.0647C2.6666 31.0873 2.66437 31.1078 2.65993 31.1283C2.6577 31.1344 2.65548 31.1406 2.65548 31.1467C2.65103 31.1672 2.64436 31.1877 2.63546 31.2062C2.63324 31.2123 2.62879 31.2185 2.62657 31.2246C2.61767 31.241 2.60878 31.2595 2.59766 31.2759C2.59321 31.282 2.58654 31.2882 2.58209 31.2964C2.57097 31.3107 2.55985 31.323 2.54873 31.3353C2.53983 31.3435 2.52871 31.3518 2.51982 31.36C2.51092 31.3682 2.50202 31.3764 2.4909 31.3846C2.47089 31.3989 2.44865 31.4133 2.42863 31.4235C2.3797 31.4481 2.333 31.4666 2.29074 31.4768C2.2774 31.4809 2.26406 31.4809 2.24849 31.483C2.21735 31.4871 2.18844 31.4912 2.15953 31.4912C2.14618 31.4912 2.13062 31.4891 2.11727 31.4871C2.09059 31.483 2.0639 31.4789 2.03943 31.4707C2.02831 31.4666 2.01497 31.4625 2.00385 31.4584C1.97716 31.4481 1.95047 31.4338 1.92379 31.4194C1.91711 31.4153 1.91044 31.4133 1.90377 31.4092C1.77255 31.2902 1.47009 30.9704 1.02974 30.2385C1.02974 30.2385 0.943005 30.054 0.900749 30.1175C0.900749 30.1175 0.856269 30.1667 0.978589 30.4497C0.978589 30.4497 1.15428 30.8556 1.59908 31.3989C1.76143 31.6039 1.74364 31.7064 1.68137 31.77C1.67692 31.7741 1.67025 31.7782 1.6658 31.7843C1.63467 31.811 1.59686 31.8315 1.55905 31.8499C0.929661 31.9504 0.180176 30.751 0.180176 30.751C0.180176 30.8454 0.676126 31.7536 1.02084 31.9689C1.02307 31.9689 1.02307 31.9709 1.02529 31.9709C1.17208 32.055 1.31886 32.1001 1.46342 32.1083H1.5635C1.67692 32.1001 1.7859 32.0693 1.88598 32.0099C1.91044 31.9935 2.00385 31.9258 2.06835 31.8335C2.40194 31.895 2.75111 31.6552 2.76668 31.6429C2.91791 31.5363 2.99353 31.4194 3.02911 31.3128C3.08693 31.3271 3.14698 31.3353 3.21148 31.3353C3.54952 31.3415 3.85866 31.1652 3.86533 31.1611C4.21895 30.9766 4.37018 30.7756 4.42578 30.6055C4.64818 30.6506 4.85501 30.5829 4.8728 30.5768C5.44659 30.3451 5.43547 29.8367 5.43547 29.8141Z" fill="#875334"/>
<path d="M23.5745 33.4511V24.6743C23.5745 23.9403 22.9251 23.3417 22.1289 23.3417H4.55936C3.76318 23.3417 3.11377 23.9403 3.11377 24.6743V33.4532L23.5745 33.4511Z" fill="url(#paint5_linear_424_591)"/>
<path d="M16.6803 33.4511C16.5446 33.0554 16.3667 32.6085 16.2154 32.1328C15.9107 31.1775 15.784 29.5824 15.7306 28.4692C15.6972 27.766 15.0656 27.2104 14.2961 27.2104H12.3946C11.6251 27.2104 10.9935 27.7639 10.9601 28.4692C10.9068 29.5824 10.78 31.1775 10.4753 32.1328C10.3241 32.6085 10.1484 33.0554 10.0105 33.4511H16.6803Z" fill="url(#paint6_linear_424_591)"/>
<path d="M13.3461 8.85712C13.3439 8.85712 13.3439 8.85712 13.3416 8.85712C13.3394 8.85712 13.3394 8.85712 13.3372 8.85712C3.2336 8.90632 5.30414 19.5468 5.30414 19.5468C5.30414 19.5468 5.75783 20.6436 5.96466 21.1275C5.99357 21.1972 6.10477 21.189 6.12257 21.1172C6.33829 20.2274 7.11447 17.0722 7.50589 16.1127C7.73718 15.5469 8.37325 15.2188 9.01598 15.3275C10.0057 15.4936 11.5847 15.6986 13.3239 15.6986H13.3416C13.3416 15.6986 13.355 15.6986 13.3594 15.6986C15.0986 15.6986 16.6776 15.4936 17.6673 15.3275C18.3123 15.2188 18.9483 15.5489 19.1774 16.1127C19.5666 17.0681 20.3383 20.2049 20.5563 21.107C20.5741 21.1808 20.6853 21.1869 20.7142 21.1172L21.3769 19.5447C21.3814 19.5468 23.4519 8.90632 13.3461 8.85712Z" fill="#3C2C23"/>
<path d="M21.3814 19.5468C21.3814 19.5468 23.452 8.90632 13.3461 8.85712C13.3439 8.85712 13.3439 8.85712 13.3417 8.85712C13.3395 8.85712 13.3395 8.85712 13.3373 8.85712C13.1793 8.85712 13.0259 8.86122 12.8747 8.86737C12.5744 8.87967 12.2831 8.90017 12.0029 8.93092C12.0006 8.93092 11.9962 8.93092 11.994 8.93092C11.9739 8.93297 11.9562 8.93707 11.9361 8.93912C3.43159 9.92526 5.30419 19.5468 5.30419 19.5468L5.96694 21.1213C5.99585 21.191 6.10483 21.1849 6.12262 21.1111C6.34057 20.211 7.11452 17.0702 7.50595 16.1148C7.73724 15.5489 8.3733 15.2209 9.01604 15.3295C10.0057 15.4956 11.5847 15.7006 13.3239 15.7006H13.3417C13.3417 15.7006 13.355 15.7006 13.3595 15.7006C15.0987 15.7006 16.6777 15.4956 17.6674 15.3295C18.3123 15.2209 18.9484 15.551 19.1775 16.1148C19.5689 17.0743 20.3451 20.2356 20.5586 21.1213C20.5763 21.1951 20.6853 21.2013 20.7142 21.1316C20.9255 20.6477 21.3814 19.5468 21.3814 19.5468Z" fill="url(#paint7_radial_424_591)"/>
<path d="M27.9182 15.2267C23.6282 15.2267 19 12.8542 19 7.6483C19 2.44238 23.6282 0.0698853 27.9182 0.0698853C30.3015 0.0698853 32.5003 0.761297 34.1302 2.02211C35.8984 3.40493 36.8364 5.35715 36.8364 7.6483C36.8364 9.93945 35.8984 11.8781 34.1302 13.2609C32.5003 14.5217 30.2861 15.2267 27.9182 15.2267Z" fill="url(#paint8_radial_424_591)"/>
<path d="M27.9182 15.2267C23.6282 15.2267 19 12.8542 19 7.6483C19 2.44238 23.6282 0.0698853 27.9182 0.0698853C30.3015 0.0698853 32.5003 0.761297 34.1302 2.02211C35.8984 3.40493 36.8364 5.35715 36.8364 7.6483C36.8364 9.93945 35.8984 11.8781 34.1302 13.2609C32.5003 14.5217 30.2861 15.2267 27.9182 15.2267Z" fill="url(#paint9_linear_424_591)"/>
<path d="M35.2818 3.14326C36.1014 4.30917 36.5288 5.69742 36.5288 7.24157C36.5288 9.53272 35.5909 11.4714 33.8226 12.8542C32.1927 14.115 29.9786 14.82 27.6106 14.82C24.8337 14.82 21.9215 13.8235 20.2024 11.71C21.8569 14.1042 24.969 15.2267 27.9182 15.2267C30.2861 15.2267 32.5003 14.5217 34.1301 13.2609C35.8984 11.8781 36.8363 9.93944 36.8363 7.64829C36.8363 5.92111 36.3028 4.38645 35.2818 3.14326Z" fill="#EB8F00"/>
<path opacity="0.66" d="M19.1353 9.30362C19.289 8.94978 19.9686 8.94436 20.4714 9.15856C21.4448 9.57476 21.3294 10.4858 21.8169 10.6675C22.3043 10.8491 23.8434 9.73609 26.0069 9.55985C26.2498 9.53951 27.6844 9.38089 27.8259 9.91233C27.8812 10.1225 27.4753 10.1631 27.4753 10.1631C26.5958 10.4505 25.7009 10.7434 24.9136 11.1975C24.0203 11.7114 23.2392 12.438 22.2013 12.6522C21.7969 12.7349 21.3402 12.7227 21.0111 12.5017C20.6021 12.2306 20.5114 11.733 20.3623 11.3006C20.1916 10.8057 19.9102 10.3448 19.5381 9.94487" fill="url(#paint10_linear_424_591)"/>
<path d="M19.1169 9.30225C18.837 9.60186 19.4321 10.3977 19.5382 10.803C19.7934 11.7818 19.5382 12.0232 19.5182 12.8935C19.5013 13.8507 19.8257 14.6559 20.6529 15.1698C21.431 15.6565 22.2874 15.712 23.4868 15.4002C24.6861 15.0884 25.4964 14.9379 25.5579 14.4173C25.5918 14.2018 25.4626 13.9903 25.2381 13.8981C25.358 13.8479 25.4534 13.7625 25.5072 13.6554C25.7932 13.0535 25.2227 12.9261 25.2227 12.9261C25.3012 12.8434 25.3673 12.7525 25.4196 12.6549C25.5902 12.3553 25.5626 11.9486 25.0705 11.8157C24.8445 11.7547 24.783 11.7873 24.783 11.7873C25.0167 11.5758 25.2965 11.4063 25.6056 11.2924C26.4328 10.9793 27.4138 10.7895 27.6583 10.6064C28.0135 10.3353 28.035 9.81335 27.4077 9.65744C26.5066 9.42426 24.8491 9.96655 23.8404 10.5319C22.8317 11.0972 21.9061 11.4022 21.5986 11.2992C21.291 11.1962 21.1004 11.0281 20.9835 10.6214C20.7667 9.86487 20.5991 9.57203 20.2316 9.28869C19.9272 9.05822 19.3321 9.07178 19.1169 9.30225Z" fill="url(#paint11_radial_424_591)"/>
<path d="M24.1172 12.2414C24.1172 12.2414 23.8912 12.1059 24.7938 11.47C25.4088 11.0349 25.764 10.9562 26.5005 10.7922C27.9889 10.4709 27.8951 10.0574 27.8951 10.0574C27.9751 10.6661 27.2924 10.8017 26.7927 10.94C26.7404 10.9535 26.6912 10.9711 26.6389 10.982C24.9275 11.367 24.3294 12.3621 24.1172 12.2414Z" fill="url(#paint12_linear_424_591)"/>
<path d="M25.5197 13.7503C25.6534 13.5551 25.6903 13.3179 25.6196 13.0982C25.5704 12.9694 25.4766 12.8569 25.349 12.7796C25.3674 12.758 25.3859 12.7376 25.4028 12.7132C25.5396 12.5248 25.5596 12.2875 25.4566 12.0828C25.3398 11.9215 25.1491 11.8144 24.9354 11.79C25.0814 11.8523 25.1906 11.9676 25.2337 12.1059C25.2583 12.2726 25.2306 12.4434 25.1568 12.598C25.0584 12.8095 24.8385 12.9572 24.5817 12.9871C24.2096 13.0521 24.3234 13.1877 24.3234 13.1877C24.3557 13.2962 24.7954 13.1958 25.1291 12.9762C25.2229 13.0196 25.2936 13.0942 25.3275 13.1823C25.3628 13.3192 25.3413 13.4643 25.2675 13.589C25.1645 13.7883 24.9646 13.9374 24.7247 13.9957C24.3941 14.0757 24.4848 14.1828 24.4848 14.1828C24.4848 14.1828 24.5002 14.4133 25.1798 14.0337C25.2598 14.1692 25.3659 14.4716 25.1537 14.6668C24.4341 15.3352 22.3137 15.5927 22.3137 15.5927C23.3901 15.5927 24.8692 15.2267 25.3275 14.8918C25.5058 14.7685 25.6104 14.5814 25.6119 14.3821C25.6319 14.1964 25.5535 14.012 25.4013 13.8818C25.4443 13.8412 25.4843 13.7978 25.5197 13.7503Z" fill="url(#paint13_linear_424_591)"/>
<path d="M29.9587 8.78844C29.9095 8.78031 29.8633 8.76268 29.8249 8.73421C29.1314 8.24345 28.3042 7.9235 27.4262 7.8042C26.5482 7.66998 25.6472 7.74319 24.8123 8.01569C24.7661 8.03196 24.7169 8.03738 24.6677 8.0306C24.5601 8.01433 24.4724 7.94384 24.4432 7.85029C24.414 7.7581 24.4494 7.66049 24.5324 7.59949C26.1623 6.40646 28.5794 6.60439 29.9325 8.04145C30.0432 8.15939 30.1447 8.28412 30.237 8.41291C30.2954 8.4929 30.2954 8.59593 30.237 8.67592C30.177 8.75862 30.0678 8.802 29.9587 8.78844Z" fill="#422B0D"/>
<path d="M30.5582 3.33849C31.2025 3.33849 31.7883 3.81841 31.7883 4.61556C31.7883 5.41272 31.2025 5.89129 30.5582 5.89129C29.914 5.89129 29.3281 5.41136 29.3281 4.61556C29.3281 3.81976 29.914 3.33849 30.5582 3.33849Z" fill="#422B0D"/>
<path d="M25.2335 2.10344C24.5893 2.10344 24.0034 2.58336 24.0034 3.37916C24.0034 4.17496 24.5893 4.65624 25.2335 4.65624C25.8793 4.65624 26.4636 4.17632 26.4636 3.37916C26.4636 2.582 25.8793 2.10344 25.2335 2.10344Z" fill="#422B0D"/>
<path d="M24.2478 0.562003C24.1786 0.46168 24.1694 0.336955 24.2232 0.229854C24.2816 0.122753 24.3969 0.0495444 24.5307 0.0346316C25.3687 -0.0806037 26.2236 0.0942828 26.9186 0.521331C27.1785 0.678593 27.4091 0.868393 27.6044 1.08666C27.6167 1.10022 27.6275 1.11513 27.6382 1.1314C27.7428 1.27511 27.7074 1.4649 27.5567 1.57201C27.3953 1.68995 27.1585 1.68589 27.0032 1.56116L27.0678 1.46897L26.9894 1.55031C26.3159 1.05412 25.4733 0.770782 24.5968 0.747735C24.4507 0.747735 24.3154 0.679949 24.2416 0.568781L24.2478 0.562003Z" fill="#422B0D"/>
<path d="M32.4388 2.98736C32.5526 2.93178 32.6295 2.8301 32.6448 2.71622C32.6541 2.59827 32.5972 2.48439 32.4911 2.41254C31.8253 1.94482 30.9796 1.72113 30.1324 1.79163C29.8187 1.81467 29.5112 1.87975 29.219 1.98414L29.1637 2.00718C28.993 2.08717 28.9176 2.26748 28.9884 2.4261C29.0637 2.59827 29.2682 2.69589 29.4727 2.65657V2.54811L29.4942 2.65386C30.3553 2.51286 31.2456 2.63081 32.0221 2.98872C32.1497 3.05244 32.305 3.05244 32.4326 2.98872L32.4388 2.98736Z" fill="#422B0D"/>
<defs>
<linearGradient id="paint0_linear_424_591" x1="13.3448" y1="9.77727" x2="13.3448" y2="26.0891" gradientUnits="userSpaceOnUse">
<stop offset="0.0032" stop-color="#424242"/>
<stop offset="0.2705" stop-color="#353535"/>
<stop offset="0.7639" stop-color="#131313"/>
<stop offset="1"/>
</linearGradient>
<linearGradient id="paint1_linear_424_591" x1="13.3448" y1="9.77727" x2="13.3448" y2="26.0891" gradientUnits="userSpaceOnUse">
<stop offset="0.0012" stop-color="#BFBEBE"/>
<stop offset="0.15" stop-color="#212121" stop-opacity="0"/>
<stop offset="0.7759" stop-color="#212121" stop-opacity="0"/>
<stop offset="1" stop-color="#BFBEBE"/>
</linearGradient>
<linearGradient id="paint2_linear_424_591" x1="0.173551" y1="17.8734" x2="26.7157" y2="17.8734" gradientUnits="userSpaceOnUse">
<stop offset="0.0012" stop-color="#BFBEBE"/>
<stop offset="0.1" stop-color="#212121" stop-opacity="0"/>
<stop offset="0.9" stop-color="#212121" stop-opacity="0"/>
<stop offset="1" stop-color="#BFBEBE"/>
</linearGradient>
<linearGradient id="paint3_linear_424_591" x1="3.65463" y1="31.1827" x2="1.72942" y2="28.2107" gradientUnits="userSpaceOnUse">
<stop stop-color="#8D5738"/>
<stop offset="0.5" stop-color="#A56C43"/>
</linearGradient>
<linearGradient id="paint4_linear_424_591" x1="22.9119" y1="32.1756" x2="24.8371" y2="29.2036" gradientUnits="userSpaceOnUse">
<stop stop-color="#8D5738"/>
<stop offset="0.5" stop-color="#A56C43"/>
</linearGradient>
<linearGradient id="paint5_linear_424_591" x1="13.345" y1="23.3117" x2="13.345" y2="37.3377" gradientUnits="userSpaceOnUse">
<stop stop-color="#4DD0E1"/>
<stop offset="1" stop-color="#00BCD4"/>
</linearGradient>
<linearGradient id="paint6_linear_424_591" x1="13.345" y1="27.0165" x2="13.345" y2="35.0692" gradientUnits="userSpaceOnUse">
<stop stop-color="#00BCD4"/>
<stop offset="1" stop-color="#0097A7"/>
</linearGradient>
<radialGradient id="paint7_radial_424_591" cx="0" cy="0" r="1" gradientUnits="userSpaceOnUse" gradientTransform="translate(13.3425 17.6868) scale(8.47174 8.81086)">
<stop offset="0.7945" stop-color="#554138" stop-opacity="0"/>
<stop offset="1" stop-color="#554138"/>
</radialGradient>
<radialGradient id="paint8_radial_424_591" cx="0" cy="0" r="1" gradientUnits="userSpaceOnUse" gradientTransform="translate(27.9182 7.6483) scale(8.75823 7.72208)">
<stop offset="0.5" stop-color="#FDE030"/>
<stop offset="0.92" stop-color="#F7C02B"/>
<stop offset="1" stop-color="#F4A223"/>
</radialGradient>
<linearGradient id="paint9_linear_424_591" x1="27.9182" y1="15.2267" x2="27.9182" y2="0.0698853" gradientUnits="userSpaceOnUse">
<stop stop-color="#F4A223"/>
<stop offset="0.08" stop-color="#F7C02B"/>
<stop offset="0.54" stop-color="#FDE030" stop-opacity="0"/>
</linearGradient>
<linearGradient id="paint10_linear_424_591" x1="23.5165" y1="13.547" x2="23.4866" y2="9.02158" gradientUnits="userSpaceOnUse">
<stop stop-color="#BF360C"/>
<stop offset="1" stop-color="#BF360C" stop-opacity="0.2"/>
</linearGradient>
<radialGradient id="paint11_radial_424_591" cx="0" cy="0" r="1" gradientUnits="userSpaceOnUse" gradientTransform="translate(24.5124 10.4154) scale(9.10424 7.54552)">
<stop offset="0.27" stop-color="#FFF176"/>
<stop offset="1" stop-color="#FFC400"/>
</radialGradient>
<linearGradient id="paint12_linear_424_591" x1="24.1789" y1="11.9503" x2="27.8445" y2="9.88562" gradientUnits="userSpaceOnUse">
<stop offset="0.13" stop-color="#DA6727"/>
<stop offset="1" stop-color="#FFC400"/>
</linearGradient>
<linearGradient id="paint13_linear_424_591" x1="23.9788" y1="15.3175" x2="24.0039" y2="10.1699" gradientUnits="userSpaceOnUse">
<stop offset="0.13" stop-color="#DA6727"/>
<stop offset="1" stop-color="#FFC400"/>
</linearGradient>
</defs>
</svg>
