<svg width="25" height="27" viewBox="0 0 25 27" fill="none" xmlns="http://www.w3.org/2000/svg">
<path d="M19.4494 18.4088C19.1907 17.9936 19.5212 17.5719 20.0842 17.048C20.9777 16.2175 21.9516 14.2936 21.0473 12.3392C21.0538 12.3284 20.869 12.0001 20.8755 11.9871L20.5038 11.9697C20.3842 11.9544 16.295 11.9479 12.2037 11.9479C8.11237 11.9479 4.0232 11.9544 3.90363 11.9697C3.90363 11.9697 3.35363 12.3262 3.35798 12.3371C2.45362 14.2914 3.42754 16.2154 4.32103 17.0458C4.88408 17.5675 5.21451 17.9915 4.95582 18.4067C4.70364 18.811 3.95581 18.8697 3.95581 18.8697C3.95581 18.8697 4.12972 19.2828 4.54494 19.5045C4.92973 19.711 5.40147 19.7589 5.72974 19.7654C5.72974 19.7654 7.00801 21.3219 10.345 21.3219H12.2037H14.0624C17.4016 21.3219 18.6777 19.7654 18.6777 19.7654C19.0038 19.7589 19.4777 19.711 19.8625 19.5045C20.2777 19.2828 20.4516 18.8697 20.4516 18.8697C20.4516 18.8697 19.6994 18.811 19.4494 18.4088Z" fill="#3C2C23"/>
<path d="M12.1992 21.3219V19.5958L18.1319 19.1828L18.671 19.7676C18.671 19.7676 17.3927 21.3241 14.0558 21.3241L12.1992 21.3219Z" fill="url(#paint0_radial_424_499)"/>
<path d="M18.6603 19.0132C17.7711 17.8241 19.7429 17.3828 19.7429 17.3828C19.7429 17.3828 19.7451 17.3828 19.7451 17.3849C19.4016 17.7588 19.2472 18.0871 19.4472 18.411C19.6994 18.8154 20.4472 18.8741 20.4472 18.8741C20.4472 18.8741 19.4277 19.6676 18.6603 19.0132Z" fill="url(#paint1_radial_424_499)"/>
<path d="M21.0515 12.3392C21.9341 14.2327 21.0059 16.1806 20.1363 17.0023C20.0167 17.1154 19.5102 17.5523 19.395 17.9023C19.395 17.9023 17.4145 15.4697 16.821 14.0392C16.7015 13.7501 16.5928 13.4544 16.5776 13.1458C16.5667 12.9153 16.608 12.6414 16.758 12.4457C16.9428 12.2066 20.945 12.1349 20.945 12.1349C20.9472 12.1392 21.0515 12.3392 21.0515 12.3392Z" fill="url(#paint2_radial_424_499)"/>
<path d="M3.35568 12.3392C2.47306 14.2327 3.40133 16.1806 4.2709 17.0023C4.39047 17.1154 4.89699 17.5523 5.01221 17.9023C5.01221 17.9023 6.99266 15.4697 7.58615 14.0392C7.70571 13.7501 7.81441 13.4544 7.82963 13.1458C7.8405 12.9153 7.79919 12.6414 7.64919 12.4457C7.46441 12.2066 7.24919 12.2697 6.93614 12.2697C6.33831 12.2697 3.7209 12.1349 3.51655 12.1349C3.51437 12.1392 3.35568 12.3392 3.35568 12.3392Z" fill="url(#paint3_radial_424_499)"/>
<path d="M12.2079 21.3219V19.5958L6.27522 19.1828L5.73608 19.7676C5.73608 19.7676 7.01436 21.3241 10.3513 21.3241L12.2079 21.3219Z" fill="url(#paint4_radial_424_499)"/>
<path d="M5.74913 19.0132C6.63827 17.8241 4.66651 17.3828 4.66651 17.3828C4.66651 17.3828 4.66434 17.3828 4.66434 17.3849C5.00782 17.7588 5.16217 18.0871 4.96217 18.411C4.70999 18.8154 3.96216 18.8741 3.96216 18.8741C3.96216 18.8741 4.98173 19.6676 5.74913 19.0132Z" fill="url(#paint5_radial_424_499)"/>
<path d="M17.9211 12.8631H6.54271C5.31661 12.8631 4.31226 13.8349 4.31226 15.024C4.31226 16.2132 5.31661 17.1849 6.54271 17.1849H17.9189C19.145 17.1849 20.1493 16.2132 20.1493 15.024C20.1493 13.8349 19.1472 12.8631 17.9211 12.8631Z" fill="#7A4C32"/>
<path d="M22.895 19.6958C19.8472 16.548 13.2819 16.3175 12.3406 16.3023V16.3001C12.3406 16.3001 12.3167 16.3001 12.2819 16.3001C12.2471 16.3001 12.2232 16.3001 12.2232 16.3001V16.3023C11.2819 16.3197 4.71444 16.548 1.66876 19.698C-0.55082 21.9937 -0.0725552 24.2198 0.390492 24.8741C1.26224 26.1089 3.59704 26.6676 3.59704 26.6676H12.1776H12.3862H20.9668C20.9668 26.6676 23.3016 26.1089 24.1733 24.8741C24.6342 24.2176 25.1146 21.9915 22.895 19.6958Z" fill="url(#paint6_linear_424_499)"/>
<path opacity="0.2" d="M12.232 19.8719C6.30582 19.8719 4.3645 22.2763 4.3645 22.2763L6.76018 23.6176C6.92974 23.7328 6.99279 23.9524 6.908 24.1372L6.78844 24.4045L10.0667 26.6763H14.3972L17.6755 24.4045L17.5559 24.1372C17.4711 23.9524 17.5342 23.7328 17.7037 23.6176L20.0516 22.248C20.0516 22.248 18.1581 19.8719 12.232 19.8719Z" fill="url(#paint7_radial_424_499)"/>
<path d="M12.232 18.648H10.2581V20.8176C10.2581 21.798 11.1907 22.5937 12.232 22.5937C13.2733 22.5937 14.2059 21.798 14.2059 20.8176V18.648H12.232Z" fill="#7A4C32"/>
<path d="M6.78832 24.4067L7.50789 24.4502C7.77311 24.4502 8.03398 24.4893 8.28616 24.5654C9.06877 24.8046 10.7949 25.4067 11.7318 25.6459C11.9623 25.7046 12.121 25.9111 12.121 26.1502C12.121 26.2937 12.0623 26.4241 11.9688 26.5176C11.8731 26.6133 11.7427 26.672 11.5992 26.672H5.83179L6.78832 24.4067Z" fill="url(#paint8_linear_424_499)"/>
<path d="M17.6754 24.4067L16.9559 24.4502C16.6906 24.4502 16.4298 24.4893 16.1776 24.5654C15.395 24.8046 13.671 25.4067 12.7341 25.6459C12.5015 25.7046 12.3428 25.9111 12.3428 26.1502C12.3428 26.2937 12.4015 26.4241 12.4949 26.5176C12.5906 26.6133 12.721 26.672 12.8645 26.672H18.6167L17.6754 24.4067Z" fill="url(#paint9_linear_424_499)"/>
<path d="M12.232 5.2196C8.60804 5.2196 5.25366 8.74355 5.25366 13.8153C5.25366 18.8589 8.71021 21.3524 12.232 21.3524C15.7538 21.3524 19.2103 18.8589 19.2103 13.8153C19.2103 8.74355 15.8538 5.2196 12.232 5.2196Z" fill="#A56C43"/>
<path d="M13.0341 17.9262C13.0123 17.9175 12.9884 17.9132 12.9667 17.911H11.4949C11.4732 17.9132 11.4493 17.9175 11.4275 17.9262C11.2949 17.9762 11.221 18.1023 11.2841 18.2349C11.3471 18.3675 11.6406 18.7458 12.2319 18.7458C12.8232 18.7458 13.1167 18.3697 13.1797 18.2349C13.2428 18.1023 13.1689 17.9762 13.0341 17.9262Z" fill="#875334"/>
<path d="M8.65793 16.8501C9.24984 16.8501 9.72968 16.4608 9.72968 15.9806C9.72968 15.5003 9.24984 15.111 8.65793 15.111C8.06602 15.111 7.58618 15.5003 7.58618 15.9806C7.58618 16.4608 8.06602 16.8501 8.65793 16.8501Z" fill="#42312C"/>
<path d="M15.8059 16.8501C16.3978 16.8501 16.8776 16.4608 16.8776 15.9806C16.8776 15.5003 16.3978 15.111 15.8059 15.111C15.214 15.111 14.7341 15.5003 14.7341 15.9806C14.7341 16.4608 15.214 16.8501 15.8059 16.8501Z" fill="#42312C"/>
<path d="M10.2732 14.0262C10.0711 13.7588 9.60585 13.3718 8.70149 13.3718C7.79713 13.3718 7.32974 13.761 7.12974 14.0262C7.04061 14.1436 7.06234 14.2805 7.12539 14.3632C7.18191 14.4392 7.35148 14.511 7.53844 14.4479C7.72539 14.3849 8.09061 14.1958 8.70149 14.1914C9.31236 14.1958 9.67759 14.3849 9.86454 14.4479C10.0515 14.511 10.2211 14.4392 10.2776 14.3632C10.3385 14.2805 10.3602 14.1436 10.2732 14.0262Z" fill="#42312C"/>
<path d="M17.3362 14.0262C17.1341 13.7588 16.6688 13.3718 15.7645 13.3718C14.8601 13.3718 14.3927 13.761 14.1927 14.0262C14.1036 14.1436 14.1253 14.2805 14.1884 14.3632C14.2449 14.4392 14.4145 14.511 14.6014 14.4479C14.7884 14.3849 15.1536 14.1958 15.7645 14.1914C16.3754 14.1958 16.7406 14.3849 16.9275 14.4479C17.1145 14.511 17.2841 14.4392 17.3406 14.3632C17.4036 14.2805 17.4254 14.1436 17.3362 14.0262Z" fill="#42312C"/>
<path d="M9.74492 3.1935L9.15796 1" stroke="#B0BEC5" stroke-width="0.869573" stroke-miterlimit="10" stroke-linecap="round"/>
<path d="M6.3536 4.62829L4.90576 3.20436" stroke="#B0BEC5" stroke-width="0.869573" stroke-miterlimit="10" stroke-linecap="round"/>
<path d="M17.9514 4.8109L19.558 3.20436" stroke="#B0BEC5" stroke-width="0.869573" stroke-miterlimit="10" stroke-linecap="round"/>
<path d="M14.719 3.1935L15.306 1" stroke="#B0BEC5" stroke-width="0.869573" stroke-miterlimit="10" stroke-linecap="round"/>
<path d="M21.219 9.38268C20.4712 6.98701 18.1929 6.98266 18.1929 6.98266C17.8299 6.10657 16.2864 3.05871 11.7907 4.4522C10.7602 4.77177 9.94283 4.78916 9.48848 4.43264C8.7863 3.88046 8.85369 3.11958 8.85369 3.11958C8.85369 3.11958 7.07976 3.55437 7.34933 5.24134C6.79932 5.27395 5.86453 5.50221 5.14061 6.56309C4.54713 7.43266 4.53409 8.33919 4.57757 8.80007C4.05147 9.01529 3.32321 9.57834 3.21234 10.7305C3.18407 11.0131 3.21451 11.2762 3.27321 11.5153C3.42538 12.1218 3.81451 12.6414 4.32539 13.0023L4.99496 13.474C4.99496 13.474 4.96887 15.1197 5.5254 16.1501C5.5254 16.1501 6.22106 14.2305 6.59497 13.3914C8.26021 13.5414 10.2907 12.9979 11.9298 11.8023C12.4363 11.4327 13.6907 10.9001 14.3059 10.8414C15.8494 10.6957 16.3407 12.1588 16.3407 12.1588C16.3407 12.1588 17.482 12.0371 17.969 12.9197C18.2864 13.4936 18.8277 16.2197 18.8277 16.2197C18.8277 16.2197 19.2451 15.124 19.4125 13.924C20.4016 13.5718 21.1255 12.7197 21.3168 11.6892C21.4429 11.0044 21.4712 10.1957 21.219 9.38268Z" fill="#3C2C23"/>
<path d="M19.4147 13.9218C19.7669 13.7697 21.6734 13.1523 21.3973 10.3218C21.0799 7.04135 18.2712 6.99353 18.193 6.98483C18.193 6.98483 18.1321 7.37179 17.9256 7.65875C17.6582 8.02832 16.9495 8.16528 16.9495 8.16528C19.293 10.4479 19.1799 12.0197 19.4147 13.9218Z" fill="url(#paint10_radial_424_499)"/>
<path d="M12.0863 4.36741C11.8493 4.43263 10.2863 5.04785 9.49061 4.43263C8.81017 3.90654 8.85148 3.15219 8.85583 3.1261C8.56234 3.38045 7.48625 5.36307 9.67757 5.83699C10.6232 6.04134 11.3254 5.36525 11.7732 4.77177C11.9341 4.55437 12.0189 4.45002 12.0863 4.36741Z" fill="url(#paint11_radial_424_499)"/>
<path d="M15.4407 4.31742C16.9712 4.7522 17.8342 6.15439 18.1951 6.98266C18.3147 7.25657 17.4929 9.78703 12.282 6.62178C10.3429 5.44351 11.0298 4.70872 11.2907 4.62394C12.3038 4.30002 13.6016 3.79567 15.4407 4.31742Z" fill="url(#paint12_radial_424_499)"/>
<path d="M8.84929 3.12393C8.84712 3.12393 8.84277 3.1261 8.83625 3.1261C8.83625 3.1261 8.83625 3.1261 8.83407 3.1261C8.75147 3.16089 7.09493 3.58263 7.34928 5.23917L8.91451 5.71961C7.71233 4.2022 8.85581 3.11958 8.85581 3.11958C8.85581 3.11958 8.85147 3.12393 8.84929 3.12393Z" fill="url(#paint13_radial_424_499)"/>
<path d="M8.33195 5.44787C8.33195 5.44787 7.01238 4.66742 5.47323 6.1457C4.32105 7.2544 4.57757 8.80007 4.57757 8.80007C4.57757 8.80007 5.07758 8.51963 6.29498 8.63702L8.33195 5.44787Z" fill="url(#paint14_radial_424_499)"/>
<path d="M3.25784 11.4392C3.51871 12.7631 4.93177 13.3784 5.06221 13.4023L6.297 8.63702C3.72089 8.32397 2.99914 10.1262 3.25784 11.4392Z" fill="url(#paint15_radial_424_499)"/>
<defs>
<radialGradient id="paint0_radial_424_499" cx="0" cy="0" r="1" gradientUnits="userSpaceOnUse" gradientTransform="translate(15.23 18.8284) scale(4.86333 2.10296)">
<stop offset="0.7275" stop-color="#554138" stop-opacity="0"/>
<stop offset="1" stop-color="#554138"/>
</radialGradient>
<radialGradient id="paint1_radial_424_499" cx="0" cy="0" r="1" gradientUnits="userSpaceOnUse" gradientTransform="translate(20.0207 18.192) rotate(157.613) scale(1.40788 0.958137)">
<stop offset="0.6628" stop-color="#554138"/>
<stop offset="1" stop-color="#554138" stop-opacity="0"/>
</radialGradient>
<radialGradient id="paint2_radial_424_499" cx="0" cy="0" r="1" gradientUnits="userSpaceOnUse" gradientTransform="translate(16.2948 14.614) rotate(-94.8607) scale(5.56167 5.25703)">
<stop offset="0.7247" stop-color="#554138" stop-opacity="0"/>
<stop offset="1" stop-color="#554138"/>
</radialGradient>
<radialGradient id="paint3_radial_424_499" cx="0" cy="0" r="1" gradientUnits="userSpaceOnUse" gradientTransform="translate(8.11316 14.614) rotate(-85.1393) scale(5.56167 5.25703)">
<stop offset="0.7247" stop-color="#554138" stop-opacity="0"/>
<stop offset="1" stop-color="#554138"/>
</radialGradient>
<radialGradient id="paint4_radial_424_499" cx="0" cy="0" r="1" gradientUnits="userSpaceOnUse" gradientTransform="translate(9.17751 18.8284) rotate(180) scale(4.86332 2.10296)">
<stop offset="0.7275" stop-color="#554138" stop-opacity="0"/>
<stop offset="1" stop-color="#554138"/>
</radialGradient>
<radialGradient id="paint5_radial_424_499" cx="0" cy="0" r="1" gradientUnits="userSpaceOnUse" gradientTransform="translate(4.38715 18.192) rotate(22.3872) scale(1.40788 0.958137)">
<stop offset="0.6628" stop-color="#554138"/>
<stop offset="1" stop-color="#554138" stop-opacity="0"/>
</radialGradient>
<linearGradient id="paint6_linear_424_499" x1="12.2813" y1="16.1318" x2="12.2813" y2="27.184" gradientUnits="userSpaceOnUse">
<stop stop-color="#F78C1F"/>
<stop offset="0.482" stop-color="#F47F12"/>
<stop offset="1" stop-color="#EF6C00"/>
</linearGradient>
<radialGradient id="paint7_radial_424_499" cx="0" cy="0" r="1" gradientUnits="userSpaceOnUse" gradientTransform="translate(12.2076 23.2735) scale(8.40268 3.48039)">
<stop offset="0.771"/>
<stop offset="1" stop-opacity="0"/>
</radialGradient>
<linearGradient id="paint8_linear_424_499" x1="11.7554" y1="25.5387" x2="7.11071" y2="25.5387" gradientUnits="userSpaceOnUse">
<stop offset="0.5" stop-color="#A56C43"/>
<stop offset="1" stop-color="#8D5738"/>
</linearGradient>
<linearGradient id="paint9_linear_424_499" x1="13.0598" y1="25.5387" x2="17.5193" y2="25.5387" gradientUnits="userSpaceOnUse">
<stop offset="0.5" stop-color="#A56C43"/>
<stop offset="1" stop-color="#8D5738"/>
</linearGradient>
<radialGradient id="paint10_radial_424_499" cx="0" cy="0" r="1" gradientUnits="userSpaceOnUse" gradientTransform="translate(15.4535 11.449) rotate(73.3936) scale(6.94526 5.95005)">
<stop offset="0.6985" stop-color="#554138" stop-opacity="0"/>
<stop offset="1" stop-color="#554138"/>
</radialGradient>
<radialGradient id="paint11_radial_424_499" cx="0" cy="0" r="1" gradientUnits="userSpaceOnUse" gradientTransform="translate(10.3111 3.2531) rotate(34.8409) scale(1.86692 2.10776)">
<stop offset="0.58" stop-color="#554138"/>
<stop offset="1" stop-color="#554138" stop-opacity="0"/>
</radialGradient>
<radialGradient id="paint12_radial_424_499" cx="0" cy="0" r="1" gradientUnits="userSpaceOnUse" gradientTransform="translate(12.728 7.83187) rotate(-157.315) scale(6.36593 3.78016)">
<stop offset="0.6985" stop-color="#554138" stop-opacity="0"/>
<stop offset="1" stop-color="#554138"/>
</radialGradient>
<radialGradient id="paint13_radial_424_499" cx="0" cy="0" r="1" gradientUnits="userSpaceOnUse" gradientTransform="translate(9.36923 4.74296) rotate(8.60571) scale(1.76302 1.98234)">
<stop offset="0.7016" stop-color="#554138" stop-opacity="0"/>
<stop offset="1" stop-color="#554138"/>
</radialGradient>
<radialGradient id="paint14_radial_424_499" cx="0" cy="0" r="1" gradientUnits="userSpaceOnUse" gradientTransform="translate(8.92363 7.27634) rotate(-168.8) scale(3.76081 3.26913)">
<stop offset="0.6605" stop-color="#554138" stop-opacity="0"/>
<stop offset="1" stop-color="#554138"/>
</radialGradient>
<radialGradient id="paint15_radial_424_499" cx="0" cy="0" r="1" gradientUnits="userSpaceOnUse" gradientTransform="translate(7.0024 11.6138) rotate(19.6528) scale(3.49653 5.39694)">
<stop offset="0.5981" stop-color="#554138" stop-opacity="0"/>
<stop offset="1" stop-color="#554138"/>
</radialGradient>
</defs>
</svg>
