<svg width="28" height="32" viewBox="0 0 28 32" fill="none" xmlns="http://www.w3.org/2000/svg">
<path d="M26.7851 24.0746H1.87641C1.38491 24.0746 0.986816 23.7076 0.986816 23.2545V8.49315C0.986816 8.04006 1.38491 7.67308 1.87641 7.67308H26.7851C27.2766 7.67308 27.6747 8.04006 27.6747 8.49315V23.2545C27.6747 23.7076 27.2766 24.0746 26.7851 24.0746Z" fill="url(#paint0_linear_424_394)"/>
<path opacity="0.3" d="M26.7851 24.0746H1.87641C1.38491 24.0746 0.986816 23.7076 0.986816 23.2545V8.49315C0.986816 8.04006 1.38491 7.67308 1.87641 7.67308H26.7851C27.2766 7.67308 27.6747 8.04006 27.6747 8.49315V23.2545C27.6747 23.7076 27.2766 24.0746 26.7851 24.0746Z" fill="url(#paint1_linear_424_394)"/>
<path opacity="0.3" d="M26.7895 24.0746H1.88081C1.38931 24.0746 0.991211 23.7076 0.991211 23.2545V8.49315C0.991211 8.04006 1.38931 7.67308 1.88081 7.67308H26.7895C27.281 7.67308 27.6791 8.04006 27.6791 8.49315V23.2545C27.6791 23.7076 27.2788 24.0746 26.7895 24.0746Z" fill="url(#paint2_linear_424_394)"/>
<path d="M2.76562 9.31325H8.10321V10.1333H2.76562V9.31325Z" fill="#76FF03"/>
<path d="M19.2236 9.31325H22.782V10.1333H19.2236V9.31325Z" fill="#76FF03"/>
<path d="M24.1162 9.31325H25.8954V10.1333H24.1162V9.31325Z" fill="#76FF03"/>
<path d="M4.54541 11.7735H6.3246V12.5935H4.54541V11.7735Z" fill="#76FF03"/>
<path d="M2.76562 14.2337H6.32401V15.0538H2.76562V14.2337Z" fill="#76FF03"/>
<path d="M2.76562 16.6939H4.54482V17.514H2.76562V16.6939Z" fill="#76FF03"/>
<path d="M21.8921 16.6939H24.5609V17.514H21.8921V16.6939Z" fill="#76FF03"/>
<path d="M23.2268 14.2337H25.8956V15.0538H23.2268V14.2337Z" fill="#76FF03"/>
<path d="M2.76562 19.1541H6.32401V19.9742H2.76562V19.1541Z" fill="#76FF03"/>
<path d="M21.4473 19.1541H25.8953V19.9742H21.4473V19.1541Z" fill="#76FF03"/>
<path d="M22.3372 11.7735H25.0059V12.5935H22.3372V11.7735Z" fill="#76FF03"/>
<path d="M1.79638 31.4511H4.64976C4.89885 31.4327 5.09678 31.2092 5.09678 30.9345V30.8012C5.09678 30.0673 4.73872 29.4255 4.20274 29.0688C4.20274 29.0996 4.20496 29.1303 4.20496 29.1611C4.20496 30.0017 3.76461 30.6823 3.22418 30.6823C2.68375 30.6823 2.2434 30.0017 2.2434 29.1611C2.2434 29.1303 2.24563 29.0996 2.24563 29.0688C1.70964 29.4276 1.35158 30.0673 1.35158 30.8012V30.9345C1.34936 31.2113 1.54729 31.4327 1.79638 31.4511Z" fill="#26A69A"/>
<path d="M3.22207 30.6844C5.22366 30.6844 4.20285 30.0037 4.20285 29.1631C4.20285 29.1324 4.20062 29.1016 4.20062 29.0709C3.91595 28.8802 3.58013 28.7674 3.22207 28.7674C2.864 28.7674 2.52818 28.8802 2.24351 29.0709C2.24128 29.1016 2.24128 29.1324 2.24128 29.1631C2.23906 30.0037 1.21158 30.6844 3.22207 30.6844Z" fill="#00796B"/>
<path d="M6.32245 27.9289C6.29799 27.3466 5.8265 26.1452 5.21046 26.0448C5.17265 26.0386 5.13929 26.0222 5.11927 25.9935C5.02142 25.8562 4.70783 25.4871 4.13404 25.7783C3.92054 25.8869 3.84492 25.9833 3.88051 26.1227C3.85382 26.1514 3.80489 26.1862 3.73373 26.1596C3.50243 25.9218 3.21776 25.8726 2.88638 26.1104C2.51053 26.381 2.51053 26.5737 2.57725 26.7644L2.57502 26.7664C2.57502 26.7664 2.55946 26.8997 2.45048 26.8895C2.33706 26.7992 2.20139 26.7992 1.98567 26.9428C1.40743 27.3282 1.6454 27.6931 1.74325 27.9084C1.72991 27.9289 1.70767 27.9433 1.67208 27.9412C1.59647 27.9043 1.50084 27.9043 1.37184 27.972C1.06493 28.1339 1.10941 28.667 1.19615 28.8412C1.29178 29.0319 1.81887 29.7003 1.99901 29.8889C2.04127 29.9319 2.09242 29.9627 2.14802 29.9832C2.14135 29.9811 2.13467 29.9791 2.13023 29.977C2.28813 30.0672 2.5639 30.1759 2.83301 30.0221C2.83301 30.0221 3.00426 29.9073 3.01982 29.7864C3.31117 29.936 3.71371 29.6572 3.71371 29.6572C3.90275 29.5239 3.95168 29.3743 3.945 29.2451C4.04064 29.2984 4.14516 29.3189 4.24524 29.321C4.54771 29.3292 4.82571 29.1652 4.82571 29.1652C5.25938 28.9376 5.34612 28.6998 5.3439 28.5419C5.56852 28.6711 5.84652 28.5747 5.84652 28.5747C6.33802 28.3676 6.32245 27.9289 6.32245 27.9289Z" fill="url(#paint3_linear_424_394)"/>
<path d="M24.1071 31.4511H26.9627C26.9627 31.4511 27.0872 29.444 23.5911 29.3476C20.095 29.2533 24.1071 31.4511 24.1071 31.4511Z" fill="#26A69A"/>
<path d="M22.2193 28.9212C22.2438 28.339 22.7152 27.1375 23.3313 27.0371C23.3691 27.0309 23.4025 27.0145 23.4225 26.9858C23.5203 26.8485 23.8339 26.4794 24.4077 26.7706C24.6212 26.8792 24.6968 26.9756 24.6612 27.115C24.6879 27.1437 24.7369 27.1786 24.808 27.1519C25.0393 26.9141 25.324 26.8649 25.6554 27.1027C26.0312 27.3733 26.0312 27.566 25.9645 27.7567L25.9667 27.7588C25.9667 27.7588 25.9823 27.892 26.0913 27.8818C26.2047 27.7916 26.3404 27.7916 26.5561 27.9351C27.1343 28.3205 26.8964 28.6854 26.7985 28.9007C26.8118 28.9212 26.8319 28.9356 26.8697 28.9335C26.9453 28.8966 27.0409 28.8966 27.1699 28.9643C27.4768 29.1262 27.4323 29.6593 27.3456 29.8335C27.25 30.0242 26.7251 30.6926 26.5427 30.8812C26.5005 30.9242 26.4493 30.955 26.3937 30.9755C26.4004 30.9734 26.4071 30.9714 26.4115 30.9693C26.2536 31.0595 25.9778 31.1682 25.7087 31.0144C25.7087 31.0144 25.5375 30.8996 25.5219 30.7787C25.2306 30.9283 24.828 30.6495 24.828 30.6495C24.639 30.5163 24.5901 30.3666 24.5967 30.2374C24.5011 30.2907 24.3966 30.3112 24.2965 30.3133C23.994 30.3215 23.716 30.1575 23.716 30.1575C23.2824 29.9299 23.1956 29.6921 23.1979 29.5342C22.9732 29.6634 22.6952 29.567 22.6952 29.567C22.2037 29.362 22.2193 28.9212 22.2193 28.9212Z" fill="url(#paint4_linear_424_394)"/>
<path d="M25.9489 30.9529C25.9111 30.9345 25.8755 30.914 25.8422 30.8873C25.8377 30.8832 25.831 30.8791 25.8266 30.873C25.7643 30.8094 25.7465 30.7069 25.9089 30.5019C26.3537 29.9586 26.5294 29.5526 26.5294 29.5526C26.6517 29.2677 26.6072 29.2205 26.6072 29.2205C26.565 29.157 26.4782 29.3415 26.4782 29.3415C26.0379 30.0734 25.7354 30.3932 25.6042 30.5121C25.5975 30.5162 25.5909 30.5203 25.5842 30.5224C25.5597 30.5367 25.533 30.5511 25.5041 30.5613C25.493 30.5654 25.4797 30.5695 25.4685 30.5736C25.4441 30.5818 25.4174 30.5859 25.3907 30.59C25.3774 30.5921 25.364 30.5941 25.3484 30.5941C25.3195 30.5941 25.2906 30.5921 25.2595 30.5859C25.2461 30.5839 25.2328 30.5839 25.2194 30.5798C25.175 30.5675 25.1283 30.5531 25.0816 30.5265C25.0593 30.5142 25.0393 30.5019 25.0193 30.4875C25.0104 30.4793 24.9993 30.4711 24.9904 30.4629C24.9815 30.4547 24.9704 30.4465 24.9615 30.4383C24.9503 30.426 24.9392 30.4117 24.9281 30.3994C24.9237 30.3932 24.917 30.3871 24.9125 30.3789C24.9014 30.3625 24.8925 30.3461 24.8836 30.3276C24.8814 30.3215 24.877 30.3153 24.8747 30.3092C24.8658 30.2907 24.8614 30.2702 24.8569 30.2497C24.8547 30.2435 24.8525 30.2374 24.8503 30.2312C24.8458 30.2107 24.8458 30.1882 24.8436 30.1677C24.8436 30.1595 24.8414 30.1533 24.8414 30.1472C24.8414 30.1246 24.8458 30.1021 24.8503 30.0795C24.8525 30.0713 24.8525 30.0631 24.8547 30.0529C24.8592 30.0303 24.8703 30.0078 24.8792 29.9832C24.8836 29.9729 24.8859 29.9627 24.8903 29.9545C25.3974 29.2943 25.6598 28.7182 25.6598 28.7182C25.7443 28.5583 25.7754 28.3902 25.7754 28.3902C25.7198 28.2959 25.6309 28.4332 25.6309 28.4332C25.0526 29.4255 24.7102 29.8233 24.7102 29.8233C24.7102 29.8233 24.4411 30.2558 23.8517 29.9319C23.8517 29.9319 23.5603 29.7597 23.5114 29.6387C23.4692 29.5383 23.4425 29.3599 23.5915 29.1057C23.5915 29.1057 23.9451 28.4394 24.5278 27.6009C24.5278 27.6009 24.5656 27.4696 24.4344 27.5435C24.3321 27.6009 24.2587 27.7198 24.2231 27.7567C24.2231 27.7567 23.8784 28.1811 23.378 29.0278C23.378 29.0278 23.2668 29.2226 23.1378 29.3189C23.011 29.3681 22.8509 29.3497 22.6752 29.2287C22.2949 28.9663 22.4372 28.5993 22.6485 28.2221C22.7642 28.017 23.0288 27.5558 23.2801 27.1867C23.3046 27.1785 23.3291 27.1703 23.3535 27.1662C23.4336 27.1539 23.4981 27.115 23.5381 27.0576C23.7383 26.7767 23.5804 26.5225 23.3001 26.914C22.5974 27.0248 22.0992 28.2918 22.0747 28.9171C22.0747 28.9396 22.0636 29.4481 22.6329 29.6818C22.6507 29.6879 22.8576 29.7577 23.08 29.7105C23.1356 29.8807 23.2868 30.0795 23.6404 30.2661C23.6471 30.2702 23.9562 30.4445 24.2943 30.4404C24.3565 30.4383 24.4188 30.4322 24.4766 30.4178C24.5122 30.5244 24.5878 30.6413 24.7391 30.7479C24.7569 30.7602 25.1038 31.0001 25.4374 30.9386C25.5019 31.0329 25.5953 31.0985 25.6198 31.1149C25.7221 31.1743 25.831 31.2051 25.9422 31.2133H26.0423C26.1847 31.2051 26.3337 31.16 26.4805 31.0759C26.4827 31.0759 26.4827 31.0739 26.4849 31.0739C26.8296 30.8566 27.3256 29.9483 27.3256 29.8561C27.3278 29.8561 26.5783 31.0534 25.9489 30.9529Z" fill="#875334"/>
<path d="M20.411 16.37H8.2547C6.94477 16.37 5.8728 17.4238 5.8728 18.7092C5.8728 19.9967 6.94477 21.0485 8.2547 21.0485H20.4088C21.7187 21.0485 22.7907 19.9947 22.7907 18.7092C22.7929 17.4238 21.721 16.37 20.411 16.37Z" fill="#7A4C32"/>
<path d="M14.3328 8.30043C10.463 8.30043 6.87793 12.1158 6.87793 17.6062C6.87793 23.0679 10.572 25.768 14.3328 25.768C18.0935 25.768 21.7876 23.0679 21.7876 17.6062C21.7876 12.1158 18.2025 8.30043 14.3328 8.30043Z" fill="#A56C43"/>
<path d="M10.6768 19.1336C11.2823 19.1336 11.7732 18.6655 11.7732 18.088C11.7732 17.5105 11.2823 17.0424 10.6768 17.0424C10.0712 17.0424 9.58032 17.5105 9.58032 18.088C9.58032 18.6655 10.0712 19.1336 10.6768 19.1336Z" fill="#42312C"/>
<path d="M17.9895 19.1336C18.595 19.1336 19.0859 18.6655 19.0859 18.088C19.0859 17.5105 18.595 17.0424 17.9895 17.0424C17.384 17.0424 16.8931 17.5105 16.8931 18.088C16.8931 18.6655 17.384 19.1336 17.9895 19.1336Z" fill="#42312C"/>
<path d="M15.1917 19.9844C15.1672 19.9762 15.145 19.9701 15.1205 19.968H13.5481C13.5237 19.9701 13.4992 19.9762 13.477 19.9844C13.3346 20.0377 13.2568 20.1731 13.3235 20.3186C13.3902 20.4642 13.7038 20.8701 14.3354 20.8701C14.967 20.8701 15.2806 20.4621 15.3473 20.3186C15.4118 20.1731 15.334 20.0377 15.1917 19.9844Z" fill="#875334"/>
<path d="M8.99764 16.4253C9.66262 15.5581 11.1727 15.4761 12.0378 16.1219C12.1757 16.2244 12.3581 16.3679 12.4115 16.5279C12.5004 16.7882 12.2291 16.9912 11.9644 16.9297C11.7954 16.8907 11.6375 16.8067 11.4707 16.7595C11.166 16.6714 10.9459 16.6468 10.6723 16.6468C10.2675 16.6447 10.0073 16.6919 9.62259 16.8354C9.46468 16.8948 9.33569 16.9891 9.15555 16.9194C8.95094 16.8395 8.8731 16.5976 8.99764 16.4253Z" fill="#42312C"/>
<path d="M19.2414 16.9174C19.1769 16.8907 19.1146 16.8579 19.0501 16.8333C18.6543 16.6816 18.4296 16.6427 18.0004 16.6447C17.6223 16.6468 17.3977 16.6939 17.1019 16.7862C16.9218 16.8436 16.6927 16.9871 16.4925 16.9317C16.199 16.8497 16.2079 16.5545 16.368 16.3659C16.5593 16.1445 16.8217 15.9764 17.0997 15.8656C17.7446 15.6073 18.5319 15.6442 19.1391 15.9784C19.337 16.0871 19.5527 16.2367 19.6728 16.4253C19.8485 16.6939 19.5839 17.0465 19.2414 16.9174Z" fill="#42312C"/>
<path d="M6.42229 27.8141C6.3956 27.1888 5.89742 25.9218 5.19687 25.8111C4.91887 25.4195 4.75874 25.6737 4.9589 25.9546C4.99893 26.012 5.06565 26.0489 5.14349 26.0633C5.16795 26.0674 5.19242 26.0756 5.21688 26.0838C5.46819 26.4528 5.73285 26.9161 5.8485 27.1191C6.05977 27.4943 6.19989 27.8613 5.82181 28.1257C5.64611 28.2467 5.48821 28.2652 5.35922 28.2159C5.23245 28.1196 5.11903 27.9248 5.11903 27.9248C4.61863 27.0781 4.27391 26.6537 4.27391 26.6537C4.23833 26.6168 4.16716 26.4999 4.06263 26.4405C3.93141 26.3667 3.96922 26.4979 3.96922 26.4979C4.55191 27.3344 4.90552 28.0027 4.90552 28.0027C5.05675 28.257 5.03007 28.4353 4.98559 28.5358C4.93666 28.6567 4.64532 28.829 4.64532 28.829C4.05818 29.1529 3.78685 28.7203 3.78685 28.7203C3.78685 28.7203 3.44214 28.3226 2.86612 27.3303C2.86612 27.3303 2.77494 27.1929 2.72156 27.2872C2.72156 27.2872 2.7527 27.4553 2.83721 27.6152C2.83721 27.6152 3.09964 28.1893 3.60671 28.8515C3.61116 28.8618 3.61338 28.872 3.61783 28.8802C3.62673 28.9028 3.63562 28.9274 3.6423 28.9499C3.64452 28.9581 3.64452 28.9663 3.64674 28.9766C3.65119 28.9991 3.65564 29.0217 3.65564 29.0442C3.65564 29.0524 3.65342 29.0586 3.65342 29.0647C3.65342 29.0873 3.65119 29.1078 3.64674 29.1283C3.64452 29.1344 3.6423 29.1406 3.6423 29.1467C3.63785 29.1672 3.63118 29.1877 3.62228 29.2062C3.62006 29.2123 3.61561 29.2185 3.61338 29.2246C3.60449 29.241 3.59559 29.2595 3.58447 29.2759C3.58002 29.282 3.57335 29.2882 3.5689 29.2964C3.55778 29.3107 3.54666 29.323 3.53554 29.3353C3.52665 29.3435 3.51553 29.3518 3.50663 29.36C3.49774 29.3682 3.48884 29.3764 3.47772 29.3846C3.4577 29.3989 3.43546 29.4133 3.41545 29.4235C3.36652 29.4481 3.31982 29.4666 3.27756 29.4768C3.26422 29.4809 3.25087 29.4809 3.2353 29.483C3.20417 29.4871 3.17526 29.4912 3.14635 29.4912C3.133 29.4912 3.11743 29.4891 3.10409 29.4871C3.0774 29.483 3.05071 29.4789 3.02625 29.4707C3.01513 29.4666 3.00179 29.4625 2.99067 29.4584C2.96398 29.4481 2.93729 29.4338 2.9106 29.4194C2.90393 29.4153 2.89726 29.4133 2.89059 29.4092C2.75937 29.2902 2.45691 28.9704 2.01656 28.2385C2.01656 28.2385 1.92982 28.054 1.88757 28.1175C1.88757 28.1175 1.84309 28.1667 1.96541 28.4497C1.96541 28.4497 2.1411 28.8556 2.5859 29.3989C2.74825 29.6039 2.73046 29.7064 2.66819 29.77C2.66374 29.7741 2.65707 29.7782 2.65262 29.7843C2.62148 29.811 2.58368 29.8315 2.54587 29.8499C1.91648 29.9504 1.16699 28.751 1.16699 28.751C1.16699 28.8454 1.66294 29.7536 2.00766 29.9689C2.00989 29.9689 2.00989 29.9709 2.01211 29.9709C2.15889 30.055 2.30568 30.1001 2.45024 30.1083H2.55032C2.66374 30.1001 2.77271 30.0693 2.87279 30.0099C2.89726 29.9935 2.99067 29.9258 3.05516 29.8335C3.38876 29.895 3.73793 29.6552 3.7535 29.6429C3.90473 29.5363 3.98034 29.4194 4.01593 29.3128C4.07375 29.3271 4.1338 29.3353 4.19829 29.3353C4.53634 29.3415 4.84548 29.1652 4.85215 29.1611C5.20576 28.9766 5.35699 28.7756 5.41259 28.6055C5.63499 28.6506 5.84182 28.5829 5.85962 28.5768C6.43341 28.3451 6.42229 27.8367 6.42229 27.8141Z" fill="#875334"/>
<path d="M24.5613 31.4511V22.6743C24.5613 21.9403 23.9119 21.3417 23.1157 21.3417H5.54618C4.74999 21.3417 4.10059 21.9403 4.10059 22.6743V31.4532L24.5613 31.4511Z" fill="url(#paint5_linear_424_394)"/>
<path d="M17.6671 31.4511C17.5314 31.0554 17.3535 30.6085 17.2023 30.1328C16.8976 29.1775 16.7708 27.5824 16.7174 26.4692C16.6841 25.766 16.0524 25.2104 15.2829 25.2104H13.3814C12.6119 25.2104 11.9803 25.7639 11.947 26.4692C11.8936 27.5824 11.7668 29.1775 11.4621 30.1328C11.3109 30.6085 11.1352 31.0554 10.9973 31.4511H17.6671Z" fill="url(#paint6_linear_424_394)"/>
<path d="M14.3329 6.85712C14.3307 6.85712 14.3307 6.85712 14.3285 6.85712C14.3262 6.85712 14.3262 6.85712 14.324 6.85712C4.22042 6.90632 6.29095 17.5468 6.29095 17.5468C6.29095 17.5468 6.74465 18.6436 6.95148 19.1275C6.98039 19.1972 7.09159 19.189 7.10938 19.1172C7.32511 18.2274 8.10128 15.0722 8.49271 14.1127C8.724 13.5469 9.36006 13.2188 10.0028 13.3275C10.9925 13.4936 12.5715 13.6986 14.3107 13.6986H14.3285C14.3285 13.6986 14.3418 13.6986 14.3463 13.6986C16.0854 13.6986 17.6645 13.4936 18.6541 13.3275C19.2991 13.2188 19.9351 13.5489 20.1642 14.1127C20.5534 15.0681 21.3251 18.2049 21.5431 19.107C21.5609 19.1808 21.6721 19.1869 21.701 19.1172L22.3637 17.5447C22.3682 17.5468 24.4387 6.90632 14.3329 6.85712Z" fill="#3C2C23"/>
<path d="M22.3682 17.5468C22.3682 17.5468 24.4388 6.90632 14.333 6.85712C14.3307 6.85712 14.3307 6.85712 14.3285 6.85712C14.3263 6.85712 14.3263 6.85712 14.3241 6.85712C14.1662 6.85712 14.0127 6.86122 13.8615 6.86737C13.5612 6.87967 13.2699 6.90017 12.9897 6.93092C12.9874 6.93092 12.983 6.93092 12.9808 6.93092C12.9608 6.93297 12.943 6.93707 12.923 6.93912C4.41841 7.92526 6.29101 17.5468 6.29101 17.5468L6.95376 19.1213C6.98267 19.191 7.09165 19.1849 7.10944 19.1111C7.32739 18.211 8.10134 15.0702 8.49276 14.1148C8.72406 13.5489 9.36012 13.2209 10.0029 13.3295C10.9925 13.4956 12.5716 13.7006 14.3107 13.7006H14.3285C14.3285 13.7006 14.3419 13.7006 14.3463 13.7006C16.0855 13.7006 17.6645 13.4956 18.6542 13.3295C19.2991 13.2209 19.9352 13.551 20.1643 14.1148C20.5557 15.0743 21.3319 18.2356 21.5454 19.1213C21.5632 19.1951 21.6721 19.2013 21.7011 19.1316C21.9123 18.6477 22.3682 17.5468 22.3682 17.5468Z" fill="url(#paint7_radial_424_394)"/>
<path d="M16.6887 9.0647L13.2389 7.60257C12.9872 7.49591 12.8961 7.22013 13.0143 6.98312L13.1891 6.63276C13.2199 6.57093 13.2561 6.52385 13.3028 6.48122L16.4505 3.63354C16.7564 3.35126 17.2542 3.52478 17.2731 3.91977L17.5649 8.25019C17.576 8.32979 17.5559 8.42112 17.5199 8.49325L17.3606 8.8127C17.2268 9.05557 16.9299 9.16692 16.6887 9.0647Z" fill="url(#paint8_linear_424_394)"/>
<path d="M19.8236 10.3934L23.2734 11.8555C23.5146 11.9577 23.8115 11.8464 23.9297 11.6094L24.1044 11.259C24.1353 11.1972 24.1505 11.1412 24.1552 11.0808L24.4508 7.02432C24.4841 6.62649 24.0171 6.39115 23.6796 6.63504L19.9238 9.25001C19.8511 9.29406 19.789 9.36761 19.753 9.43974L19.5937 9.75919C19.4703 10.0065 19.5824 10.2912 19.8236 10.3934Z" fill="url(#paint9_linear_424_394)"/>
<path d="M19.929 10.438L16.4687 8.97139C16.2275 8.86917 16.126 8.58894 16.2442 8.35193L16.4138 8.01188C16.4497 7.93975 16.5015 7.88681 16.5534 7.83387L20.0155 5.09446C20.3372 4.83137 20.8196 5.03581 20.8124 5.43222L20.8106 9.6382C20.8112 9.71336 20.7909 9.77963 20.7549 9.85176L20.5853 10.1918C20.4671 10.4288 20.1702 10.5402 19.929 10.438Z" fill="url(#paint10_linear_424_394)"/>
<path d="M24.1726 6.81892C24.41 6.91955 24.6968 6.81197 24.8132 6.57863C24.9296 6.3453 24.8314 6.07456 24.594 5.97393C24.3565 5.8733 24.0697 5.98087 23.9534 6.21421C23.837 6.44755 23.9351 6.71828 24.1726 6.81892Z" fill="url(#paint11_linear_424_394)"/>
<path d="M20.4294 5.23228C20.6668 5.33291 20.9537 5.22533 21.07 4.99199C21.1864 4.75866 21.0883 4.48792 20.8508 4.38729C20.6134 4.28666 20.3266 4.39423 20.2102 4.62757C20.0938 4.86091 20.192 5.13164 20.4294 5.23228Z" fill="url(#paint12_linear_424_394)"/>
<path d="M16.7849 3.67547C17.0165 3.77365 17.2964 3.66869 17.4099 3.44105C17.5234 3.2134 17.4277 2.94927 17.196 2.85109C16.9644 2.75291 16.6846 2.85787 16.571 3.08551C16.4575 3.31316 16.5533 3.57729 16.7849 3.67547Z" fill="url(#paint13_linear_424_394)"/>
<path opacity="0.2" d="M24.4861 6.19039C24.6015 6.23928 24.6601 6.37646 24.6035 6.48981C24.5676 6.56195 24.5053 6.61044 24.4218 6.62499C24.3539 6.63369 24.2968 6.67188 24.2555 6.72926C24.2141 6.78665 24.2043 6.85736 24.2257 6.91636C24.2312 6.95616 24.2419 6.98566 24.2421 7.01071L23.9519 11.082L23.9469 11.1173C23.9471 11.1424 23.9422 11.1777 23.9371 11.188L23.7623 11.5384C23.6955 11.6723 23.4768 11.7544 23.3509 11.7011L13.316 7.448C13.1902 7.39467 13.1205 7.17788 13.1821 7.05422L13.3569 6.70386C13.362 6.69356 13.3828 6.67739 13.4035 6.66123C13.4192 6.65537 13.4294 6.63476 13.4451 6.6289L16.6138 3.79011C16.6345 3.77394 16.6604 3.74747 16.6917 3.73575C16.7542 3.71231 16.806 3.65937 16.8264 3.5931C16.8467 3.52683 16.8409 3.46197 16.7934 3.40439C16.7511 3.33651 16.74 3.2569 16.7811 3.17446C16.8376 3.06111 16.9783 3.00837 17.0936 3.05725C17.2089 3.10614 17.2571 3.23888 17.2005 3.35223C17.1697 3.41406 17.1177 3.44195 17.0813 3.46397C17.0136 3.49772 16.9723 3.5551 16.952 3.62137C16.9316 3.68765 16.9479 3.75695 16.9849 3.81008C17.0166 3.84847 17.0326 3.89271 17.033 3.94282L17.2474 7.12946C17.2586 7.20907 17.3009 7.27695 17.3743 7.30806L17.3848 7.31251C17.4582 7.34362 17.5522 7.33351 17.6196 7.27471L20.1422 5.27304C20.1785 5.25102 20.1993 5.23485 20.2462 5.21727C20.3192 5.19827 20.3658 5.15564 20.3967 5.09381C20.4275 5.03198 20.4322 4.97157 20.4109 4.91257C20.3895 4.85358 20.3837 4.78872 20.4145 4.72689C20.4711 4.61354 20.6117 4.5608 20.727 4.60968C20.8424 4.65857 20.8905 4.79131 20.834 4.90466C20.8031 4.96649 20.7565 5.00912 20.6835 5.02812C20.621 5.05156 20.5587 5.10006 20.533 5.15158C20.5073 5.20311 20.5079 5.27827 20.5293 5.33726C20.54 5.36676 20.5456 5.40656 20.5511 5.44637L20.5671 8.64878C20.5626 8.73425 20.6155 8.80658 20.6889 8.83769L20.6994 8.84213C20.7728 8.87324 20.8667 8.86313 20.929 8.81464L23.8069 6.81375C23.8432 6.79173 23.8901 6.77415 23.9319 6.76687C23.9997 6.75818 24.0673 6.72443 24.1087 6.66704C24.15 6.60966 24.1598 6.53894 24.1489 6.48439C24.1434 6.44459 24.1325 6.39004 24.1633 6.32821C24.2301 6.19425 24.3708 6.1415 24.4861 6.19039ZM24.5889 5.9843C24.3582 5.88652 24.0665 5.98757 23.9534 6.21427C23.902 6.31732 23.8977 6.42784 23.9246 6.52664C23.8412 6.54119 23.7526 6.56605 23.6746 6.62041L20.8021 8.63604L20.8122 5.4322C20.8116 5.35704 20.7902 5.29805 20.7688 5.23905C20.8887 5.20247 20.9976 5.11134 21.0593 4.98768C21.1724 4.76098 21.0761 4.4955 20.835 4.39328C20.6043 4.29551 20.323 4.401 20.21 4.62771C20.1483 4.75136 20.1442 4.88694 20.1921 4.99462C20.1296 5.01806 20.0671 5.04151 20.0048 5.09L17.4822 7.09166L17.2783 3.90947C17.2723 3.81956 17.2402 3.73106 17.1823 3.66904C17.2811 3.62357 17.3589 3.54416 17.4102 3.44111C17.5233 3.21441 17.4271 2.94893 17.1964 2.85116C16.9657 2.75339 16.6844 2.85888 16.5714 3.08558C16.4943 3.24015 16.5114 3.40967 16.6012 3.53513C16.5543 3.55271 16.4972 3.5909 16.4557 3.62323L13.2765 6.45757C13.2298 6.50021 13.1675 6.54871 13.1418 6.60023L12.9671 6.95059C12.8489 7.1876 12.9667 7.53713 13.2079 7.63934L23.2533 11.8969C23.4945 11.9991 23.859 11.854 23.9772 11.617L24.1519 11.2666C24.1828 11.2048 24.177 11.1399 24.1817 11.0795L24.4668 7.01858C24.4716 6.95816 24.4607 6.90361 24.4393 6.84462C24.5906 6.82137 24.7413 6.72296 24.8132 6.5787C24.9263 6.35199 24.8301 6.08651 24.5889 5.9843Z" fill="#424242"/>
<path d="M21.4647 12.3498L13.8835 9.13666C12.9607 8.74558 12.5758 7.68366 13.028 6.77684L13.8555 5.11778L24.7922 9.75305L23.9648 11.4121C23.5125 12.3189 22.3875 12.7409 21.4647 12.3498Z" fill="#FDD835"/>
<path d="M25.3394 7.68805L23.7448 8.82226C23.4374 8.92917 23.1274 8.71038 23.1405 8.40387L23.4993 5.03575C23.4962 4.65994 23.0401 4.47915 22.7128 4.70243L20.0509 6.90716C19.7497 7.12903 19.3198 6.94682 19.3115 6.58132L19.4517 3.3203C19.4589 2.92388 18.9766 2.71945 18.6548 2.98254L16.1621 5.43375C15.9131 5.65279 15.5311 5.57826 15.4191 5.29359L15.3254 3.44387C15.2172 2.99857 14.564 2.98388 14.3848 3.4197L12.5563 7.8501C12.1862 8.59204 12.4651 9.45919 13.1886 9.76584L13.65 9.96138L13.7968 10.0236L17.2466 11.4857L17.4039 11.5524L20.8852 13.0279L21.032 13.0901L21.4934 13.2856C22.2169 13.5923 23.1281 13.217 23.493 12.4854L25.9506 8.32162C26.2138 7.92134 25.7869 7.47829 25.3394 7.68805Z" fill="url(#paint14_linear_424_394)"/>
<path d="M23.1285 5.04074C23.5397 5.215 24.0363 5.02871 24.2379 4.62464C24.4394 4.22057 24.2694 3.75173 23.8583 3.57747C23.4471 3.4032 22.9504 3.5895 22.7489 3.99357C22.5474 4.39764 22.7173 4.86647 23.1285 5.04074Z" fill="url(#paint15_linear_424_394)"/>
<path d="M18.9449 3.26764C19.3561 3.4419 19.8527 3.25561 20.0543 2.85154C20.2558 2.44747 20.0858 1.97863 19.6747 1.80437C19.2635 1.6301 18.7668 1.81639 18.5653 2.22047C18.3638 2.62454 18.5337 3.09337 18.9449 3.26764Z" fill="url(#paint16_linear_424_394)"/>
<path d="M14.4789 3.43464C14.8322 3.58436 15.2589 3.42431 15.4321 3.07715C15.6052 2.72999 15.4592 2.32719 15.1059 2.17747C14.7527 2.02775 14.326 2.1878 14.1528 2.53496C13.9797 2.88212 14.1257 3.28492 14.4789 3.43464Z" fill="url(#paint17_linear_424_394)"/>
<path d="M25.7827 8.22544C26.1359 8.37517 26.5627 8.21511 26.7358 7.86795C26.9089 7.52079 26.7629 7.11799 26.4097 6.96827C26.0564 6.81855 25.6297 6.9786 25.4565 7.32576C25.2834 7.67292 25.4294 8.07572 25.7827 8.22544Z" fill="url(#paint18_linear_424_394)"/>
<path opacity="0.2" d="M23.7039 3.8867C23.9451 3.98891 24.0413 4.25439 23.9231 4.4914C23.8409 4.65628 23.6746 4.76054 23.4918 4.77046C23.309 4.78037 23.1639 4.91858 23.1443 5.08507L22.7954 8.38248L22.7957 8.40753C22.7774 8.72434 22.9573 9.00032 23.2509 9.12476C23.4396 9.20475 23.6434 9.20373 23.8519 9.14229C23.8831 9.13057 23.9195 9.10854 23.9508 9.09682L25.5089 7.98464C25.6547 7.92159 25.7476 7.78621 25.7464 7.63589C25.7511 7.57548 25.7558 7.51507 25.7815 7.46354C25.8689 7.28836 26.0876 7.20631 26.2659 7.28187C26.4441 7.35742 26.519 7.5639 26.4316 7.73908C26.3648 7.87304 26.2088 7.9567 26.0624 7.94459C25.9055 7.92804 25.76 8.01614 25.6931 8.1501L25.6829 8.17071L23.2303 12.3241L23.2201 12.3448C23.0762 12.6333 22.8221 12.8626 22.5147 12.9695C22.2334 13.075 21.9409 13.0759 21.6892 12.9692L13.353 9.43609C13.1013 9.32943 12.9115 9.12417 12.8153 8.85869C12.7032 8.57401 12.7318 8.23659 12.8705 7.95837C12.8757 7.94806 12.8808 7.93776 12.8808 7.93776L14.7042 3.51767L14.7145 3.49706C14.7916 3.34249 14.7379 3.16994 14.5909 3.08267C14.4336 3.01601 14.3851 2.83316 14.4673 2.66829C14.5547 2.49311 14.7734 2.41106 14.9517 2.48661C15.1299 2.56216 15.2048 2.76864 15.1174 2.94383C15.0969 2.98504 15.0658 3.02182 15.0348 3.05859C14.8999 3.17619 14.8752 3.35299 14.9705 3.4932C14.9809 3.49764 14.9758 3.50795 14.9863 3.51239L15.0744 5.32231C15.0695 5.35767 15.0906 5.39161 15.1013 5.4211C15.176 5.60254 15.3183 5.75022 15.507 5.83021C15.8006 5.95465 16.1606 5.89502 16.4096 5.67598C16.4096 5.67598 16.4147 5.66568 16.4252 5.67012L18.8869 3.25569C19.0113 3.13364 19.0254 2.9524 18.9356 2.82694C18.8352 2.69703 18.8233 2.51722 18.8953 2.37295C19.0135 2.13594 19.2947 2.03045 19.5359 2.13267C19.7771 2.23488 19.8733 2.50036 19.7551 2.73737C19.6883 2.87133 19.5637 2.96832 19.4072 3.00188C19.2352 3.04129 19.111 3.18839 19.1176 3.35346L18.9615 6.59529C18.9564 6.60559 18.9564 6.60559 18.9617 6.62034C18.9694 6.91068 19.1439 7.17191 19.4166 7.28746C19.6892 7.40301 20.0023 7.36096 20.2568 7.18172C20.262 7.17142 20.2725 7.17586 20.2776 7.16556L22.9188 4.97699C23.08 4.88303 23.1359 4.69452 23.0615 4.53814C22.9977 4.41126 22.9965 4.26094 23.0581 4.13728C23.1763 3.90027 23.4627 3.78448 23.7039 3.8867ZM23.8581 3.57755C23.4491 3.40423 22.9491 3.59177 22.7487 3.99365C22.6356 4.22036 22.6482 4.47534 22.7492 4.68041C22.7284 4.69657 22.7179 4.69213 22.7128 4.70243L20.0508 6.90716C19.895 7.01587 19.7227 7.03023 19.5759 6.96801C19.4291 6.9058 19.3183 6.77144 19.3115 6.58132L19.4517 3.3203C19.4517 3.3203 19.4517 3.3203 19.4568 3.30999C19.7124 3.25602 19.9356 3.08851 20.0538 2.8515C20.2543 2.44962 20.0832 1.97765 19.6742 1.80433C19.2653 1.63101 18.7653 1.81855 18.5649 2.22043C18.4312 2.48835 18.4598 2.78758 18.6237 3.01931L16.162 5.43375C16.0064 5.56752 15.8029 5.5936 15.6456 5.52693C15.5407 5.48249 15.4617 5.41158 15.419 5.29359L15.3253 3.44387C15.3144 3.38932 15.2879 3.34063 15.2562 3.30224C15.3237 3.24344 15.3857 3.16989 15.4269 3.08746C15.6016 2.73709 15.4572 2.33887 15.1007 2.18777C14.7547 2.04112 14.3223 2.19491 14.1476 2.54527C13.9883 2.86471 14.101 3.22455 14.395 3.39909L14.3847 3.4197L12.5562 7.8501C12.1861 8.59204 12.465 9.45919 13.199 9.77028L13.6604 9.96583L13.8072 10.028L20.9061 13.0367L21.0529 13.099L21.5143 13.2945C22.2378 13.6012 23.149 13.2259 23.5139 12.4942L25.9715 8.3305C25.9818 8.30989 25.987 8.29959 25.9921 8.28929C26.2849 8.31351 26.5918 8.15649 26.7306 7.87827C26.9053 7.52791 26.761 7.12969 26.4044 6.97858C26.0479 6.82748 25.626 6.98572 25.4513 7.33608C25.3948 7.44943 25.3748 7.56581 25.3862 7.67047C25.3705 7.67633 25.3549 7.68219 25.3393 7.68805L23.7447 8.82226C23.6249 8.85884 23.4994 8.85561 23.4051 8.81562C23.2478 8.74895 23.1368 8.58955 23.1404 8.40387L23.4893 5.10646C23.7922 5.08502 24.0938 4.91326 24.2377 4.62473C24.4381 4.22284 24.267 3.75088 23.8581 3.57755Z" fill="#424242"/>
<path d="M18.0918 10.0463C18.7404 10.3212 19.5239 10.0273 19.8418 9.38989C20.1597 8.75248 19.8916 8.01291 19.243 7.73801C18.5944 7.46311 17.8109 7.75699 17.493 8.39439C17.1751 9.0318 17.4432 9.77137 18.0918 10.0463Z" fill="url(#paint19_linear_424_394)"/>
<path d="M15.5072 8.35177C15.8778 8.50885 16.3255 8.34093 16.5072 7.97669C16.6888 7.61246 16.5356 7.18985 16.165 7.03276C15.7944 6.87568 15.3466 7.04361 15.165 7.40784C14.9833 7.77207 15.1365 8.19468 15.5072 8.35177Z" fill="url(#paint20_linear_424_394)"/>
<path d="M21.18 10.756C21.5506 10.9131 21.9984 10.7452 22.18 10.3809C22.3617 10.0167 22.2085 9.59408 21.8378 9.437C21.4672 9.27991 21.0195 9.44784 20.8378 9.81208C20.6562 10.1763 20.8094 10.5989 21.18 10.756Z" fill="url(#paint21_linear_424_394)"/>
<path d="M12.8344 7.34374C13.1587 7.48118 13.5919 7.2512 13.8019 6.83006C14.012 6.40891 13.9193 5.95609 13.595 5.81864C13.2707 5.68119 12.8375 5.91117 12.6275 6.33231C12.4175 6.75346 12.5101 7.20629 12.8344 7.34374Z" fill="url(#paint22_linear_424_394)"/>
<path d="M23.7499 11.9702C24.0742 12.1076 24.5074 11.8776 24.7174 11.4565C24.9275 11.0353 24.8349 10.5825 24.5105 10.4451C24.1862 10.3076 23.7531 10.5376 23.543 10.9587C23.333 11.3799 23.4256 11.8327 23.7499 11.9702Z" fill="url(#paint23_linear_424_394)"/>
<path opacity="0.2" d="M13.4922 6.02473C13.7019 6.11361 13.7412 6.44234 13.5922 6.74118C13.4432 7.04001 13.1364 7.22208 12.9372 7.13764C12.738 7.0532 12.6882 6.72003 12.8372 6.4212C12.9863 6.12236 13.2825 5.93585 13.4922 6.02473ZM13.595 5.81864C13.27 5.68087 12.8382 5.90982 12.6275 6.33231C12.4168 6.75481 12.5093 7.20597 12.8344 7.34374C13.1595 7.4815 13.5912 7.25255 13.8019 6.83006C14.0126 6.40757 13.9201 5.95641 13.595 5.81864Z" fill="#424242"/>
<path opacity="0.2" d="M24.4082 10.6511C24.618 10.74 24.6573 11.0688 24.5082 11.3676C24.3592 11.6664 24.0524 11.8485 23.8532 11.7641C23.654 11.6796 23.6042 11.3465 23.7532 11.0476C23.9023 10.7488 24.1985 10.5623 24.4082 10.6511ZM24.511 10.4451C24.186 10.3073 23.7542 10.5362 23.5435 10.9587C23.3328 11.3812 23.4254 11.8324 23.7504 11.9702C24.0755 12.1079 24.5072 11.879 24.7179 11.4565C24.9286 11.034 24.8361 10.5828 24.511 10.4451Z" fill="#424242"/>
<path opacity="0.2" d="M19.14 7.94411C19.6748 8.17076 19.894 8.77546 19.6319 9.301C19.3698 9.82654 18.7291 10.0668 18.1944 9.84017C17.6596 9.61352 17.4404 9.00882 17.7025 8.48328C17.9646 7.95774 18.6157 7.7219 19.14 7.94411ZM19.2428 7.73801C18.5927 7.46247 17.8114 7.7555 17.4928 8.39439C17.1741 9.03329 17.4414 9.77073 18.0916 10.0463C18.7417 10.3218 19.5229 10.0288 19.8416 9.38989C20.1602 8.75099 19.8929 8.01355 19.2428 7.73801Z" fill="#424242"/>
<path opacity="0.2" d="M16.0622 7.23886C16.3139 7.34552 16.4208 7.6405 16.2975 7.88781C16.1741 8.13512 15.8616 8.25233 15.6099 8.14567C15.3583 8.03901 15.2514 7.74404 15.3747 7.49672C15.498 7.24941 15.8001 7.12775 16.0622 7.23886ZM16.165 7.03276C15.798 6.87722 15.35 7.03687 15.165 7.40784C14.98 7.77881 15.1297 8.19178 15.5072 8.35177C15.8846 8.51176 16.3222 8.34766 16.5072 7.97669C16.6922 7.60572 16.532 7.18831 16.165 7.03276Z" fill="#424242"/>
<path opacity="0.2" d="M21.7353 9.64309C21.987 9.74975 22.0939 10.0447 21.9705 10.292C21.8472 10.5394 21.5347 10.6566 21.283 10.5499C21.0314 10.4432 20.9244 10.1483 21.0478 9.90096C21.1711 9.65365 21.4836 9.53643 21.7353 9.64309ZM21.8381 9.437C21.4711 9.28145 21.0231 9.44111 20.8381 9.81208C20.6531 10.183 20.8028 10.596 21.1803 10.756C21.5577 10.916 21.9952 10.7519 22.1803 10.3809C22.3653 10.01 22.2051 9.59255 21.8381 9.437Z" fill="#424242"/>
<defs>
<linearGradient id="paint0_linear_424_394" x1="14.3317" y1="7.77727" x2="14.3317" y2="24.0891" gradientUnits="userSpaceOnUse">
<stop offset="0.0032" stop-color="#424242"/>
<stop offset="0.2705" stop-color="#353535"/>
<stop offset="0.7639" stop-color="#131313"/>
<stop offset="1"/>
</linearGradient>
<linearGradient id="paint1_linear_424_394" x1="14.3317" y1="7.77727" x2="14.3317" y2="24.0891" gradientUnits="userSpaceOnUse">
<stop offset="0.0012" stop-color="#BFBEBE"/>
<stop offset="0.15" stop-color="#212121" stop-opacity="0"/>
<stop offset="0.7759" stop-color="#212121" stop-opacity="0"/>
<stop offset="1" stop-color="#BFBEBE"/>
</linearGradient>
<linearGradient id="paint2_linear_424_394" x1="1.16037" y1="15.8734" x2="27.7025" y2="15.8734" gradientUnits="userSpaceOnUse">
<stop offset="0.0012" stop-color="#BFBEBE"/>
<stop offset="0.1" stop-color="#212121" stop-opacity="0"/>
<stop offset="0.9" stop-color="#212121" stop-opacity="0"/>
<stop offset="1" stop-color="#BFBEBE"/>
</linearGradient>
<linearGradient id="paint3_linear_424_394" x1="4.64145" y1="29.1827" x2="2.71623" y2="26.2107" gradientUnits="userSpaceOnUse">
<stop stop-color="#8D5738"/>
<stop offset="0.5" stop-color="#A56C43"/>
</linearGradient>
<linearGradient id="paint4_linear_424_394" x1="23.8987" y1="30.1756" x2="25.8239" y2="27.2036" gradientUnits="userSpaceOnUse">
<stop stop-color="#8D5738"/>
<stop offset="0.5" stop-color="#A56C43"/>
</linearGradient>
<linearGradient id="paint5_linear_424_394" x1="14.3318" y1="21.3117" x2="14.3318" y2="35.3377" gradientUnits="userSpaceOnUse">
<stop stop-color="#4DD0E1"/>
<stop offset="1" stop-color="#00BCD4"/>
</linearGradient>
<linearGradient id="paint6_linear_424_394" x1="14.3319" y1="25.0165" x2="14.3319" y2="33.0692" gradientUnits="userSpaceOnUse">
<stop stop-color="#00BCD4"/>
<stop offset="1" stop-color="#0097A7"/>
</linearGradient>
<radialGradient id="paint7_radial_424_394" cx="0" cy="0" r="1" gradientUnits="userSpaceOnUse" gradientTransform="translate(14.3293 15.6868) scale(8.47174 8.81086)">
<stop offset="0.7945" stop-color="#554138" stop-opacity="0"/>
<stop offset="1" stop-color="#554138"/>
</radialGradient>
<linearGradient id="paint8_linear_424_394" x1="18.9263" y1="0.401213" x2="15.3962" y2="8.73036" gradientUnits="userSpaceOnUse">
<stop offset="0.0577" stop-color="#FDD835"/>
<stop offset="0.7565" stop-color="#F9A825"/>
</linearGradient>
<linearGradient id="paint9_linear_424_394" x1="25.5005" y1="3.18759" x2="21.9704" y2="11.5167" gradientUnits="userSpaceOnUse">
<stop offset="0.0577" stop-color="#FDD835"/>
<stop offset="0.7565" stop-color="#F9A825"/>
</linearGradient>
<linearGradient id="paint10_linear_424_394" x1="22.1562" y1="1.77003" x2="18.626" y2="10.0992" gradientUnits="userSpaceOnUse">
<stop offset="0.0577" stop-color="#FDD835"/>
<stop offset="0.7565" stop-color="#F9A825"/>
</linearGradient>
<linearGradient id="paint11_linear_424_394" x1="25.8994" y1="3.35652" x2="22.3693" y2="11.6857" gradientUnits="userSpaceOnUse">
<stop offset="0.0577" stop-color="#FDD835"/>
<stop offset="0.7565" stop-color="#F9A825"/>
</linearGradient>
<linearGradient id="paint12_linear_424_394" x1="22.1562" y1="1.76988" x2="18.6261" y2="10.099" gradientUnits="userSpaceOnUse">
<stop offset="0.0577" stop-color="#FDD835"/>
<stop offset="0.7565" stop-color="#F9A825"/>
</linearGradient>
<linearGradient id="paint13_linear_424_394" x1="18.5066" y1="0.223377" x2="14.9765" y2="8.55252" gradientUnits="userSpaceOnUse">
<stop offset="0.0577" stop-color="#FDD835"/>
<stop offset="0.7565" stop-color="#F9A825"/>
</linearGradient>
<linearGradient id="paint14_linear_424_394" x1="22.9915" y1="0.211431" x2="18.0696" y2="11.8245" gradientUnits="userSpaceOnUse">
<stop offset="0.2467" stop-color="#FFEB3B"/>
<stop offset="0.4378" stop-color="#FFE639"/>
<stop offset="0.6718" stop-color="#FDD734"/>
<stop offset="0.9102" stop-color="#FBC02D"/>
</linearGradient>
<linearGradient id="paint15_linear_424_394" x1="23.9071" y1="3.47956" x2="20.0415" y2="12.6002" gradientUnits="userSpaceOnUse">
<stop stop-color="#FFEB3B"/>
<stop offset="1" stop-color="#FBC02D"/>
</linearGradient>
<linearGradient id="paint16_linear_424_394" x1="19.7235" y1="1.70646" x2="15.8579" y2="10.8271" gradientUnits="userSpaceOnUse">
<stop stop-color="#FFEB3B"/>
<stop offset="1" stop-color="#FBC02D"/>
</linearGradient>
<linearGradient id="paint17_linear_424_394" x1="16.1055" y1="0.173187" x2="12.24" y2="9.29386" gradientUnits="userSpaceOnUse">
<stop stop-color="#FFEB3B"/>
<stop offset="1" stop-color="#FBC02D"/>
</linearGradient>
<linearGradient id="paint18_linear_424_394" x1="27.4093" y1="4.96399" x2="23.5437" y2="14.0847" gradientUnits="userSpaceOnUse">
<stop stop-color="#FFEB3B"/>
<stop offset="1" stop-color="#FBC02D"/>
</linearGradient>
<linearGradient id="paint19_linear_424_394" x1="18.2456" y1="7.72858" x2="19.1143" y2="10.0446" gradientUnits="userSpaceOnUse">
<stop stop-color="#29B6F6"/>
<stop offset="1" stop-color="#039BE5"/>
</linearGradient>
<linearGradient id="paint20_linear_424_394" x1="15.5928" y1="7.0213" x2="16.0891" y2="8.34447" gradientUnits="userSpaceOnUse">
<stop stop-color="#F06292"/>
<stop offset="1" stop-color="#E91E63"/>
</linearGradient>
<linearGradient id="paint21_linear_424_394" x1="21.267" y1="9.42904" x2="21.7633" y2="10.7522" gradientUnits="userSpaceOnUse">
<stop stop-color="#F06292"/>
<stop offset="1" stop-color="#E91E63"/>
</linearGradient>
<linearGradient id="paint22_linear_424_394" x1="12.9658" y1="5.89473" x2="13.4765" y2="7.25609" gradientUnits="userSpaceOnUse">
<stop stop-color="#29B6F6"/>
<stop offset="1" stop-color="#039BE5"/>
</linearGradient>
<linearGradient id="paint23_linear_424_394" x1="23.8805" y1="10.519" x2="24.3913" y2="11.8803" gradientUnits="userSpaceOnUse">
<stop stop-color="#29B6F6"/>
<stop offset="1" stop-color="#039BE5"/>
</linearGradient>
</defs>
</svg>
