<svg xmlns="http://www.w3.org/2000/svg" version="1.1" xmlns:xlink="http://www.w3.org/1999/xlink" xmlns:svgjs="http://svgjs.dev/svgjs" width="100%" height="100%" viewBox="0 0 1000 600"><rect width="1000" height="600" x="0" y="0" fill="#e2d3f4"/><g><rect width="333.3333333333333" height="333.3333333333333" y="77.77777014838344" fill="#266398" transform="matrix(2.2499999313354513,0,0,2.2499999313354517,0,-249.99999084472722)" x="55.55555725097656"/><path d="M141.5478836272672 258.86329823948233L129.70577862828503 258.86329823948233L129.70577862828503 319.44443723890504L108.98209488006619 319.44443723890504L108.98209488006619 192.14180849984652L105.52814758869638 172.40496683487623Q108.79020891943453 172.02119491361293 113.36805969450404 171.6100107122594Q117.97332274966377 171.22623879099604 122.93494544599659 170.92470371000348Q127.92398042241965 170.62316862901088 132.96783995902317 170.4312826683792Q137.98428721553645 170.23939670774752 142.2331906295231 170.23939670774752L142.2331906295231 170.23939670774752Q154.67836579049052 170.23939670774752 164.93055854423898 172.84356331632Q175.2101635780777 175.47514220498272 182.50183008208063 180.601238581857Q189.79349658608356 185.72733495873118 193.85051403943856 193.37536110390718Q197.90753149279357 201.02338724908319 197.90753149279357 211.00145720192924L197.90753149279357 211.00145720192924Q197.90753149279357 221.36329907603871 194.7002947222359 229.2580357420268Q191.49305795167822 237.15277240801495 185.65424229245784 242.717465266333Q179.84283891332768 248.28215812465098 171.78362856679814 251.79092997620128Q163.75183050035884 255.29970182775153 154.18494474886626 256.97185091325593L154.18494474886626 256.97185091325593L168.19261987497714 260.91921924625L211.91520661890445 319.44443723890504L189.9031457064445 319.44443723890504L146.18055896251718 260.72733328561833Q145.11148003899797 259.3567192811065 143.7134537543959 259.11000876029436Q142.3428397498841 258.86329823948233 141.5478836272672 258.86329823948233L141.5478836272672 258.86329823948233ZM127.732094461788 184.8501419958436L129.70577862828503 206.25913274631833L129.70577862828503 243.9510178703936L144.3165239163811 243.9510178703936Q153.28033950588846 243.9510178703936 159.91411128772572 241.4290881020918Q166.5204707894727 238.90715833379008 170.8516110437301 234.63084263971317Q175.2101635780777 230.32711466554602 177.3757337052064 224.65277268686705Q179.54130383233507 218.97843070818809 179.54130383233507 212.56395716707274L179.54130383233507 212.56395716707274Q179.54130383233507 204.17579945946036 176.3888916219579 198.61110660114238Q173.23647941158066 193.0190014627341 168.19261987497714 189.72952785190571Q163.14876033837362 186.4126419609871 156.95358503798016 185.09685251665573Q150.73099745749647 183.75365079223414 144.70029583764443 183.75365079223414L144.70029583764443 183.75365079223414Q142.64437483087667 183.75365079223414 140.36915558338706 183.80847535241466Q138.0939363358974 183.86329991259512 135.81871708840777 183.94553675286582Q133.54349784091815 184.05518587322675 131.43275227396992 184.3018963940389Q129.32200670702173 184.54860691485104 127.732094461788 184.8501419958436L127.732094461788 184.8501419958436ZM338.9163002769704 319.44443723890504L318.68603757037585 319.44443723890504L318.68603757037585 247.89838620338767L256.5149863257193 247.89838620338767L256.5149863257193 319.44443723890504L236.28472361912475 319.44443723890504L236.28472361912475 192.14180849984652L233.43384648974015 171.41812475162772L256.5149863257193 169.44444058513068L256.5149863257193 232.10891287141143L318.68603757037585 232.10891287141143L318.68603757037585 171.22623879099604L338.9163002769704 169.44444058513068L338.9163002769704 319.44443723890504Z " fill="#e6e8e3" transform="matrix(2.2499999313354513,0,0,2.2499999313354517,0,-249.99999084472722)"/><path d="MNaN 244.44444105360233 " fill="#013dc4" transform="matrix(2.2499999313354513,0,0,2.2499999313354517,0,-249.99999084472722)"/></g></svg>