<svg width="55" height="46" viewBox="0 0 55 46" fill="none" xmlns="http://www.w3.org/2000/svg">
<path d="M13.2658 23.9093C13.824 24.1252 13.8383 24.9436 13.2836 25.1756C11.456 25.9457 2.59205 29.168 2.59205 40.897L2.53516 43.0623L29.4685 43.1042L29.4507 40.9195C29.4507 28.965 20.5334 25.9973 18.6952 25.2207C18.144 24.9887 18.1547 24.1703 18.7129 23.9544C20.5369 23.2455 29.248 19.8782 29.248 9.32859L29.472 7.4919L2.53516 7.45324L2.76982 9.37692C2.76982 19.5979 11.4347 23.1971 13.2658 23.9093Z" fill="url(#paint0_linear_424_331)"/>
<path d="M27.3244 39.9303C26.6666 37.1366 25.575 35.3225 22.7697 35.3225H16.9919L16.9884 24.254C16.9884 21.3766 25.1342 20.542 25.1342 16.4981L7.0186 16.5078C7.0186 20.4067 15.1075 21.4314 15.1075 24.283L15.1182 35.3225H9.47193C6.64526 35.3225 5.54304 37.1656 4.9066 39.9883L4.12793 43.3588L28.1493 43.4168L27.3244 39.9303Z" fill="url(#paint1_linear_424_331)"/>
<path opacity="0.2" d="M3.72627 8.42313L28.2774 8.45858L28.1814 9.22225C28.1778 9.2577 28.1743 9.29314 28.1743 9.32859C28.1743 15.7956 24.7609 20.5452 18.2863 23.065C17.6463 23.3131 17.2267 23.9028 17.216 24.5666C17.2054 25.2304 17.6072 25.833 18.24 26.0972C18.336 26.1391 18.4498 26.1842 18.5814 26.2357C21.0063 27.2121 28.3805 30.1862 28.3805 40.926L28.3912 42.1343L3.62671 42.0956L3.65871 40.9195V40.897C3.65871 36.3407 5.04538 32.619 7.78671 29.835C9.97338 27.6052 12.4445 26.5837 13.5005 26.1487C13.5858 26.1133 13.664 26.0811 13.7352 26.0521C14.368 25.7846 14.7698 25.1853 14.7592 24.5215C14.7485 23.8577 14.3289 23.2713 13.6889 23.0199C10.7272 21.8664 3.83649 18.2284 3.83649 9.37692C3.83649 9.34147 3.83293 9.30603 3.82938 9.27058L3.72627 8.42313ZM2.53516 7.45324L2.76982 9.37692C2.76982 19.5979 11.4347 23.1971 13.2658 23.9093C13.824 24.1252 13.8383 24.9436 13.2836 25.1756C11.456 25.9457 2.59205 29.168 2.59205 40.897L2.53516 43.0623L29.4649 43.1042L29.4472 40.9195C29.4472 28.965 20.5298 25.9973 18.6916 25.2207C18.1405 24.9887 18.1512 24.1703 18.7094 23.9544C20.5334 23.2455 29.2445 19.8782 29.2445 9.32859L29.4685 7.4919L2.53516 7.45324Z" fill="#424242"/>
<path d="M2.14044 6H29.8596C31.0436 6 32 6.87001 32 7.93979C32 9.0128 31.04 9.87959 29.8596 9.87959H2.14044C0.956445 9.87959 0 9.00958 0 7.93979C0 6.87001 0.96 6 2.14044 6Z" fill="#795548"/>
<path opacity="0.2" d="M29.8596 6.96667C30.4533 6.96667 30.9333 7.4049 30.9333 7.93979C30.9333 8.47791 30.4498 8.91291 29.8596 8.91291H2.14044C1.54667 8.91291 1.06667 8.47469 1.06667 7.93979C1.06667 7.4049 1.55022 6.96667 2.14044 6.96667H29.8596ZM29.8596 6H2.14044C0.96 6 0 6.87001 0 7.93979C0 9.0128 0.96 9.87959 2.14044 9.87959H29.8596C31.0436 9.87959 32 9.00958 32 7.93979C32 6.87001 31.04 6 29.8596 6Z" fill="#424242"/>
<path opacity="0.2" d="M24.3306 17.1522C23.8933 18.6054 22.0159 19.5882 20.1884 20.5388C18.1759 21.5892 16.2773 22.5817 16.2773 24.2702L16.2808 35.3386C16.2808 35.693 16.6008 35.9669 16.9919 35.9669H22.7697C24.8817 35.9669 25.927 37.0883 26.6275 40.0688L27.271 42.7723L5.00615 42.7208L5.60704 40.1172C6.27549 37.1398 7.35993 35.9669 9.47193 35.9669H15.1182C15.3066 35.9669 15.4879 35.9154 15.6195 35.7929C15.7546 35.6705 15.8293 35.5158 15.8293 35.345L15.8186 24.2959C15.8186 22.6171 13.9164 21.5892 11.9004 20.5001C10.1155 19.5334 8.27726 18.541 7.83282 17.1554L24.3306 17.1522ZM25.1342 16.5045L7.0186 16.511C7.0186 20.4099 15.1075 21.4346 15.1075 24.283L15.1182 35.3225H9.47193C6.64526 35.3225 5.54304 37.1656 4.9066 39.9883L4.12793 43.3588L28.1493 43.4232L27.3208 39.9303C26.6666 37.1366 25.575 35.3225 22.7697 35.3225H16.9919L16.9884 24.254C16.9884 21.3766 25.1342 20.5517 25.1342 16.5045Z" fill="#424242"/>
<path d="M2.08366 40.9002H29.9166C31.065 40.9002 31.9966 41.7444 31.9966 42.7852C31.9966 43.826 31.065 44.6702 29.9166 44.6702H2.08366C0.935218 44.6702 0.00366211 43.826 0.00366211 42.7852C0.00366211 41.7412 0.935218 40.9002 2.08366 40.9002Z" fill="#795548"/>
<path opacity="0.2" d="M29.9166 41.8669C30.4748 41.8669 30.9299 42.2793 30.9299 42.7852C30.9299 43.2911 30.4748 43.7035 29.9166 43.7035H2.08366C1.52544 43.7035 1.07033 43.2911 1.07033 42.7852C1.07033 42.2793 1.52544 41.8669 2.08366 41.8669H29.9166ZM29.9166 40.9002H2.08366C0.935218 40.9002 0.00366211 41.7444 0.00366211 42.7852C0.00366211 43.826 0.935218 44.6702 2.08366 44.6702H29.9166C31.065 44.6702 31.9966 43.826 31.9966 42.7852C31.9966 41.7444 31.065 40.9002 29.9166 40.9002Z" fill="#424242"/>
<path d="M38.0432 12.0821C38.0432 12.0821 38.4803 13.7677 36.6074 14.2047C34.9686 14.591 34.6252 12.9366 34.6252 12.9366C34.6252 12.9366 34.2623 11.2666 33.5132 11.1027C33.2283 11.0403 33.1659 11.1105 32.3504 10.9896C30.9574 10.7789 30.5907 10.1039 30.4736 9.49126C30.4346 9.30397 30.419 9.12058 30.4073 8.96061C30.3878 8.7382 30.3683 8.55871 30.2902 8.45727C30.2278 8.37533 29.3616 8.04367 29.4786 7.62617C29.6347 7.0721 30.657 6.63119 30.6141 6.11614C30.618 5.98348 30.5321 5.55037 30.5204 5.49184C30.4385 5.00021 30.4658 4.31348 30.6219 3.63455C31.0511 1.76165 32.2724 0.345275 34.3677 0.14628C36.2445 -0.0254028 38.3905 1.37147 39.2684 3.03757C39.8303 4.10668 39.0148 6.8653 38.0549 8.3246C36.8063 10.2287 38.0432 12.0821 38.0432 12.0821Z" fill="#A56C43"/>
<path d="M31.4415 9.28447C31.1449 9.47566 30.8094 9.53028 30.4738 9.49126C30.4348 9.30397 30.4192 9.12059 30.4075 8.96061C30.6728 9.01524 31.0084 8.99963 31.2074 8.9333C31.5741 8.80844 31.7692 9.08157 31.4415 9.28447Z" fill="#473530"/>
<path d="M32.5457 6.52329C32.5603 6.14428 32.3731 5.82939 32.1276 5.81996C31.8821 5.81052 31.6713 6.11012 31.6567 6.48913C31.6422 6.86813 31.8294 7.18302 32.0749 7.19245C32.3204 7.20189 32.5312 6.90229 32.5457 6.52329Z" fill="#42312C"/>
<path d="M31.855 5.55037C31.4258 5.69084 31.3126 5.40991 31.4531 5.17189C31.5545 5.00021 31.8121 4.84804 32.3232 4.92998C32.8031 5.00801 33.0099 5.27724 33.1426 5.44112C33.2753 5.605 33.2675 5.77278 33.1582 5.78839C33.006 5.8196 32.3856 5.37869 31.855 5.55037Z" fill="#42312C"/>
<path d="M50.3184 30.2063L43.0726 31.6539L41.0553 24.6813L36.2053 27.9315L39.7404 35.0329L39.756 35.0212C40.037 35.5246 40.513 35.9264 41.1178 36.1137C41.2934 36.1684 41.4689 36.1996 41.6484 36.2113V36.2191L41.707 36.2152C41.9255 36.2269 42.1401 36.2113 42.3469 36.1684L51.29 32.7698L50.3184 30.2063Z" fill="#616161"/>
<path d="M51.8712 28.7197C51.7464 28.509 51.4771 28.4427 51.2664 28.5675L50.3417 29.1216C49.7135 29.4962 49.374 30.5614 49.374 30.5614L50.7475 32.8674L52.6711 34.5374C53.1666 34.9237 53.8495 34.9666 54.3918 34.6505L54.8093 34.4047C54.9927 34.2955 55.0551 34.0574 54.9459 33.8741L51.8712 28.7197Z" fill="#325599"/>
<path d="M29.2485 42.3645L33.7005 33.8584C33.7005 33.8584 39.2451 29.2698 39.7289 28.946C41.5355 27.7364 41.8945 26.0547 41.715 24.8334C41.5745 23.8853 40.9463 22.625 40.9463 22.625L33.6693 24.7944L34.0127 26.1288C34.0127 26.1288 31.7847 29.0084 31.2658 29.6093C30.7468 30.2102 29.8572 31.0491 29.1666 33.4175C28.4369 35.9147 26.6069 41.9353 26.6069 41.9353L29.2485 42.3645Z" fill="#7C7C7C"/>
<path d="M29.2445 45.0139C29.4864 45.0529 29.7127 44.889 29.7517 44.651L29.9234 43.5858C30.0444 42.864 29.4474 41.9197 29.4474 41.9197L26.798 41.4827L24.2813 41.8768C23.6648 42.0095 23.1927 42.5011 23.0873 43.1215L23.0054 43.6014C22.9703 43.8121 23.1107 44.0111 23.3214 44.0462L29.2445 45.0139Z" fill="#4568AD"/>
<path d="M31.2774 17.0882L27.7813 14.4271L26.0801 16.2454L29.6074 19.6634L29.6113 19.6595C30.3019 20.3814 31.9212 20.873 33.2673 19.6478C34.5471 18.4812 36.1274 15.9957 36.1274 15.9957L33.3922 13.8028L31.2774 17.0882Z" fill="url(#paint2_linear_424_331)"/>
<path d="M31.3594 15.4962C32.3622 18.3017 34.8203 18.3875 34.8203 18.3875L36.7791 15.0319C37.3058 14.1306 37.0015 12.9678 36.1001 12.4411L35.7763 12.2499C34.875 11.7231 34.1102 11.9807 32.8967 13.7521C31.8081 15.348 31.3594 15.4962 31.3594 15.4962Z" fill="#04A287"/>
<path d="M33.6693 24.7905C32.7016 20.9511 32.5222 18.2549 32.7407 16.0932C33.0216 13.3697 34.3209 11.7426 35.7802 11.2276C37.5829 10.5916 38.8315 11.5085 39.3348 13.1395C39.6782 14.2515 39.6119 15.1061 39.5845 15.6367C39.5845 15.6367 39.3348 18.5514 41.6525 22.1997C41.6525 22.1997 41.4301 23.7838 37.7312 24.6539C36.0846 25.0402 33.6693 24.7905 33.6693 24.7905Z" fill="url(#paint3_linear_424_331)"/>
<path d="M39.6271 21.2203C39.6271 21.2203 37.9337 20.3775 37.9142 20.3697C37.6996 20.2565 37.4342 20.3346 37.3211 20.5492L36.9582 21.2281C36.8997 21.3412 36.8958 21.4661 36.9348 21.5793C36.7397 21.6924 36.2598 21.989 36.1583 22.188C36.0413 22.4143 36.1739 22.6523 36.2988 22.7069C36.4431 22.7693 36.5095 22.9722 36.4666 23.1244C36.4197 23.2805 36.4236 23.4405 36.4978 23.5692C36.5719 23.698 36.6656 23.7487 36.845 23.7838C36.9309 23.7994 37.0206 23.9087 37.0206 23.9945C37.0167 24.1272 37.0167 24.3574 37.0831 24.4432C37.2157 24.6188 37.4342 24.5642 37.5474 24.693C37.5903 24.7437 37.5942 24.9661 37.6839 25.048C37.9493 25.2977 38.8116 24.8373 38.8116 24.8373L40.4582 23.3117L39.6271 21.2203Z" fill="#875334"/>
<path d="M39.0811 20.955L40.1229 21.2476L40.837 23.218C40.837 23.218 38.609 25.4109 38.2305 24.7983C38.1096 24.6071 38.332 24.4003 38.0081 24.2793C37.7779 24.1935 37.6062 24.0843 37.6726 23.7292C37.6999 23.5965 37.5945 23.4326 37.5009 23.4209C37.0795 23.3702 36.9702 23.1361 37.0951 22.8396C37.1653 22.6757 37.1497 22.3986 36.9117 22.2738C36.8259 22.227 36.7049 22.0358 36.7595 21.7626C36.8493 21.3373 39.0811 20.955 39.0811 20.955Z" fill="url(#paint4_linear_424_331)"/>
<path d="M40.5133 23.4639L44.3722 20.8613V20.8574C44.8365 20.397 45.0004 20.077 45.094 19.6907C45.3906 18.4812 44.6024 17.6384 44.6024 17.6384L41.0322 13.6468L38.8315 15.9215L41.9686 19.0586L39.6236 21.2242L40.5133 23.4639Z" fill="url(#paint5_linear_424_331)"/>
<path d="M40.5908 18.2549C40.5908 18.2549 42.9554 15.9176 42.8929 14.1189C42.8929 14.1189 41.7653 14.115 40.0875 12.8469C39.0301 12.0509 37.6254 11.9846 37.0596 12.9132C36.5563 13.7326 36.6382 14.7432 37.6059 15.902C38.3317 16.7644 40.5908 18.2549 40.5908 18.2549Z" fill="#04A287"/>
<path d="M25.9044 14.8915L25.8927 14.8993C25.725 15.11 25.4362 15.1685 25.2489 15.0241L24.4881 14.4505C24.3008 14.3101 24.2852 14.0213 24.4529 13.8106C24.6207 13.5999 24.9095 13.5414 25.0968 13.6858L25.8576 14.2594C26.0488 14.4037 26.0761 14.6808 25.9044 14.8915Z" fill="url(#paint6_linear_424_331)"/>
<path d="M26.5443 12.4918C26.556 12.4996 26.5599 12.5074 26.5599 12.5074C26.9071 12.8781 27.2154 13.1863 27.348 13.2683C27.6992 13.4907 28.027 13.7716 28.2299 14.1657C28.6084 14.9032 28.1245 15.6289 27.5587 16.1635C26.9969 16.7019 26.6418 16.819 26.0292 16.7175C25.5298 16.6356 24.4724 15.5158 24.4724 15.5158C24.3631 15.387 24.2383 15.2543 24.1134 15.1295C24.0666 15.0826 24.0159 15.0358 23.969 14.9851L23.9651 14.9812C23.8208 14.8407 23.8012 14.6534 23.9612 14.4583C24.1719 14.2008 24.3787 14.3335 24.4021 14.353L24.406 14.3569C24.5036 14.4466 24.6089 14.5676 24.687 14.6261C24.9133 14.7939 25.0381 14.8251 25.0381 14.8251L26.1073 13.4673L25.7444 12.9834C25.7444 12.9834 25.7405 12.9756 25.7288 12.9639C25.6898 12.9015 25.5376 12.6791 25.8263 12.4177C26.1463 12.1445 26.4779 12.4294 26.5443 12.4918Z" fill="url(#paint7_linear_424_331)"/>
<path d="M26.5094 14.3335C26.3221 14.5325 26.0295 14.5637 25.8539 14.4076L25.0462 13.6858C24.8706 13.5297 24.8784 13.241 25.0657 13.042C25.253 12.843 25.5456 12.8118 25.7212 12.9678L26.5289 13.6897C26.7006 13.8496 26.6928 14.1345 26.5094 14.3335Z" fill="url(#paint8_linear_424_331)"/>
<path d="M25.4594 14.4505C25.635 14.1969 25.8496 13.8848 26.0876 13.6155C26.1227 13.5765 26.1539 13.5414 26.1891 13.5063C26.5168 13.1668 26.946 13.1083 27.4845 13.4009C27.504 13.4126 27.5196 13.4204 27.5391 13.4322C27.5703 13.4517 27.6015 13.4712 27.6367 13.4907L27.6406 13.4946C27.6874 13.5258 27.7342 13.557 27.781 13.5921C27.941 13.7092 28.062 13.8536 28.1361 13.994C28.4326 14.4662 28.3468 14.9149 28.3468 14.9149C28.3468 14.9149 28.0034 15.9606 27.4962 15.7772C26.9889 15.5938 26.7275 14.8719 26.7275 14.8719L26.8602 14.3491C26.708 14.3335 26.5753 14.3998 26.3959 14.6027C26.3373 14.669 26.271 14.751 26.193 14.8485C26.1852 14.8602 26.0876 14.9812 26.0798 14.989C25.9628 15.1178 25.8301 15.1802 25.6701 15.1685C25.4633 15.1568 25.2877 14.9578 25.1902 14.8797C25.2643 14.7861 25.3619 14.5871 25.4594 14.4505Z" fill="url(#paint9_linear_424_331)"/>
<path d="M25.2295 15.6562L25.8616 15.1373L26.1972 14.7549L26.6342 14.3725L26.7863 14.4388L26.6927 14.9383L27.0205 15.4299L27.2272 15.6055L26.1542 16.3664L25.2295 15.6562Z" fill="url(#paint10_radial_424_331)"/>
<path d="M25.2724 15.3714C25.2607 15.6133 25.0266 15.746 25.0422 15.7499C25.1085 15.7772 25.4363 15.6952 25.7991 15.2894C26.0801 14.9734 26.3493 14.5637 26.6771 14.4661C26.5639 15.0202 26.8097 15.4455 27.2623 15.6133C26.9151 15.2894 26.6341 14.7432 26.9502 14.3062C26.6927 14.1501 26.3922 14.4076 26.24 14.5949C26.0645 14.8056 25.9084 15.1334 25.5845 15.0904C25.3621 15.0631 25.2802 14.9227 25.3582 14.712C25.5533 14.1969 26.0098 13.6702 26.4781 13.3775C26.6497 13.2722 27.0009 13.2449 27.4535 13.3346C27.1219 13.0771 26.5561 13.159 26.3415 13.2605C26.1581 13.3463 26.2049 13.3112 26.0411 13.2058C25.9591 13.1512 25.8772 13.0966 25.7991 13.0459C25.8655 13.1551 25.9825 13.2878 26.002 13.4165C26.0254 13.5765 25.8733 13.7131 25.7796 13.8262C25.5377 14.115 25.327 13.8653 25.0773 13.7092C25.2451 13.9082 25.2841 13.9706 25.3699 14.1111C25.4831 14.3023 25.3114 14.4583 25.1865 14.6066C24.9329 14.911 24.4101 14.2906 24.375 14.3296C24.3359 14.3764 25.2841 15.1061 25.2724 15.3714Z" fill="#875334"/>
<path d="M39.1631 1.89042C38.2657 0.79009 36.6269 0.0721452 35.0623 0.00581344C34.0127 -0.0371071 33.0021 0.157987 32.1398 0.579389C32.1242 0.587192 30.4815 1.40268 30.1186 2.20257C29.7284 3.05708 30.0913 3.54871 30.181 3.63846C30.3215 3.77502 30.6336 3.7321 30.6336 3.7321C31.2501 3.67747 33.2089 3.53311 34.2077 3.7243C34.3638 3.75551 34.5394 3.80233 34.6135 3.9428C34.6448 4.00523 34.676 4.40322 34.6799 4.47346C34.7579 5.37089 34.6916 5.94056 34.9725 6.50243C35.0193 6.59217 35.2027 6.70923 35.2027 6.70923L35.5617 6.13565C35.788 5.8079 35.9948 5.52306 36.2952 5.57769C37.1849 5.73766 37.0834 7.31402 36.0533 7.7042C36.0533 7.7042 36.2562 8.9372 37.3917 9.13619C38.3867 9.31178 38.5154 9.08937 38.6052 8.71479C38.7963 7.9032 39.0149 7.54813 39.249 7.17355C39.526 6.72874 39.8108 6.27222 40.002 5.08605C40.1893 3.89598 39.9006 2.79175 39.1631 1.89042Z" fill="#3C2C23"/>
<path d="M39.1631 1.89042C38.2657 0.79009 36.6269 0.0721452 35.0623 0.00581344C34.0127 -0.0371071 33.0021 0.157987 32.1398 0.579389C32.1242 0.587192 30.4815 1.40268 30.1186 2.20257C29.7284 3.05708 30.0913 3.54871 30.181 3.63846C30.3215 3.77502 30.6336 3.7321 30.6336 3.7321C31.2501 3.67747 33.2089 3.53311 34.2077 3.7243C34.3638 3.75551 34.5394 3.80233 34.6135 3.9428C34.6448 4.00523 34.676 4.40322 34.6799 4.47346C34.7579 5.37089 34.6916 5.94056 34.9725 6.50243C35.0193 6.59217 35.2027 6.70923 35.2027 6.70923L35.5617 6.13565C35.788 5.8079 35.9948 5.52306 36.2952 5.57769C37.1849 5.73766 37.0834 7.31402 36.0533 7.7042C36.0533 7.7042 36.2562 8.9372 37.3917 9.13619C38.3867 9.31178 38.5154 9.08937 38.6052 8.71479C38.7963 7.9032 39.0149 7.54813 39.249 7.17355C39.526 6.72874 39.8108 6.27222 40.002 5.08605C40.1893 3.89598 39.9006 2.79175 39.1631 1.89042Z" fill="url(#paint11_radial_424_331)"/>
<defs>
<linearGradient id="paint0_linear_424_331" x1="22.8267" y1="40.6875" x2="11.8472" y2="10.5089" gradientUnits="userSpaceOnUse">
<stop offset="0.0021923" stop-color="#BBDEFB"/>
<stop offset="1" stop-color="#E3F2FD"/>
</linearGradient>
<linearGradient id="paint1_linear_424_331" x1="16.1404" y1="17.0629" x2="16.1404" y2="41.5124" gradientUnits="userSpaceOnUse">
<stop stop-color="#FFCA7B"/>
<stop offset="0.2539" stop-color="#FFA726"/>
<stop offset="0.4688" stop-color="#FFCC80"/>
<stop offset="0.6586" stop-color="#FFC875"/>
<stop offset="0.8665" stop-color="#FFA726"/>
</linearGradient>
<linearGradient id="paint2_linear_424_331" x1="26.1592" y1="16.7542" x2="32.6925" y2="17.1172" gradientUnits="userSpaceOnUse">
<stop offset="0.5979" stop-color="#A56C43"/>
<stop offset="1" stop-color="#8D5738"/>
</linearGradient>
<linearGradient id="paint3_linear_424_331" x1="32.3381" y1="17.0346" x2="42.3216" y2="19.8497" gradientUnits="userSpaceOnUse">
<stop stop-color="#00BFA5"/>
<stop offset="0.4701" stop-color="#00B29A"/>
<stop offset="1" stop-color="#009E89"/>
</linearGradient>
<linearGradient id="paint4_linear_424_331" x1="40.4028" y1="21.9553" x2="37.862" y2="23.1893" gradientUnits="userSpaceOnUse">
<stop offset="0.5979" stop-color="#A56C43"/>
<stop offset="1" stop-color="#8D5738"/>
</linearGradient>
<linearGradient id="paint5_linear_424_331" x1="43.4698" y1="21.4954" x2="40.2757" y2="18.0109" gradientUnits="userSpaceOnUse">
<stop offset="0.5979" stop-color="#A56C43"/>
<stop offset="1" stop-color="#8D5738"/>
</linearGradient>
<linearGradient id="paint6_linear_424_331" x1="25.5596" y1="13.9677" x2="24.7771" y2="14.7579" gradientUnits="userSpaceOnUse">
<stop offset="0.5" stop-color="#A56C43"/>
<stop offset="1" stop-color="#8D5738"/>
</linearGradient>
<linearGradient id="paint7_linear_424_331" x1="25.0718" y1="16.1076" x2="27.5116" y2="13.3669" gradientUnits="userSpaceOnUse">
<stop stop-color="#8D5738"/>
<stop offset="0.1375" stop-color="#A56C43"/>
<stop offset="0.831" stop-color="#A56C43"/>
</linearGradient>
<linearGradient id="paint8_linear_424_331" x1="26.1629" y1="13.3231" x2="25.3998" y2="14.0597" gradientUnits="userSpaceOnUse">
<stop offset="0.5" stop-color="#A56C43"/>
<stop offset="1" stop-color="#8D5738"/>
</linearGradient>
<linearGradient id="paint9_linear_424_331" x1="26.1685" y1="14.002" x2="28.1031" y2="15.4769" gradientUnits="userSpaceOnUse">
<stop offset="0.5" stop-color="#A56C43"/>
<stop offset="1" stop-color="#8D5738"/>
</linearGradient>
<radialGradient id="paint10_radial_424_331" cx="0" cy="0" r="1" gradientUnits="userSpaceOnUse" gradientTransform="translate(26.3123 14.9499) scale(1.21219)">
<stop stop-color="#8D5738"/>
<stop offset="1" stop-color="#A56C43"/>
</radialGradient>
<radialGradient id="paint11_radial_424_331" cx="0" cy="0" r="1" gradientUnits="userSpaceOnUse" gradientTransform="translate(34.7698 5.83406) rotate(6.66733) scale(6.3261 6.23947)">
<stop offset="0.5264" stop-color="#554138" stop-opacity="0"/>
<stop offset="1" stop-color="#554138"/>
</radialGradient>
</defs>
</svg>
