<svg width="28" height="35" viewBox="0 0 28 35" fill="none" xmlns="http://www.w3.org/2000/svg">
<path d="M0.0340909 35V0.0909081H13.8068C16.4432 0.0909081 18.6932 0.562499 20.5568 1.50568C22.4318 2.4375 23.858 3.76136 24.8352 5.47727C25.8239 7.18182 26.3182 9.1875 26.3182 11.4943C26.3182 13.8125 25.8182 15.8068 24.8182 17.4773C23.8182 19.1364 22.3693 20.4091 20.4716 21.2955C18.5852 22.1818 16.3011 22.625 13.6193 22.625H4.39773V16.6932H12.4261C13.8352 16.6932 15.0057 16.5 15.9375 16.1136C16.8693 15.7273 17.5625 15.1477 18.017 14.375C18.483 13.6023 18.7159 12.642 18.7159 11.4943C18.7159 10.3352 18.483 9.35795 18.017 8.5625C17.5625 7.76704 16.8636 7.16477 15.9205 6.75568C14.9886 6.33523 13.8125 6.125 12.392 6.125H7.41477V35H0.0340909ZM18.8864 19.1136L27.5625 35H19.4148L10.9261 19.1136H18.8864Z" fill="#0E6BA8"/>
</svg>
