<svg width="1728" height="1117" viewBox="0 0 1728 1117" fill="none" xmlns="http://www.w3.org/2000/svg">
<rect width="1728" height="1117" fill="#002838"/>
<path d="M1490.56 609.05C1473.7 608.588 1460.83 610.167 1449.82 614.835C1446.7 616.162 1441.71 616.199 1441.19 620.141C1442.91 621.952 1443.18 624.661 1444.55 626.89C1447.18 631.165 1451.61 636.903 1455.57 639.908C1459.9 643.195 1464.36 646.707 1469 649.551C1477.24 654.61 1486.45 657.501 1494.39 662.57C1499.08 665.56 1503.73 669.323 1508.29 672.694C1510.55 674.362 1512.07 676.955 1515 678V677.521C1513.46 675.544 1513.06 672.83 1511.65 670.767L1505.42 664.497C1499.32 656.362 1491.59 649.215 1483.37 643.282C1476.81 638.547 1462.14 632.151 1459.41 624.478L1458.93 623.996C1463.57 623.467 1469.01 621.777 1473.31 620.618C1480.51 618.675 1486.95 619.177 1494.39 617.245L1504.46 614.351V612.423C1500.7 608.541 1498.01 603.401 1493.91 599.887C1483.18 590.694 1471.47 581.508 1459.41 573.847C1452.72 569.602 1444.45 566.841 1437.36 563.241C1434.97 562.027 1430.78 561.397 1429.21 559.381C1425.48 554.606 1423.46 548.552 1420.59 542.989C1414.57 531.332 1408.66 518.603 1403.33 506.338C1399.7 497.975 1397.32 489.731 1392.79 482.229C1371.02 446.23 1347.6 424.506 1311.31 403.149C1303.59 398.607 1294.29 396.815 1284.47 394.468C1279.2 394.149 1273.93 393.825 1268.65 393.501C1265.43 392.152 1262.09 388.191 1259.07 386.268C1247.05 378.627 1216.21 362.008 1207.31 383.859C1201.69 397.651 1215.71 411.104 1220.73 418.095C1224.25 422.993 1228.76 428.492 1231.27 434.005C1232.93 437.63 1233.21 441.265 1234.63 445.098C1238.11 454.543 1241.14 464.819 1245.65 473.545C1247.93 477.963 1250.44 482.614 1253.32 486.563C1255.08 488.987 1258.11 490.055 1258.59 493.797C1255.63 497.963 1255.46 504.433 1253.8 509.711C1246.31 533.472 1249.13 563.008 1260.03 580.594C1263.37 585.996 1271.25 597.574 1282.08 593.13C1291.55 589.25 1289.43 577.221 1292.14 566.609C1292.75 564.205 1292.38 562.435 1293.58 560.824V561.306L1302.21 578.664C1308.59 589.011 1319.92 599.822 1329.53 607.118C1334.51 610.901 1338.43 617.44 1344.86 619.654V619.17H1344.39C1343.14 617.215 1341.18 616.404 1339.59 614.833C1335.84 611.133 1331.67 606.534 1328.57 602.296C1319.84 590.367 1312.12 577.312 1305.09 563.723C1301.73 557.231 1298.81 550.074 1295.98 543.468C1294.89 540.923 1294.9 537.07 1292.63 535.753C1289.52 540.592 1284.96 544.506 1282.56 550.22C1278.73 559.353 1278.23 570.494 1276.81 582.044C1275.97 582.346 1276.34 582.138 1275.85 582.524C1269.17 580.905 1266.83 573.993 1264.35 568.06C1258.07 553.059 1256.91 528.91 1262.43 511.644C1263.86 507.173 1270.31 493.107 1267.7 488.978C1266.45 484.861 1262.33 482.478 1260.03 479.332C1257.18 475.443 1254.34 470.322 1252.36 465.83C1247.23 454.138 1244.83 441.008 1239.42 429.186C1236.83 423.534 1232.46 417.813 1228.88 412.792C1224.9 407.224 1220.45 403.124 1217.37 396.395C1216.28 394.003 1214.79 390.173 1216.41 387.714C1216.93 386.056 1217.66 385.364 1219.29 384.822C1222.07 382.665 1229.81 385.539 1232.71 386.747C1240.39 389.96 1246.81 393.019 1253.32 397.359C1256.44 399.445 1259.6 403.475 1263.38 404.592H1267.7C1274.44 406.152 1282 405.074 1288.31 407.002C1299.45 410.407 1309.43 415.708 1318.5 421.468C1346.12 439.019 1368.71 463.998 1384.16 493.799C1386.65 498.598 1387.72 503.175 1389.91 508.266C1394.33 518.529 1399.89 529.088 1404.29 539.126C1408.67 549.14 1412.95 559.245 1419.15 567.578C1422.41 571.957 1434.99 574.307 1440.72 576.741C1444.73 578.444 1451.3 580.223 1455.1 582.524C1462.35 586.928 1469.38 592.169 1476.19 596.993C1479.58 599.402 1490.04 604.693 1490.56 609.05V609.05ZM1276.32 425.336C1272.81 425.269 1270.32 425.721 1267.69 426.297V426.779H1268.17C1269.85 430.244 1272.81 432.478 1274.88 435.461C1276.48 438.839 1278.08 442.212 1279.68 445.585L1280.15 445.108C1283.12 443 1284.48 439.637 1284.46 434.497C1283.27 433.239 1283.1 431.662 1282.07 430.16C1280.7 428.156 1278.05 427.016 1276.32 425.336Z" fill="#00618A"/>
<path d="M992.331 440.581L881.058 375.997C874.041 372.001 864.904 372.001 857.831 375.997L745.369 440.581C738.127 444.746 733.002 452.573 733.002 460.944V589.942C733.002 598.314 738.261 606.143 745.503 610.33L775.216 627.2C789.417 634.192 794.436 634.192 800.898 634.192C821.926 634.192 833.937 621.482 833.937 599.313V471.959C833.937 470.161 833.001 467.485 831.234 467.485H817.045C815.249 467.485 811.227 470.161 811.227 471.957V599.31C811.227 609.137 802.334 618.916 785.715 610.61L755.014 592.921C753.944 592.341 753.189 591.173 753.189 589.942V460.944C753.189 459.728 754.59 458.508 755.667 457.885L867.765 393.411C868.812 392.818 870.352 392.818 871.396 393.411L982.126 457.869C983.186 458.508 982.813 459.691 982.813 460.944V589.942C982.813 591.173 983.275 592.371 982.227 592.964L870.982 657.476C870.029 658.048 868.845 658.048 867.8 657.476L839.269 640.452C838.408 639.953 837.386 639.774 836.561 640.235C828.623 644.733 827.159 645.331 819.713 647.911C817.881 648.549 815.178 649.656 820.747 652.776L858.088 674.857C861.653 676.915 865.697 677.999 869.814 678C873.957 678 878.015 676.925 881.591 674.857L992.328 610.33C999.57 606.113 1003 598.314 1003 589.942V460.944C1003 452.573 999.57 444.766 992.331 440.581V440.581ZM904.364 569.501C874.775 569.501 868.257 561.341 866.085 546.633C865.832 545.049 864.487 543.155 862.875 543.155H848.413C846.624 543.155 845.186 545.324 845.186 547.105C845.186 565.937 855.428 588.754 904.366 588.754C939.792 588.754 960.103 574.995 960.103 550.644C960.103 526.5 943.784 520.164 909.428 515.619C874.702 511.031 871.174 508.712 871.174 500.58C871.174 493.876 874.162 484.934 899.875 484.934C922.85 484.934 931.319 489.863 934.803 505.343C935.101 506.798 936.431 507.842 937.932 507.842H952.452C953.345 507.842 954.198 507.482 954.824 506.843C955.429 506.157 955.75 505.297 955.669 504.374C953.421 477.718 935.704 465.295 899.872 465.295C868 465.295 848.986 478.75 848.986 501.302C848.986 525.764 867.904 532.523 898.5 535.548C935.101 539.135 937.947 544.482 937.947 551.678C937.947 564.176 927.909 569.501 904.364 569.501Z" fill="#83CD29"/>
<path d="M536.427 517.102C536.427 495.669 509.586 475.356 468.432 462.759C477.929 420.814 473.708 387.443 455.109 376.759C450.822 374.253 445.811 373.066 440.337 373.066V387.773C443.37 387.773 445.811 388.367 447.855 389.488C456.824 394.632 460.716 414.219 457.681 439.413C456.957 445.612 455.77 452.141 454.319 458.802C441.391 455.636 427.278 453.196 412.439 451.614C403.536 439.413 394.303 428.333 385.004 418.638C406.504 398.655 426.685 387.707 440.403 387.707V373C422.266 373 398.524 385.926 374.518 408.35C350.511 386.058 326.77 373.264 308.633 373.264V387.971C322.285 387.971 342.531 398.853 364.031 418.704C354.798 428.399 345.565 439.413 336.793 451.614C321.888 453.196 307.775 455.636 294.849 458.868C293.332 452.273 292.211 445.876 291.419 439.742C288.32 414.549 292.144 394.962 301.049 389.752C303.026 388.564 305.598 388.037 308.633 388.037V373.33C303.093 373.33 298.08 374.517 293.728 377.023C275.195 387.707 271.041 421.012 280.603 462.825C239.582 475.488 212.872 495.735 212.872 517.102C212.872 538.537 239.714 558.85 280.867 571.446C271.37 613.392 275.591 646.762 294.19 657.446C298.477 659.952 303.488 661.139 309.029 661.139C327.165 661.139 350.908 648.213 374.914 625.79C398.919 648.082 422.662 660.876 440.798 660.876C446.337 660.876 451.35 659.689 455.703 657.182C474.235 646.498 478.391 613.192 468.827 571.381C509.717 558.784 536.427 538.471 536.427 517.102V517.102ZM450.56 473.113C448.119 481.622 445.085 490.392 441.655 499.164C438.952 493.889 436.116 488.612 433.016 483.335C429.983 478.06 426.75 472.916 423.519 467.903C432.884 469.288 441.919 471.003 450.56 473.113V473.113ZM420.353 543.351C415.209 552.255 409.934 560.697 404.46 568.545C394.632 569.402 384.675 569.863 374.65 569.863C364.691 569.863 354.732 569.402 344.972 568.61C339.498 560.761 334.155 552.387 329.011 543.548C323.999 534.91 319.449 526.138 315.293 517.301C319.383 508.463 323.999 499.625 328.946 490.986C334.09 482.083 339.365 473.641 344.839 465.793C354.667 464.936 364.624 464.474 374.65 464.474C384.608 464.474 394.567 464.935 404.327 465.727C409.801 473.575 415.144 481.951 420.288 490.789C425.3 499.428 429.85 508.199 434.006 517.037C429.85 525.874 425.3 534.712 420.353 543.351V543.351ZM441.655 534.778C445.117 543.373 448.155 552.133 450.757 561.025C442.117 563.136 433.016 564.917 423.585 566.302C426.817 561.225 430.048 556.014 433.083 550.671C436.116 545.396 438.952 540.053 441.655 534.778ZM374.781 605.148C368.647 598.815 362.514 591.759 356.447 584.043C362.383 584.307 368.45 584.505 374.583 584.505C380.783 584.505 386.916 584.373 392.918 584.043C387.257 591.4 381.203 598.445 374.781 605.148V605.148ZM325.714 566.302C316.349 564.917 307.313 563.202 298.675 561.092C301.114 552.584 304.149 543.812 307.577 535.041C310.282 540.317 313.118 545.594 316.216 550.869C319.316 556.146 322.483 561.289 325.714 566.302ZM374.452 429.058C380.585 435.389 386.719 442.446 392.786 450.163C386.85 449.899 380.783 449.701 374.65 449.701C368.45 449.701 362.316 449.833 356.316 450.163C361.976 442.806 368.031 435.761 374.452 429.058V429.058ZM325.647 467.903C322.416 472.982 319.185 478.192 316.152 483.533C313.118 488.81 310.282 494.086 307.577 499.361C304.115 490.767 301.078 482.007 298.477 473.113C307.116 471.069 316.216 469.288 325.647 467.903V467.903ZM265.962 550.474C242.616 540.515 227.513 527.458 227.513 517.102C227.513 506.748 242.616 493.625 265.962 483.732C271.634 481.291 277.834 479.115 284.231 477.071C287.99 489.997 292.936 503.451 299.07 517.235C293.003 530.953 288.121 544.34 284.429 557.201C277.9 555.156 271.7 552.914 265.962 550.474ZM301.444 644.718C292.475 639.574 288.583 619.987 291.618 594.792C292.344 588.594 293.529 582.064 294.98 575.403C307.908 578.569 322.021 581.009 336.86 582.592C345.763 594.792 354.996 605.872 364.295 615.567C342.795 635.551 322.614 646.498 308.896 646.498C305.929 646.433 303.423 645.838 301.444 644.718V644.718ZM457.88 594.463C460.979 619.656 457.155 639.244 448.25 644.454C446.273 645.641 443.701 646.169 440.666 646.169C427.014 646.169 406.768 635.287 385.268 615.436C394.501 605.741 403.734 594.727 412.506 582.525C427.411 580.943 441.524 578.502 454.45 575.271C455.967 581.933 457.155 588.33 457.88 594.463ZM483.271 550.474C477.599 552.914 471.399 555.091 465.002 557.135C461.243 544.209 456.296 530.755 450.163 516.971C456.231 503.253 461.111 489.865 464.804 477.005C471.334 479.049 477.532 481.291 483.337 483.732C506.683 493.689 521.786 506.748 521.786 517.102C521.72 527.458 506.617 540.581 483.271 550.474V550.474Z" fill="#61DAFB"/>
<path d="M374.583 547.243C391.23 547.243 404.724 533.749 404.724 517.102C404.724 500.457 391.23 486.963 374.583 486.963C357.938 486.963 344.444 500.457 344.444 517.102C344.444 533.749 357.938 547.243 374.583 547.243V547.243ZM227.564 713.033H217.615V730.168H212V687.811H226.022C230.793 687.811 234.458 688.897 237.018 691.07C239.598 693.241 240.888 696.402 240.888 700.552C240.888 703.191 240.17 705.488 238.735 707.448C237.319 709.406 235.341 710.871 232.8 711.84L242.75 729.818V730.168H236.757L227.564 713.033ZM217.615 708.466H226.197C228.97 708.466 231.171 707.747 232.8 706.313C234.449 704.878 235.273 702.958 235.273 700.552C235.273 697.935 234.488 695.928 232.917 694.531C231.365 693.134 229.115 692.426 226.167 692.407H217.615V708.466ZM260.961 730.75C256.694 730.75 253.222 729.354 250.546 726.561C247.869 723.748 246.531 719.995 246.531 715.302V714.313C246.531 711.191 247.123 708.408 248.306 705.964C249.508 703.5 251.176 701.58 253.31 700.204C255.462 698.808 257.79 698.109 260.292 698.109C264.384 698.109 267.565 699.457 269.833 702.152C272.103 704.848 273.237 708.707 273.237 713.73V715.971H251.913C251.991 719.075 252.893 721.586 254.619 723.506C256.364 725.406 258.575 726.357 261.252 726.357C263.153 726.357 264.762 725.969 266.08 725.193C267.4 724.418 268.553 723.39 269.543 722.11L272.83 724.67C270.192 728.722 266.236 730.75 260.961 730.75V730.75ZM260.292 702.531C258.119 702.531 256.296 703.326 254.822 704.916C253.348 706.488 252.437 708.699 252.088 711.549H267.856V711.142C267.701 708.408 266.963 706.293 265.645 704.799C264.325 703.288 262.541 702.531 260.292 702.531V702.531ZM298.925 730.168C298.614 729.547 298.362 728.442 298.169 726.851C295.666 729.45 292.68 730.75 289.208 730.75C286.105 730.75 283.556 729.877 281.557 728.131C279.58 726.366 278.59 724.136 278.59 721.44C278.59 718.163 279.832 715.622 282.314 713.819C284.815 711.995 288.326 711.083 292.845 711.083H298.082V708.612C298.082 706.73 297.518 705.236 296.394 704.131C295.269 703.006 293.61 702.444 291.419 702.444C289.499 702.444 287.89 702.928 286.591 703.898C285.291 704.867 284.641 706.041 284.641 707.419H279.23C279.23 705.848 279.783 704.335 280.888 702.879C282.013 701.406 283.526 700.243 285.427 699.389C287.347 698.536 289.45 698.109 291.739 698.109C295.367 698.109 298.207 699.02 300.263 700.844C302.318 702.648 303.385 705.14 303.463 708.32V722.807C303.463 725.698 303.832 727.995 304.569 729.702V730.168H298.925ZM289.994 726.066C291.681 726.066 293.281 725.63 294.794 724.757C296.306 723.884 297.402 722.75 298.082 721.353V714.895H293.862C287.269 714.895 283.971 716.824 283.971 720.684C283.971 722.371 284.535 723.691 285.658 724.64C286.784 725.59 288.229 726.066 289.994 726.066V726.066ZM324.525 726.357C326.445 726.357 328.123 725.775 329.558 724.611C330.993 723.447 331.788 721.993 331.943 720.247H337.035C336.938 722.051 336.317 723.767 335.172 725.397C334.028 727.027 332.496 728.326 330.576 729.295C328.675 730.265 326.659 730.75 324.525 730.75C320.239 730.75 316.825 729.324 314.284 726.474C311.764 723.602 310.503 719.685 310.503 714.72V713.819C310.503 710.754 311.065 708.029 312.19 705.644C313.316 703.258 314.924 701.406 317.02 700.088C319.133 698.768 321.626 698.109 324.495 698.109C328.026 698.109 330.955 699.166 333.282 701.281C335.628 703.394 336.879 706.139 337.035 709.513H331.943C331.788 707.476 331.012 705.808 329.616 704.509C328.24 703.191 326.532 702.531 324.495 702.531C321.761 702.531 319.638 703.519 318.125 705.498C316.632 707.457 315.884 710.299 315.884 714.022V715.04C315.884 718.666 316.632 721.459 318.125 723.418C319.618 725.378 321.752 726.357 324.525 726.357V726.357ZM350.387 691.07V698.691H356.264V702.851H350.387V722.371C350.387 723.632 350.65 724.581 351.173 725.221C351.697 725.842 352.589 726.154 353.85 726.154C354.469 726.154 355.323 726.037 356.409 725.804V730.168C354.993 730.556 353.617 730.75 352.278 730.75C349.874 730.75 348.06 730.022 346.838 728.568C345.616 727.114 345.006 725.047 345.006 722.371V702.851H339.274V698.691H345.006V691.07H350.387ZM410.752 730.168H405.136L383.813 697.528V730.168H378.199V687.811H383.813L405.195 720.597V687.811H410.752V730.168ZM439.262 730.168C438.95 729.547 438.698 728.442 438.505 726.851C436.002 729.45 433.016 730.75 429.545 730.75C426.442 730.75 423.891 729.877 421.894 728.131C419.916 726.366 418.927 724.136 418.927 721.44C418.927 718.163 420.167 715.622 422.65 713.819C425.151 711.995 428.663 711.083 433.181 711.083H438.418V708.612C438.418 706.73 437.855 705.236 436.73 704.131C435.606 703.006 433.947 702.444 431.755 702.444C429.835 702.444 428.226 702.928 426.927 703.898C425.628 704.867 424.977 706.041 424.977 707.419H419.567C419.567 705.848 420.12 704.335 421.224 702.879C422.349 701.406 423.863 700.243 425.763 699.389C427.684 698.536 429.787 698.109 432.075 698.109C435.702 698.109 438.543 699.02 440.599 700.844C442.655 702.648 443.721 705.14 443.799 708.32V722.807C443.799 725.698 444.168 727.995 444.905 729.702V730.168H439.262ZM430.331 726.066C432.018 726.066 433.618 725.63 435.131 724.757C436.643 723.884 437.738 722.75 438.418 721.353V714.895H434.199C427.605 714.895 424.308 716.824 424.308 720.684C424.308 722.371 424.871 723.691 425.995 724.64C427.12 725.59 428.565 726.066 430.331 726.066ZM459.538 691.07V698.691H465.414V702.851H459.538V722.371C459.538 723.632 459.8 724.581 460.324 725.221C460.847 725.842 461.739 726.154 463 726.154C463.62 726.154 464.474 726.037 465.56 725.804V730.168C464.143 730.556 462.767 730.75 461.428 730.75C459.024 730.75 457.211 730.022 455.988 728.568C454.767 727.114 454.156 725.047 454.156 722.371V702.851H448.426V698.691H454.156V691.07H459.538ZM477.575 730.168H472.192V698.691H477.575V730.168ZM471.756 690.341C471.756 689.47 472.018 688.732 472.542 688.131C473.085 687.529 473.879 687.23 474.926 687.23C475.975 687.23 476.77 687.529 477.313 688.131C477.855 688.732 478.127 689.47 478.127 690.341C478.127 691.214 477.855 691.941 477.313 692.524C476.77 693.105 475.975 693.397 474.926 693.397C473.879 693.397 473.085 693.105 472.542 692.524C472.018 691.941 471.756 691.214 471.756 690.341ZM496.6 722.866L504.396 698.691H509.895L498.608 730.168H494.505L483.102 698.691H488.6L496.6 722.866ZM527.728 730.75C523.461 730.75 519.99 729.354 517.313 726.561C514.636 723.748 513.299 719.995 513.299 715.302V714.313C513.299 711.191 513.89 708.408 515.073 705.964C516.275 703.5 517.943 701.58 520.077 700.204C522.23 698.808 524.557 698.109 527.058 698.109C531.15 698.109 534.331 699.457 536.601 702.152C538.869 704.848 540.005 708.707 540.005 713.73V715.971H518.68C518.758 719.075 519.659 721.586 521.386 723.506C523.131 725.406 525.343 726.357 528.018 726.357C529.919 726.357 531.529 725.969 532.848 725.193C534.166 724.418 535.321 723.39 536.31 722.11L539.598 724.67C536.959 728.722 533.003 730.75 527.728 730.75V730.75ZM527.058 702.531C524.887 702.531 523.063 703.326 521.59 704.916C520.115 706.488 519.204 708.699 518.856 711.549H534.622V711.142C534.467 708.408 533.73 706.293 532.411 704.799C531.093 703.288 529.308 702.531 527.058 702.531V702.531Z" fill="#61DAFB"/>
<path d="M786.975 691.545V733H782.117L759.527 700.452H759.122V733H754.102V691.545H758.96L781.631 724.175H782.036V691.545H786.975ZM809.002 733.648C806.196 733.648 803.733 732.98 801.614 731.644C799.509 730.308 797.863 728.439 796.675 726.037C795.501 723.635 794.914 720.828 794.914 717.616C794.914 714.378 795.501 711.551 796.675 709.135C797.863 706.72 799.509 704.844 801.614 703.508C803.733 702.172 806.196 701.504 809.002 701.504C811.809 701.504 814.265 702.172 816.37 703.508C818.489 704.844 820.135 706.72 821.309 709.135C822.497 711.551 823.09 714.378 823.09 717.616C823.09 720.828 822.497 723.635 821.309 726.037C820.135 728.439 818.489 730.308 816.37 731.644C814.265 732.98 811.809 733.648 809.002 733.648ZM809.002 729.357C811.134 729.357 812.889 728.81 814.265 727.717C815.642 726.624 816.66 725.187 817.322 723.406C817.983 721.624 818.313 719.695 818.313 717.616C818.313 715.538 817.983 713.602 817.322 711.807C816.66 710.012 815.642 708.562 814.265 707.455C812.889 706.349 811.134 705.795 809.002 705.795C806.87 705.795 805.116 706.349 803.74 707.455C802.363 708.562 801.344 710.012 800.683 711.807C800.022 713.602 799.691 715.538 799.691 717.616C799.691 719.695 800.022 721.624 800.683 723.406C801.344 725.187 802.363 726.624 803.74 727.717C805.116 728.81 806.87 729.357 809.002 729.357ZM842.122 733.648C839.532 733.648 837.244 732.993 835.261 731.684C833.277 730.362 831.725 728.5 830.605 726.098C829.485 723.682 828.925 720.828 828.925 717.536C828.925 714.27 829.485 711.436 830.605 709.034C831.725 706.632 833.284 704.777 835.281 703.468C837.278 702.159 839.586 701.504 842.203 701.504C844.228 701.504 845.827 701.842 847.001 702.516C848.188 703.178 849.092 703.933 849.713 704.783C850.347 705.62 850.84 706.308 851.191 706.848H851.595V691.545H856.372V733H851.757V728.223H851.191C850.84 728.79 850.341 729.505 849.693 730.369C849.045 731.219 848.121 731.981 846.92 732.656C845.719 733.317 844.12 733.648 842.122 733.648ZM842.77 729.357C844.686 729.357 846.306 728.857 847.628 727.859C848.951 726.847 849.956 725.45 850.644 723.669C851.332 721.874 851.676 719.803 851.676 717.455C851.676 715.134 851.339 713.103 850.664 711.362C849.99 709.608 848.991 708.245 847.669 707.273C846.346 706.288 844.713 705.795 842.77 705.795C840.746 705.795 839.059 706.315 837.71 707.354C836.374 708.38 835.369 709.776 834.694 711.544C834.033 713.298 833.702 715.268 833.702 717.455C833.702 719.668 834.039 721.678 834.714 723.487C835.402 725.281 836.414 726.712 837.75 727.778C839.1 728.83 840.773 729.357 842.77 729.357ZM878.82 733.648C875.825 733.648 873.24 732.987 871.068 731.664C868.909 730.328 867.242 728.466 866.068 726.077C864.908 723.675 864.327 720.882 864.327 717.697C864.327 714.513 864.908 711.706 866.068 709.277C867.242 706.835 868.875 704.932 870.967 703.569C873.072 702.192 875.528 701.504 878.334 701.504C879.954 701.504 881.553 701.774 883.132 702.314C884.711 702.854 886.148 703.731 887.443 704.945C888.739 706.146 889.771 707.739 890.54 709.722C891.309 711.706 891.694 714.148 891.694 717.05V719.074H867.728V714.945H886.836C886.836 713.19 886.485 711.625 885.783 710.249C885.095 708.872 884.11 707.786 882.828 706.99C881.56 706.194 880.062 705.795 878.334 705.795C876.432 705.795 874.785 706.268 873.396 707.212C872.019 708.143 870.96 709.358 870.218 710.856C869.475 712.354 869.104 713.96 869.104 715.673V718.426C869.104 720.774 869.509 722.765 870.319 724.397C871.142 726.017 872.282 727.251 873.74 728.102C875.197 728.938 876.891 729.357 878.82 729.357C880.075 729.357 881.209 729.181 882.221 728.83C883.246 728.466 884.13 727.926 884.872 727.211C885.615 726.482 886.188 725.578 886.593 724.499L891.208 725.794C890.722 727.359 889.906 728.736 888.759 729.923C887.612 731.097 886.195 732.015 884.508 732.676C882.821 733.324 880.925 733.648 878.82 733.648ZM931.509 691.545H936.529V721.179C936.529 723.824 936.043 726.071 935.071 727.919C934.1 729.768 932.73 731.172 930.962 732.13C929.195 733.088 927.11 733.567 924.708 733.567C922.441 733.567 920.423 733.155 918.655 732.332C916.888 731.495 915.498 730.308 914.486 728.77C913.474 727.231 912.968 725.403 912.968 723.284H917.907C917.907 724.458 918.197 725.484 918.777 726.361C919.371 727.224 920.18 727.899 921.206 728.385C922.231 728.871 923.399 729.114 924.708 729.114C926.152 729.114 927.38 728.81 928.392 728.203C929.404 727.596 930.173 726.705 930.699 725.531C931.239 724.343 931.509 722.893 931.509 721.179V691.545ZM969.259 701.909C969.016 699.858 968.031 698.266 966.304 697.132C964.577 695.999 962.458 695.432 959.948 695.432C958.113 695.432 956.507 695.729 955.131 696.322C953.768 696.916 952.702 697.733 951.932 698.772C951.177 699.811 950.799 700.991 950.799 702.314C950.799 703.42 951.062 704.372 951.588 705.168C952.128 705.951 952.816 706.605 953.653 707.131C954.49 707.644 955.367 708.069 956.284 708.407C957.202 708.73 958.045 708.994 958.815 709.196L963.025 710.33C964.104 710.613 965.305 711.004 966.628 711.504C967.964 712.003 969.239 712.684 970.453 713.548C971.681 714.398 972.693 715.491 973.49 716.827C974.286 718.163 974.684 719.803 974.684 721.746C974.684 723.986 974.097 726.01 972.923 727.818C971.762 729.626 970.062 731.064 967.822 732.13C965.595 733.196 962.89 733.729 959.705 733.729C956.736 733.729 954.166 733.25 951.993 732.292C949.834 731.333 948.134 729.998 946.892 728.284C945.664 726.57 944.969 724.58 944.807 722.312H949.989C950.124 723.878 950.651 725.173 951.568 726.199C952.499 727.211 953.673 727.967 955.09 728.466C956.521 728.952 958.059 729.195 959.705 729.195C961.621 729.195 963.342 728.884 964.867 728.263C966.392 727.629 967.599 726.752 968.49 725.632C969.381 724.499 969.826 723.176 969.826 721.665C969.826 720.288 969.441 719.168 968.672 718.305C967.903 717.441 966.891 716.739 965.636 716.2C964.381 715.66 963.025 715.187 961.567 714.783L956.467 713.325C953.228 712.394 950.664 711.065 948.775 709.338C946.886 707.61 945.941 705.35 945.941 702.557C945.941 700.236 946.568 698.212 947.823 696.484C949.092 694.744 950.792 693.394 952.924 692.436C955.07 691.464 957.465 690.979 960.11 690.979C962.782 690.979 965.157 691.458 967.235 692.416C969.313 693.36 970.959 694.656 972.174 696.302C973.402 697.949 974.05 699.817 974.117 701.909H969.259Z" fill="#83CD29"/>
<path d="M1268.39 691.545H1274.38L1288.47 725.956H1288.95L1303.04 691.545H1309.03V733H1304.33V701.504H1303.93L1290.98 733H1286.44L1273.49 701.504H1273.08V733H1268.39V691.545ZM1321.53 744.659C1320.72 744.659 1319.99 744.592 1319.36 744.457C1318.72 744.335 1318.29 744.214 1318.04 744.092L1319.26 739.882C1320.42 740.179 1321.44 740.287 1322.33 740.206C1323.23 740.125 1324.01 739.727 1324.7 739.012C1325.4 738.31 1326.05 737.17 1326.63 735.591L1327.52 733.162L1316.02 701.909H1321.2L1329.78 726.685H1330.11L1338.69 701.909H1343.87L1330.67 737.534C1330.08 739.14 1329.34 740.469 1328.47 741.522C1327.59 742.588 1326.57 743.377 1325.41 743.89C1324.26 744.403 1322.97 744.659 1321.53 744.659ZM1373.5 701.909C1373.25 699.858 1372.27 698.266 1370.54 697.132C1368.81 695.999 1366.69 695.432 1364.18 695.432C1362.35 695.432 1360.74 695.729 1359.37 696.322C1358 696.916 1356.94 697.733 1356.17 698.772C1355.41 699.811 1355.03 700.991 1355.03 702.314C1355.03 703.42 1355.3 704.372 1355.82 705.168C1356.36 705.951 1357.05 706.605 1357.89 707.131C1358.73 707.644 1359.6 708.069 1360.52 708.407C1361.44 708.73 1362.28 708.994 1363.05 709.196L1367.26 710.33C1368.34 710.613 1369.54 711.004 1370.86 711.504C1372.2 712.003 1373.47 712.684 1374.69 713.548C1375.92 714.398 1376.93 715.491 1377.73 716.827C1378.52 718.163 1378.92 719.803 1378.92 721.746C1378.92 723.986 1378.33 726.01 1377.16 727.818C1376 729.626 1374.3 731.064 1372.06 732.13C1369.83 733.196 1367.13 733.729 1363.94 733.729C1360.97 733.729 1358.4 733.25 1356.23 732.292C1354.07 731.333 1352.37 729.998 1351.13 728.284C1349.9 726.57 1349.21 724.58 1349.04 722.312H1354.23C1354.36 723.878 1354.89 725.173 1355.8 726.199C1356.74 727.211 1357.91 727.967 1359.33 728.466C1360.76 728.952 1362.29 729.195 1363.94 729.195C1365.86 729.195 1367.58 728.884 1369.1 728.263C1370.63 727.629 1371.84 726.752 1372.73 725.632C1373.62 724.499 1374.06 723.176 1374.06 721.665C1374.06 720.288 1373.68 719.168 1372.91 718.305C1372.14 717.441 1371.13 716.739 1369.87 716.2C1368.62 715.66 1367.26 715.187 1365.8 714.783L1360.7 713.325C1357.46 712.394 1354.9 711.065 1353.01 709.338C1351.12 707.61 1350.18 705.35 1350.18 702.557C1350.18 700.236 1350.8 698.212 1352.06 696.484C1353.33 694.744 1355.03 693.394 1357.16 692.436C1359.31 691.464 1361.7 690.979 1364.35 690.979C1367.02 690.979 1369.39 691.458 1371.47 692.416C1373.55 693.36 1375.2 694.656 1376.41 696.302C1377.64 697.949 1378.29 699.817 1378.35 701.909H1373.5ZM1402.23 720.045H1407.74L1412.35 726.118L1413.57 727.737L1420.45 736.886H1414.94L1410.41 730.814L1409.28 729.276L1402.23 720.045ZM1422.15 712.273C1422.15 716.645 1421.36 720.423 1419.78 723.608C1418.2 726.793 1416.04 729.249 1413.28 730.976C1410.53 732.703 1407.39 733.567 1403.85 733.567C1400.32 733.567 1397.17 732.703 1394.42 730.976C1391.67 729.249 1389.5 726.793 1387.92 723.608C1386.34 720.423 1385.55 716.645 1385.55 712.273C1385.55 707.901 1386.34 704.122 1387.92 700.938C1389.5 697.753 1391.67 695.297 1394.42 693.57C1397.17 691.842 1400.32 690.979 1403.85 690.979C1407.39 690.979 1410.53 691.842 1413.28 693.57C1416.04 695.297 1418.2 697.753 1419.78 700.938C1421.36 704.122 1422.15 707.901 1422.15 712.273ZM1417.29 712.273C1417.29 708.683 1416.69 705.654 1415.49 703.184C1414.3 700.715 1412.69 698.846 1410.65 697.577C1408.63 696.309 1406.36 695.675 1403.85 695.675C1401.34 695.675 1399.07 696.309 1397.03 697.577C1395.01 698.846 1393.39 700.715 1392.19 703.184C1391.01 705.654 1390.41 708.683 1390.41 712.273C1390.41 715.862 1391.01 718.892 1392.19 721.361C1393.39 723.831 1395.01 725.7 1397.03 726.968C1399.07 728.237 1401.34 728.871 1403.85 728.871C1406.36 728.871 1408.63 728.237 1410.65 726.968C1412.69 725.7 1414.3 723.831 1415.49 721.361C1416.69 718.892 1417.29 715.862 1417.29 712.273ZM1430.59 733V691.545H1435.61V728.547H1454.88V733H1430.59Z" fill="#00618A"/>
</svg>
