<svg width="25" height="25" viewBox="0 0 25 25" fill="none" xmlns="http://www.w3.org/2000/svg">
<path d="M13.2005 4.87164L16.1767 0.957959C16.365 0.710283 16.7601 0.876083 16.715 1.18517L16.0068 6.05885C15.9004 6.78755 16.5185 7.4139 17.2452 7.3177L22.1066 6.66473C22.4157 6.6238 22.5774 7.0209 22.3276 7.20716L18.3914 10.1506C17.804 10.5907 17.7978 11.4729 18.3812 11.9191L22.2785 14.9097C22.5262 15.1 22.3604 15.4951 22.0513 15.4501L17.1981 14.7377C16.4735 14.6313 15.8471 15.2515 15.9454 15.9802L16.5943 20.8621C16.6352 21.1712 16.2401 21.3329 16.0539 21.0831L13.1247 17.1326C12.6867 16.5431 11.8086 16.537 11.3624 17.1224L8.38411 21.0361C8.1958 21.2837 7.80074 21.1179 7.84578 20.8089L8.55605 15.9352C8.66249 15.2065 8.04433 14.5801 7.31767 14.6763L2.45627 15.3293C2.14719 15.3702 1.98548 14.9731 2.23521 14.7869L6.16936 11.8455C6.75682 11.4054 6.76296 10.5232 6.17959 10.0769L2.28433 7.08435C2.03666 6.89399 2.20246 6.49893 2.51154 6.54397L7.36475 7.25629C8.08936 7.36273 8.71571 6.74252 8.61746 6.01382L7.96654 1.13195C7.9256 0.822863 8.32066 0.661157 8.50693 0.91088L11.436 4.86141C11.8761 5.45092 12.7543 5.45501 13.2005 4.87164Z" fill="url(#paint0_radial_424_514)"/>
<path d="M15.4868 5.70472L19.7403 3.25253C20.0105 3.09696 20.3094 3.404 20.1497 3.67215L17.6177 7.88877C17.239 8.51922 17.5665 9.33798 18.2747 9.53039L23.0092 10.8158C23.3101 10.8977 23.306 11.3276 23.0031 11.4033L18.242 12.5905C17.5297 12.7686 17.1858 13.5792 17.5501 14.2178L19.9921 18.4877C20.1477 18.7578 19.8406 19.0587 19.5745 18.897L15.3763 16.3548C14.7479 15.9741 13.9332 16.3036 13.7429 17.0139L12.4636 21.7688C12.3817 22.0697 11.9539 22.0656 11.8802 21.7627L10.6991 16.9832C10.5231 16.2688 9.71457 15.9229 9.07798 16.2893L4.82247 18.7435C4.55227 18.8991 4.25343 18.592 4.41308 18.3239L6.94306 14.1052C7.32174 13.4748 6.99423 12.656 6.286 12.4636L1.55151 11.1782C1.25061 11.0963 1.25471 10.6664 1.55765 10.5907L6.31875 9.40348C7.03108 9.2254 7.37496 8.41483 7.01061 7.77619L4.56865 3.50839C4.41308 3.2382 4.72012 2.93731 4.98622 3.09901L9.18852 5.63922C9.81692 6.01995 10.6316 5.6904 10.8219 4.98012L12.1013 0.225155C12.1831 -0.0757403 12.6109 -0.0716465 12.6846 0.231296L13.8657 5.01082C14.0438 5.72519 14.8503 6.07112 15.4868 5.70472Z" fill="url(#paint1_radial_424_514)"/>
<path d="M12.2936 16.496C15.321 16.496 17.7752 14.0317 17.7752 10.9919C17.7752 7.95205 15.321 5.48776 12.2936 5.48776C9.26621 5.48776 6.81201 7.95205 6.81201 10.9919C6.81201 14.0317 9.26621 16.496 12.2936 16.496Z" fill="url(#paint2_radial_424_514)"/>
<path opacity="0.2" d="M12.3019 6.11206C12.9508 6.11206 13.5854 6.24102 14.1871 6.49688C16.6557 7.54489 17.8122 10.4147 16.7683 12.8935C16.0068 14.7029 14.2465 15.8717 12.2876 15.8717C11.6387 15.8717 11.0042 15.7428 10.4024 15.4869C7.93385 14.4368 6.77735 11.5671 7.82127 9.08826C8.58476 7.28084 10.3431 6.11206 12.3019 6.11206ZM12.3019 5.49594C10.1691 5.49594 8.13649 6.75684 7.25427 8.85082C6.0773 11.6408 7.38323 14.8728 10.1609 16.0539C10.8548 16.3486 11.5753 16.4878 12.2856 16.4878C14.4184 16.4878 16.451 15.2269 17.3332 13.133C18.5102 10.343 17.2043 7.11095 14.4266 5.92989C13.7327 5.63513 13.0122 5.49594 12.3019 5.49594Z" fill="#EEEEEE"/>
<path opacity="0.2" d="M12.3797 1.55155L13.0818 4.39061C13.1391 4.61987 13.3213 4.7959 13.5526 4.84503C13.5935 4.85321 13.6365 4.85731 13.6774 4.85731C13.8678 4.85731 14.0479 4.76929 14.1667 4.61577L15.9352 2.29254L15.5033 5.25646C15.4685 5.4898 15.5708 5.7211 15.7653 5.85211C15.8697 5.9217 15.9904 5.95854 16.1092 5.95854C16.2156 5.95854 16.32 5.93193 16.4162 5.87667L19.0035 4.38447L17.497 6.89807C17.3762 7.10072 17.3803 7.35453 17.5113 7.55104C17.6259 7.72502 17.8204 7.82737 18.0251 7.82737C18.0517 7.82737 18.0803 7.82532 18.1069 7.82123L21.0013 7.43232L18.6023 9.22745C18.414 9.36869 18.3239 9.60408 18.3669 9.83334C18.4119 10.0646 18.5818 10.2489 18.809 10.3103L21.6952 11.0942L18.8582 11.8025C18.6289 11.8598 18.4529 12.0419 18.4058 12.2733C18.3587 12.5046 18.4467 12.742 18.633 12.8853L20.9562 14.6681L18.0005 14.2342C17.9698 14.2301 17.9411 14.228 17.9104 14.228C17.7098 14.228 17.5195 14.3263 17.4028 14.4962C17.2718 14.6906 17.2616 14.9424 17.3782 15.1471L18.8663 17.7487L16.3691 16.2381C16.2709 16.1787 16.1603 16.1501 16.0519 16.1501C15.9352 16.1501 15.8185 16.1828 15.7162 16.2504C15.5176 16.3793 15.4132 16.6106 15.4439 16.846L15.8308 19.7486L14.05 17.3496C13.9333 17.192 13.7491 17.1019 13.5567 17.1019C13.5178 17.1019 13.4809 17.106 13.442 17.1121C13.2107 17.1551 13.0245 17.3291 12.9631 17.5563L12.1852 20.4445L11.4832 17.6054C11.4258 17.3762 11.2437 17.2002 11.0124 17.151C10.9714 17.1428 10.9284 17.1387 10.8875 17.1387C10.6971 17.1387 10.517 17.2268 10.3983 17.3803L8.62977 19.7035L9.06167 16.7396C9.09646 16.5063 8.99412 16.275 8.79966 16.144C8.69527 16.0744 8.5745 16.0375 8.45578 16.0375C8.34934 16.0375 8.24495 16.0641 8.14875 16.1194L5.56146 17.6116L7.06798 15.098C7.18875 14.8953 7.18465 14.6415 7.05365 14.445C6.93902 14.271 6.74457 14.1687 6.53988 14.1687C6.51327 14.1687 6.48461 14.1707 6.458 14.1748L3.56368 14.5637L5.96265 12.7686C6.15097 12.6274 6.24103 12.392 6.19804 12.1627C6.15301 11.9314 5.98312 11.7472 5.75591 11.6858L2.86977 10.9018L5.70679 10.1936C5.93604 10.1363 6.11207 9.95411 6.15915 9.72281C6.20623 9.4915 6.11821 9.25406 5.93195 9.11078L3.60871 7.32792L6.56444 7.76187C6.59514 7.76596 6.6238 7.76801 6.6545 7.76801C6.8551 7.76801 7.04546 7.66976 7.16214 7.49986C7.29519 7.30541 7.30542 7.05364 7.18875 6.84895L5.70065 4.24733L8.19787 5.75795C8.29612 5.81731 8.40666 5.84596 8.51514 5.84596C8.63182 5.84596 8.74849 5.81321 8.85083 5.74567C9.04938 5.61671 9.15378 5.38541 9.12307 5.15002L8.73621 2.2475L10.517 4.64648C10.6337 4.80409 10.8179 4.89415 11.0103 4.89415C11.0492 4.89415 11.0861 4.89006 11.1249 4.88392C11.3562 4.84093 11.5425 4.66695 11.6039 4.43974L12.3797 1.55155ZM12.392 0C12.2671 0 12.1402 0.0736887 12.1013 0.223113L11.0083 4.28008L8.509 0.910873C8.44555 0.824903 8.35753 0.788059 8.27156 0.788059C8.10371 0.788059 7.94201 0.927249 7.96862 1.13194L8.51514 5.23189L4.98423 3.09697C4.93306 3.06627 4.87984 3.05194 4.82866 3.05194C4.61783 3.05194 4.44385 3.28938 4.56871 3.5084L6.65246 7.15189L2.51157 6.54396C2.49519 6.54191 2.47882 6.53987 2.46449 6.53987C2.18815 6.53987 2.05101 6.90422 2.28641 7.08434L5.55941 9.5959L1.5618 10.5927C1.25886 10.6685 1.25477 11.0983 1.55566 11.1802L5.59625 12.2773L2.23933 14.7889C2.00189 14.967 2.13698 15.3354 2.41536 15.3354C2.42969 15.3354 2.44402 15.3354 2.46039 15.3334L6.54192 14.7848L4.41519 18.3239C4.28419 18.5409 4.45817 18.7845 4.6731 18.7845C4.72222 18.7845 4.7734 18.7722 4.82457 18.7415L8.45373 16.6475L7.84785 20.8068C7.81715 21.0115 7.9809 21.1548 8.15079 21.1548C8.23676 21.1548 8.32273 21.1179 8.38619 21.034L10.8875 17.7487L11.8803 21.7627C11.9171 21.9162 12.0461 21.992 12.173 21.992C12.2978 21.992 12.4247 21.9183 12.4636 21.7688L13.5567 17.7119L16.0539 21.0831C16.1174 21.1691 16.2054 21.2059 16.2913 21.2059C16.4592 21.2059 16.6209 21.0668 16.5943 20.8621L16.0478 16.7621L19.5766 18.895C19.6278 18.9257 19.681 18.94 19.7322 18.94C19.943 18.94 20.117 18.7026 19.9921 18.4836L17.9104 14.8421L22.0513 15.45C22.0677 15.4521 22.0841 15.4541 22.0984 15.4541C22.3747 15.4541 22.5119 15.0898 22.2765 14.9097L19.0055 12.3981L23.0031 11.4013C23.3061 11.3255 23.3102 10.8957 23.0093 10.8138L18.9687 9.71666L22.3256 7.20511C22.5631 7.02703 22.428 6.65859 22.1496 6.65859C22.1353 6.65859 22.1209 6.65859 22.1046 6.66063L18.023 7.2092L20.1477 3.66601C20.2787 3.44904 20.1047 3.20546 19.8898 3.20546C19.8407 3.20546 19.7895 3.21774 19.7383 3.24844L16.1112 5.34447L16.7171 1.18516C16.7478 0.980468 16.584 0.837185 16.4142 0.837185C16.3282 0.837185 16.2422 0.874029 16.1788 0.957952L13.6774 4.24324L12.6847 0.229253C12.6478 0.0777824 12.5189 0 12.392 0Z" fill="#EEEEEE"/>
<path d="M7.23169 20.4527C7.23169 20.4527 11.9764 12.0747 24.0552 8.9982C24.3131 8.9327 24.5628 9.13125 24.5628 9.39735V20.4527H7.23169Z" fill="url(#paint3_radial_424_514)"/>
<path d="M7.23169 20.4527C7.23169 20.4527 11.9764 12.0747 24.0552 8.9982C24.3131 8.9327 24.5628 9.13125 24.5628 9.39735V20.4527H7.23169Z" fill="url(#paint4_linear_424_514)"/>
<path opacity="0.2" d="M23.9488 9.65935V19.8366H8.37796C8.97565 19.0096 10.0216 17.7119 11.5711 16.2934C13.9394 14.1237 17.9984 11.2273 23.9488 9.65935ZM24.1555 8.98592C24.1228 8.98592 24.09 8.99001 24.0552 8.9982C11.9785 12.0747 7.23169 20.4527 7.23169 20.4527H24.5628V9.39734C24.5628 9.16604 24.3745 8.98592 24.1555 8.98592Z" fill="#424242"/>
<path d="M0.552665 10.5948C2.78584 11.0471 11.5773 13.4359 23.3143 24.5547H0V11.0512C0 10.7585 0.266098 10.5375 0.552665 10.5948Z" fill="url(#paint5_radial_424_514)"/>
<path d="M0.552665 10.5948C2.78584 11.0471 11.5773 13.4359 23.3143 24.5547H0V11.0512C0 10.7585 0.266098 10.5375 0.552665 10.5948Z" fill="url(#paint6_linear_424_514)"/>
<path opacity="0.2" d="M0.614072 11.2355C3.11539 11.7758 11.0717 14.1687 21.7545 23.9406H0.614072V11.2355ZM0.462601 10.5866C0.212878 10.5866 0 10.7913 0 11.0533V24.5567H23.3163C11.5794 13.4379 2.78584 11.0471 0.554712 10.5968C0.521961 10.5886 0.491258 10.5866 0.462601 10.5866Z" fill="#424242"/>
<path d="M24.563 15.4848C24.563 15.4848 12.7319 15.6936 4.5647 24.5629L24.563 24.5219V15.4848Z" fill="url(#paint7_radial_424_514)"/>
<path opacity="0.2" d="M23.9489 16.1337V23.9079L6.02619 23.9447C9.93578 20.1702 14.5024 18.2523 17.7611 17.2964C20.5736 16.4735 22.8886 16.2135 23.9489 16.1337ZM24.563 15.4848C24.563 15.4848 12.7319 15.6936 4.5647 24.5629L24.563 24.5219V15.4848Z" fill="#424242"/>
<defs>
<radialGradient id="paint0_radial_424_514" cx="0" cy="0" r="1" gradientUnits="userSpaceOnUse" gradientTransform="translate(12.2805 10.9951) rotate(0.353333) scale(10.1421 10.1842)">
<stop offset="0.3864" stop-color="#FF8F00"/>
<stop offset="0.8182" stop-color="#FFB300"/>
</radialGradient>
<radialGradient id="paint1_radial_424_514" cx="0" cy="0" r="1" gradientUnits="userSpaceOnUse" gradientTransform="translate(12.2777 10.9966) rotate(23.18) scale(10.1484 10.178)">
<stop offset="0.3864" stop-color="#FF8F00"/>
<stop offset="0.8182" stop-color="#FFB300"/>
</radialGradient>
<radialGradient id="paint2_radial_424_514" cx="0" cy="0" r="1" gradientUnits="userSpaceOnUse" gradientTransform="translate(12.2996 10.9894) rotate(23.0201) scale(6.76765 6.78697)">
<stop offset="0.5752" stop-color="#FFEB3B"/>
<stop offset="0.8402" stop-color="#FBC02D"/>
</radialGradient>
<radialGradient id="paint3_radial_424_514" cx="0" cy="0" r="1" gradientUnits="userSpaceOnUse" gradientTransform="translate(18.7803 9.71227) scale(8.30266 8.33753)">
<stop stop-color="#AED581"/>
<stop offset="0.2449" stop-color="#AAD37B"/>
<stop offset="0.5795" stop-color="#9FCD69"/>
<stop offset="0.9641" stop-color="#8DC44D"/>
<stop offset="0.9957" stop-color="#8BC34A"/>
</radialGradient>
<linearGradient id="paint4_linear_424_514" x1="16.6325" y1="17.3146" x2="15.4504" y2="13.4207" gradientUnits="userSpaceOnUse">
<stop stop-color="#9CCC65"/>
<stop offset="0.9957" stop-color="#9CCC65" stop-opacity="0"/>
</linearGradient>
<radialGradient id="paint5_radial_424_514" cx="0" cy="0" r="1" gradientUnits="userSpaceOnUse" gradientTransform="translate(7.21535 12.0247) scale(11.2101 11.2572)">
<stop stop-color="#7CB342"/>
<stop offset="0.3057" stop-color="#78AE40"/>
<stop offset="0.6459" stop-color="#6AA139"/>
<stop offset="1" stop-color="#558B2F"/>
</radialGradient>
<linearGradient id="paint6_linear_424_514" x1="9.67552" y1="21.0709" x2="7.38094" y2="17.038" gradientUnits="userSpaceOnUse">
<stop stop-color="#66BB6A"/>
<stop offset="0.9957" stop-color="#66BB6A" stop-opacity="0"/>
</linearGradient>
<radialGradient id="paint7_radial_424_514" cx="0" cy="0" r="1" gradientUnits="userSpaceOnUse" gradientTransform="translate(13.2021 15.8788) rotate(90) scale(9.91842 13.1916)">
<stop stop-color="#388E3C"/>
<stop offset="0.3389" stop-color="#308235"/>
<stop offset="0.9575" stop-color="#1D6121"/>
<stop offset="1" stop-color="#1B5E20"/>
</radialGradient>
</defs>
</svg>
