<svg width="45" height="45" viewBox="0 0 45 45" fill="none" xmlns="http://www.w3.org/2000/svg">
<mask id="mask0_408_95" style="mask-type:luminance" maskUnits="userSpaceOnUse" x="0" y="0" width="45" height="45">
<path d="M0 0H44.8778V44.8778H0V0Z" fill="white"/>
</mask>
<g mask="url(#mask0_408_95)">
<mask id="mask1_408_95" style="mask-type:luminance" maskUnits="userSpaceOnUse" x="-2" y="-2" width="49" height="49">
<path d="M-1.49585 -1.49597H46.3738V46.3736H-1.49585V-1.49597Z" fill="white"/>
</mask>
<g mask="url(#mask1_408_95)">
<path d="M-9.0763 68.3525C-13.3733 68.3525 -17.4984 66.4078 -21.3391 62.5671C-31.848 52.0582 -34.2228 46.0109 -31.1113 37.6898C-29.8397 34.2828 -24.5367 25.6663 -24.058 24.8959C-23.6578 24.492 -20.7296 21.5488 -18.4034 18.9758C-15.9837 16.3018 -14.0839 12.9696 -13.8558 12.5657C-13.579 12.2142 -13.1564 12.0048 -12.7114 12.0048C-12.4608 12.0048 -12.2215 12.0721 -12.0121 12.203C-9.39418 13.8186 -8.51159 15.767 -9.30817 18.1605C-9.88784 19.9033 -11.481 21.732 -12.7638 23.2018C-14.2522 24.9109 -15.2358 26.0403 -14.8693 26.9902C-14.8094 27.1398 -14.7571 27.3006 -14.7047 27.4539C-14.4654 28.157 -14.2148 28.8863 -13.5416 28.8863C-13.2612 28.8863 -12.9956 28.7404 -12.7563 28.4487C-12.3599 28.0299 0.161039 16.242 6.72441 10.0713C7.94733 8.84837 9.17773 8.20886 10.2959 8.20886C11.1 8.20886 11.8442 8.54918 12.5136 9.21861C13.3364 10.0414 13.658 10.9801 13.471 12.001C13.2953 12.9622 12.6745 13.9981 11.6759 14.9966L-2.00431 29.8848C-2.20626 30.1017 -2.20253 30.4421 -1.9931 30.6552C-1.88464 30.7674 -1.73879 30.8273 -1.5892 30.8273C-1.4583 30.8273 -1.32741 30.7824 -1.2227 30.6889L19.2939 12.9584C19.3051 12.9509 19.3126 12.9397 19.3238 12.9322C20.5318 11.7243 21.7659 11.0848 22.8841 11.0848C23.6882 11.0848 24.4324 11.4251 25.1019 12.0945C27.2522 14.2449 25.4983 16.6384 24.2641 17.8725L21.1938 20.7859C20.9731 20.9953 20.9619 21.3468 21.1676 21.575C21.2798 21.6946 21.4294 21.7545 21.579 21.7545C21.7136 21.7545 21.8482 21.7058 21.9529 21.6124C23.045 20.6288 24.1482 20.1127 25.1467 20.1127C25.9508 20.1127 26.695 20.453 27.3644 21.1224C28.1872 21.9452 28.5088 22.8839 28.3218 23.9049C28.1461 24.866 27.5253 25.9019 26.5267 26.9005C26.5155 26.9117 26.508 26.9229 26.4968 26.9341L11.8068 44.1447C11.6161 44.3691 11.631 44.702 11.8405 44.9077C11.9489 45.0161 12.091 45.0685 12.2332 45.0685C12.364 45.0685 12.4987 45.0236 12.6034 44.9301L22.6859 36.0518C23.9201 34.8176 25.1542 34.1781 26.2724 34.1781C27.0765 34.1781 27.8207 34.5185 28.4901 35.1879C29.9524 36.6501 29.5896 38.2059 27.2373 40.5545C27.0166 40.7639 4.36085 62.4362 0.404126 65.1737C-1.68269 66.621 -5.02983 68.3525 -9.0763 68.3525Z" fill="url(#paint0_radial_408_95)"/>
<path d="M10.2959 8.76989C10.9541 8.76989 11.5487 9.04664 12.1172 9.61509C13.0633 10.5613 13.6841 12.1918 11.2794 14.6003L11.2458 14.6339L-2.41576 29.5072C-2.81966 29.9447 -2.80844 30.6216 -2.39332 31.048C-2.17267 31.2723 -1.88097 31.3883 -1.58926 31.3883C-1.32748 31.3883 -1.06569 31.2985 -0.856256 31.1153L19.6604 13.3848C19.6828 13.3661 19.7015 13.3474 19.7202 13.3287C20.8047 12.2442 21.9304 11.6458 22.8841 11.6458C23.5423 11.6458 24.1369 11.9226 24.7054 12.491C25.6515 13.4372 26.2723 15.064 23.8751 17.465L20.816 20.3708C20.6776 20.4979 20.5355 20.6326 20.3971 20.7672C19.9633 21.201 19.9595 21.9041 20.3859 22.3454C20.6065 22.5698 20.8982 22.6857 21.1899 22.6857C21.4667 22.6857 21.7472 22.5848 21.9641 22.3791L22.3381 22.0238C23.3216 21.1412 24.2902 20.6775 25.1467 20.6775C25.8049 20.6775 26.3995 20.9542 26.968 21.5227C27.6636 22.2183 27.9253 22.9662 27.7683 23.8077C27.6112 24.6566 27.0427 25.5916 26.1265 26.5078C26.1041 26.5303 26.0854 26.549 26.0667 26.5714L11.3767 43.782C10.9952 44.2308 11.0251 44.8965 11.444 45.3116C11.6609 45.5248 11.9451 45.6332 12.2331 45.6332C12.4986 45.6332 12.7604 45.5397 12.9736 45.3527L23.0598 36.4744C23.0785 36.4595 23.0935 36.4408 23.1122 36.4258C24.1968 35.3413 25.3224 34.7429 26.2761 34.7429C26.9343 34.7429 27.5289 35.0196 28.0974 35.5881C28.9388 36.4296 29.5335 37.473 26.8558 40.1544C26.2948 40.6892 3.98306 62.0248 0.0899162 64.7212C-1.9408 66.1274 -5.17574 67.7991 -9.08011 67.7991C-13.2238 67.7991 -17.2142 65.9068 -20.9465 62.1782C-26.2833 56.8415 -29.3088 52.8735 -30.7523 49.3132C-32.2296 45.6669 -32.1809 42.1477 -30.5915 37.8956C-29.3611 34.6083 -24.2675 26.3021 -23.6205 25.255C-23.0745 24.709 -20.2547 21.8592 -17.9921 19.361C-15.6061 16.7207 -13.7175 13.4559 -13.3959 12.8912C-13.2276 12.6892 -12.977 12.5733 -12.7189 12.5733C-12.5731 12.5733 -12.4347 12.6107 -12.3113 12.6892C-9.91783 14.1702 -9.13247 15.8531 -9.84677 17.9923C-10.3928 19.6266 -11.9448 21.4105 -13.1902 22.8428C-14.7534 24.6379 -15.8866 25.9394 -15.3967 27.2034C-15.3406 27.3455 -15.2882 27.4989 -15.2396 27.6447C-14.9778 28.4077 -14.6225 29.4548 -13.5454 29.4548C-13.2388 29.4548 -12.7863 29.3501 -12.3562 28.849C-11.7204 28.2057 -0.403741 17.551 7.1058 10.4902C7.11328 10.4827 7.12076 10.4752 7.13198 10.4678C8.21653 9.36826 9.34221 8.76989 10.2959 8.76989ZM10.2959 7.64795C8.94579 7.64795 7.56206 8.43705 6.33914 9.65997C6.33914 9.65997 -12.9321 27.7794 -13.1902 28.086C-13.3248 28.2506 -13.4407 28.3179 -13.5454 28.3179C-13.9007 28.3179 -14.084 27.4727 -14.3495 26.7808C-14.8581 25.4644 -9.97018 21.8966 -8.78092 18.3289C-7.51313 14.5217 -10.4489 12.506 -11.7204 11.7169C-12.0308 11.5261 -12.3749 11.4364 -12.7152 11.4364C-13.3285 11.4364 -13.9381 11.7281 -14.3271 12.2517C-14.3271 12.2517 -16.3092 15.8194 -18.8186 18.5944C-21.328 21.3693 -24.4994 24.5407 -24.4994 24.5407C-24.4994 24.5407 -30.2736 33.8453 -31.6349 37.4879C-34.9708 46.4149 -31.9977 52.694 -21.7319 62.9598C-17.3339 67.3578 -12.9733 68.9098 -9.07263 68.9098C-5.22436 68.9098 -1.82487 67.4027 0.733165 65.63C4.7759 62.8326 27.6449 40.9435 27.6449 40.9435C29.6905 38.8978 30.9322 36.8185 28.8977 34.784C28.0787 33.965 27.1886 33.6097 26.2836 33.6097C24.9335 33.6097 23.5498 34.3988 22.3268 35.6218L12.2368 44.5038L26.9268 27.2969C28.9725 25.2513 29.8027 22.7605 27.7645 20.7261C26.9455 19.9071 26.0554 19.5518 25.1504 19.5518C23.9424 19.5518 22.7046 20.1838 21.5789 21.1973L21.1937 21.5638C21.3208 21.4366 21.4517 21.3132 21.5789 21.1973L24.6605 18.2728C26.7062 16.2271 27.5364 13.7364 25.4982 11.7019C24.6792 10.8829 23.7891 10.5276 22.8841 10.5276C21.534 10.5276 20.1503 11.3167 18.9274 12.5396L-1.58926 30.2701L12.0723 15.3968C14.118 13.3512 14.9482 10.8604 12.91 8.82599C12.091 8.00697 11.2009 7.64795 10.2959 7.64795Z" fill="#BA8F63"/>
<path d="M26.1602 16.1971C22.9851 19.3722 21.7696 18.2802 20.3485 16.8591C18.9274 15.438 17.8353 14.2188 21.0104 11.0474C24.1855 7.87606 27.9104 6.45493 29.3353 7.87606C30.7526 9.29718 29.3353 13.022 26.1602 16.1971Z" fill="url(#paint1_linear_408_95)"/>
<path d="M12.8428 13.755C9.66767 16.9301 8.45223 15.8381 7.0311 14.4169C5.60997 12.9958 4.51795 11.7766 7.69305 8.60528C10.8682 5.43392 14.593 4.01279 16.0179 5.43392C17.4427 6.85505 16.0179 10.5799 12.8428 13.755Z" fill="url(#paint2_linear_408_95)"/>
<path d="M29.0173 39.3017C25.7375 42.2412 24.6043 41.108 23.2879 39.6383C21.9715 38.1685 20.9655 36.9194 24.2453 33.98C27.5251 31.0405 31.25 29.8475 32.5664 31.3172C33.8828 32.7832 32.2934 36.3585 29.0173 39.3017Z" fill="url(#paint3_linear_408_95)"/>
<path d="M2.36751 39.2044C2.21792 39.2044 2.06832 39.1446 1.95613 39.0249C1.7467 38.7968 1.75792 38.4415 1.98605 38.2321L20.27 21.0925C20.4981 20.8831 21.1451 20.8307 21.3545 21.0589C21.564 21.287 21.4667 21.7844 21.2423 21.9938L2.75271 39.0548C2.64052 39.1558 2.50588 39.2044 2.36751 39.2044Z" fill="#BA8F63"/>
<path d="M27.6299 25.5654C24.6381 28.5572 23.49 27.5288 22.1474 26.1899C20.8048 24.8473 19.7763 23.6992 22.7719 20.7074C25.7675 17.7155 29.2792 16.3767 30.6218 17.7155C31.9606 19.0581 30.6218 22.5735 27.6299 25.5654Z" fill="url(#paint4_linear_408_95)"/>
</g>
<mask id="mask2_408_95" style="mask-type:luminance" maskUnits="userSpaceOnUse" x="-2" y="-2" width="49" height="49">
<path d="M-1.49585 -1.49597H46.3738V46.3736H-1.49585V-1.49597Z" fill="white"/>
</mask>
<g mask="url(#mask2_408_95)">
<path d="M39.2507 9.0957L41.3248 9.9522L37.0423 20.3223L34.9683 19.4658L39.2507 9.0957Z" fill="#C62828"/>
<path d="M43.5839 11.2157L36.755 8.39584C35.6518 7.93959 35.1282 6.67927 35.5845 5.57602L41.9309 -9.79087C42.3872 -10.8941 43.6475 -11.4177 44.7508 -10.9614L51.5797 -8.14161C52.6829 -7.68535 53.2065 -6.42504 52.7502 -5.32179L46.4037 10.0451C45.9512 11.1483 44.6872 11.6719 43.5839 11.2157Z" fill="url(#paint5_linear_408_95)"/>
<path d="M28.5198 28.546C28.5198 28.546 29.9895 27.8467 30.8833 26.9229C32.196 25.5616 30.7749 23.7366 32.6336 20.9878C33.6658 19.462 35.0345 19.2937 35.0345 19.2937L37.241 20.2511C37.241 20.2511 39.354 22.7867 35.9171 26.8406C32.7084 30.6216 28.5198 28.546 28.5198 28.546Z" fill="url(#paint6_radial_408_95)"/>
<path d="M43.5839 11.2157L36.755 8.39584C35.6518 7.93959 35.1282 6.67927 35.5845 5.57602L41.9309 -9.79087C42.3872 -10.8941 43.6475 -11.4177 44.7508 -10.9614L51.5797 -8.14161C52.6829 -7.68535 53.2065 -6.42504 52.7502 -5.32179L46.4037 10.0451C45.9512 11.1483 44.6872 11.6719 43.5839 11.2157Z" fill="url(#paint7_linear_408_95)"/>
<path opacity="0.2" d="M43.928 -10.004C44.0626 -10.004 44.1972 -9.97785 44.3244 -9.9255L51.1533 -7.10568C51.6806 -6.88877 51.9349 -6.27918 51.7143 -5.75186L45.3678 9.61503C45.207 10.004 44.8293 10.2583 44.4104 10.2583C44.2758 10.2583 44.1411 10.2321 44.014 10.1797L37.1851 7.35992C36.6578 7.14301 36.4035 6.53342 36.6241 6.00611L42.9706 -9.36078C43.1277 -9.74973 43.5054 -10.004 43.928 -10.004ZM43.928 -11.126C43.079 -11.126 42.275 -10.6248 41.9309 -9.79086L35.5844 5.57603C35.1282 6.67928 35.6555 7.93959 36.755 8.39585L43.5839 11.2157C43.8532 11.3279 44.1337 11.3802 44.4067 11.3802C45.2556 11.3802 46.0597 10.8791 46.4037 10.0451L52.7502 -5.32179C53.2065 -6.42503 52.6791 -7.68535 51.5796 -8.14161L44.7507 -10.9614C44.4815 -11.0699 44.201 -11.126 43.928 -11.126Z" fill="#424242"/>
<path opacity="0.2" d="M34.9374 20.4755L36.4819 21.1449C36.7587 21.6834 37.3271 23.4337 35.057 26.1151C34.0398 27.3119 32.8057 27.9439 31.3883 27.9888C31.493 27.8953 31.5902 27.798 31.6875 27.7008C32.5888 26.7696 32.6262 25.6963 32.6636 24.7538C32.6972 23.8114 32.7346 22.839 33.5611 21.6161C34.0473 20.8943 34.6195 20.5952 34.9374 20.4755ZM35.0309 19.2937C35.0309 19.2937 33.6584 19.462 32.6299 20.9878C30.7712 23.7366 32.1924 25.5616 30.8797 26.9229C29.9859 27.8467 28.5161 28.546 28.5161 28.546C28.5161 28.546 29.6642 29.1145 31.2163 29.1145C32.6299 29.1145 34.3839 28.6432 35.9097 26.8406C39.3466 22.7867 37.2336 20.2511 37.2336 20.2511L35.0309 19.2937Z" fill="#424242"/>
</g>
</g>
<defs>
<radialGradient id="paint0_radial_408_95" cx="0" cy="0" r="1" gradientUnits="userSpaceOnUse" gradientTransform="translate(14.3775 24.2659) rotate(-135) scale(51.4519)">
<stop offset="0.3582" stop-color="#E0BB95"/>
<stop offset="0.8723" stop-color="#CCA47A"/>
</radialGradient>
<linearGradient id="paint1_linear_408_95" x1="19.5631" y1="17.4066" x2="31.5403" y2="6.12396" gradientUnits="userSpaceOnUse">
<stop offset="0.0794" stop-color="#D32F2F"/>
<stop offset="0.79" stop-color="#F44336"/>
</linearGradient>
<linearGradient id="paint2_linear_408_95" x1="5.63241" y1="10.345" x2="16.5661" y2="10.345" gradientUnits="userSpaceOnUse">
<stop stop-color="#D32F2F"/>
<stop offset="0.6444" stop-color="#F44336"/>
</linearGradient>
<linearGradient id="paint3_linear_408_95" x1="22.0403" y1="35.9097" x2="33.0279" y2="35.9097" gradientUnits="userSpaceOnUse">
<stop stop-color="#D32F2F"/>
<stop offset="0.6444" stop-color="#F44336"/>
</linearGradient>
<linearGradient id="paint4_linear_408_95" x1="20.8283" y1="22.3521" x2="31.1398" y2="22.3521" gradientUnits="userSpaceOnUse">
<stop stop-color="#D32F2F"/>
<stop offset="0.6444" stop-color="#F44336"/>
</linearGradient>
<linearGradient id="paint5_linear_408_95" x1="40.4204" y1="9.12241" x2="44.0544" y2="0.37002" gradientUnits="userSpaceOnUse">
<stop offset="0.1671" stop-color="#F44336"/>
<stop offset="0.6964" stop-color="#D32F2F"/>
</linearGradient>
<radialGradient id="paint6_radial_408_95" cx="0" cy="0" r="1" gradientUnits="userSpaceOnUse" gradientTransform="translate(32.5327 26.929) rotate(22.4387) scale(4.563)">
<stop stop-color="#EF5350"/>
<stop offset="1" stop-color="#E53935"/>
</radialGradient>
<linearGradient id="paint7_linear_408_95" x1="40.4204" y1="9.12241" x2="44.0544" y2="0.37002" gradientUnits="userSpaceOnUse">
<stop stop-color="#F44336"/>
<stop offset="0.2857" stop-color="#E53A33"/>
<stop offset="0.6599" stop-color="#D83230"/>
<stop offset="1" stop-color="#D32F2F"/>
</linearGradient>
</defs>
</svg>
