<svg width="17" height="17" viewBox="0 0 17 17" fill="none" xmlns="http://www.w3.org/2000/svg">
<path d="M13.915 9.38446C13.9693 9.4659 14.0643 9.52019 14.1593 9.52019C14.2 9.52019 14.2408 9.50662 14.2815 9.49305L16.4803 8.44793C16.5482 8.40721 16.6024 8.35292 16.6296 8.27149C16.6567 8.19005 16.6432 8.09504 16.6024 8.02717L16.2224 7.38925C16.1817 7.32138 16.1002 7.26709 16.0188 7.25352C15.9374 7.23995 15.8559 7.26709 15.7881 7.32138L13.9693 8.97728C13.8607 9.07229 13.8472 9.23516 13.915 9.35732C13.9014 9.35732 13.915 9.38446 13.915 9.38446Z" fill="#FFA000"/>
<path d="M16.5749 12.3026L14.2676 11.2032C14.159 11.1489 14.0504 11.1897 13.9825 11.2847L13.9147 11.4068C13.8604 11.5018 13.8739 11.624 13.9554 11.7054L15.8691 13.4428C15.9099 13.4835 15.9642 13.497 16.0185 13.497H16.0456C16.1135 13.4835 16.1678 13.4563 16.2085 13.3885L16.67 12.6148C16.6971 12.5605 16.7107 12.4927 16.6971 12.4248C16.6699 12.3841 16.6292 12.3298 16.5749 12.3026Z" fill="#F57F17"/>
<path d="M16.8602 9.87309C16.8602 9.79166 16.8194 9.71022 16.7516 9.65593C16.6973 9.60164 16.6158 9.58806 16.5344 9.60164L14.1184 10.0903C13.9963 10.1174 13.8877 10.226 13.8877 10.3617V10.4024C13.8877 10.5517 14.0099 10.6739 14.1456 10.6875L16.5616 10.8775H16.5887C16.6566 10.8775 16.7244 10.8503 16.7651 10.8096C16.8194 10.7553 16.8602 10.6739 16.8602 10.5925C16.8737 10.5925 16.8602 9.87309 16.8602 9.87309Z" fill="#FF8F00"/>
<path d="M10.2638 14.0264C10.4266 13.9042 11.8925 13.7956 12.0418 13.7685C12.2861 13.7414 12.7476 13.6056 12.9376 13.3885C13.6434 12.6284 12.8969 12.0855 13.1412 11.6919C13.1548 11.6647 13.2226 11.5833 13.3041 11.4611C13.3312 11.4068 13.3584 11.3525 13.3855 11.2847C13.3991 11.2575 13.4941 11.0268 13.3991 10.8775C13.3041 10.7418 13.0055 10.8503 12.2861 10.8639C11.9604 10.8775 11.7839 10.6196 11.7839 10.6196C11.7839 10.6196 12.1504 10.4839 12.8698 10.1853C13.2091 10.0495 13.4262 9.91381 13.4805 9.6152C13.4941 9.50662 13.467 9.42518 13.4398 9.35732C13.3991 9.22159 13.3448 9.19444 13.3177 9.09943C13.2905 8.99085 13.3177 8.88227 13.3991 8.80083C13.5213 8.67867 13.8063 8.58366 13.8606 8.14933C13.9556 7.3621 12.4626 7.26709 12.6254 6.00482C12.639 5.93695 12.639 5.99124 12.7612 5.12258C12.7747 5.02757 12.7883 4.9597 12.7883 4.90541C12.7883 4.90541 12.7883 4.8104 12.7747 4.71539C12.6662 4.06389 11.9875 2.89663 11.9875 2.89663C11.6618 2.35371 11.6482 2.29942 11.621 2.27227L11.6075 2.2587C11.6075 2.2587 11.5939 2.24513 11.5803 2.23156C11.7296 2.1094 11.9061 1.93295 11.8925 1.7565C11.8789 1.56648 11.5939 1.39004 11.4175 1.3086C10.9288 1.07786 5.55397 -1.29739 2.69009 1.78365C1.25137 3.33096 1.04777 4.76968 0.952763 5.39404C0.206254 10.2803 4.52243 12.3569 4.94319 14.0807C4.98391 14.2436 5.01105 14.5693 5.01105 14.8543C5.01105 15.552 4.96626 16.1085 4.92419 16.4831H10.0887C10.0751 15.647 10.0805 14.1716 10.2638 14.0264Z" fill="url(#paint0_linear_424_466)"/>
<defs>
<linearGradient id="paint0_linear_424_466" x1="7.36557" y1="0.263352" x2="7.36557" y2="16.4515" gradientUnits="userSpaceOnUse">
<stop offset="0.1531" stop-color="#1E88E5"/>
<stop offset="1" stop-color="#1565C0"/>
</linearGradient>
</defs>
</svg>
