<svg width="45" height="35" viewBox="0 0 45 35" fill="none" xmlns="http://www.w3.org/2000/svg">
<path d="M17.8391 23.6064H3.46103C1.91195 23.6064 0.643066 24.8797 0.643066 26.4355C0.643066 27.9913 1.91195 29.2646 3.46103 29.2646H17.8391C19.3901 29.2646 20.657 27.9913 20.657 26.4355C20.657 24.8797 19.3881 23.6064 17.8391 23.6064Z" fill="#C48E6A"/>
<path d="M21.2854 20.9828C21.1814 19.4123 20.4268 18.4876 19.3721 17.9776C18.5355 17.5721 17.5108 17.4272 16.4701 17.4272H4.82995C3.78923 17.4272 2.76051 17.5721 1.92393 17.9776C0.871193 18.4895 0.118668 19.4141 0.0145953 20.9846C-0.125502 23.0909 0.755112 24.9586 2.13407 25.8466C2.66244 26.1896 3.26686 26.3859 3.91331 26.3951C3.93133 26.397 3.94734 26.397 3.96535 26.397C3.98937 26.397 4.01539 26.397 4.0394 26.3951H17.3347C17.9991 26.3951 18.6196 26.197 19.162 25.8466C20.5429 24.9604 21.4255 23.0909 21.2854 20.9828Z" fill="url(#paint0_linear_424_66)"/>
<path d="M10.6499 14C3.7111 14 1.83179 18.4766 1.83179 24.92C1.83179 31.3286 5.24617 34.4971 10.6499 34.4971C16.0537 34.4971 19.4681 31.3286 19.4681 24.92C19.4681 18.4766 17.5888 14 10.6499 14Z" fill="#E0BB95"/>
<path d="M5.97271 31.0809C5.89665 31.0809 5.8186 31.0534 5.76056 31.0002C5.64248 30.8919 5.64248 30.7177 5.76056 30.6112L7.66789 28.8628C7.78597 28.7545 7.9741 28.7545 8.09219 28.8628C8.21027 28.971 8.21027 29.1453 8.09219 29.2517L6.18485 31.0002C6.12681 31.0534 6.04876 31.0809 5.97271 31.0809Z" fill="#BA8F63"/>
<path d="M15.3273 31.0809C15.2513 31.0809 15.1732 31.0534 15.1152 31.0002L13.2078 29.2517C13.0897 29.1435 13.0897 28.9692 13.2078 28.8628C13.3259 28.7564 13.516 28.7545 13.6321 28.8628L15.5395 30.6112C15.6575 30.7195 15.6575 30.8938 15.5395 31.0002C15.4814 31.0534 15.4034 31.0809 15.3273 31.0809Z" fill="#BA8F63"/>
<path d="M6.42903 28.3637C5.90266 28.3637 5.37429 28.2078 4.97201 27.8977C4.84592 27.8005 4.82991 27.6262 4.93598 27.5106C5.04206 27.395 5.23219 27.3803 5.35828 27.4776C5.94869 27.9344 6.90736 27.9344 7.49777 27.4776C7.62386 27.3785 7.81399 27.3932 7.92007 27.5106C8.02614 27.6262 8.01213 27.8005 7.88404 27.8977C7.48376 28.2078 6.95739 28.3637 6.42903 28.3637Z" fill="#BA8F63"/>
<path d="M14.871 28.3637C14.3427 28.3637 13.8163 28.2078 13.414 27.8977C13.2879 27.8005 13.2719 27.6262 13.378 27.5106C13.4841 27.395 13.6742 27.3803 13.8003 27.4776C14.3907 27.9344 15.3494 27.9344 15.9398 27.4776C16.0659 27.3785 16.256 27.3932 16.3621 27.5106C16.4702 27.6262 16.4541 27.8005 16.3261 27.8977C15.9258 28.2078 15.3994 28.3637 14.871 28.3637Z" fill="#BA8F63"/>
<path d="M6.44307 21.735C6.32299 21.735 6.21091 21.669 6.16288 21.5607C6.10083 21.4195 6.17689 21.2599 6.33099 21.203C6.40505 21.1755 8.15226 20.5535 10.582 20.5535C13.0097 20.5535 14.883 21.1755 14.961 21.2011C15.1171 21.2543 15.1972 21.4121 15.1391 21.5534C15.0811 21.6965 14.909 21.7699 14.7529 21.7167C14.7349 21.7112 12.8956 21.1021 10.582 21.1021C8.26434 21.1021 6.56916 21.7075 6.55115 21.713C6.51712 21.7295 6.4791 21.735 6.44307 21.735Z" fill="#BA8F63"/>
<path d="M13.6462 20.1921C13.6161 20.1921 13.5861 20.1884 13.5561 20.1792C13.5421 20.1755 12.1831 19.7866 10.6501 19.7866C9.11701 19.7866 7.75806 20.1755 7.74405 20.1792C7.58594 20.2251 7.41783 20.1444 7.36779 19.9994C7.31776 19.8545 7.40582 19.7004 7.56393 19.6545C7.62197 19.638 9.02094 19.2362 10.6501 19.2362C12.2792 19.2362 13.6782 19.638 13.7362 19.6545C13.8943 19.7004 13.9824 19.8545 13.9324 19.9994C13.8923 20.1168 13.7743 20.1921 13.6462 20.1921Z" fill="#BA8F63"/>
<path d="M6.33499 27.1804C7.05125 27.1804 7.6319 26.6292 7.6319 25.9493C7.6319 25.2694 7.05125 24.7182 6.33499 24.7182C5.61873 24.7182 5.03809 25.2694 5.03809 25.9493C5.03809 26.6292 5.61873 27.1804 6.33499 27.1804Z" fill="#5D4037"/>
<path d="M14.991 27.1804C15.7073 27.1804 16.2879 26.6292 16.2879 25.9493C16.2879 25.2694 15.7073 24.7182 14.991 24.7182C14.2747 24.7182 13.6941 25.2694 13.6941 25.9493C13.6941 26.6292 14.2747 27.1804 14.991 27.1804Z" fill="#5D4037"/>
<path d="M11.6647 28.1913C11.6367 28.1803 11.6087 28.1748 11.5806 28.1711H9.71934C9.69132 28.1748 9.6633 28.1803 9.63528 28.1913C9.46716 28.2537 9.3731 28.4151 9.45315 28.5839C9.53321 28.7545 9.90347 29.2334 10.65 29.2334C11.3965 29.2334 11.7668 28.7545 11.8468 28.5839C11.9269 28.4133 11.8348 28.2537 11.6647 28.1913Z" fill="#C48E6A"/>
<path d="M12.8536 30.1012C12.015 30.558 9.26909 30.558 8.43051 30.1012C7.95017 29.8388 7.45783 30.2406 7.65797 30.6406C7.8541 31.035 9.35315 31.9487 10.6501 31.9487C11.945 31.9487 13.426 31.035 13.6221 30.6406C13.8203 30.2388 13.3359 29.8388 12.8536 30.1012Z" fill="#6D4C41"/>
<path d="M8.35448 23.6651C8.10031 23.3147 7.50789 22.8047 6.3631 22.8047C5.2183 22.8047 4.62588 23.3147 4.3697 23.6651C4.25763 23.8211 4.28565 23.999 4.3637 24.1073C4.43575 24.2082 4.6499 24.3018 4.88807 24.2174C5.12623 24.133 5.58856 23.8853 6.3631 23.8798C7.13764 23.8853 7.60196 24.133 7.83812 24.2174C8.07429 24.3018 8.28844 24.2082 8.36249 24.1073C8.44054 23.999 8.46856 23.8192 8.35448 23.6651Z" fill="#9E9E9E"/>
<path d="M16.9484 23.6651C16.6942 23.3147 16.1018 22.8047 14.955 22.8047C13.8082 22.8047 13.2178 23.3147 12.9616 23.6651C12.8495 23.8211 12.8776 23.999 12.9556 24.1073C13.0277 24.2082 13.2418 24.3018 13.48 24.2174C13.7182 24.133 14.1805 23.8853 14.955 23.8798C15.7296 23.8853 16.1919 24.133 16.43 24.2174C16.6662 24.3018 16.8804 24.2082 16.9544 24.1073C17.0325 23.999 17.0605 23.8192 16.9484 23.6651Z" fill="#9E9E9E"/>
<path d="M42.032 30.4306C41.7329 29.9364 42.115 29.4356 42.7668 28.8145C43.8008 27.8278 44.9271 25.5423 43.882 23.22C43.8876 23.2067 43.6752 22.816 43.6826 22.8026L43.2506 22.7826C43.1121 22.7642 38.3835 22.7559 33.6494 22.7559C28.9153 22.7559 24.1868 22.7642 24.0483 22.7826C24.0483 22.7826 23.4113 23.2067 23.4169 23.2183C22.3718 25.5406 23.4981 27.8262 24.5321 28.8128C25.1838 29.4339 25.566 29.9364 25.2669 30.4289C24.977 30.9081 24.1111 30.9782 24.1111 30.9782C24.1111 30.9782 24.3105 31.469 24.7924 31.7328C25.2374 31.9766 25.7839 32.035 26.1624 32.0433C26.1624 32.0433 27.6395 33.8915 31.5021 33.8915H33.6513H35.8005C39.6631 33.8915 41.1402 32.0433 41.1402 32.0433C41.5187 32.035 42.0652 31.9782 42.5102 31.7328C42.9921 31.469 43.1915 30.9782 43.1915 30.9782C43.1915 30.9782 42.3237 30.9097 42.032 30.4306Z" fill="#312D2D"/>
<path d="M33.6477 33.8931V31.8413L40.5125 31.3505L41.1366 32.045C41.1366 32.045 39.6595 33.8931 35.7969 33.8931H33.6477Z" fill="url(#paint1_radial_424_66)"/>
<path d="M41.12 31.1502C40.0915 29.7378 42.3718 29.2119 42.3718 29.2119L42.3737 29.2135C41.9767 29.6593 41.7976 30.0483 42.0302 30.4306C42.3201 30.9098 43.1861 30.9799 43.1861 30.9799C43.1861 30.9799 42.0081 31.9282 41.12 31.1502Z" fill="url(#paint2_radial_424_66)"/>
<path d="M43.8877 23.2183C44.9087 25.4672 43.8341 27.7828 42.8279 28.7594C42.6894 28.893 42.1041 29.4139 41.9711 29.8279C41.9711 29.8279 39.6779 26.938 38.9948 25.2384C38.8563 24.8962 38.7308 24.5423 38.7141 24.1783C38.7012 23.9045 38.7492 23.579 38.9228 23.3469C39.137 23.0614 43.7658 22.9779 43.7658 22.9779C43.7658 22.9813 43.8877 23.2183 43.8877 23.2183Z" fill="url(#paint3_radial_424_66)"/>
<path d="M23.417 23.2183C22.3978 25.4672 23.4705 27.7828 24.4768 28.7594C24.6153 28.893 25.2006 29.4139 25.3335 29.8279C25.3335 29.8279 27.6267 26.938 28.3099 25.2384C28.4484 24.8962 28.5739 24.5423 28.5905 24.1783C28.6035 23.9045 28.5554 23.579 28.3819 23.3469C28.1677 23.0614 27.9185 23.1382 27.5566 23.1382C26.8642 23.1382 23.8361 22.9779 23.6016 22.9779C23.6016 22.9813 23.417 23.2183 23.417 23.2183Z" fill="url(#paint4_radial_424_66)"/>
<path d="M33.6568 33.8931V31.8413L26.792 31.3505L26.168 32.045C26.168 32.045 27.6451 33.8931 31.5077 33.8931H33.6568Z" fill="url(#paint5_radial_424_66)"/>
<path d="M26.1846 31.1502C27.213 29.7378 24.9328 29.2119 24.9328 29.2119L24.9309 29.2135C25.3279 29.6593 25.507 30.0483 25.2744 30.4306C24.9845 30.9098 24.1185 30.9799 24.1185 30.9799C24.1185 30.9799 25.2965 31.9282 26.1846 31.1502Z" fill="url(#paint6_radial_424_66)"/>
<path d="M40.2134 24.0448H38.4427H28.8564H27.0857C25.6695 24.0448 24.5118 25.16 24.5118 26.524C24.5118 27.888 25.6695 29.0032 27.0857 29.0032H28.8564H38.4446H40.2152C41.6314 29.0032 42.7891 27.888 42.7891 26.524C42.7891 25.16 41.6295 24.0448 40.2134 24.0448Z" fill="#EDC391"/>
<path d="M33.6494 15.4935C29.4693 15.4935 25.5974 19.5354 25.5974 25.3536C25.5974 31.1401 29.5874 34 33.6494 34C37.7114 34 41.7015 31.1401 41.7015 25.3536C41.7015 19.5371 37.8296 15.4935 33.6494 15.4935Z" fill="#F9DDBD"/>
<path d="M34.5764 27.8713C34.5506 27.8612 34.5247 27.8562 34.4989 27.8529H32.8002C32.7744 27.8562 32.7485 27.8612 32.7227 27.8713C32.5694 27.928 32.4845 28.0716 32.5565 28.2252C32.6303 28.3788 32.9682 28.8095 33.6495 28.8095C34.3308 28.8095 34.6687 28.3788 34.7426 28.2252C34.8164 28.0716 34.7315 27.928 34.5764 27.8713Z" fill="#DBA689"/>
<path d="M35.6713 29.6109C34.9069 30.0216 32.3977 30.0216 31.6333 29.6109C31.1939 29.3738 30.7452 29.7361 30.928 30.0967C31.1071 30.4506 32.4752 31.2754 33.6588 31.2754C34.8423 31.2754 36.192 30.4523 36.3729 30.0967C36.5539 29.7361 36.1107 29.3755 35.6713 29.6109Z" fill="#444444"/>
<path d="M29.7537 26.9513C30.3982 26.9513 30.9206 26.4618 30.9206 25.8578C30.9206 25.2539 30.3982 24.7643 29.7537 24.7643C29.1092 24.7643 28.5868 25.2539 28.5868 25.8578C28.5868 26.4618 29.1092 26.9513 29.7537 26.9513Z" fill="#312D2D"/>
<path d="M37.5453 26.9513C38.1898 26.9513 38.7122 26.4618 38.7122 25.8578C38.7122 25.2539 38.1898 24.7643 37.5453 24.7643C36.9009 24.7643 36.3784 25.2539 36.3784 25.8578C36.3784 26.4618 36.9009 26.9513 37.5453 26.9513Z" fill="#312D2D"/>
<path d="M31.4875 23.8945C31.2659 23.629 30.7508 23.2417 29.7537 23.2417C28.7567 23.2417 28.2416 23.629 28.02 23.8945C27.9221 24.013 27.9461 24.1483 28.0144 24.2301C28.0772 24.3069 28.2637 24.377 28.4705 24.3135C28.6773 24.2501 29.0798 24.0614 29.7537 24.0581C30.4277 24.0631 30.832 24.2501 31.037 24.3135C31.2419 24.377 31.4302 24.3069 31.493 24.2301C31.5613 24.1483 31.5853 24.013 31.4875 23.8945Z" fill="#454140"/>
<path d="M39.2811 23.8945C39.0595 23.629 38.5443 23.2417 37.5473 23.2417C36.5503 23.2417 36.0351 23.629 35.8136 23.8945C35.7157 24.013 35.7397 24.1483 35.808 24.2301C35.8708 24.3069 36.0573 24.377 36.2641 24.3135C36.4709 24.2501 36.8734 24.0614 37.5473 24.0581C38.2212 24.0631 38.6256 24.2501 38.8305 24.3135C39.0373 24.377 39.2238 24.3069 39.2866 24.2301C39.3531 24.1483 39.3789 24.013 39.2811 23.8945Z" fill="#454140"/>
<path d="M43.2764 18.5421C42.6893 17.739 41.3765 16.6639 40.1967 16.5938C40.0084 15.5687 38.7935 14.7005 37.6192 14.3633C34.4416 13.4534 32.3718 14.4735 31.2621 15.0211C31.0313 15.1346 29.5394 15.8825 28.4962 15.3466C27.8426 15.0111 27.8556 14.1012 27.8556 14.1012C27.8556 14.1012 25.8079 14.8057 26.5077 16.7724C25.8042 16.7991 24.8811 17.0662 24.3936 17.9594C23.812 19.0229 24.0188 19.9127 24.1868 20.3384C23.5812 20.8026 22.8205 21.7926 23.343 23.0764C23.7363 24.0431 25.3057 24.4872 25.3057 24.4872C25.1949 26.2268 25.5531 27.2986 25.7433 27.731C25.7765 27.8061 25.8966 27.7995 25.9169 27.721C26.1532 26.8595 26.9656 23.8561 26.8844 23.3319C26.8844 23.3319 29.6096 22.8427 32.2093 21.1131C32.7392 20.7608 33.3116 20.4603 33.9209 20.2416C37.1853 19.0663 37.8684 21.0714 37.8684 21.0714C37.8684 21.0714 40.1302 20.679 40.8134 23.5205C41.07 24.5857 41.2436 26.2902 41.3895 27.4823C41.4005 27.5657 41.5261 27.5841 41.563 27.5056C41.792 27.0332 42.248 26.0932 42.357 25.1366C42.3957 24.7994 43.4001 24.3536 43.8304 22.9078C44.4101 20.9762 43.6993 19.1214 43.2764 18.5421Z" fill="#312D2D"/>
<path d="M42.3496 25.1433C42.3883 24.806 43.3928 24.3603 43.823 22.9145C43.8691 22.7609 43.9079 22.604 43.943 22.447C44.2938 20.689 43.6642 19.0763 43.2727 18.5421C42.7299 17.8008 41.5667 16.8275 40.4626 16.6288C40.3666 16.6171 40.2724 16.6071 40.1838 16.6021C40.1838 16.6021 40.2632 17.0679 40.0545 17.4402C39.7849 17.9227 39.2366 18.0362 39.2366 18.0362C42.1151 20.639 41.9101 22.816 42.3496 25.1433Z" fill="url(#paint7_radial_424_66)"/>
<path d="M31.9563 14.6922C31.6941 14.8074 31.4615 14.9226 31.2602 15.0211C31.0294 15.1346 29.5376 15.8826 28.4944 15.3466C27.8518 15.0161 27.8518 14.1346 27.8537 14.1029C27.5583 14.4434 26.6646 16.8792 29.2772 17.0412C30.4035 17.1113 31.0996 16.2231 31.5095 15.4702C31.659 15.1981 31.8935 14.799 31.9563 14.6922Z" fill="url(#paint8_radial_424_66)"/>
<path d="M37.2906 14.2748C39.0483 14.7055 39.9069 15.5136 40.1931 16.5954C40.278 16.9126 40.3777 19.871 34.1314 16.5086C31.8087 15.2582 32.442 14.4752 32.7153 14.3867C33.7769 14.0377 35.3205 13.7923 37.2906 14.2748Z" fill="url(#paint9_radial_424_66)"/>
<path d="M27.8464 14.1029C27.8427 14.1045 27.839 14.1062 27.8316 14.1079H27.8298C27.6064 14.193 25.8486 14.9276 26.5059 16.7691L28.3763 17.0412C26.7219 15.5269 27.8538 14.0995 27.8538 14.0995C27.8538 14.0995 27.8501 14.1012 27.8464 14.1029Z" fill="url(#paint10_radial_424_66)"/>
<path d="M27.6617 16.9393L26.5059 16.7707C26.4616 16.7707 26.3065 16.7841 26.2234 16.7941C25.5735 16.8759 24.8054 17.1797 24.3918 17.9594C23.945 18.7975 23.9579 19.5171 24.0779 19.9979C24.113 20.1598 24.185 20.3401 24.185 20.3401C24.185 20.3401 24.7574 19.8493 26.1181 19.8176L27.6617 16.9393Z" fill="url(#paint11_radial_424_66)"/>
<path d="M24.1296 20.3802C23.561 20.8376 22.7929 21.856 23.3597 23.1182C23.7862 24.0715 25.3039 24.4855 25.3039 24.4855C25.3039 24.4905 25.6067 24.5706 25.7637 24.5706L26.1182 19.8142C25.3907 19.8142 24.6928 20.0112 24.2404 20.295C24.2441 20.3051 24.1278 20.3735 24.1296 20.3802Z" fill="url(#paint12_radial_424_66)"/>
<path d="M15.3061 2.15915C13.3141 2.97006 12.4679 2.3504 12.4679 2.3504C12.4679 4.45418 13.3549 4.45418 13.3549 4.45418C13.3549 4.45418 11.0488 6.53693 11.0488 10.0005C11.0488 14.0168 12.9096 15.3977 12.9096 15.3977C13.0054 15.5048 13.1597 15.7477 13.1597 15.7477C13.1597 15.7477 13.213 16.0403 13.2112 16.1895C13.1988 17.2376 13.1775 18.4157 14.2418 19.5632C15.3061 20.7107 16.5815 20.7528 17.08 20.902C18.1762 21.2309 24.1826 21.1047 25.4438 21.0148C27.0137 20.902 28.3317 20.332 29.3712 19.2113C30.6909 17.7884 30.1322 15.8682 30.2031 15.6597C30.2741 15.4493 32.5304 12.6723 32.3371 9.23743C31.9823 2.92607 27.725 3.11732 27.725 3.11732C27.725 3.11732 26.6589 0.0553589 22.4016 0.0553589C17.4348 0.0553589 16.0033 1.87609 15.3061 2.15915Z" fill="#AB872F"/>
<path d="M21.6974 21.1143C23.6522 21.1257 25.5502 21.1621 26.1498 20.9842C26.65 20.835 28.1099 20.5214 29.3144 19.2725C30.2226 18.3296 30.4195 17.008 30.1251 15.8376C30.0931 15.7075 21.6974 21.1143 21.6974 21.1143Z" fill="url(#paint13_radial_424_66)"/>
<path d="M21.6974 21.1143C19.7426 21.1257 17.6796 21.0818 17.08 20.902C16.5798 20.7528 15.3061 20.7107 14.2418 19.5632C13.1775 18.4157 13.1988 17.2376 13.2112 16.1895C13.2129 16.0575 13.1721 15.8166 13.1615 15.7592L13.1775 15.7381L21.6974 21.1143Z" fill="url(#paint14_radial_424_66)"/>
<path d="M12.3899 14.845C12.3899 14.845 14.0821 12.2994 14.5877 10.8038C14.6906 10.5016 15.0205 6.50249 14.8626 5.99184C14.5682 5.03175 14.1992 3.76757 13.3549 4.45417C11.7566 6.08938 11.1357 7.91585 11.0612 9.57019C10.93 12.4792 11.9162 14.2444 12.3899 14.845Z" fill="url(#paint15_radial_424_66)"/>
<path d="M28.3921 12.2784H26.588H16.8158H15.0117C13.5696 12.2784 12.3882 13.5024 12.3882 14.9999C12.3882 16.4974 13.5678 17.7214 15.0117 17.7214H16.8158H26.588H28.3921C29.8342 17.7214 31.0156 16.4974 31.0156 14.9999C31.0156 13.5024 29.8342 12.2784 28.3921 12.2784Z" fill="#C48E6A"/>
<path d="M21.6514 1.05177C17.4189 1.05177 13.4987 5.84649 13.4987 12.745C13.4987 19.6072 17.5378 23 21.6514 23C25.765 23 29.8041 19.6072 29.8041 12.745C29.8041 5.84649 25.8838 1.05177 21.6514 1.05177Z" fill="#E0BB95"/>
<path d="M22.5597 15.9542C22.5348 15.9428 22.51 15.937 22.4851 15.9332H20.8354C20.8106 15.937 20.7858 15.9428 20.7609 15.9542C20.6119 16.0193 20.5286 16.1857 20.5995 16.3635C20.6705 16.5414 20.9986 17.0406 21.6603 17.0406C22.322 17.0406 22.6501 16.5414 22.7211 16.3635C22.792 16.1857 22.7087 16.0193 22.5597 15.9542Z" fill="#C48E6A"/>
<path d="M16.1062 12.3759C16.1062 12.3759 16.1364 12.3281 16.1949 12.2477C16.2109 12.2286 16.2233 12.2076 16.2446 12.1827C16.2694 12.1559 16.2996 12.1292 16.3297 12.0986C16.3616 12.0699 16.3954 12.0374 16.4308 12.0029C16.4663 11.9704 16.5036 11.9456 16.5426 11.915C16.5816 11.8863 16.6224 11.8557 16.6668 11.827C16.7129 11.8002 16.759 11.7734 16.8069 11.7467C16.8548 11.718 16.9062 11.6931 16.9612 11.6721C17.0144 11.6491 17.0694 11.6262 17.1262 11.6051C17.2415 11.5707 17.3603 11.5325 17.4845 11.5152C17.6087 11.4885 17.7364 11.4866 17.8641 11.4808C17.9918 11.4885 18.1196 11.4904 18.2437 11.5152C18.3679 11.5325 18.4885 11.5707 18.602 11.6051C18.6588 11.6262 18.7138 11.6491 18.767 11.6721C18.8202 11.695 18.8717 11.718 18.9213 11.7467C18.9692 11.7734 19.0171 11.8021 19.0615 11.827C19.1058 11.8557 19.1466 11.8863 19.1857 11.915C19.2247 11.9456 19.2619 11.9704 19.2956 12.001C19.3276 12.0316 19.3595 12.0622 19.3879 12.089C19.4163 12.1177 19.4429 12.1426 19.4659 12.1674C19.489 12.1942 19.5085 12.2191 19.5262 12.242C19.5972 12.3319 19.6344 12.3854 19.6344 12.3854C19.7533 12.5633 19.716 12.81 19.5511 12.9363C19.4517 13.0147 19.3276 13.03 19.2176 12.9898L19.1502 12.9649C19.1502 12.9649 19.1058 12.9477 19.0349 12.9152C19.0171 12.9076 18.9994 12.8961 18.9781 12.8884C18.9551 12.8808 18.9338 12.8712 18.9089 12.8617C18.861 12.8406 18.806 12.8196 18.7457 12.8005C18.7156 12.7909 18.6854 12.7775 18.6535 12.768C18.6198 12.7603 18.5879 12.7507 18.5524 12.7412C18.5346 12.7354 18.5187 12.7316 18.5009 12.7259C18.4832 12.7221 18.4655 12.7182 18.4459 12.7144C18.4087 12.7087 18.3732 12.6972 18.336 12.6895C18.2597 12.68 18.1834 12.6628 18.1036 12.6589C18.0238 12.6475 17.9439 12.6513 17.8623 12.6456C17.7807 12.6513 17.7009 12.6475 17.6211 12.6589C17.5413 12.6628 17.465 12.68 17.3887 12.6895C17.3515 12.6972 17.316 12.7087 17.2787 12.7144C17.261 12.7182 17.2415 12.7221 17.2238 12.7259C17.206 12.7316 17.19 12.7354 17.1723 12.7412C17.1386 12.7507 17.1049 12.7603 17.0712 12.768C17.0393 12.7775 17.0091 12.7909 16.979 12.8005C16.9488 12.81 16.9204 12.8196 16.8938 12.8292C16.8707 12.8387 16.8477 12.8464 16.8264 12.8559C16.8051 12.8636 16.7838 12.8712 16.7625 12.877C16.7395 12.8865 16.7146 12.9018 16.6951 12.9133C16.6118 12.9592 16.5621 12.9822 16.5621 12.9822C16.3705 13.0682 16.1488 12.9707 16.069 12.7622C16.0193 12.6303 16.0388 12.4849 16.1062 12.3759Z" fill="#AB872F"/>
<path d="M26.7566 12.9803C26.7566 12.9803 26.7069 12.9573 26.6235 12.9114C26.604 12.8999 26.5792 12.8846 26.5561 12.8751C26.5348 12.8693 26.5153 12.8617 26.4923 12.854C26.471 12.8464 26.4479 12.8368 26.4249 12.8273C26.3982 12.8177 26.3681 12.8081 26.3397 12.7986C26.3096 12.789 26.2794 12.7756 26.2475 12.7661C26.2155 12.7565 26.1818 12.7469 26.1464 12.7393C26.1286 12.7335 26.1127 12.7297 26.0949 12.724C26.0772 12.7202 26.0594 12.7163 26.0399 12.7125C26.0027 12.7068 25.9672 12.6953 25.9299 12.6876C25.8537 12.6781 25.7774 12.6609 25.6976 12.657C25.6177 12.6456 25.5379 12.6494 25.4563 12.6437C25.3747 12.6494 25.2949 12.6456 25.2151 12.657C25.1353 12.6609 25.059 12.6781 24.9827 12.6876C24.9454 12.6953 24.91 12.7068 24.8727 12.7125C24.855 12.7163 24.8355 12.7202 24.8177 12.724C24.8 12.7297 24.784 12.7335 24.7663 12.7393C24.7326 12.7488 24.6989 12.7584 24.6652 12.7661C24.6332 12.7756 24.6031 12.789 24.5729 12.7986C24.5126 12.8177 24.4576 12.8387 24.4097 12.8598C24.3849 12.8693 24.3636 12.8808 24.3406 12.8866C24.3193 12.8961 24.3015 12.9057 24.2838 12.9133C24.2146 12.9478 24.1703 12.9631 24.1703 12.9631L24.1046 12.9879C23.9131 13.0606 23.7055 12.9516 23.6381 12.745C23.5973 12.6188 23.6204 12.4849 23.686 12.3836C23.686 12.3836 23.7215 12.33 23.7942 12.2401C23.8119 12.2172 23.8315 12.1923 23.8545 12.1655C23.8776 12.1407 23.906 12.1158 23.9326 12.0871C23.9609 12.0603 23.9929 12.0297 24.0248 11.9991C24.0585 11.9685 24.0958 11.9437 24.1348 11.9131C24.1738 11.8844 24.2146 11.8538 24.259 11.8251C24.3051 11.7983 24.3512 11.7715 24.3991 11.7448C24.447 11.7161 24.4984 11.6912 24.5516 11.6702C24.6049 11.6472 24.6599 11.6243 24.7166 11.6032C24.8319 11.5688 24.9508 11.5306 25.0749 11.5134C25.1991 11.4866 25.3268 11.4847 25.4545 11.4789C25.5823 11.4866 25.71 11.4866 25.8342 11.5134C25.9583 11.5287 26.079 11.5688 26.1925 11.6032C26.2492 11.6243 26.3042 11.6472 26.3575 11.6702C26.4107 11.6931 26.4621 11.7161 26.51 11.7448C26.5579 11.7715 26.6058 11.8002 26.6501 11.8251C26.6945 11.8538 26.7353 11.8844 26.7743 11.9131C26.8133 11.9437 26.8506 11.9685 26.8861 12.001C26.9215 12.0336 26.9552 12.0661 26.9872 12.0967C27.0173 12.1273 27.0475 12.1541 27.0723 12.1808C27.0936 12.2057 27.1078 12.2267 27.122 12.2459C27.1805 12.3243 27.2107 12.374 27.2107 12.374C27.3278 12.5595 27.2834 12.812 27.1113 12.9382C27.0049 13.0204 26.8683 13.03 26.7566 12.9803Z" fill="#AB872F"/>
<path d="M17.7825 15.9389C18.4174 15.9389 18.932 15.3644 18.932 14.6556C18.932 13.9469 18.4174 13.3723 17.7825 13.3723C17.1477 13.3723 16.6331 13.9469 16.6331 14.6556C16.6331 15.3644 17.1477 15.9389 17.7825 15.9389Z" fill="#5D4037"/>
<path d="M25.5379 15.9389C26.1727 15.9389 26.6874 15.3644 26.6874 14.6556C26.6874 13.9469 26.1727 13.3723 25.5379 13.3723C24.9031 13.3723 24.3884 13.9469 24.3884 14.6556C24.3884 15.3644 24.9031 15.9389 25.5379 15.9389Z" fill="#5D4037"/>
<path d="M23.6452 18.0274C22.9019 18.5037 20.4682 18.5037 19.7249 18.0274C19.2992 17.7539 18.8628 18.1728 19.0402 18.5897C19.2141 19.0009 20.5427 19.9534 21.6922 19.9534C22.8416 19.9534 24.1525 19.0009 24.3264 18.5897C24.502 18.1709 24.0727 17.7539 23.6452 18.0274Z" fill="#6D4C41"/>
<path d="M21.6922 0.62912C18.1781 0.62912 15.4694 2.79411 14.1887 6.26727C13.6742 7.6615 13.2556 9.14563 13.2556 10.6451C13.2556 13.2518 13.7097 15.5469 13.7097 15.5469C14.9514 13.8256 14.5967 12.1043 14.5967 12.1043C16.1931 9.80928 20.9507 7.9656 20.9826 7.89674C20.9808 7.90057 20.0247 9.96419 20.0247 9.96419C19.9041 10.2224 20.1099 10.5322 20.3706 10.471C24.8851 9.42677 26.8683 7.55058 26.8683 7.55058C26.8683 7.55058 27.0138 10.383 28.965 12.2956C28.965 12.2956 28.965 13.8256 29.4972 15.5469C29.4972 15.5469 30.3841 12.1043 29.7775 8.41695C29.3783 5.99569 28.0887 3.66813 26.2226 2.16871C24.9117 1.1149 23.3152 0.62912 21.6922 0.62912Z" fill="#AB872F"/>
<path d="M24.7414 0.424471C26.5064 1.05178 27.5902 2.25668 27.9255 3.76949C28.0248 4.2132 27.9521 8.29454 20.6136 3.58398C17.8836 1.8321 18.6304 0.734302 18.9497 0.609987C20.1985 0.126116 22.4637 -0.38453 24.7414 0.424471Z" fill="url(#paint16_radial_424_66)"/>
<path d="M30.9588 14.4395C30.9588 14.4395 33.5699 10.4538 31.6311 5.96124C30.3663 3.03506 27.7978 3.102 27.7233 3.11539C27.7233 3.11539 28.0018 3.8498 27.9024 4.41018C27.7339 5.36644 26.996 5.64185 26.996 5.64185C29.9016 7.55055 28.9118 12.4371 30.9588 14.4395Z" fill="url(#paint17_radial_424_66)"/>
<path d="M15.1785 2.21078C13.307 2.93181 12.4769 2.3657 12.4715 2.3504C12.4148 2.58564 12.5372 4.0143 13.6955 3.56868C14.194 3.3736 15.1732 2.27772 15.1785 2.21078Z" fill="url(#paint18_radial_424_66)"/>
<path d="M12.4644 2.34848C12.4644 2.35039 12.4626 2.35422 12.4626 2.35996C12.4573 2.58372 12.4608 4.29735 13.3549 4.45418L14.7048 3.81348C13.0214 3.77714 12.4661 2.34274 12.4661 2.34274C12.4661 2.34274 12.4644 2.34657 12.4644 2.34848Z" fill="url(#paint19_radial_424_66)"/>
<defs>
<linearGradient id="paint0_linear_424_66" x1="10.65" y1="17.3761" x2="10.65" y2="28.8996" gradientUnits="userSpaceOnUse">
<stop stop-color="#E0E0E0"/>
<stop offset="1" stop-color="#9E9E9E"/>
</linearGradient>
<radialGradient id="paint1_radial_424_66" cx="0" cy="0" r="1" gradientUnits="userSpaceOnUse" gradientTransform="translate(37.1526 30.9306) scale(5.62565 2.49862)">
<stop offset="0.7275" stop-color="#454140" stop-opacity="0"/>
<stop offset="1" stop-color="#454140"/>
</radialGradient>
<radialGradient id="paint2_radial_424_66" cx="0" cy="0" r="1" gradientUnits="userSpaceOnUse" gradientTransform="translate(42.6938 30.1739) rotate(157.067) scale(1.63498 1.13389)">
<stop offset="0.6628" stop-color="#454140"/>
<stop offset="1" stop-color="#454140" stop-opacity="0"/>
</radialGradient>
<radialGradient id="paint3_radial_424_66" cx="0" cy="0" r="1" gradientUnits="userSpaceOnUse" gradientTransform="translate(38.3852 25.9221) rotate(-94.7296) scale(6.60693 6.08225)">
<stop offset="0.7247" stop-color="#454140" stop-opacity="0"/>
<stop offset="1" stop-color="#454140"/>
</radialGradient>
<radialGradient id="paint4_radial_424_66" cx="0" cy="0" r="1" gradientUnits="userSpaceOnUse" gradientTransform="translate(28.9194 25.922) rotate(-85.2704) scale(6.60693 6.08225)">
<stop offset="0.7247" stop-color="#454140" stop-opacity="0"/>
<stop offset="1" stop-color="#454140"/>
</radialGradient>
<radialGradient id="paint5_radial_424_66" cx="0" cy="0" r="1" gradientUnits="userSpaceOnUse" gradientTransform="translate(30.1517 30.9306) rotate(180) scale(5.62565 2.49862)">
<stop offset="0.7275" stop-color="#454140" stop-opacity="0"/>
<stop offset="1" stop-color="#454140"/>
</radialGradient>
<radialGradient id="paint6_radial_424_66" cx="0" cy="0" r="1" gradientUnits="userSpaceOnUse" gradientTransform="translate(24.611 30.174) rotate(22.9333) scale(1.63498 1.13389)">
<stop offset="0.6628" stop-color="#454140"/>
<stop offset="1" stop-color="#454140" stop-opacity="0"/>
</radialGradient>
<radialGradient id="paint7_radial_424_66" cx="0" cy="0" r="1" gradientUnits="userSpaceOnUse" gradientTransform="translate(37.9776 22.4383) rotate(70.3266) scale(7.82083 6.28495)">
<stop offset="0.6985" stop-color="#454140" stop-opacity="0"/>
<stop offset="1" stop-color="#454140"/>
</radialGradient>
<radialGradient id="paint8_radial_424_66" cx="0" cy="0" r="1" gradientUnits="userSpaceOnUse" gradientTransform="translate(29.6331 13.9996) rotate(25.868) scale(2.19812 2.45675)">
<stop offset="0.58" stop-color="#454140"/>
<stop offset="1" stop-color="#454140" stop-opacity="0"/>
</radialGradient>
<radialGradient id="paint9_radial_424_66" cx="0" cy="0" r="1" gradientUnits="userSpaceOnUse" gradientTransform="translate(34.6488 17.6854) rotate(-159.18) scale(6.92221 3.6168)">
<stop offset="0.6985" stop-color="#454140" stop-opacity="0"/>
<stop offset="1" stop-color="#454140"/>
</radialGradient>
<radialGradient id="paint10_radial_424_66" cx="0" cy="0" r="1" gradientUnits="userSpaceOnUse" gradientTransform="translate(28.732 15.851) scale(2.06 2.2786)">
<stop offset="0.7016" stop-color="#454140" stop-opacity="0"/>
<stop offset="1" stop-color="#454140"/>
</radialGradient>
<radialGradient id="paint11_radial_424_66" cx="0" cy="0" r="1" gradientUnits="userSpaceOnUse" gradientTransform="translate(28.4485 19.1388) rotate(-166.328) scale(3.83981 3.28965)">
<stop offset="0.6605" stop-color="#454140" stop-opacity="0"/>
<stop offset="1" stop-color="#454140"/>
</radialGradient>
<radialGradient id="paint12_radial_424_66" cx="0" cy="0" r="1" gradientUnits="userSpaceOnUse" gradientTransform="translate(27.5325 22.5118) rotate(7.09119) scale(4.04947 5.16259)">
<stop offset="0.5981" stop-color="#454140" stop-opacity="0"/>
<stop offset="1" stop-color="#454140"/>
</radialGradient>
<radialGradient id="paint13_radial_424_66" cx="0" cy="0" r="1" gradientUnits="userSpaceOnUse" gradientTransform="translate(24.7705 17.2627) rotate(149.509) scale(6.09213 4.11262)">
<stop offset="0.7275" stop-color="#BFA055" stop-opacity="0"/>
<stop offset="1" stop-color="#BFA055"/>
</radialGradient>
<radialGradient id="paint14_radial_424_66" cx="0" cy="0" r="1" gradientUnits="userSpaceOnUse" gradientTransform="translate(18.6334 17.1968) rotate(30.4913) scale(6.14322 4.14711)">
<stop offset="0.7275" stop-color="#BFA055" stop-opacity="0"/>
<stop offset="1" stop-color="#BFA055"/>
</radialGradient>
<radialGradient id="paint15_radial_424_66" cx="0" cy="0" r="1" gradientUnits="userSpaceOnUse" gradientTransform="translate(15.061 8.44403) rotate(-86.0309) scale(6.56274 5.07702)">
<stop offset="0.6985" stop-color="#BFA055" stop-opacity="0"/>
<stop offset="1" stop-color="#BFA055"/>
</radialGradient>
<radialGradient id="paint16_radial_424_66" cx="0" cy="0" r="1" gradientUnits="userSpaceOnUse" gradientTransform="translate(21.2689 5.2903) rotate(-155.609) scale(8.48767 5.02041)">
<stop offset="0.6985" stop-color="#BFA055" stop-opacity="0"/>
<stop offset="1" stop-color="#BFA055"/>
</radialGradient>
<radialGradient id="paint17_radial_424_66" cx="0" cy="0" r="1" gradientUnits="userSpaceOnUse" gradientTransform="translate(27.1002 11.5972) rotate(60.3216) scale(9.02664 6.45878)">
<stop offset="0.6985" stop-color="#BFA055" stop-opacity="0"/>
<stop offset="1" stop-color="#BFA055"/>
</radialGradient>
<radialGradient id="paint18_radial_424_66" cx="0" cy="0" r="1" gradientUnits="userSpaceOnUse" gradientTransform="translate(13.3641 1.61018) rotate(4.9209) scale(1.55156 1.9816)">
<stop offset="0.58" stop-color="#BFA055"/>
<stop offset="1" stop-color="#BFA055" stop-opacity="0"/>
</radialGradient>
<radialGradient id="paint19_radial_424_66" cx="0" cy="0" r="1" gradientUnits="userSpaceOnUse" gradientTransform="translate(14.1554 3.63059) rotate(-53.6852) scale(1.34326 2.08932)">
<stop offset="0.7016" stop-color="#BFA055" stop-opacity="0"/>
<stop offset="1" stop-color="#BFA055"/>
</radialGradient>
</defs>
</svg>
