<svg width="1280" height="720" viewBox="0 0 1280 720" fill="none" xmlns="http://www.w3.org/2000/svg">
<rect width="1280" height="720" fill="#266398"/>
<g clip-path="url(#clip0_2_107)">
<mask id="path-2-outside-1_2_107" maskUnits="userSpaceOnUse" x="827" y="280.891" width="211" height="159" fill="black">
<rect fill="white" x="827" y="280.891" width="211" height="159"/>
<path fill-rule="evenodd" clip-rule="evenodd" d="M829 347.131C829 348.284 829.34 349.046 829.53 349.785C830.77 354.597 833.436 358.727 836.599 362.494C841.105 367.862 846.622 372.183 852.274 376.247C857.176 379.771 862.178 383.216 867.1 386.714C867.945 387.315 868.744 388.005 869.661 388.742C868.872 389.169 868.216 389.544 867.533 389.891C861.038 393.185 854.789 396.878 849.029 401.352C845.557 404.049 842.2 406.915 839.83 410.661C836.015 416.685 834.665 423.103 837.508 429.956C838.338 431.958 839.605 433.687 841.392 434.965C841.971 435.379 842.62 435.789 843.298 435.949C845.034 436.358 846.802 436.625 848.56 436.949L853.536 436.945C859.038 436.455 864.047 434.57 868.574 431.446C875.648 426.563 880.414 420.017 882.463 411.616C883.953 405.509 884.013 399.396 882.258 393.318C882.09 392.755 881.896 392.2 881.677 391.654C881.464 391.108 881.213 390.576 880.918 389.895L892.199 383.408L892.367 383.553C892.162 384.224 891.944 384.893 891.759 385.571C890.418 390.466 889.528 395.447 889.847 400.528C890.189 405.942 891.7 411.01 894.869 415.534C897.432 419.192 903.539 419.328 906.262 415.657C907.228 414.352 908.165 412.989 908.869 411.534C910.708 407.736 912.411 403.87 914.168 400.031L914.475 399.329C914.349 401.147 914.201 402.743 914.134 404.341C914.029 406.837 914.175 409.317 915.028 411.691C915.758 413.722 917 415.24 919.326 415.507C920.918 415.689 922.186 414.961 923.356 414.037C925.168 412.605 926.67 410.82 927.771 408.789C930.889 403.061 934.092 397.369 936.919 391.497C939.977 385.146 942.651 378.61 945.491 372.15L945.96 371.005C946.631 373.642 947.099 376.224 947.96 378.669C948.961 381.505 950.2 384.275 951.548 386.967C952.186 388.238 952.112 389.064 951.228 390.13C947.527 394.593 943.89 399.109 940.249 403.621C939.444 404.617 938.641 405.631 937.97 406.718C937.563 407.405 937.296 408.166 937.183 408.956C937.07 409.684 937.243 410.427 937.666 411.03C938.089 411.633 938.729 412.049 939.452 412.19C940.91 412.504 942.406 412.611 943.895 412.507C948.976 412.132 953.589 410.349 957.668 407.327C962.952 403.413 964.649 398.071 963.369 391.74C963.023 390.022 962.411 388.352 961.815 386.696C961.548 385.95 961.53 385.426 962.017 384.731C966.242 378.698 969.851 372.298 973.208 365.75C973.341 365.493 973.477 365.235 973.71 364.96C974.797 370.62 976.435 376.075 979.368 381.025C977.872 382.467 976.39 383.774 975.05 385.215C972.099 388.388 969.539 391.833 968.204 396.035C967.63 397.846 967.188 399.687 967.444 401.621C967.841 404.625 970.302 406.577 973.257 405.893C979.58 404.43 985.038 401.45 989.027 396.172C991.711 392.619 991.955 388.655 990.831 384.503C990.523 383.374 990.157 382.263 989.763 380.969C991.323 380.485 992.844 379.904 994.418 379.545C1002.59 377.681 1010.67 378.006 1018.54 380.956C1023.13 382.678 1026.85 385.561 1029.05 390.096C1031.74 395.639 1030.25 400.899 1025.03 404.404C1024.54 404.73 1023.98 404.988 1023.58 405.396C1023.45 405.546 1023.35 405.721 1023.29 405.91C1023.23 406.1 1023.22 406.299 1023.24 406.495C1023.27 406.697 1023.81 406.95 1024.11 406.946C1025.83 406.933 1027.23 406.033 1028.56 405.107C1031.91 402.789 1034.36 399.67 1034.88 395.564L1034.99 395.255L1034.86 392.581C1034.81 392.427 1034.9 392.274 1034.89 392.158C1034.17 386.178 1030.98 381.54 1026.33 377.904C1020.95 373.696 1014.6 371.963 1007.88 371.689C1002.43 371.455 996.986 372.293 991.858 374.155C990.387 374.689 988.928 375.32 987.448 375.916C987.25 375.556 987.036 375.212 986.861 374.856C985.342 371.745 983.501 368.772 983.094 365.206C982.805 362.673 982.451 360.143 983.053 357.638C983.632 355.227 984.387 352.858 985.097 350.481C985.463 349.257 985.206 348.571 984.037 348.02C983.63 347.817 983.196 347.675 982.748 347.597C979.877 347.18 977.045 347.418 974.264 348.227C973.28 348.514 972.565 349.065 972.346 350.155C972.222 350.78 971.967 351.379 971.79 351.995C971.063 354.56 970.548 357.173 969.374 359.616C966.43 365.744 963.07 371.64 959.631 377.494C959.259 378.126 958.867 378.746 958.398 379.512C957.19 376.985 955.902 374.718 955.512 372.06C955.071 369.055 954.723 366.054 955.471 363.071C956.027 360.847 956.754 358.663 957.423 356.468C957.74 355.424 957.594 354.876 956.649 354.327C956.171 354.049 955.632 353.803 955.094 353.723C952.15 353.275 949.142 353.521 946.31 354.442C945.419 354.73 944.951 355.306 944.679 356.225C943.878 358.935 943.196 361.711 942.072 364.289C937.521 374.723 932.838 385.103 928.161 395.482C927.185 397.649 926.041 399.741 924.94 401.851C924.662 402.386 924.255 402.856 923.907 403.358C923.628 403.029 923.52 402.802 923.521 402.576C923.53 401.242 923.37 399.869 923.625 398.579C924.406 394.679 925.269 390.796 926.214 386.933C926.985 383.74 927.882 380.577 928.737 377.405C929.024 376.344 929.029 375.351 928.266 374.459C926.985 372.964 924.307 372.636 922.719 373.788L922.017 374.185L922.153 373.053C922.488 370.626 922.555 368.208 921.889 365.818C921.059 362.838 918.932 361.124 915.842 361.219C914.401 361.263 912.888 361.509 911.555 362.034C905.945 364.233 901.632 368.126 897.96 372.81C897.62 373.245 897.198 373.609 896.718 373.883C891.972 376.515 887.211 379.113 882.452 381.722L877.154 384.624C875.733 383.269 874.442 381.863 872.977 380.67C868.503 377.021 863.957 373.463 859.452 369.855C855.458 366.658 851.59 363.327 848.63 359.093C846.428 355.943 845.009 352.496 844.873 348.601C844.701 343.638 846.108 339.103 848.635 334.882C851.867 329.481 856.275 325.147 861.122 321.221C866.249 317.07 871.794 313.546 877.541 310.328C885.582 305.828 893.852 301.845 902.72 299.215C911.812 296.518 921.037 294.974 930.553 296.05C934.294 296.473 937.926 297.33 941.261 299.159C943.816 300.559 945.911 302.391 946.885 305.256C947.847 308.074 947.817 310.931 947.151 313.793C945.798 319.591 942.623 324.371 938.628 328.641C932.076 335.642 924.082 340.408 915.084 343.556C909.91 345.369 904.526 346.517 899.063 346.973C894.586 347.349 890.202 346.952 885.962 345.395C883.155 344.363 880.711 342.785 878.745 340.495C878.394 340.084 877.945 339.64 877.29 340.024C876.649 340.401 876.535 341.011 876.75 341.63C877.11 342.657 877.441 343.727 878.001 344.645C879.407 346.95 881.457 348.622 883.715 350.056C888.051 352.814 892.897 353.741 897.923 353.956C905.548 354.286 912.989 353.147 920.324 351.101C930.796 348.181 939.901 343.023 947.204 334.885C953.284 328.11 957.627 320.463 958.557 311.229C959.011 306.722 958.527 302.307 956.418 298.196C954.129 293.742 950.49 290.429 946.139 288.147C939.803 284.825 932.965 282.891 925.907 282.891H918.836C910.288 282.891 902.024 285.34 893.992 288.262C887.912 290.475 881.95 293.087 876.161 295.978C863.556 302.276 851.818 309.871 842.176 320.313C837.372 325.516 833.305 331.256 830.965 338.016C830.259 340.034 829.651 342.085 829.143 344.161M874.816 403.245C874.27 410.561 870.954 416.492 865.535 421.295C862.487 423.996 858.991 425.919 854.919 426.595C853.442 426.839 851.931 426.898 850.499 426.286C848.456 425.413 847.998 423.6 847.959 421.669C847.898 418.592 848.976 415.809 850.454 413.161C852.384 409.709 855.212 407.078 858.233 404.62C862.99 400.747 868.152 397.469 873.438 394.374L873.837 394.21C874.654 397.229 875.042 400.21 874.816 403.245ZM916.091 371.452C915.705 373.788 915.223 376.126 914.541 378.39C912.181 386.227 909.151 393.821 905.875 401.314C905.269 402.701 904.388 403.965 903.622 405.28C903.492 405.482 903.336 405.666 903.158 405.828C902.21 406.764 901.311 406.715 900.831 405.49C900.274 404.066 899.931 402.541 899.635 401.034C899.437 400.021 899.485 398.958 899.422 397.921C899.486 390.548 901.735 383.848 905.552 377.61C907.125 375.038 908.838 372.587 911.455 370.959C912.269 370.453 913.149 370.063 914.071 369.801C915.466 369.409 916.322 370.054 916.091 371.452ZM944.251 407.329L954.372 395.511C954.793 399.9 947.333 408.661 944.251 407.329ZM976.576 399.377C975.861 399.787 975.081 400.082 974.348 400.461C973.677 400.809 973.455 400.458 973.436 399.88C973.426 399.481 973.477 399.082 973.588 398.697C974.955 393.877 977.47 389.763 981.212 386.416L981.475 386.281C983.255 391.26 981.197 396.729 976.576 399.377Z"/>
</mask>
<path fill-rule="evenodd" clip-rule="evenodd" d="M829 347.131C829 348.284 829.34 349.046 829.53 349.785C830.77 354.597 833.436 358.727 836.599 362.494C841.105 367.862 846.622 372.183 852.274 376.247C857.176 379.771 862.178 383.216 867.1 386.714C867.945 387.315 868.744 388.005 869.661 388.742C868.872 389.169 868.216 389.544 867.533 389.891C861.038 393.185 854.789 396.878 849.029 401.352C845.557 404.049 842.2 406.915 839.83 410.661C836.015 416.685 834.665 423.103 837.508 429.956C838.338 431.958 839.605 433.687 841.392 434.965C841.971 435.379 842.62 435.789 843.298 435.949C845.034 436.358 846.802 436.625 848.56 436.949L853.536 436.945C859.038 436.455 864.047 434.57 868.574 431.446C875.648 426.563 880.414 420.017 882.463 411.616C883.953 405.509 884.013 399.396 882.258 393.318C882.09 392.755 881.896 392.2 881.677 391.654C881.464 391.108 881.213 390.576 880.918 389.895L892.199 383.408L892.367 383.553C892.162 384.224 891.944 384.893 891.759 385.571C890.418 390.466 889.528 395.447 889.847 400.528C890.189 405.942 891.7 411.01 894.869 415.534C897.432 419.192 903.539 419.328 906.262 415.657C907.228 414.352 908.165 412.989 908.869 411.534C910.708 407.736 912.411 403.87 914.168 400.031L914.475 399.329C914.349 401.147 914.201 402.743 914.134 404.341C914.029 406.837 914.175 409.317 915.028 411.691C915.758 413.722 917 415.24 919.326 415.507C920.918 415.689 922.186 414.961 923.356 414.037C925.168 412.605 926.67 410.82 927.771 408.789C930.889 403.061 934.092 397.369 936.919 391.497C939.977 385.146 942.651 378.61 945.491 372.15L945.96 371.005C946.631 373.642 947.099 376.224 947.96 378.669C948.961 381.505 950.2 384.275 951.548 386.967C952.186 388.238 952.112 389.064 951.228 390.13C947.527 394.593 943.89 399.109 940.249 403.621C939.444 404.617 938.641 405.631 937.97 406.718C937.563 407.405 937.296 408.166 937.183 408.956C937.07 409.684 937.243 410.427 937.666 411.03C938.089 411.633 938.729 412.049 939.452 412.19C940.91 412.504 942.406 412.611 943.895 412.507C948.976 412.132 953.589 410.349 957.668 407.327C962.952 403.413 964.649 398.071 963.369 391.74C963.023 390.022 962.411 388.352 961.815 386.696C961.548 385.95 961.53 385.426 962.017 384.731C966.242 378.698 969.851 372.298 973.208 365.75C973.341 365.493 973.477 365.235 973.71 364.96C974.797 370.62 976.435 376.075 979.368 381.025C977.872 382.467 976.39 383.774 975.05 385.215C972.099 388.388 969.539 391.833 968.204 396.035C967.63 397.846 967.188 399.687 967.444 401.621C967.841 404.625 970.302 406.577 973.257 405.893C979.58 404.43 985.038 401.45 989.027 396.172C991.711 392.619 991.955 388.655 990.831 384.503C990.523 383.374 990.157 382.263 989.763 380.969C991.323 380.485 992.844 379.904 994.418 379.545C1002.59 377.681 1010.67 378.006 1018.54 380.956C1023.13 382.678 1026.85 385.561 1029.05 390.096C1031.74 395.639 1030.25 400.899 1025.03 404.404C1024.54 404.73 1023.98 404.988 1023.58 405.396C1023.45 405.546 1023.35 405.721 1023.29 405.91C1023.23 406.1 1023.22 406.299 1023.24 406.495C1023.27 406.697 1023.81 406.95 1024.11 406.946C1025.83 406.933 1027.23 406.033 1028.56 405.107C1031.91 402.789 1034.36 399.67 1034.88 395.564L1034.99 395.255L1034.86 392.581C1034.81 392.427 1034.9 392.274 1034.89 392.158C1034.17 386.178 1030.98 381.54 1026.33 377.904C1020.95 373.696 1014.6 371.963 1007.88 371.689C1002.43 371.455 996.986 372.293 991.858 374.155C990.387 374.689 988.928 375.32 987.448 375.916C987.25 375.556 987.036 375.212 986.861 374.856C985.342 371.745 983.501 368.772 983.094 365.206C982.805 362.673 982.451 360.143 983.053 357.638C983.632 355.227 984.387 352.858 985.097 350.481C985.463 349.257 985.206 348.571 984.037 348.02C983.63 347.817 983.196 347.675 982.748 347.597C979.877 347.18 977.045 347.418 974.264 348.227C973.28 348.514 972.565 349.065 972.346 350.155C972.222 350.78 971.967 351.379 971.79 351.995C971.063 354.56 970.548 357.173 969.374 359.616C966.43 365.744 963.07 371.64 959.631 377.494C959.259 378.126 958.867 378.746 958.398 379.512C957.19 376.985 955.902 374.718 955.512 372.06C955.071 369.055 954.723 366.054 955.471 363.071C956.027 360.847 956.754 358.663 957.423 356.468C957.74 355.424 957.594 354.876 956.649 354.327C956.171 354.049 955.632 353.803 955.094 353.723C952.15 353.275 949.142 353.521 946.31 354.442C945.419 354.73 944.951 355.306 944.679 356.225C943.878 358.935 943.196 361.711 942.072 364.289C937.521 374.723 932.838 385.103 928.161 395.482C927.185 397.649 926.041 399.741 924.94 401.851C924.662 402.386 924.255 402.856 923.907 403.358C923.628 403.029 923.52 402.802 923.521 402.576C923.53 401.242 923.37 399.869 923.625 398.579C924.406 394.679 925.269 390.796 926.214 386.933C926.985 383.74 927.882 380.577 928.737 377.405C929.024 376.344 929.029 375.351 928.266 374.459C926.985 372.964 924.307 372.636 922.719 373.788L922.017 374.185L922.153 373.053C922.488 370.626 922.555 368.208 921.889 365.818C921.059 362.838 918.932 361.124 915.842 361.219C914.401 361.263 912.888 361.509 911.555 362.034C905.945 364.233 901.632 368.126 897.96 372.81C897.62 373.245 897.198 373.609 896.718 373.883C891.972 376.515 887.211 379.113 882.452 381.722L877.154 384.624C875.733 383.269 874.442 381.863 872.977 380.67C868.503 377.021 863.957 373.463 859.452 369.855C855.458 366.658 851.59 363.327 848.63 359.093C846.428 355.943 845.009 352.496 844.873 348.601C844.701 343.638 846.108 339.103 848.635 334.882C851.867 329.481 856.275 325.147 861.122 321.221C866.249 317.07 871.794 313.546 877.541 310.328C885.582 305.828 893.852 301.845 902.72 299.215C911.812 296.518 921.037 294.974 930.553 296.05C934.294 296.473 937.926 297.33 941.261 299.159C943.816 300.559 945.911 302.391 946.885 305.256C947.847 308.074 947.817 310.931 947.151 313.793C945.798 319.591 942.623 324.371 938.628 328.641C932.076 335.642 924.082 340.408 915.084 343.556C909.91 345.369 904.526 346.517 899.063 346.973C894.586 347.349 890.202 346.952 885.962 345.395C883.155 344.363 880.711 342.785 878.745 340.495C878.394 340.084 877.945 339.64 877.29 340.024C876.649 340.401 876.535 341.011 876.75 341.63C877.11 342.657 877.441 343.727 878.001 344.645C879.407 346.95 881.457 348.622 883.715 350.056C888.051 352.814 892.897 353.741 897.923 353.956C905.548 354.286 912.989 353.147 920.324 351.101C930.796 348.181 939.901 343.023 947.204 334.885C953.284 328.11 957.627 320.463 958.557 311.229C959.011 306.722 958.527 302.307 956.418 298.196C954.129 293.742 950.49 290.429 946.139 288.147C939.803 284.825 932.965 282.891 925.907 282.891H918.836C910.288 282.891 902.024 285.34 893.992 288.262C887.912 290.475 881.95 293.087 876.161 295.978C863.556 302.276 851.818 309.871 842.176 320.313C837.372 325.516 833.305 331.256 830.965 338.016C830.259 340.034 829.651 342.085 829.143 344.161M874.816 403.245C874.27 410.561 870.954 416.492 865.535 421.295C862.487 423.996 858.991 425.919 854.919 426.595C853.442 426.839 851.931 426.898 850.499 426.286C848.456 425.413 847.998 423.6 847.959 421.669C847.898 418.592 848.976 415.809 850.454 413.161C852.384 409.709 855.212 407.078 858.233 404.62C862.99 400.747 868.152 397.469 873.438 394.374L873.837 394.21C874.654 397.229 875.042 400.21 874.816 403.245ZM916.091 371.452C915.705 373.788 915.223 376.126 914.541 378.39C912.181 386.227 909.151 393.821 905.875 401.314C905.269 402.701 904.388 403.965 903.622 405.28C903.492 405.482 903.336 405.666 903.158 405.828C902.21 406.764 901.311 406.715 900.831 405.49C900.274 404.066 899.931 402.541 899.635 401.034C899.437 400.021 899.485 398.958 899.422 397.921C899.486 390.548 901.735 383.848 905.552 377.61C907.125 375.038 908.838 372.587 911.455 370.959C912.269 370.453 913.149 370.063 914.071 369.801C915.466 369.409 916.322 370.054 916.091 371.452ZM944.251 407.329L954.372 395.511C954.793 399.9 947.333 408.661 944.251 407.329ZM976.576 399.377C975.861 399.787 975.081 400.082 974.348 400.461C973.677 400.809 973.455 400.458 973.436 399.88C973.426 399.481 973.477 399.082 973.588 398.697C974.955 393.877 977.47 389.763 981.212 386.416L981.475 386.281C983.255 391.26 981.197 396.729 976.576 399.377Z" fill="#CB6699"/>
<path d="M829.53 349.785L827.593 350.284L827.593 350.285L829.53 349.785ZM836.599 362.494L838.131 361.208L838.131 361.208L836.599 362.494ZM852.274 376.247L851.106 377.871L851.107 377.871L852.274 376.247ZM867.1 386.714L868.259 385.084L868.259 385.084L867.1 386.714ZM869.661 388.742L870.612 390.502L873.262 389.069L870.914 387.183L869.661 388.742ZM867.533 389.891L868.438 391.674L868.438 391.674L867.533 389.891ZM849.029 401.352L847.802 399.772L847.802 399.773L849.029 401.352ZM839.83 410.661L841.52 411.731L841.52 411.73L839.83 410.661ZM837.508 429.956L839.356 429.19L839.356 429.19L837.508 429.956ZM841.392 434.965L840.228 436.592L840.23 436.593L841.392 434.965ZM843.298 435.949L842.836 437.895L842.84 437.896L843.298 435.949ZM848.56 436.949L848.198 438.916L848.378 438.949L848.561 438.949L848.56 436.949ZM853.536 436.945L853.537 438.945L853.625 438.945L853.713 438.937L853.536 436.945ZM868.574 431.446L869.709 433.092L869.71 433.092L868.574 431.446ZM882.463 411.616L880.52 411.142L880.52 411.142L882.463 411.616ZM882.258 393.318L884.179 392.763L884.177 392.754L884.174 392.746L882.258 393.318ZM881.677 391.654L879.814 392.382L879.818 392.39L879.821 392.399L881.677 391.654ZM880.918 389.895L879.921 388.162L878.372 389.052L879.083 390.691L880.918 389.895ZM892.199 383.408L893.498 381.888L892.425 380.971L891.202 381.675L892.199 383.408ZM892.367 383.553L894.28 384.137L894.663 382.884L893.667 382.032L892.367 383.553ZM891.759 385.571L893.688 386.099L893.688 386.099L891.759 385.571ZM889.847 400.528L887.851 400.654L887.851 400.654L889.847 400.528ZM894.869 415.534L896.508 414.386L896.507 414.386L894.869 415.534ZM906.262 415.657L907.868 416.848L907.869 416.847L906.262 415.657ZM908.869 411.534L907.069 410.662L907.068 410.663L908.869 411.534ZM914.168 400.031L915.987 400.864L915.994 400.848L916.001 400.832L914.168 400.031ZM914.475 399.329L916.47 399.468L912.642 398.528L914.475 399.329ZM914.134 404.341L912.135 404.257L912.135 404.257L914.134 404.341ZM915.028 411.691L913.146 412.368L913.146 412.368L915.028 411.691ZM919.326 415.507L919.098 417.494L919.099 417.494L919.326 415.507ZM923.356 414.037L924.595 415.607L924.596 415.606L923.356 414.037ZM927.771 408.789L926.014 407.832L926.012 407.836L927.771 408.789ZM936.919 391.497L935.117 390.629L935.117 390.629L936.919 391.497ZM945.491 372.15L947.322 372.955L947.332 372.932L947.342 372.909L945.491 372.15ZM945.96 371.005L947.898 370.512L946.405 364.645L944.109 370.247L945.96 371.005ZM947.96 378.669L946.074 379.333L946.074 379.334L947.96 378.669ZM951.548 386.967L949.76 387.863L949.761 387.864L951.548 386.967ZM951.228 390.13L952.768 391.407L952.768 391.407L951.228 390.13ZM940.249 403.621L941.804 404.879L941.806 404.877L940.249 403.621ZM937.97 406.718L936.268 405.668L936.259 405.683L936.25 405.699L937.97 406.718ZM937.183 408.956L939.159 409.263L939.161 409.251L939.163 409.239L937.183 408.956ZM939.452 412.19L939.873 410.235L939.854 410.231L939.836 410.227L939.452 412.19ZM943.895 412.507L944.034 414.502L944.041 414.501L943.895 412.507ZM957.668 407.327L956.477 405.72L956.477 405.72L957.668 407.327ZM963.369 391.74L961.408 392.135L961.408 392.136L963.369 391.74ZM961.815 386.696L959.932 387.371L959.933 387.373L961.815 386.696ZM962.017 384.731L963.655 385.878L963.655 385.878L962.017 384.731ZM973.208 365.75L971.43 364.833L971.428 364.838L973.208 365.75ZM973.71 364.96L975.674 364.582L974.884 360.472L972.182 363.669L973.71 364.96ZM979.368 381.025L980.756 382.465L981.896 381.366L981.089 380.005L979.368 381.025ZM975.05 385.215L973.586 383.852L973.586 383.853L975.05 385.215ZM968.204 396.035L966.298 395.429L966.297 395.43L968.204 396.035ZM967.444 401.621L969.427 401.359L969.427 401.359L967.444 401.621ZM973.257 405.893L972.806 403.945L972.806 403.945L973.257 405.893ZM989.027 396.172L990.622 397.378L990.622 397.378L989.027 396.172ZM990.831 384.503L992.762 383.98L992.761 383.976L990.831 384.503ZM989.763 380.969L989.171 379.059L987.271 379.648L987.85 381.551L989.763 380.969ZM994.418 379.545L993.973 377.595L993.972 377.595L994.418 379.545ZM1018.54 380.956L1019.24 379.083L1019.24 379.083L1018.54 380.956ZM1029.05 390.096L1030.85 389.223L1030.85 389.222L1029.05 390.096ZM1025.03 404.404L1026.14 406.065L1026.14 406.065L1025.03 404.404ZM1023.58 405.396L1022.15 403.99L1022.11 404.038L1022.06 404.09L1023.58 405.396ZM1023.24 406.495L1021.25 406.731L1021.26 406.782L1021.27 406.832L1023.24 406.495ZM1024.11 406.946L1024.1 404.947L1024.09 404.947L1024.11 406.946ZM1028.56 405.107L1027.42 403.463L1027.42 403.463L1028.56 405.107ZM1034.88 395.564L1032.99 394.928L1032.92 395.115L1032.9 395.309L1034.88 395.564ZM1034.99 395.255L1036.88 395.891L1037 395.535L1036.98 395.161L1034.99 395.255ZM1034.86 392.581L1036.86 392.487L1036.85 392.214L1036.76 391.955L1034.86 392.581ZM1034.89 392.158L1036.88 391.962L1036.88 391.942L1036.87 391.921L1034.89 392.158ZM1026.33 377.904L1027.57 376.329L1027.57 376.329L1026.33 377.904ZM1007.88 371.689L1007.79 373.688L1007.8 373.688L1007.88 371.689ZM991.858 374.155L992.54 376.036L992.541 376.035L991.858 374.155ZM987.448 375.916L985.698 376.883L986.553 378.432L988.195 377.771L987.448 375.916ZM986.861 374.856L985.064 375.734L985.067 375.74L986.861 374.856ZM983.094 365.206L981.107 365.432L981.107 365.432L983.094 365.206ZM983.053 357.638L984.998 358.105L984.998 358.105L983.053 357.638ZM985.097 350.481L983.181 349.908L983.181 349.908L985.097 350.481ZM984.037 348.02L983.145 349.81L983.164 349.82L983.184 349.829L984.037 348.02ZM982.748 347.597L983.09 345.626L983.062 345.622L983.035 345.618L982.748 347.597ZM974.264 348.227L973.706 346.306L973.704 346.307L974.264 348.227ZM972.346 350.155L970.385 349.762L970.385 349.763L972.346 350.155ZM971.79 351.995L969.868 351.443L969.866 351.45L971.79 351.995ZM969.374 359.616L967.571 358.749L967.571 358.75L969.374 359.616ZM959.631 377.494L961.354 378.51L961.356 378.507L959.631 377.494ZM958.398 379.512L956.593 380.374L958.181 383.696L960.103 380.556L958.398 379.512ZM955.512 372.06L953.533 372.351L953.533 372.351L955.512 372.06ZM955.471 363.071L957.411 363.558L957.411 363.556L955.471 363.071ZM957.423 356.468L959.336 357.051L959.337 357.049L957.423 356.468ZM956.649 354.327L957.654 352.598L957.653 352.597L956.649 354.327ZM955.094 353.723L954.792 355.7L954.798 355.701L955.094 353.723ZM946.31 354.442L946.926 356.344L946.928 356.344L946.31 354.442ZM944.679 356.225L942.761 355.657L942.761 355.658L944.679 356.225ZM942.072 364.289L943.905 365.088L943.905 365.088L942.072 364.289ZM928.161 395.482L926.338 394.66L926.337 394.66L928.161 395.482ZM924.94 401.851L923.167 400.926L923.167 400.926L924.94 401.851ZM923.907 403.358L922.38 404.65L924.065 406.642L925.551 404.497L923.907 403.358ZM923.521 402.576L925.521 402.59L925.521 402.588L923.521 402.576ZM923.625 398.579L921.664 398.187L921.662 398.192L923.625 398.579ZM926.214 386.933L928.156 387.408L928.158 387.402L926.214 386.933ZM928.737 377.405L926.806 376.883L926.806 376.885L928.737 377.405ZM928.266 374.459L929.786 373.159L929.784 373.157L928.266 374.459ZM922.719 373.788L923.703 375.529L923.802 375.473L923.893 375.407L922.719 373.788ZM922.017 374.185L920.031 373.946L919.559 377.872L923.001 375.926L922.017 374.185ZM922.153 373.053L920.172 372.78L920.169 372.797L920.167 372.814L922.153 373.053ZM921.889 365.818L919.962 366.354L919.962 366.355L921.889 365.818ZM915.842 361.219L915.903 363.218L915.903 363.218L915.842 361.219ZM911.555 362.034L912.284 363.896L912.287 363.895L911.555 362.034ZM897.96 372.81L896.386 371.576L896.385 371.577L897.96 372.81ZM896.718 373.883L897.688 375.632L897.699 375.626L897.709 375.62L896.718 373.883ZM882.452 381.722L883.413 383.476L883.413 383.476L882.452 381.722ZM877.154 384.624L875.774 386.071L876.832 387.081L878.115 386.378L877.154 384.624ZM872.977 380.67L871.713 382.22L871.714 382.221L872.977 380.67ZM859.452 369.855L860.702 368.294L860.702 368.294L859.452 369.855ZM848.63 359.093L850.269 357.947L850.269 357.947L848.63 359.093ZM844.873 348.601L842.874 348.67L842.874 348.671L844.873 348.601ZM848.635 334.882L850.351 335.909L850.351 335.909L848.635 334.882ZM861.122 321.221L859.863 319.666L859.863 319.666L861.122 321.221ZM877.541 310.328L876.564 308.583L876.564 308.583L877.541 310.328ZM902.72 299.215L903.289 301.132L903.289 301.132L902.72 299.215ZM930.553 296.05L930.778 294.063L930.778 294.063L930.553 296.05ZM941.261 299.159L940.3 300.913L940.3 300.913L941.261 299.159ZM946.885 305.256L944.992 305.9L944.993 305.901L946.885 305.256ZM947.151 313.793L949.099 314.248L949.099 314.247L947.151 313.793ZM938.628 328.641L940.088 330.008L940.089 330.007L938.628 328.641ZM915.084 343.556L914.423 341.668L914.422 341.668L915.084 343.556ZM899.063 346.973L898.896 344.98L898.896 344.98L899.063 346.973ZM885.962 345.395L885.272 347.272L885.273 347.273L885.962 345.395ZM878.745 340.495L877.226 341.795L877.228 341.797L878.745 340.495ZM877.29 340.024L876.278 338.299L876.276 338.3L877.29 340.024ZM876.75 341.63L874.861 342.286L874.863 342.29L876.75 341.63ZM878.001 344.645L876.292 345.686L876.293 345.687L878.001 344.645ZM883.715 350.056L884.788 348.369L884.787 348.368L883.715 350.056ZM897.923 353.956L898.009 351.958L898.008 351.958L897.923 353.956ZM920.324 351.101L919.787 349.175L919.786 349.175L920.324 351.101ZM947.204 334.885L948.692 336.221L948.692 336.221L947.204 334.885ZM958.557 311.229L956.567 311.028L956.567 311.029L958.557 311.229ZM956.418 298.196L958.197 297.283L958.196 297.282L956.418 298.196ZM946.139 288.147L947.068 286.376L947.068 286.376L946.139 288.147ZM893.992 288.262L893.308 286.383L893.308 286.383L893.992 288.262ZM876.161 295.978L875.268 294.189L875.267 294.189L876.161 295.978ZM842.176 320.313L843.645 321.67L843.645 321.67L842.176 320.313ZM830.965 338.016L832.853 338.676L832.855 338.67L830.965 338.016ZM874.816 403.245L876.811 403.394L876.811 403.394L874.816 403.245ZM865.535 421.295L866.861 422.792L866.862 422.792L865.535 421.295ZM854.919 426.595L855.245 428.568L855.246 428.568L854.919 426.595ZM850.499 426.286L849.713 428.125L849.713 428.125L850.499 426.286ZM847.959 421.669L845.959 421.709L845.959 421.71L847.959 421.669ZM850.454 413.161L848.709 412.185L848.708 412.186L850.454 413.161ZM858.233 404.62L859.495 406.171L859.495 406.171L858.233 404.62ZM873.438 394.374L872.677 392.525L872.548 392.578L872.428 392.648L873.438 394.374ZM873.837 394.21L875.767 393.688L875.174 391.497L873.075 392.361L873.837 394.21ZM916.091 371.452L914.118 371.125L914.118 371.126L916.091 371.452ZM914.541 378.39L912.626 377.813L912.625 377.813L914.541 378.39ZM905.875 401.314L904.042 400.513L904.042 400.514L905.875 401.314ZM903.622 405.28L905.303 406.364L905.327 406.326L905.35 406.287L903.622 405.28ZM903.158 405.828L901.812 404.348L901.782 404.376L901.752 404.405L903.158 405.828ZM900.831 405.49L902.694 404.761L902.694 404.76L900.831 405.49ZM899.635 401.034L901.598 400.649L901.598 400.649L899.635 401.034ZM899.422 397.921L897.422 397.904L897.422 397.973L897.426 398.041L899.422 397.921ZM905.552 377.61L907.258 378.654L907.258 378.654L905.552 377.61ZM911.455 370.959L910.399 369.261L910.398 369.261L911.455 370.959ZM914.071 369.801L913.53 367.876L913.524 367.877L914.071 369.801ZM944.251 407.329L942.732 406.028L940.967 408.088L943.457 409.165L944.251 407.329ZM954.372 395.511L956.362 395.32L955.913 390.637L952.853 394.21L954.372 395.511ZM976.576 399.377L975.582 397.641L975.581 397.642L976.576 399.377ZM974.348 400.461L973.43 398.684L973.428 398.685L974.348 400.461ZM973.436 399.88L971.436 399.93L971.437 399.939L971.437 399.948L973.436 399.88ZM973.588 398.697L975.51 399.253L975.512 399.243L973.588 398.697ZM981.212 386.416L980.3 384.636L980.071 384.753L979.879 384.925L981.212 386.416ZM981.475 386.281L983.358 385.608L982.591 383.462L980.563 384.501L981.475 386.281ZM827 347.131C827 348.622 827.483 349.858 827.593 350.284L831.467 349.287C831.196 348.233 831 347.947 831 347.131H827ZM827.593 350.285C828.938 355.501 831.808 359.897 835.068 363.78L838.131 361.208C835.065 357.556 832.603 353.694 831.467 349.286L827.593 350.285ZM835.067 363.779C839.74 369.347 845.426 373.786 851.106 377.871L853.441 374.623C847.818 370.58 842.469 366.377 838.131 361.208L835.067 363.779ZM851.107 377.871C856 381.389 861.066 384.88 865.942 388.345L868.259 385.084C863.29 381.553 858.352 378.153 853.441 374.623L851.107 377.871ZM865.942 388.345C866.723 388.9 867.415 389.503 868.409 390.301L870.914 387.183C870.073 386.508 869.167 385.73 868.259 385.084L865.942 388.345ZM868.71 386.983C867.863 387.441 867.283 387.775 866.629 388.107L868.438 391.674C869.149 391.314 869.881 390.897 870.612 390.502L868.71 386.983ZM866.629 388.107C860.06 391.439 853.693 395.197 847.802 399.772L850.256 402.931C855.885 398.559 862.016 394.931 868.438 391.674L866.629 388.107ZM847.802 399.773C844.308 402.487 840.709 405.532 838.14 409.591L841.52 411.73C843.692 408.299 846.807 405.611 850.256 402.931L847.802 399.773ZM838.14 409.591C834.073 416.015 832.507 423.121 835.661 430.723L839.356 429.19C836.823 423.086 837.958 417.356 841.52 411.731L838.14 409.591ZM835.661 430.722C836.613 433.019 838.096 435.067 840.228 436.592L842.555 433.338C841.114 432.307 840.063 430.897 839.356 429.19L835.661 430.722ZM840.23 436.593C840.828 437.02 841.75 437.638 842.836 437.895L843.76 434.003C843.491 433.94 843.113 433.737 842.554 433.337L840.23 436.593ZM842.84 437.896C844.639 438.32 846.525 438.608 848.198 438.916L848.921 434.982C847.08 434.643 845.429 434.396 843.756 434.003L842.84 437.896ZM848.561 438.949L853.537 438.945L853.534 434.945L848.558 434.949L848.561 438.949ZM853.713 438.937C859.577 438.415 864.914 436.402 869.709 433.092L867.438 429.8C863.18 432.738 858.499 434.495 853.358 434.953L853.713 438.937ZM869.71 433.092C877.157 427.952 882.232 421.002 884.406 412.09L880.52 411.142C878.595 419.033 874.138 425.175 867.437 429.8L869.71 433.092ZM884.406 412.09C885.968 405.686 886.043 399.215 884.179 392.763L880.336 393.873C881.984 399.577 881.937 405.333 880.52 411.142L884.406 412.09ZM884.174 392.746C883.989 392.124 883.775 391.511 883.533 390.909L879.821 392.399C880.017 392.888 880.191 393.385 880.341 393.89L884.174 392.746ZM883.54 390.927C883.31 390.337 883.014 389.702 882.752 389.1L879.083 390.691C879.412 391.451 879.618 391.879 879.814 392.382L883.54 390.927ZM881.915 391.629L893.196 385.142L891.202 381.675L879.921 388.162L881.915 391.629ZM890.899 384.929L891.068 385.073L893.667 382.032L893.498 381.888L890.899 384.929ZM890.455 382.968C890.264 383.592 890.025 384.328 889.83 385.043L893.688 386.099C893.863 385.459 894.061 384.856 894.28 384.137L890.455 382.968ZM889.83 385.043C888.461 390.042 887.512 395.263 887.851 400.654L891.844 400.403C891.543 395.631 892.376 390.89 893.688 386.099L889.83 385.043ZM887.851 400.654C888.212 406.371 889.817 411.808 893.232 416.681L896.507 414.386C893.583 410.213 892.166 405.514 891.844 400.403L887.851 400.654ZM893.231 416.681C894.944 419.127 897.766 420.304 900.476 420.344C903.191 420.384 906.059 419.288 907.868 416.848L904.656 414.465C903.742 415.697 902.195 416.369 900.535 416.344C898.87 416.319 897.357 415.599 896.508 414.386L893.231 416.681ZM907.869 416.847C908.855 415.516 909.882 414.032 910.669 412.404L907.068 410.663C906.448 411.946 905.601 413.189 904.655 414.466L907.869 416.847ZM910.669 412.405C912.521 408.582 914.246 404.668 915.987 400.864L912.35 399.199C910.576 403.073 908.896 406.89 907.069 410.662L910.669 412.405ZM916.001 400.832L916.308 400.13L912.642 398.528L912.335 399.231L916.001 400.832ZM912.48 399.19C912.358 400.946 912.204 402.625 912.135 404.257L916.132 404.425C916.198 402.862 916.339 401.348 916.47 399.468L912.48 399.19ZM912.135 404.257C912.025 406.871 912.168 409.646 913.146 412.368L916.91 411.015C916.182 408.988 916.032 406.802 916.132 404.425L912.135 404.257ZM913.146 412.368C913.574 413.558 914.204 414.751 915.191 415.701C916.21 416.682 917.513 417.312 919.098 417.494L919.555 413.52C918.813 413.435 918.332 413.172 917.965 412.82C917.568 412.437 917.212 411.855 916.91 411.015L913.146 412.368ZM919.099 417.494C921.5 417.769 923.31 416.622 924.595 415.607L922.116 412.468C921.062 413.3 920.335 413.61 919.554 413.52L919.099 417.494ZM924.596 415.606C926.621 414.006 928.299 412.011 929.529 409.742L926.012 407.836C925.041 409.628 923.715 411.204 922.116 412.468L924.596 415.606ZM929.527 409.745C932.627 404.052 935.866 398.295 938.721 392.364L935.117 390.629C932.318 396.442 929.151 402.071 926.014 407.832L929.527 409.745ZM938.721 392.364C941.798 385.973 944.51 379.35 947.322 372.955L943.66 371.345C940.792 377.869 938.155 384.318 935.117 390.629L938.721 392.364ZM947.342 372.909L947.811 371.764L944.109 370.247L943.64 371.392L947.342 372.909ZM944.022 371.499C944.645 373.948 945.174 376.781 946.074 379.333L949.846 378.004C949.023 375.668 948.617 373.336 947.898 370.512L944.022 371.499ZM946.074 379.334C947.11 382.272 948.386 385.12 949.76 387.863L953.336 386.071C952.013 383.429 950.811 380.739 949.846 378.003L946.074 379.334ZM949.761 387.864C949.999 388.339 949.965 388.465 949.969 388.429C949.974 388.379 949.995 388.484 949.689 388.853L952.768 391.407C953.346 390.71 953.846 389.869 953.949 388.822C954.051 387.789 953.735 386.866 953.336 386.07L949.761 387.864ZM949.689 388.853C945.977 393.328 942.331 397.857 938.693 402.365L941.806 404.877C945.449 400.362 949.077 395.857 952.768 391.407L949.689 388.853ZM938.694 402.363C937.889 403.358 937.013 404.46 936.268 405.668L939.672 407.768C940.269 406.801 940.998 405.876 941.804 404.879L938.694 402.363ZM936.25 405.699C935.709 406.612 935.353 407.623 935.203 408.674L939.163 409.239C939.238 408.709 939.418 408.199 939.691 407.738L936.25 405.699ZM935.206 408.65C935.014 409.888 935.309 411.153 936.029 412.179L939.303 409.881C939.177 409.701 939.125 409.48 939.159 409.263L935.206 408.65ZM936.029 412.179C936.749 413.205 937.838 413.912 939.068 414.153L939.836 410.227C939.62 410.185 939.429 410.061 939.303 409.881L936.029 412.179ZM939.031 414.145C940.673 414.499 942.358 414.619 944.034 414.502L943.755 410.511C942.454 410.602 941.147 410.509 939.873 410.235L939.031 414.145ZM944.041 414.501C949.518 414.098 954.49 412.171 958.858 408.934L956.477 405.72C952.688 408.527 948.434 410.167 943.748 410.512L944.041 414.501ZM958.858 408.934C961.78 406.77 963.792 404.143 964.865 401.106C965.935 398.08 966.025 394.784 965.329 391.343L961.408 392.136C961.993 395.026 961.874 397.567 961.094 399.773C960.318 401.968 958.84 403.97 956.477 405.72L958.858 408.934ZM965.329 391.344C964.949 389.455 964.28 387.639 963.697 386.019L959.933 387.373C960.542 389.065 961.097 390.589 961.408 392.135L965.329 391.344ZM963.698 386.022C963.652 385.893 963.635 385.825 963.629 385.795C963.625 385.77 963.631 385.792 963.628 385.842C963.626 385.866 963.622 385.89 963.617 385.913C963.611 385.936 963.606 385.953 963.602 385.961C963.596 385.977 963.603 385.952 963.655 385.878L960.379 383.583C959.986 384.145 959.694 384.789 959.638 385.547C959.585 386.266 959.761 386.893 959.932 387.371L963.698 386.022ZM963.655 385.878C967.952 379.742 971.608 373.254 974.987 366.663L971.428 364.838C968.094 371.342 964.531 377.654 960.379 383.584L963.655 385.878ZM974.985 366.667C975.11 366.424 975.161 366.341 975.237 366.251L972.182 363.669C971.793 364.129 971.571 364.561 971.43 364.833L974.985 366.667ZM971.746 365.337C972.857 371.12 974.553 376.822 977.648 382.044L981.089 380.005C978.317 375.328 976.738 370.12 975.674 364.582L971.746 365.337ZM977.98 379.585C976.571 380.943 974.973 382.361 973.586 383.852L976.514 386.577C977.808 385.187 979.173 383.99 980.756 382.465L977.98 379.585ZM973.586 383.853C970.546 387.12 967.762 390.821 966.298 395.429L970.11 396.641C971.316 392.845 973.651 389.656 976.514 386.577L973.586 383.853ZM966.297 395.43C965.704 397.302 965.145 399.494 965.461 401.883L969.427 401.359C969.231 399.88 969.555 398.39 970.11 396.639L966.297 395.43ZM965.461 401.883C965.992 405.901 969.455 408.826 973.708 407.842L972.806 403.945C971.149 404.328 969.69 403.349 969.427 401.359L965.461 401.883ZM973.708 407.842C980.382 406.297 986.292 403.109 990.622 397.378L987.431 394.967C983.784 399.792 978.778 402.563 972.806 403.945L973.708 407.842ZM990.622 397.378C993.781 393.196 993.997 388.544 992.762 383.98L988.901 385.025C989.913 388.766 989.64 392.042 987.431 394.967L990.622 397.378ZM992.761 383.976C992.442 382.812 992.052 381.622 991.677 380.387L987.85 381.551C988.262 382.904 988.603 383.936 988.902 385.03L992.761 383.976ZM990.356 382.879C992.086 382.342 993.383 381.833 994.863 381.495L993.972 377.595C992.306 377.976 990.561 378.627 989.171 379.059L990.356 382.879ZM994.863 381.495C1002.69 379.71 1010.36 380.029 1017.84 382.829L1019.24 379.083C1010.97 375.983 1002.49 375.652 993.973 377.595L994.863 381.495ZM1017.84 382.828C1022.06 384.41 1025.32 386.987 1027.25 390.969L1030.85 389.222C1028.38 384.135 1024.21 380.947 1019.24 379.083L1017.84 382.828ZM1027.25 390.968C1028.42 393.378 1028.61 395.575 1028.08 397.472C1027.54 399.375 1026.21 401.201 1023.91 402.742L1026.14 406.065C1029.07 404.102 1031.09 401.545 1031.93 398.556C1032.77 395.562 1032.37 392.357 1030.85 389.223L1027.25 390.968ZM1023.91 402.742C1023.69 402.892 1023.59 402.937 1023.21 403.172C1022.92 403.353 1022.52 403.618 1022.15 403.99L1025 406.802C1025.03 406.766 1025.12 406.698 1025.33 406.567C1025.45 406.489 1025.87 406.242 1026.14 406.065L1023.91 402.742ZM1022.06 404.09C1021.75 404.45 1021.52 404.87 1021.38 405.325L1025.21 406.495C1025.18 406.572 1025.14 406.642 1025.09 406.703L1022.06 404.09ZM1021.38 405.325C1021.24 405.78 1021.2 406.259 1021.25 406.731L1025.23 406.26C1025.24 406.339 1025.23 406.419 1025.21 406.495L1021.38 405.325ZM1021.27 406.832C1021.4 407.581 1021.88 408.022 1022.03 408.159C1022.26 408.354 1022.49 408.493 1022.68 408.587C1023.01 408.752 1023.55 408.953 1024.14 408.946L1024.09 404.947C1024.27 404.945 1024.38 404.976 1024.4 404.981C1024.43 404.989 1024.45 404.998 1024.47 405.009C1024.48 405.015 1024.56 405.053 1024.66 405.144C1024.72 405.191 1024.81 405.281 1024.91 405.421C1025 405.554 1025.15 405.804 1025.21 406.159L1021.27 406.832ZM1024.13 408.946C1026.54 408.928 1028.4 407.652 1029.7 406.752L1027.42 403.463C1026.05 404.414 1025.13 404.939 1024.1 404.947L1024.13 408.946ZM1029.7 406.752C1033.37 404.216 1036.25 400.646 1036.87 395.818L1032.9 395.309C1032.47 398.694 1030.46 401.363 1027.42 403.463L1029.7 406.752ZM1036.78 396.199L1036.88 395.891L1033.09 394.62L1032.99 394.928L1036.78 396.199ZM1036.98 395.161L1036.86 392.487L1032.86 392.676L1032.99 395.35L1036.98 395.161ZM1036.76 391.955C1036.83 392.179 1036.85 392.378 1036.84 392.518C1036.84 392.586 1036.84 392.641 1036.83 392.678C1036.83 392.715 1036.82 392.74 1036.82 392.747C1036.82 392.75 1036.82 392.751 1036.82 392.747C1036.82 392.739 1036.82 392.739 1036.83 392.724C1036.83 392.704 1036.84 392.657 1036.85 392.602C1036.86 392.546 1036.87 392.461 1036.88 392.359C1036.89 392.257 1036.89 392.12 1036.88 391.962L1032.9 392.354C1032.87 392.111 1032.91 391.93 1032.91 391.901C1032.92 391.879 1032.92 391.866 1032.92 391.881C1032.91 391.887 1032.91 391.927 1032.9 391.964C1032.87 392.103 1032.77 392.613 1032.96 393.208L1036.76 391.955ZM1036.87 391.921C1036.08 385.294 1032.53 380.211 1027.57 376.329L1025.1 379.479C1029.43 382.868 1032.27 387.062 1032.9 392.394L1036.87 391.921ZM1027.57 376.329C1021.77 371.795 1014.97 369.977 1007.96 369.691L1007.8 373.688C1014.23 373.95 1020.14 375.597 1025.1 379.48L1027.57 376.329ZM1007.96 369.691C1002.25 369.445 996.549 370.324 991.175 372.276L992.541 376.035C997.422 374.262 1002.6 373.464 1007.79 373.688L1007.96 369.691ZM991.177 372.275C989.663 372.824 988.115 373.492 986.702 374.06L988.195 377.771C989.741 377.149 991.11 376.554 992.54 376.036L991.177 372.275ZM989.199 374.948C988.931 374.463 988.807 374.281 988.655 373.971L985.067 375.74C985.266 376.143 985.569 376.649 985.698 376.883L989.199 374.948ZM988.658 373.978C987.018 370.62 985.437 368.1 985.081 364.979L981.107 365.432C981.565 369.444 983.665 372.87 985.064 375.734L988.658 373.978ZM985.081 364.979C984.779 362.332 984.495 360.194 984.998 358.105L981.108 357.17C980.406 360.091 980.831 363.013 981.107 365.432L985.081 364.979ZM984.998 358.105C985.56 355.764 986.289 353.478 987.014 351.054L983.181 349.908C982.485 352.238 981.704 354.69 981.108 357.17L984.998 358.105ZM987.013 351.054C987.247 350.273 987.417 349.251 986.987 348.226C986.548 347.177 985.677 346.582 984.891 346.211L983.184 349.829C983.271 349.87 983.332 349.904 983.373 349.929C983.413 349.955 983.427 349.968 983.425 349.966C983.422 349.963 983.403 349.945 983.376 349.909C983.349 349.873 983.321 349.826 983.298 349.771C983.275 349.716 983.262 349.667 983.256 349.63C983.251 349.594 983.252 349.577 983.252 349.584C983.251 349.592 983.249 349.622 983.239 349.678C983.228 349.734 983.211 349.81 983.181 349.908L987.013 351.054ZM984.93 346.23C984.349 345.941 983.729 345.737 983.09 345.626L982.406 349.567C982.663 349.612 982.912 349.694 983.145 349.81L984.93 346.23ZM983.035 345.618C979.862 345.157 976.742 345.423 973.706 346.306L974.823 350.147C977.348 349.413 979.891 349.203 982.461 349.576L983.035 345.618ZM973.704 346.307C973.018 346.507 972.276 346.841 971.647 347.434C970.993 348.049 970.57 348.841 970.385 349.762L974.307 350.547C974.327 350.451 974.349 350.403 974.359 350.385C974.368 350.368 974.377 350.358 974.389 350.346C974.418 350.319 974.526 350.234 974.824 350.147L973.704 346.307ZM970.385 349.763C970.348 349.949 970.286 350.159 970.19 350.448C970.106 350.701 969.972 351.082 969.868 351.443L973.712 352.548C973.786 352.292 973.867 352.065 973.986 351.709C974.093 351.387 974.22 350.985 974.308 350.546L970.385 349.763ZM969.866 351.45C969.08 354.221 968.646 356.514 967.571 358.749L971.176 360.483C972.45 357.833 973.046 354.898 973.714 352.541L969.866 351.45ZM967.571 358.75C964.665 364.799 961.34 370.637 957.907 376.481L961.356 378.507C964.8 372.644 968.195 366.688 971.176 360.482L967.571 358.75ZM957.909 376.478C957.547 377.092 957.182 377.668 956.692 378.467L960.103 380.556C960.552 379.823 960.971 379.16 961.354 378.51L957.909 376.478ZM960.202 378.65C958.907 375.94 957.825 374.043 957.491 371.77L953.533 372.351C953.98 375.393 955.473 378.031 956.593 380.374L960.202 378.65ZM957.491 371.77C957.048 368.756 956.769 366.115 957.411 363.558L953.531 362.585C952.676 365.993 953.093 369.353 953.533 372.351L957.491 371.77ZM957.411 363.556C957.951 361.398 958.647 359.311 959.336 357.051L955.51 355.884C954.861 358.015 954.103 360.296 953.531 362.586L957.411 363.556ZM959.337 357.049C959.528 356.418 959.726 355.512 959.401 354.564C959.06 353.566 958.305 352.976 957.654 352.598L955.643 356.056C955.71 356.094 955.751 356.123 955.775 356.14C955.798 356.157 955.797 356.159 955.782 356.144C955.767 356.128 955.738 356.095 955.705 356.044C955.671 355.991 955.64 355.928 955.617 355.86C955.568 355.717 955.574 355.618 955.575 355.615C955.575 355.615 955.575 355.617 955.574 355.62C955.574 355.623 955.573 355.627 955.572 355.633C955.571 355.645 955.568 355.662 955.563 355.686C955.553 355.733 955.536 355.799 955.509 355.887L959.337 357.049ZM957.653 352.597C957.085 352.267 956.29 351.88 955.389 351.745L954.798 355.701C954.973 355.727 955.258 355.832 955.644 356.056L957.653 352.597ZM955.395 351.746C952.142 351.25 948.82 351.522 945.691 352.54L946.928 356.344C949.464 355.519 952.157 355.299 954.792 355.7L955.395 351.746ZM945.693 352.539C944.957 352.778 944.298 353.172 943.768 353.768C943.252 354.347 942.952 355.013 942.761 355.657L946.596 356.793C946.678 356.518 946.747 356.437 946.757 356.426C946.761 356.421 946.767 356.416 946.781 356.406C946.798 356.396 946.841 356.372 946.926 356.344L945.693 352.539ZM942.761 355.658C941.924 358.491 941.297 361.062 940.239 363.489L943.905 365.088C945.095 362.36 945.832 359.38 946.597 356.792L942.761 355.658ZM940.239 363.489C935.693 373.91 931.016 384.279 926.338 394.66L929.984 396.304C934.661 385.927 939.348 375.536 943.905 365.088L940.239 363.489ZM926.337 394.66C925.392 396.758 924.293 398.769 923.167 400.926L926.714 402.776C927.79 400.713 928.977 398.54 929.985 396.303L926.337 394.66ZM923.167 400.926C923.097 401.061 922.994 401.218 922.833 401.44C922.707 401.613 922.449 401.951 922.263 402.219L925.551 404.497C925.713 404.264 925.832 404.116 926.066 403.794C926.265 403.521 926.505 403.175 926.714 402.775L923.167 400.926ZM925.434 402.067C925.347 401.964 925.365 401.968 925.405 402.049C925.429 402.097 925.46 402.172 925.484 402.271C925.509 402.372 925.522 402.481 925.521 402.59L921.521 402.561C921.514 403.527 922.019 404.223 922.38 404.65L925.434 402.067ZM925.521 402.588C925.525 401.956 925.486 401.033 925.481 400.54C925.474 399.918 925.499 399.411 925.587 398.966L921.662 398.192C921.496 399.037 921.473 399.862 921.481 400.582C921.49 401.431 921.526 401.862 921.521 402.564L925.521 402.588ZM925.586 398.972C926.361 395.099 927.218 391.244 928.156 387.408L924.271 386.457C923.319 390.348 922.45 394.259 921.664 398.187L925.586 398.972ZM928.158 387.402C928.921 384.243 929.804 381.131 930.668 377.926L926.806 376.885C925.96 380.022 925.049 383.236 924.269 386.463L928.158 387.402ZM930.668 377.928C931.037 376.56 931.162 374.768 929.786 373.159L926.746 375.758C926.866 375.899 926.897 375.999 926.909 376.104C926.926 376.248 926.914 376.486 926.806 376.883L930.668 377.928ZM929.784 373.157C928.753 371.954 927.264 371.317 925.849 371.146C924.434 370.974 922.832 371.235 921.545 372.169L923.893 375.407C924.194 375.189 924.725 375.038 925.366 375.116C926.008 375.194 926.497 375.469 926.748 375.761L929.784 373.157ZM921.735 372.047L921.032 372.444L923.001 375.926L923.703 375.529L921.735 372.047ZM924.003 374.424L924.139 373.292L920.167 372.814L920.031 373.946L924.003 374.424ZM924.134 373.326C924.487 370.77 924.585 368.044 923.816 365.281L919.962 366.355C920.525 368.372 920.489 370.483 920.172 372.78L924.134 373.326ZM923.816 365.281C923.308 363.461 922.363 361.885 920.936 360.783C919.499 359.673 917.724 359.16 915.78 359.22L915.903 363.218C917.05 363.183 917.884 363.48 918.49 363.948C919.107 364.424 919.639 365.195 919.962 366.354L923.816 365.281ZM915.78 359.22C914.172 359.269 912.422 359.544 910.822 360.173L912.287 363.895C913.355 363.475 914.63 363.257 915.903 363.218L915.78 359.22ZM910.825 360.172C904.773 362.544 900.192 366.721 896.386 371.576L899.534 374.044C903.072 369.531 907.117 365.922 912.284 363.896L910.825 360.172ZM896.385 371.577C896.205 371.808 895.982 372.001 895.728 372.146L897.709 375.62C898.415 375.218 899.035 374.682 899.535 374.043L896.385 371.577ZM895.749 372.134C891.008 374.762 886.254 377.357 881.49 379.968L883.413 383.476C888.168 380.869 892.936 378.267 897.688 375.632L895.749 372.134ZM881.491 379.968L876.193 382.87L878.115 386.378L883.413 383.476L881.491 379.968ZM878.534 383.177C877.247 381.949 875.781 380.374 874.24 379.119L871.714 382.221C873.103 383.352 874.22 384.589 875.774 386.071L878.534 383.177ZM874.241 379.12C869.76 375.466 865.181 371.881 860.702 368.294L858.201 371.416C862.732 375.045 867.246 378.577 871.713 382.22L874.241 379.12ZM860.702 368.294C856.724 365.109 853.053 361.929 850.269 357.947L846.991 360.239C850.127 364.725 854.192 368.206 858.202 371.416L860.702 368.294ZM850.269 357.947C848.233 355.034 846.991 351.953 846.872 348.531L842.874 348.671C843.027 353.038 844.624 356.852 846.991 360.239L850.269 357.947ZM846.872 348.532C846.715 344.017 847.987 339.859 850.351 335.909L846.919 333.855C844.23 338.348 842.686 343.259 842.874 348.67L846.872 348.532ZM850.351 335.909C853.414 330.79 857.625 326.627 862.381 322.775L859.863 319.666C854.926 323.666 850.32 328.172 846.919 333.855L850.351 335.909ZM862.38 322.775C867.391 318.718 872.833 315.256 878.518 312.074L876.564 308.583C870.755 311.835 865.106 315.421 859.863 319.666L862.38 322.775ZM878.518 312.074C886.494 307.61 894.619 303.703 903.289 301.132L902.151 297.297C893.085 299.986 884.67 304.047 876.564 308.583L878.518 312.074ZM903.289 301.132C912.234 298.479 921.173 297.002 930.328 298.037L930.778 294.063C920.901 292.946 911.391 294.557 902.151 297.297L903.289 301.132ZM930.328 298.037C933.921 298.444 937.273 299.253 940.3 300.913L942.223 297.405C938.579 295.407 934.666 294.503 930.778 294.063L930.328 298.037ZM940.3 300.913C942.617 302.182 944.24 303.688 944.992 305.9L948.779 304.611C947.582 301.094 945.015 298.935 942.222 297.405L940.3 300.913ZM944.993 305.901C945.808 308.293 945.804 310.758 945.203 313.34L949.099 314.247C949.831 311.103 949.885 307.856 948.778 304.61L944.993 305.901ZM945.204 313.339C943.957 318.681 941.019 323.158 937.168 327.275L940.089 330.007C944.227 325.583 947.639 320.502 949.099 314.248L945.204 313.339ZM937.168 327.274C930.871 334.002 923.17 338.608 914.423 341.668L915.744 345.444C924.995 342.207 933.28 337.282 940.088 330.008L937.168 327.274ZM914.422 341.668C909.408 343.425 904.191 344.538 898.896 344.98L899.229 348.966C904.861 348.496 910.411 347.312 915.745 345.444L914.422 341.668ZM898.896 344.98C894.647 345.337 890.565 344.955 886.652 343.518L885.273 347.273C889.839 348.949 894.524 349.361 899.23 348.966L898.896 344.98ZM886.653 343.518C884.123 342.588 881.978 341.191 880.263 339.192L877.228 341.797C879.444 344.379 882.188 346.138 885.272 347.272L886.653 343.518ZM880.265 339.194C880.095 338.995 879.656 338.475 878.998 338.159C878.157 337.755 877.177 337.771 876.278 338.299L878.302 341.749C878.229 341.792 878.064 341.866 877.829 341.876C877.591 341.886 877.395 341.826 877.265 341.764C877.15 341.709 877.098 341.656 877.11 341.668C877.122 341.679 877.154 341.711 877.226 341.795L880.265 339.194ZM876.276 338.3C875.567 338.717 875.021 339.355 874.781 340.171C874.552 340.949 874.656 341.695 874.861 342.286L878.64 340.973C878.63 340.947 878.683 341.078 878.618 341.302C878.584 341.415 878.528 341.521 878.457 341.608C878.388 341.693 878.326 341.735 878.304 341.748L876.276 338.3ZM874.863 342.29C875.182 343.204 875.594 344.538 876.292 345.686L879.709 343.605C879.289 342.915 879.037 342.11 878.638 340.969L874.863 342.29ZM876.293 345.687C877.928 348.367 880.269 350.237 882.643 351.744L884.787 348.368C882.646 347.008 880.885 345.534 879.708 343.604L876.293 345.687ZM882.642 351.744C887.392 354.765 892.633 355.732 897.837 355.954L898.008 351.958C893.161 351.75 888.71 350.863 884.788 348.369L882.642 351.744ZM897.836 355.954C905.72 356.295 913.374 355.116 920.861 353.028L919.786 349.175C912.603 351.178 905.377 352.276 898.009 351.958L897.836 355.954ZM920.861 353.028C931.645 350.02 941.1 344.681 948.692 336.221L945.715 333.55C938.703 341.364 929.946 346.342 919.787 349.175L920.861 353.028ZM948.692 336.221C954.957 329.239 959.561 321.211 960.547 311.43L956.567 311.029C955.692 319.714 951.611 326.98 945.715 333.55L948.692 336.221ZM960.547 311.43C961.029 306.65 960.528 301.825 958.197 297.283L954.638 299.109C956.527 302.79 956.994 306.795 956.567 311.028L960.547 311.43ZM958.196 297.282C955.689 292.402 951.72 288.816 947.068 286.376L945.21 289.918C949.259 292.042 952.568 295.081 954.639 299.11L958.196 297.282ZM947.068 286.376C940.491 282.927 933.336 280.891 925.907 280.891V284.891C932.593 284.891 939.115 286.722 945.21 289.918L947.068 286.376ZM925.907 280.891H918.836V284.891H925.907V280.891ZM918.836 280.891C909.925 280.891 901.389 283.443 893.308 286.383L894.675 290.142C902.659 287.237 910.651 284.891 918.836 284.891V280.891ZM893.308 286.383C887.148 288.625 881.116 291.268 875.268 294.189L877.055 297.767C882.783 294.906 888.675 292.326 894.676 290.141L893.308 286.383ZM875.267 294.189C862.538 300.549 850.57 308.274 840.706 318.957L843.645 321.67C853.065 311.468 864.575 304.003 877.055 297.767L875.267 294.189ZM840.706 318.956C835.793 324.278 831.536 330.252 829.075 337.361L832.855 338.67C835.074 332.26 838.952 326.753 843.645 321.67L840.706 318.956ZM829.078 337.355C828.35 339.434 827.724 341.547 827.2 343.686L831.085 344.637C831.578 342.623 832.168 340.633 832.853 338.676L829.078 337.355ZM872.822 403.096C872.319 409.827 869.29 415.294 864.208 419.799L866.862 422.792C872.618 417.689 876.221 411.295 876.811 403.394L872.822 403.096ZM864.209 419.798C861.381 422.304 858.219 424.019 854.591 424.622L855.246 428.568C859.763 427.818 863.593 425.688 866.861 422.792L864.209 419.798ZM854.592 424.621C853.25 424.844 852.194 424.836 851.285 424.447L849.713 428.125C851.668 428.961 853.634 428.834 855.245 428.568L854.592 424.621ZM851.285 424.447C850.727 424.209 850.462 423.898 850.29 423.53C850.087 423.093 849.976 422.48 849.959 421.629L845.959 421.71C845.981 422.79 846.119 424.048 846.665 425.22C847.243 426.459 848.228 427.491 849.713 428.125L851.285 424.447ZM849.959 421.63C849.908 419.058 850.803 416.64 852.201 414.136L848.708 412.186C847.15 414.978 845.889 418.125 845.959 421.709L849.959 421.63ZM852.2 414.137C853.939 411.027 856.523 408.59 859.495 406.171L856.97 403.069C853.902 405.566 850.829 408.392 848.709 412.185L852.2 414.137ZM859.495 406.171C864.137 402.392 869.198 399.174 874.448 396.1L872.428 392.648C867.106 395.763 861.844 399.101 856.97 403.069L859.495 406.171ZM874.199 396.224L874.598 396.06L873.075 392.361L872.677 392.525L874.199 396.224ZM871.906 394.733C872.678 397.584 873.028 400.334 872.822 403.096L876.811 403.394C877.057 400.086 876.63 396.874 875.767 393.688L871.906 394.733ZM914.118 371.126C913.74 373.413 913.275 375.66 912.626 377.813L916.455 378.967C917.171 376.592 917.671 374.163 918.064 371.777L914.118 371.126ZM912.625 377.813C910.299 385.543 907.303 393.056 904.042 400.513L907.707 402.115C910.999 394.587 914.064 386.911 916.456 378.966L912.625 377.813ZM904.042 400.514C903.497 401.761 902.772 402.766 901.894 404.272L905.35 406.287C906.004 405.164 907.042 403.64 907.708 402.115L904.042 400.514ZM901.942 404.195C901.905 404.252 901.862 404.303 901.812 404.348L904.503 407.307C904.81 407.029 905.078 406.712 905.303 406.364L901.942 404.195ZM901.752 404.405C901.626 404.53 901.569 404.552 901.597 404.539C901.63 404.523 901.798 404.453 902.057 404.484C902.337 404.517 902.546 404.648 902.66 404.759C902.754 404.851 902.744 404.888 902.694 404.761L898.969 406.218C899.336 407.157 900.128 408.281 901.58 408.455C902.891 408.613 903.932 407.874 904.563 407.25L901.752 404.405ZM902.694 404.76C902.205 403.513 901.889 402.136 901.598 400.649L897.673 401.418C897.972 402.946 898.342 404.618 898.969 406.219L902.694 404.76ZM901.598 400.649C901.432 399.803 901.499 399.133 901.419 397.801L897.426 398.041C897.47 398.783 897.442 400.239 897.673 401.419L901.598 400.649ZM901.422 397.939C901.482 390.986 903.598 384.636 907.258 378.654L903.846 376.567C899.873 383.06 897.49 390.11 897.422 397.904L901.422 397.939ZM907.258 378.654C908.812 376.114 910.321 374.02 912.511 372.658L910.398 369.261C907.355 371.154 905.438 373.962 903.845 376.567L907.258 378.654ZM912.511 372.658C913.166 372.25 913.876 371.936 914.619 371.725L913.524 367.877C912.423 368.191 911.371 368.656 910.399 369.261L912.511 372.658ZM914.613 371.726C914.781 371.679 914.841 371.69 914.81 371.687C914.77 371.683 914.616 371.656 914.443 371.518C914.262 371.374 914.173 371.197 914.142 371.083C914.115 370.988 914.141 370.986 914.118 371.125L918.064 371.778C918.246 370.681 918.077 369.301 916.938 368.392C915.864 367.534 914.529 367.595 913.53 367.876L914.613 371.726ZM945.77 408.63L955.891 396.812L952.853 394.21L942.732 406.028L945.77 408.63ZM952.381 395.703C952.434 396.256 952.232 397.226 951.602 398.523C951 399.765 950.111 401.089 949.105 402.266C948.091 403.453 947.033 404.403 946.133 404.965C945.086 405.618 944.834 405.402 945.044 405.493L943.457 409.165C945.209 409.922 947.045 409.11 948.25 408.358C949.603 407.515 950.962 406.25 952.146 404.864C953.338 403.47 954.427 401.864 955.201 400.27C955.947 398.732 956.52 396.961 956.362 395.32L952.381 395.703ZM975.581 397.642C975.308 397.798 975.005 397.943 974.635 398.113C974.287 398.272 973.85 398.467 973.43 398.684L975.266 402.238C975.579 402.076 975.898 401.934 976.303 401.748C976.684 401.574 977.128 401.365 977.571 401.112L975.581 397.642ZM973.428 398.685C973.399 398.7 973.54 398.618 973.804 398.602C974.122 398.583 974.547 398.668 974.918 398.973C975.246 399.243 975.364 399.548 975.401 399.666C975.439 399.789 975.436 399.852 975.435 399.812L971.437 399.948C971.445 400.197 971.477 400.521 971.583 400.861C971.688 401.196 971.907 401.676 972.378 402.063C973.492 402.979 974.747 402.507 975.268 402.237L973.428 398.685ZM975.435 399.831C975.43 399.635 975.455 399.44 975.51 399.253L971.667 398.142C971.499 398.723 971.421 399.326 971.436 399.93L975.435 399.831ZM975.512 399.243C976.779 394.774 979.096 390.992 982.546 387.906L979.879 384.925C975.844 388.533 973.13 392.98 971.664 398.152L975.512 399.243ZM982.124 388.196L982.387 388.061L980.563 384.501L980.3 384.636L982.124 388.196ZM979.591 386.954C981.04 391.005 979.378 395.466 975.582 397.641L977.57 401.112C983.017 397.991 985.47 391.516 983.358 385.608L979.591 386.954Z" fill="white" mask="url(#path-2-outside-1_2_107)"/>
</g>
<path d="M289.547 330.305H329.086V333.422H293.156V357.047H326.953V360.164H293.156V386.086H329.578V389.203H289.547V330.305ZM332.695 330.305H336.961L355.664 356.227L374.531 330.305L400.453 297.492L357.797 359.016L379.781 389.203H375.352L355.5 361.641L335.484 389.203H331.219L353.367 359.016L332.695 330.305ZM381.422 333.422V330.305H426.539V333.422H405.703V389.203H402.094V333.422H381.422ZM240 330.305H244.43L307.102 423.492L281.18 389.203L243.773 334.734L243.609 389.203H240V330.305ZM426.211 385.102C427.031 385.102 427.523 384.609 427.523 383.789C427.523 382.969 427.031 382.477 426.211 382.477C425.391 382.477 424.898 382.969 424.898 383.789C424.898 384.609 425.555 385.102 426.211 385.102ZM429.82 381.656C429.82 383.789 431.461 385.266 433.758 385.266C436.219 385.266 437.695 383.789 437.695 381.164V372.141H435.727V381.164C435.727 382.641 435.07 383.297 433.758 383.297C432.609 383.297 431.789 382.641 431.789 381.492H429.82V381.656ZM440.156 381.492C440.32 383.789 442.125 385.266 445.078 385.266C448.031 385.266 450 383.789 450 381.328C450 379.359 448.852 378.375 446.391 377.719L444.914 377.391C443.273 377.062 442.617 376.406 442.617 375.586C442.617 374.437 443.602 373.617 445.242 373.617C446.719 373.617 447.703 374.273 447.867 375.586H449.836C449.672 373.453 447.867 371.977 445.242 371.977C442.453 371.977 440.648 373.453 440.648 375.75C440.648 377.555 441.633 378.703 443.93 379.195L445.57 379.523C447.211 379.852 448.031 380.508 448.031 381.492C448.031 382.641 446.883 383.461 445.242 383.461C443.602 383.461 442.289 382.641 442.125 381.492H440.156Z" fill="black"/>
<defs>
<clipPath id="clip0_2_107">
<rect width="210" height="210" fill="white" transform="translate(827 255)"/>
</clipPath>
</defs>
</svg>
