<svg width="47" height="33" viewBox="0 0 47 33" fill="none" xmlns="http://www.w3.org/2000/svg">
<path d="M23.0003 25.0596H0.793112C0.354918 25.0596 0 24.696 0 24.247V9.62105C0 9.17211 0.354918 8.80849 0.793112 8.80849H23.0003C23.4384 8.80849 23.7934 9.17211 23.7934 9.62105V24.247C23.7934 24.696 23.4384 25.0596 23.0003 25.0596Z" fill="url(#paint0_linear_424_295)"/>
<path opacity="0.3" d="M23.0003 25.0596H0.793112C0.354918 25.0596 0 24.696 0 24.247V9.62105C0 9.17211 0.354918 8.80849 0.793112 8.80849H23.0003C23.4384 8.80849 23.7934 9.17211 23.7934 9.62105V24.247C23.7934 24.696 23.4384 25.0596 23.0003 25.0596Z" fill="url(#paint1_linear_424_295)"/>
<path opacity="0.3" d="M23.0042 25.0596H0.797018C0.358824 25.0596 0.00390625 24.696 0.00390625 24.247V9.62105C0.00390625 9.17211 0.358824 8.80849 0.797018 8.80849H23.0042C23.4424 8.80849 23.7973 9.17211 23.7973 9.62105V24.247C23.7973 24.696 23.4404 25.0596 23.0042 25.0596Z" fill="url(#paint2_linear_424_295)"/>
<path d="M1.58618 10.4336H6.34486V11.2462H1.58618V10.4336Z" fill="#76FF03"/>
<path d="M16.2588 10.4336H19.4312V11.2462H16.2588V10.4336Z" fill="#76FF03"/>
<path d="M20.6208 10.4336H22.2071V11.2462H20.6208V10.4336Z" fill="#76FF03"/>
<path d="M3.17236 12.8713H4.75859V13.6838H3.17236V12.8713Z" fill="#76FF03"/>
<path d="M1.58618 15.3089H4.75863V16.1215H1.58618V15.3089Z" fill="#76FF03"/>
<path d="M1.58618 17.7466H3.17241V18.5591H1.58618V17.7466Z" fill="#76FF03"/>
<path d="M18.6382 17.7466H21.0175V18.5591H18.6382V17.7466Z" fill="#76FF03"/>
<path d="M19.8279 15.3089H22.2072V16.1215H19.8279V15.3089Z" fill="#76FF03"/>
<path d="M1.58618 20.1842H4.75863V20.9968H1.58618V20.1842Z" fill="#76FF03"/>
<path d="M18.2417 20.1842H22.2073V20.9968H18.2417V20.1842Z" fill="#76FF03"/>
<path d="M19.0347 12.8713H21.414V13.6838H19.0347V12.8713Z" fill="#76FF03"/>
<path d="M0.721768 32.3685H3.26568C3.48775 32.3502 3.66421 32.1288 3.66421 31.8566V31.7245C3.66421 30.9973 3.34499 30.3615 2.86714 30.008C2.86714 30.0385 2.86912 30.069 2.86912 30.0994C2.86912 30.9323 2.47653 31.6067 1.99471 31.6067C1.5129 31.6067 1.12031 30.9323 1.12031 30.0994C1.12031 30.069 1.12229 30.0385 1.12229 30.008C0.644439 30.3635 0.325212 30.9973 0.325212 31.7245V31.8566C0.323229 32.1308 0.499697 32.3502 0.721768 32.3685Z" fill="#26A69A"/>
<path d="M1.99252 31.6087C3.77703 31.6087 2.86693 30.9343 2.86693 30.1015C2.86693 30.071 2.86495 30.0405 2.86495 30.01C2.61115 29.8211 2.31175 29.7094 1.99252 29.7094C1.6733 29.7094 1.3739 29.8211 1.1201 30.01C1.11812 30.0405 1.11812 30.071 1.11812 30.1015C1.11613 30.9343 0.20009 31.6087 1.99252 31.6087Z" fill="#00796B"/>
<path d="M4.75658 28.8786C4.73477 28.3017 4.31442 27.1113 3.76519 27.0117C3.73148 27.0056 3.70174 26.9894 3.6839 26.9609C3.59665 26.8248 3.31708 26.4592 2.80552 26.7476C2.61518 26.8553 2.54776 26.9508 2.57949 27.0889C2.55569 27.1174 2.51207 27.1519 2.44862 27.1255C2.24241 26.8898 1.98862 26.8411 1.69318 27.0767C1.35809 27.3449 1.35809 27.5358 1.41758 27.7247L1.41559 27.7268C1.41559 27.7268 1.40172 27.8588 1.30456 27.8487C1.20344 27.7593 1.08249 27.7593 0.890158 27.9015C0.374635 28.2834 0.586793 28.645 0.674035 28.8583C0.662138 28.8786 0.642311 28.8928 0.610586 28.8908C0.543172 28.8542 0.457912 28.8542 0.342911 28.9212C0.0692869 29.0817 0.108943 29.6099 0.186271 29.7825C0.271531 29.9715 0.74145 30.6337 0.902055 30.8206C0.939728 30.8632 0.985332 30.8937 1.0349 30.914C1.02895 30.912 1.023 30.91 1.01904 30.9079C1.15982 30.9973 1.40568 31.105 1.6456 30.9526C1.6456 30.9526 1.79827 30.8389 1.81215 30.719C2.0719 30.8673 2.43078 30.591 2.43078 30.591C2.59932 30.459 2.64294 30.3107 2.63699 30.1827C2.72225 30.2355 2.81544 30.2558 2.90466 30.2579C3.17432 30.266 3.42217 30.1035 3.42217 30.1035C3.80881 29.878 3.88614 29.6424 3.88416 29.486C4.08442 29.6139 4.33227 29.5185 4.33227 29.5185C4.77046 29.3133 4.75658 28.8786 4.75658 28.8786Z" fill="url(#paint3_linear_424_295)"/>
<path d="M20.613 32.3685H23.1589C23.1589 32.3685 23.27 30.3798 20.153 30.2843C17.0361 30.1909 20.613 32.3685 20.613 32.3685Z" fill="#26A69A"/>
<path d="M18.9295 29.8618C18.9513 29.2848 19.3717 28.0945 19.9209 27.9949C19.9546 27.9888 19.9843 27.9726 20.0022 27.9441C20.0894 27.808 20.369 27.4424 20.8805 27.7308C21.0709 27.8385 21.1383 27.934 21.1066 28.0721C21.1304 28.1005 21.174 28.1351 21.2374 28.1087C21.4437 27.873 21.6975 27.8243 21.9929 28.0599C22.328 28.3281 22.328 28.519 22.2685 28.7079L22.2705 28.71C22.2705 28.71 22.2844 28.842 22.3815 28.8318C22.4826 28.7425 22.6036 28.7425 22.7959 28.8847C23.3114 29.2666 23.0993 29.6282 23.012 29.8414C23.0239 29.8618 23.0418 29.876 23.0755 29.8739C23.1429 29.8374 23.2282 29.8374 23.3432 29.9044C23.6168 30.0649 23.5771 30.5931 23.4998 30.7657C23.4145 30.9546 22.9466 31.6169 22.784 31.8038C22.7463 31.8464 22.7007 31.8769 22.6512 31.8972C22.6571 31.8952 22.6631 31.8931 22.667 31.8911C22.5263 31.9805 22.2804 32.0882 22.0405 31.9358C22.0405 31.9358 21.8878 31.822 21.8739 31.7022C21.6142 31.8505 21.2553 31.5742 21.2553 31.5742C21.0868 31.4422 21.0431 31.2939 21.0491 31.1659C20.9638 31.2187 20.8706 31.239 20.7814 31.2411C20.5118 31.2492 20.2639 31.0867 20.2639 31.0867C19.8773 30.8612 19.7999 30.6256 19.8019 30.4691C19.6017 30.5971 19.3538 30.5016 19.3538 30.5016C18.9156 30.2985 18.9295 29.8618 18.9295 29.8618Z" fill="url(#paint4_linear_424_295)"/>
<path d="M22.2548 31.8749C22.2211 31.8566 22.1894 31.8363 22.1596 31.8099C22.1557 31.8058 22.1497 31.8017 22.1457 31.7956C22.0902 31.7327 22.0744 31.6311 22.2191 31.428C22.6157 30.8896 22.7723 30.4874 22.7723 30.4874C22.8814 30.2051 22.8417 30.1583 22.8417 30.1583C22.804 30.0954 22.7267 30.2782 22.7267 30.2782C22.3341 31.0034 22.0645 31.3203 21.9475 31.4381C21.9415 31.4422 21.9356 31.4462 21.9296 31.4483C21.9078 31.4625 21.884 31.4767 21.8582 31.4869C21.8483 31.4909 21.8364 31.495 21.8265 31.4991C21.8047 31.5072 21.7809 31.5112 21.7571 31.5153C21.7452 31.5173 21.7333 31.5194 21.7194 31.5194C21.6937 31.5194 21.6679 31.5173 21.6401 31.5112C21.6282 31.5092 21.6163 31.5092 21.6044 31.5052C21.5648 31.493 21.5232 31.4787 21.4815 31.4523C21.4617 31.4402 21.4438 31.428 21.426 31.4137C21.4181 31.4056 21.4082 31.3975 21.4002 31.3894C21.3923 31.3812 21.3824 31.3731 21.3744 31.365C21.3645 31.3528 21.3546 31.3386 21.3447 31.3264C21.3407 31.3203 21.3348 31.3142 21.3308 31.3061C21.3209 31.2898 21.313 31.2736 21.305 31.2553C21.3031 31.2492 21.2991 31.2431 21.2971 31.237C21.2892 31.2187 21.2852 31.1984 21.2813 31.1781C21.2793 31.172 21.2773 31.1659 21.2753 31.1598C21.2713 31.1395 21.2713 31.1172 21.2694 31.0968C21.2694 31.0887 21.2674 31.0826 21.2674 31.0765C21.2674 31.0542 21.2713 31.0318 21.2753 31.0095C21.2773 31.0014 21.2773 30.9932 21.2793 30.9831C21.2832 30.9607 21.2932 30.9384 21.3011 30.914C21.305 30.9039 21.307 30.8937 21.311 30.8856C21.7631 30.2315 21.997 29.6607 21.997 29.6607C22.0724 29.5022 22.1001 29.3356 22.1001 29.3356C22.0506 29.2422 21.9713 29.3783 21.9713 29.3783C21.4557 30.3615 21.1504 30.7556 21.1504 30.7556C21.1504 30.7556 20.9105 31.1842 20.385 30.8632C20.385 30.8632 20.1253 30.6926 20.0817 30.5727C20.044 30.4732 20.0202 30.2965 20.1531 30.0446C20.1531 30.0446 20.4683 29.3844 20.9878 28.5536C20.9878 28.5536 21.0215 28.4235 20.9045 28.4967C20.8133 28.5536 20.7479 28.6714 20.7162 28.7079C20.7162 28.7079 20.4088 29.1284 19.9627 29.9674C19.9627 29.9674 19.8636 30.1604 19.7486 30.2559C19.6355 30.3046 19.4928 30.2863 19.3361 30.1665C18.9971 29.9065 19.124 29.5428 19.3124 29.1691C19.4155 28.9659 19.6514 28.5089 19.8755 28.1432C19.8973 28.1351 19.9191 28.127 19.9409 28.1229C20.0123 28.1107 20.0698 28.0721 20.1055 28.0152C20.2839 27.7369 20.1431 27.485 19.8933 27.873C19.2667 27.9827 18.8226 29.2381 18.8008 29.8577C18.8008 29.88 18.7909 30.3838 19.2985 30.6154C19.3143 30.6215 19.4987 30.6906 19.697 30.6438C19.7466 30.8125 19.8814 31.0095 20.1967 31.1944C20.2026 31.1984 20.4782 31.3711 20.7796 31.367C20.8351 31.365 20.8906 31.3589 20.9422 31.3447C20.9739 31.4503 21.0413 31.5661 21.1762 31.6717C21.192 31.6839 21.5013 31.9216 21.7988 31.8606C21.8563 31.9541 21.9395 32.0191 21.9613 32.0353C22.0526 32.0943 22.1497 32.1247 22.2489 32.1329H22.3381C22.465 32.1247 22.5978 32.08 22.7287 31.9968C22.7307 31.9968 22.7307 31.9947 22.7326 31.9947C23.04 31.7794 23.4821 30.8795 23.4821 30.7881C23.4841 30.7881 22.8159 31.9744 22.2548 31.8749Z" fill="#91674D"/>
<path d="M17.3176 17.4256H6.47976C5.3119 17.4256 4.3562 18.4698 4.3562 19.7434C4.3562 21.0191 5.3119 22.0612 6.47976 22.0612H17.3157C18.4835 22.0612 19.4392 21.0171 19.4392 19.7434C19.4412 18.4698 18.4855 17.4256 17.3176 17.4256Z" fill="#99674F"/>
<path d="M11.8985 9.4301C8.44844 9.4301 5.2522 13.2105 5.2522 18.6506C5.2522 24.0622 8.5456 26.7375 11.8985 26.7375C15.2514 26.7375 18.5448 24.0622 18.5448 18.6506C18.5448 13.2105 15.3485 9.4301 11.8985 9.4301Z" fill="#BA8D68"/>
<path d="M8.63889 20.1639C9.17875 20.1639 9.6164 19.7001 9.6164 19.1279C9.6164 18.5558 9.17875 18.0919 8.63889 18.0919C8.09902 18.0919 7.66138 18.5558 7.66138 19.1279C7.66138 19.7001 8.09902 20.1639 8.63889 20.1639Z" fill="#49362E"/>
<path d="M15.1584 20.1639C15.6983 20.1639 16.1359 19.7001 16.1359 19.1279C16.1359 18.5558 15.6983 18.0919 15.1584 18.0919C14.6186 18.0919 14.1809 18.5558 14.1809 19.1279C14.1809 19.7001 14.6186 20.1639 15.1584 20.1639Z" fill="#49362E"/>
<path d="M12.6639 21.007C12.6421 20.9988 12.6223 20.9927 12.6005 20.9907H11.1986C11.1768 20.9927 11.155 20.9988 11.1352 21.007C11.0083 21.0598 10.9389 21.1938 10.9984 21.3381C11.0579 21.4823 11.3374 21.8845 11.9005 21.8845C12.4636 21.8845 12.7432 21.4803 12.8027 21.3381C12.8602 21.1938 12.7908 21.0598 12.6639 21.007Z" fill="#99674F"/>
<path d="M7.14203 17.4805C7.73488 16.6212 9.08119 16.5399 9.85249 17.1798C9.97542 17.2814 10.138 17.4236 10.1856 17.582C10.2649 17.84 10.023 18.0411 9.78706 17.9802C9.63636 17.9416 9.49559 17.8583 9.34688 17.8116C9.07524 17.7242 8.87894 17.6999 8.63506 17.6999C8.27419 17.6978 8.04221 17.7446 7.69919 17.8867C7.55841 17.9457 7.44341 18.0391 7.2828 17.97C7.10039 17.8908 7.03099 17.6511 7.14203 17.4805Z" fill="#613E31"/>
<path d="M16.2747 17.968C16.2172 17.9416 16.1617 17.9091 16.1042 17.8847C15.7512 17.7344 15.551 17.6958 15.1683 17.6978C14.8312 17.6999 14.6309 17.7466 14.3672 17.838C14.2066 17.8949 14.0024 18.0371 13.824 17.9822C13.5622 17.901 13.5702 17.6084 13.7129 17.4216C13.8834 17.2022 14.1174 17.0356 14.3653 16.9259C14.9403 16.6699 15.6422 16.7065 16.1835 17.0376C16.3599 17.1453 16.5523 17.2936 16.6593 17.4805C16.816 17.7466 16.58 18.096 16.2747 17.968Z" fill="#613E31"/>
<path d="M4.84596 28.7648C4.82216 28.1452 4.37802 26.8898 3.75344 26.7802C3.5056 26.3922 3.36283 26.644 3.54129 26.9223C3.57698 26.9792 3.63646 27.0158 3.70586 27.03C3.72767 27.0341 3.74948 27.0422 3.77129 27.0503C3.99534 27.416 4.23129 27.8751 4.3344 28.0762C4.52276 28.4479 4.64768 28.8115 4.3106 29.0736C4.15396 29.1934 4.01319 29.2117 3.89819 29.163C3.78517 29.0675 3.68405 28.8745 3.68405 28.8745C3.23792 28.0355 2.93059 27.615 2.93059 27.615C2.89886 27.5785 2.83542 27.4627 2.74222 27.4038C2.62524 27.3307 2.65895 27.4607 2.65895 27.4607C3.17844 28.2895 3.4937 28.9517 3.4937 28.9517C3.62853 29.2036 3.60473 29.3803 3.56508 29.4799C3.52146 29.5997 3.26171 29.7703 3.26171 29.7703C2.73826 30.0913 2.49636 29.6627 2.49636 29.6627C2.49636 29.6627 2.18903 29.2686 1.67549 28.2854C1.67549 28.2854 1.59419 28.1493 1.54661 28.2427C1.54661 28.2427 1.57437 28.4093 1.64971 28.5678C1.64971 28.5678 1.88368 29.1366 2.33575 29.7927C2.33972 29.8029 2.3417 29.813 2.34567 29.8211C2.3536 29.8435 2.36153 29.8679 2.36748 29.8902C2.36946 29.8983 2.36946 29.9065 2.37144 29.9166C2.37541 29.939 2.37938 29.9613 2.37938 29.9836C2.37938 29.9918 2.37739 29.9979 2.37739 30.004C2.37739 30.0263 2.37541 30.0466 2.37144 30.0669C2.36946 30.073 2.36748 30.0791 2.36748 30.0852C2.36351 30.1055 2.35757 30.1258 2.34963 30.1441C2.34765 30.1502 2.34369 30.1563 2.3417 30.1624C2.33377 30.1787 2.32584 30.1969 2.31593 30.2132C2.31196 30.2193 2.30601 30.2254 2.30205 30.2335C2.29213 30.2477 2.28222 30.2599 2.27231 30.2721C2.26437 30.2802 2.25446 30.2884 2.24653 30.2965C2.2386 30.3046 2.23067 30.3127 2.22075 30.3209C2.20291 30.3351 2.18308 30.3493 2.16524 30.3595C2.12161 30.3838 2.07998 30.4021 2.0423 30.4123C2.03041 30.4163 2.01851 30.4163 2.00463 30.4184C1.97687 30.4224 1.9511 30.4265 1.92532 30.4265C1.91342 30.4265 1.89954 30.4245 1.88765 30.4224C1.86385 30.4184 1.84006 30.4143 1.81825 30.4062C1.80834 30.4021 1.79644 30.398 1.78652 30.394C1.76273 30.3838 1.73894 30.3696 1.71514 30.3554C1.7092 30.3513 1.70325 30.3493 1.6973 30.3452C1.58032 30.2274 1.31066 29.9105 0.918067 29.1853C0.918067 29.1853 0.840738 29.0025 0.803065 29.0655C0.803065 29.0655 0.76341 29.1142 0.872463 29.3945C0.872463 29.3945 1.0291 29.7968 1.42566 30.3351C1.5704 30.5382 1.55454 30.6398 1.49902 30.7028C1.49506 30.7068 1.48911 30.7109 1.48514 30.717C1.45738 30.7434 1.42368 30.7637 1.38997 30.782C0.828842 30.8815 0.160645 29.6932 0.160645 29.6932C0.160645 29.7866 0.602805 30.6865 0.910136 30.8998C0.912118 30.8998 0.912118 30.9018 0.914101 30.9018C1.04496 30.9851 1.17583 31.0298 1.30471 31.0379H1.39393C1.49506 31.0298 1.59221 30.9993 1.68144 30.9404C1.70325 30.9242 1.78652 30.8571 1.84403 30.7657C2.14144 30.8267 2.45274 30.589 2.46662 30.5768C2.60145 30.4712 2.66886 30.3554 2.70059 30.2498C2.75214 30.264 2.80567 30.2721 2.86317 30.2721C3.16456 30.2782 3.44016 30.1035 3.44611 30.0994C3.76137 29.9166 3.8962 29.7175 3.94577 29.5489C4.14405 29.5936 4.32845 29.5266 4.34431 29.5205C4.85587 29.2909 4.84596 28.7872 4.84596 28.7648Z" fill="#91674D"/>
<path d="M21.0175 32.3685V23.6721C21.0175 22.9449 20.4385 22.3517 19.7287 22.3517H4.06469C3.35485 22.3517 2.77588 22.9449 2.77588 23.6721V32.3705L21.0175 32.3685Z" fill="url(#paint5_linear_424_295)"/>
<path d="M14.8709 32.3685C14.75 31.9764 14.5913 31.5336 14.4565 31.0623C14.1849 30.1157 14.0719 28.5353 14.0243 27.4322C13.9945 26.7355 13.4314 26.185 12.7454 26.185H11.0501C10.3641 26.185 9.80095 26.7334 9.77121 27.4322C9.72362 28.5353 9.6106 30.1157 9.33896 31.0623C9.20413 31.5336 9.04749 31.9764 8.92456 32.3685H14.8709Z" fill="url(#paint6_linear_424_295)"/>
<path d="M11.8987 8C11.8968 8 11.8968 8 11.8948 8C11.8928 8 11.8928 8 11.8908 8C2.88304 8.04875 4.72901 18.5916 4.72901 18.5916C4.72901 18.5916 5.13349 19.6784 5.31789 20.1578C5.34367 20.2269 5.44281 20.2188 5.45867 20.1477C5.651 19.2661 6.34299 16.1398 6.69196 15.1891C6.89817 14.6284 7.46524 14.3034 8.03827 14.411C8.9206 14.5756 10.3284 14.7787 11.8789 14.7787H11.8948C11.8948 14.7787 11.9067 14.7787 11.9106 14.7787C13.4612 14.7787 14.8689 14.5756 15.7513 14.411C16.3263 14.3034 16.8934 14.6304 17.0976 15.1891C17.4446 16.1357 18.1326 19.2437 18.3269 20.1375C18.3428 20.2107 18.4419 20.2167 18.4677 20.1477L19.0586 18.5896C19.0625 18.5916 20.9085 8.04875 11.8987 8Z" fill="#543930"/>
<path d="M19.0626 18.5916C19.0626 18.5916 20.9085 8.04875 11.8988 8C11.8968 8 11.8968 8 11.8948 8C11.8928 8 11.8928 8 11.8909 8C11.7501 8 11.6133 8.00406 11.4784 8.01016C11.2108 8.02235 10.951 8.04266 10.7012 8.07313C10.6992 8.07313 10.6952 8.07313 10.6933 8.07313C10.6754 8.07516 10.6596 8.07922 10.6417 8.08126C3.05955 9.05835 4.72906 18.5916 4.72906 18.5916L5.31992 20.1517C5.3457 20.2208 5.44286 20.2147 5.45872 20.1416C5.65303 19.2498 6.34304 16.1377 6.69201 15.1911C6.89822 14.6304 7.46529 14.3054 8.03832 14.4131C8.92065 14.5776 10.3284 14.7808 11.879 14.7808H11.8948C11.8948 14.7808 11.9067 14.7808 11.9107 14.7808C13.4612 14.7808 14.869 14.5776 15.7513 14.4131C16.3263 14.3054 16.8934 14.6325 17.0976 15.1911C17.4466 16.1418 18.1386 19.2742 18.3289 20.1517C18.3448 20.2249 18.442 20.231 18.4677 20.1619C18.6561 19.6825 19.0626 18.5916 19.0626 18.5916Z" fill="url(#paint7_radial_424_295)"/>
<path d="M27.2933 24.3733H27.2667C22.44 24.3733 17.4533 25.36 15 27.6267V28.24V28.8V31.9733H40.3333H40.7333H41.1333V31.0667C41.1333 26.5867 34.12 24.3733 27.2933 24.3733Z" fill="url(#paint8_linear_424_295)"/>
<path d="M22.8617 24.6213C23.9443 24.848 24.851 30.5147 26.1363 31.9733H27.723C29.963 30.488 32.2297 24.6213 33.4643 24.0907C34.4217 23.688 35.0003 23.184 35.0003 22.656C35.0003 21.3227 31.5497 20.264 27.2937 20.264C23.0377 20.264 19.563 21.3467 19.563 22.656C19.563 23.488 20.8723 24.192 22.8617 24.6213Z" fill="#404042"/>
<path d="M27.0531 28.08C25.9864 28.08 25.1064 27.2267 25.1064 26.16V23.76H29.4264V26.16C29.4264 27.2267 28.5464 28.08 27.4798 28.08H27.0531Z" fill="#99674F"/>
<path d="M29.5064 32L30.093 26.9333H24.4397L25.1064 32H29.5064Z" fill="#BDBDBD"/>
<path d="M34.5464 12.3467H19.9864C18.4131 12.3467 17.1331 13.7067 17.1331 15.3867C17.1331 17.0667 18.4131 18.4267 19.9864 18.4267H34.5731C36.1197 18.4267 37.3997 17.0667 37.3997 15.3867C37.3997 13.7067 36.1197 12.3467 34.5464 12.3467Z" fill="#99674F"/>
<path d="M27.2666 1.84C22.6266 1.84 18.3333 6.8 18.3333 13.9467C18.3333 21.04 22.7599 24.56 27.2666 24.56C31.7733 24.56 36.1999 21.04 36.1999 13.9467C36.1999 6.8 31.9066 1.84 27.2666 1.84Z" fill="#BA8D68"/>
<path d="M23.0532 15.9467C23.7749 15.9467 24.3599 15.3378 24.3599 14.5867C24.3599 13.8356 23.7749 13.2267 23.0532 13.2267C22.3316 13.2267 21.7466 13.8356 21.7466 14.5867C21.7466 15.3378 22.3316 15.9467 23.0532 15.9467Z" fill="#49362E"/>
<path d="M31.4796 16.5867C32.3633 16.5867 33.0796 15.8464 33.0796 14.9333C33.0796 14.0202 32.3633 13.28 31.4796 13.28C30.596 13.28 29.8796 14.0202 29.8796 14.9333C29.8796 15.8464 30.596 16.5867 31.4796 16.5867Z" fill="#49362E"/>
<path d="M28.3065 17.04C28.2798 17.04 28.2532 17.0133 28.2265 17.0133H26.3332C26.3065 17.0133 26.2798 17.0133 26.2532 17.04C26.0932 17.12 25.9865 17.28 26.0665 17.4667C26.1465 17.6533 26.5198 18.1867 27.2665 18.1867C28.0132 18.1867 28.3865 17.6533 28.4665 17.4667C28.5732 17.28 28.4665 17.12 28.3065 17.04Z" fill="#99674F"/>
<path d="M29.533 19.2C28.6797 19.7067 25.9063 19.7067 25.053 19.2C24.573 18.9067 24.0663 19.36 24.2797 19.7867C24.493 20.2133 26.013 21.2267 27.3197 21.2267C28.6263 21.2267 30.1197 20.2133 30.333 19.7867C30.5197 19.36 30.0397 18.9067 29.533 19.2Z" fill="#5D4037"/>
<path d="M34.0662 12.3733C33.7729 11.9733 33.0795 11.4133 31.7462 11.4133C30.4129 11.4133 29.7195 11.9733 29.4262 12.3733C29.2929 12.56 29.3195 12.7467 29.4262 12.88C29.5062 12.9867 29.7462 13.0933 30.0395 13.0133C30.3329 12.9333 30.8395 12.64 31.7462 12.64C32.6529 12.64 33.1862 12.9333 33.4529 13.0133C33.7195 13.0933 33.9862 13.0133 34.0662 12.88C34.1462 12.7467 34.1995 12.5333 34.0662 12.3733Z" fill="#613E31"/>
<path d="M25.0508 12.416C25.0508 12.4133 24.4481 11.4667 23.0534 11.4667C21.6588 11.4667 21.0561 12.4133 21.0561 12.4133L21.0588 12.416C21.0108 12.4853 20.9788 12.568 20.9788 12.656C20.9788 12.8853 21.1628 13.0693 21.3921 13.0693C21.4401 13.0693 21.5548 13.0347 21.5654 13.0293C22.4001 12.6853 23.0561 12.6827 23.0561 12.6827C23.0561 12.6827 23.7068 12.6853 24.5414 13.0293C24.5521 13.0347 24.6668 13.0693 24.7148 13.0693C24.9441 13.0693 25.1281 12.8853 25.1281 12.656C25.1281 12.5653 25.0988 12.4827 25.0508 12.416Z" fill="#613E31"/>
<path d="M27.2826 1.46401C27.2799 1.46401 27.2799 1.46401 27.2799 1.46401H27.2772C21.7252 1.15201 19.4746 3.51201 18.4746 6.63201C17.4479 9.78668 17.7626 13.832 17.7866 13.6347C17.7866 13.6373 18.2292 15.1893 18.4372 15.8613C18.4666 15.96 18.5999 15.9493 18.6266 15.8453C18.9546 14.5867 20.0666 10.4533 20.5652 9.30668C20.8559 8.62668 21.5919 8.30668 22.3226 8.49868C23.4452 8.79734 25.2532 9.14401 27.2586 9.14134H27.2799C27.2799 9.14134 27.2932 9.14134 27.3012 9.14134C29.3066 9.14401 31.1146 8.79468 32.2399 8.49868C32.9706 8.30668 33.7066 8.62668 33.9972 9.30668C34.4959 10.448 35.5999 14.5573 35.9306 15.832C35.9572 15.936 36.0906 15.9467 36.1199 15.8453C36.3412 15.112 36.5626 14.3733 36.7759 13.632C36.7999 13.8293 37.1146 9.78401 36.0879 6.62934C35.0852 3.51201 32.8346 1.15201 27.2826 1.46401Z" fill="#543930"/>
<path d="M36.7763 13.6347C36.8003 13.832 37.115 9.78668 36.0883 6.63201C35.0856 3.51201 32.835 1.15201 27.2856 1.46401C27.283 1.46401 27.283 1.46401 27.283 1.46401C27.2803 1.46401 27.2803 1.46401 27.2803 1.46401C27.107 1.46401 26.939 1.46668 26.771 1.46934C26.4403 1.47468 26.1203 1.48801 25.8136 1.50401C25.811 1.50401 25.8083 1.50401 25.8056 1.50401C25.7843 1.50668 25.763 1.50668 25.7416 1.50934C16.483 1.18401 17.8296 13.4933 17.7843 13.6347C18.0003 14.3787 18.219 15.1173 18.4403 15.8507C18.4696 15.9493 18.6003 15.9387 18.627 15.8373C18.9576 14.5653 20.0643 10.4507 20.563 9.30934C20.8536 8.62934 21.5896 8.30934 22.3203 8.50134C23.443 8.80001 25.251 9.14668 27.2563 9.14401H27.2776C27.2776 9.14401 27.291 9.14401 27.299 9.14401C29.3043 9.14668 31.1123 8.79734 32.235 8.50134C32.963 8.30934 33.7016 8.62934 33.9923 9.30934C34.4936 10.456 35.6056 14.5973 35.9283 15.8507C35.955 15.952 36.0856 15.9627 36.115 15.8667C36.331 15.1947 36.7763 13.6373 36.7763 13.6347Z" fill="url(#paint9_radial_424_295)"/>
<mask id="mask0_424_295" style="mask-type:luminance" maskUnits="userSpaceOnUse" x="15" y="0" width="32" height="32">
<path d="M15 0H47V32H15V0Z" fill="white"/>
</mask>
<g mask="url(#mask0_424_295)">
<path d="M45.1068 32L44.5468 28.9067L41.9068 28.24C41.0268 28.0267 40.1734 28.5867 40.0401 29.4933C40.0401 29.4933 39.8268 30.2667 39.4268 32H45.1068Z" fill="#616161"/>
</g>
<mask id="mask1_424_295" style="mask-type:luminance" maskUnits="userSpaceOnUse" x="15" y="0" width="32" height="32">
<path d="M15 0H47V32H15V0Z" fill="white"/>
</mask>
<g mask="url(#mask1_424_295)">
<path d="M42.3332 31.5733C43.6145 31.5733 44.6532 30.6182 44.6532 29.44C44.6532 28.2618 43.6145 27.3067 42.3332 27.3067C41.0519 27.3067 40.0132 28.2618 40.0132 29.44C40.0132 30.6182 41.0519 31.5733 42.3332 31.5733Z" fill="#404042"/>
</g>
<mask id="mask2_424_295" style="mask-type:luminance" maskUnits="userSpaceOnUse" x="15" y="0" width="32" height="32">
<path d="M15 0H47V32H15V0Z" fill="white"/>
</mask>
<g mask="url(#mask2_424_295)">
<path d="M20.4801 24.9227L20.4001 24.8827C20.2427 24.8053 17.1094 24.5493 15.3841 26.632C15.1521 26.9093 15.1281 27.2507 15.3307 27.5333L16.1574 28.52C16.3467 28.7467 16.6081 28.9227 16.8534 28.9227C16.9494 28.9227 17.0454 28.896 17.1307 28.8347C19.3094 27.2907 20.5547 27.2187 21.2161 27.432L21.8161 27.624L20.4801 24.9227Z" fill="#808080"/>
<path d="M16.9466 27.7867C17.3442 27.7867 17.6666 27.4643 17.6666 27.0667C17.6666 26.669 17.3442 26.3467 16.9466 26.3467C16.5489 26.3467 16.2266 26.669 16.2266 27.0667C16.2266 27.4643 16.5489 27.7867 16.9466 27.7867Z" fill="#757575" stroke="#9E9E9E" stroke-width="0.0835961" stroke-miterlimit="10"/>
<path d="M17.1864 27.2533C17.2747 27.2533 17.3464 27.1817 17.3464 27.0933C17.3464 27.005 17.2747 26.9333 17.1864 26.9333C17.098 26.9333 17.0264 27.005 17.0264 27.0933C17.0264 27.1817 17.098 27.2533 17.1864 27.2533Z" fill="#424242"/>
<path d="M16.7066 27.1733C16.795 27.1733 16.8666 27.1017 16.8666 27.0133C16.8666 26.925 16.795 26.8533 16.7066 26.8533C16.6183 26.8533 16.5466 26.925 16.5466 27.0133C16.5466 27.1017 16.6183 27.1733 16.7066 27.1733Z" fill="#424242"/>
</g>
<mask id="mask3_424_295" style="mask-type:luminance" maskUnits="userSpaceOnUse" x="15" y="0" width="32" height="32">
<path d="M15 0H47V32H15V0Z" fill="white"/>
</mask>
<g mask="url(#mask3_424_295)">
<path d="M38.6454 26.6293C36.8934 24.5493 33.7814 24.8027 33.6267 24.8827L33.5467 24.9227L32.2161 27.6213L32.8161 27.4293C33.4774 27.216 34.7227 27.288 36.8827 28.8213C36.9681 28.8933 37.0641 28.9227 37.1627 28.9227C37.4294 28.9227 37.7147 28.7067 37.8694 28.5227L38.7094 27.52C38.9014 27.248 38.8774 26.9067 38.6454 26.6293Z" fill="#808080"/>
<path d="M37.0535 27.7867C37.4511 27.7867 37.7735 27.4643 37.7735 27.0667C37.7735 26.669 37.4511 26.3467 37.0535 26.3467C36.6559 26.3467 36.3335 26.669 36.3335 27.0667C36.3335 27.4643 36.6559 27.7867 37.0535 27.7867Z" fill="#757575" stroke="#9E9E9E" stroke-width="0.0835961" stroke-miterlimit="10"/>
<path d="M36.8136 27.2533C36.9019 27.2533 36.9736 27.1817 36.9736 27.0933C36.9736 27.005 36.9019 26.9333 36.8136 26.9333C36.7252 26.9333 36.6536 27.005 36.6536 27.0933C36.6536 27.1817 36.7252 27.2533 36.8136 27.2533Z" fill="#424242"/>
<path d="M37.3199 27.1733C37.4083 27.1733 37.4799 27.1017 37.4799 27.0133C37.4799 26.925 37.4083 26.8533 37.3199 26.8533C37.2315 26.8533 37.1599 26.925 37.1599 27.0133C37.1599 27.1017 37.2315 27.1733 37.3199 27.1733Z" fill="#424242"/>
</g>
<mask id="mask4_424_295" style="mask-type:luminance" maskUnits="userSpaceOnUse" x="15" y="0" width="32" height="32">
<path d="M15 0H47V32H15V0Z" fill="white"/>
</mask>
<g mask="url(#mask4_424_295)">
<path d="M26.3602 32L25.5069 24.6667C25.4535 24.4533 25.2935 24.2933 25.1069 24.2933C24.8935 24.32 24.6802 24.32 24.4935 24.32C22.4135 24.32 20.5469 23.4667 19.6135 22.9333L22.6535 32H26.3602Z" fill="url(#paint10_linear_424_295)"/>
<path d="M31.9067 32L34.9467 22.9333C34.0134 23.4667 32.1201 24.32 30.1467 24.32C29.9067 24.32 29.6667 24.32 29.4534 24.2667H29.4267C29.2667 24.2667 29.1067 24.4267 29.0534 24.64L28.1467 32H31.9067Z" fill="url(#paint11_linear_424_295)"/>
</g>
<path d="M36.2 6.06933C35 5.76533 33.2933 5.51466 31.6667 5.34933C30.3067 5.21066 28.8133 5.48799 27.2667 5.48799C25.72 5.48799 24.2267 5.21066 22.8667 5.34933C21.24 5.48799 19.2133 6.06933 18.0133 6.37333C15.9333 6.90133 15 7.45333 15 8.22933C15 9.00533 16.0933 9.36533 18.2 9.89066C19.4 10.1947 20.3333 10.888 22.44 11.136C23.8 11.3013 26.0667 10.8027 27.5867 10.8027C29.1333 10.8027 31.16 11.3013 32.52 11.1627C34.1467 11.024 35.1067 10.36 36.3067 10.056C38.4133 9.53066 39.5067 8.97599 39.5067 8.19999C39.5067 7.42666 38.3067 6.59466 36.2 6.06933Z" fill="url(#paint12_radial_424_295)"/>
<path d="M31.1599 0.117331C30.4132 -0.0773352 29.1866 0.00799814 28.4399 0.117331C26.5466 0.450665 26.8132 0.255998 25.0266 0.0906648C24.3066 0.00799816 23.3466 -0.0480018 22.6532 0.173331C19.9866 1.00533 19.6666 3.35733 17.9866 6.95733C18.0132 10.2533 36.6532 10.224 36.6266 6.95733C34.9999 3.52266 33.9332 0.863998 31.1599 0.117331Z" fill="url(#paint13_radial_424_295)"/>
<path opacity="0.2" d="M24.2802 1.69332C25.1336 2.30132 26.1736 2.60799 27.2136 2.46932C28.1469 2.35999 29.0536 1.99732 29.9069 1.58399C30.0402 1.50132 30.2002 1.66666 30.1469 1.83466C30.0136 2.19466 28.6802 3.55199 27.1069 3.55199C25.6402 3.55199 24.6536 2.91466 24.1469 1.99999C24.0402 1.86132 24.0936 1.55732 24.2802 1.69332Z" fill="#EEEEEE"/>
<path d="M35.8265 5.18401C32.7332 7.01067 21.8798 7.01067 18.8132 5.15734C18.5465 5.73867 18.2799 6.34934 18.0132 6.95734C18.0399 10.2533 36.6798 10.224 36.6532 6.95734C36.3598 6.37334 36.0932 5.76534 35.8265 5.18401Z" fill="#404042"/>
<path opacity="0.6" d="M38.0133 10.5067C39.96 12.96 39.56 16.56 37.1333 18.5333C34.7067 20.5067 31.1067 20.08 29.1333 17.6267C27.16 15.1733 27.5867 11.5733 30.04 9.60001C32.4933 7.62668 36.04 8.05334 38.0133 10.5067Z" fill="url(#paint14_radial_424_295)"/>
<path d="M40.9097 21.808L39.3951 23.0133L36.0244 18.8053L37.5391 17.6L40.9097 21.808Z" fill="#C7C7C7"/>
<path d="M38.5998 9.94667C36.3598 7.12001 32.2798 6.66667 29.4798 8.93334C26.6798 11.2 26.2264 15.3067 28.4664 18.1067C30.7064 20.9067 34.7864 21.3867 37.5864 19.12C40.3864 16.8533 40.8398 12.7467 38.5998 9.94667ZM36.6371 17.912C34.4931 19.6267 31.3624 19.2987 29.6478 17.1307C27.9331 14.9627 28.2851 11.832 30.4291 10.0907C32.5731 8.34934 35.7038 8.70401 37.4184 10.872C39.1358 13.04 38.7811 16.1947 36.6371 17.912Z" fill="url(#paint15_radial_424_295)"/>
<path d="M44.093 25.76L43.9863 25.6267C43.8797 24.72 43.3463 23.52 42.4397 22.3733C41.6397 21.36 40.733 20.6133 39.933 20.2667C39.7197 20.16 39.533 20 39.373 19.8133L39.1597 19.5467L37.5063 20.88L37.7197 21.1467C37.8797 21.3333 37.9863 21.5467 38.0397 21.7867C38.1997 22.6667 38.733 23.7333 39.533 24.72C40.4397 25.8667 41.4797 26.6667 42.333 26.96L42.4397 27.0933C42.5463 27.2267 42.7063 27.3067 42.893 27.3067C43.0263 27.3067 43.133 27.2533 43.2397 27.1733L43.4797 26.9867C43.533 26.96 43.5863 26.9333 43.6397 26.88C43.693 26.8533 43.7197 26.8 43.773 26.7467L44.013 26.56C44.253 26.3733 44.3063 26 44.093 25.76Z" fill="url(#paint16_radial_424_295)"/>
<path d="M39.6937 20.3733L38.1471 21.6C37.9604 21.7333 37.7204 21.7067 37.5871 21.5467L37.4804 21.3867C37.3471 21.2 37.3737 20.96 37.5337 20.8267L39.0804 19.5733C39.2671 19.44 39.5071 19.4667 39.6404 19.6267L39.7471 19.7867C39.9071 19.9733 39.8804 20.2133 39.6937 20.3733Z" fill="#ABABAB"/>
<path d="M41.0081 24.9653C40.7895 25.1973 40.5921 25.448 40.4428 25.728C40.2268 26.128 38.2935 26.8747 39.3601 28.472C39.6721 28.9013 40.6455 30.256 41.4988 30.632C43.2828 31.4187 45.8215 28.944 46.0588 28.8133C47.5521 28 43.6748 24.1707 42.5015 24.2C42.3601 24.2107 42.1495 24.2507 41.9601 24.28C41.5948 24.344 41.2375 24.7253 41.0081 24.9653Z" fill="url(#paint17_radial_424_295)"/>
<path d="M45.9068 27.4907L44.3761 28.6107C44.1761 28.7493 44.1148 29.0027 44.2215 29.2053C44.3335 29.4293 44.6188 29.504 44.8534 29.3867L46.5121 28.4693C46.7815 28.328 46.8881 27.9973 46.7361 27.7467L46.6588 27.6187C46.4988 27.3627 46.1548 27.304 45.9068 27.4907Z" fill="url(#paint18_radial_424_295)"/>
<path d="M40.1603 29.496C40.1603 29.496 40.6243 29.4747 41.2323 29.304C43.0723 28.7813 41.9229 26.9227 41.7496 26.6293C40.8669 25.1253 42.3203 24.4987 43.2963 23.6427C43.4989 23.464 44.1443 22.792 43.9736 22.1573C43.5656 21.1947 42.7523 21.8373 40.9336 23.0613C40.4376 23.3947 39.9736 23.7627 39.5549 24.1893C37.5549 26.2133 39.2963 28.5227 40.1603 29.496Z" fill="url(#paint19_radial_424_295)"/>
<path d="M44.5041 24.688L42.4881 26.52C42.2161 26.7627 42.3788 26.9867 42.5734 27.272C42.7814 27.5867 43.0108 27.816 43.3414 27.5947L45.5841 26.04C45.9628 25.7787 46.0614 25.264 45.7894 24.9173L45.6508 24.7413C45.3681 24.3893 44.8454 24.3627 44.5041 24.688Z" fill="url(#paint20_radial_424_295)"/>
<path d="M43.5015 23.44L41.8508 25.1147C41.6028 25.36 41.5761 25.736 41.7761 26C41.9895 26.2907 42.4161 26.328 42.7201 26.1013L44.6028 24.6827C44.9521 24.416 45.0215 23.9173 44.7441 23.5973L44.6028 23.4347C44.3148 23.112 43.8108 23.112 43.5015 23.44Z" fill="url(#paint21_radial_424_295)"/>
<path d="M45.3063 26.144L43.6717 27.544C43.4237 27.7467 43.3703 28.088 43.533 28.344C43.7037 28.6267 44.0877 28.696 44.3837 28.512L46.2103 27.3627C46.5517 27.1467 46.6557 26.6987 46.4263 26.384L46.3117 26.224C46.0743 25.912 45.6157 25.872 45.3063 26.144Z" fill="url(#paint22_radial_424_295)"/>
<path d="M45.6295 26.0027C45.4695 25.744 43.7255 27.4693 43.3361 27.4533C42.8908 27.4347 42.5841 26.9707 42.8001 26.5653C43.0455 26.1093 44.8215 24.6427 44.7415 24.5413C44.5921 24.352 42.6401 26.7387 41.9708 25.8933C41.5548 25.3707 42.1175 24.944 42.4428 24.5867C42.6348 24.376 43.5628 23.5467 43.5095 23.4773C43.4562 23.4107 43.2321 23.616 43.2028 23.6347C43.0108 23.7547 41.9308 24.7227 41.6775 25.032C41.2588 25.544 41.3548 25.9253 41.5148 26.1547C41.7015 26.424 41.8961 26.8213 42.0028 27.1307C42.2268 27.7893 41.9601 28.7653 41.9948 28.8507C42.0321 28.9413 42.2935 28.4 42.3441 27.9147C42.3735 27.6293 42.6508 27.5413 42.8748 27.7227C43.0108 27.8347 43.1308 27.9413 43.1735 28C43.2641 28.1227 43.8028 28.84 43.9495 29.1147C44.0055 29.2213 44.0561 29.3013 44.1655 29.384C44.2455 29.4453 44.3361 29.4907 44.4348 29.5173C44.8721 29.6373 45.2801 29.3627 45.6108 29.1333C45.8081 28.9947 46.6401 28.4933 46.7388 28.2533C46.3095 28.5733 44.8428 29.7573 44.4588 29.128C44.2508 28.7707 44.6188 28.6347 44.8535 28.4853C45.1201 28.3173 45.5921 27.9653 45.8215 27.7493C45.8855 27.688 46.2561 27.416 46.2161 27.3627C46.1548 27.2853 45.3815 27.8613 45.2935 27.9253C44.9761 28.152 44.3628 28.7013 43.9388 28.4427C43.7841 28.3467 43.6748 28.1653 43.6748 27.9813C43.6748 27.5387 45.7121 26.136 45.6295 26.0027Z" fill="#91674D"/>
<defs>
<linearGradient id="paint0_linear_424_295" x1="11.8975" y1="8.91173" x2="11.8975" y2="25.074" gradientUnits="userSpaceOnUse">
<stop offset="0.0032" stop-color="#424242"/>
<stop offset="0.2705" stop-color="#353535"/>
<stop offset="0.7639" stop-color="#131313"/>
<stop offset="1"/>
</linearGradient>
<linearGradient id="paint1_linear_424_295" x1="11.8975" y1="8.91173" x2="11.8975" y2="25.074" gradientUnits="userSpaceOnUse">
<stop offset="0.0012" stop-color="#BFBEBE"/>
<stop offset="0.15" stop-color="#212121" stop-opacity="0"/>
<stop offset="0.7759" stop-color="#212121" stop-opacity="0"/>
<stop offset="1" stop-color="#BFBEBE"/>
</linearGradient>
<linearGradient id="paint2_linear_424_295" x1="0.154717" y1="16.9336" x2="23.8181" y2="16.9336" gradientUnits="userSpaceOnUse">
<stop offset="0.0012" stop-color="#BFBEBE"/>
<stop offset="0.1" stop-color="#212121" stop-opacity="0"/>
<stop offset="0.9" stop-color="#212121" stop-opacity="0"/>
<stop offset="1" stop-color="#BFBEBE"/>
</linearGradient>
<linearGradient id="paint3_linear_424_295" x1="3.2579" y1="30.1209" x2="1.27566" y2="27.3675" gradientUnits="userSpaceOnUse">
<stop stop-color="#A47B62"/>
<stop offset="0.5" stop-color="#BA8D68"/>
</linearGradient>
<linearGradient id="paint4_linear_424_295" x1="20.4267" y1="31.1046" x2="22.409" y2="28.3513" gradientUnits="userSpaceOnUse">
<stop stop-color="#A47B62"/>
<stop offset="0.5" stop-color="#BA8D68"/>
</linearGradient>
<linearGradient id="paint5_linear_424_295" x1="11.8975" y1="22.3221" x2="11.8975" y2="36.2194" gradientUnits="userSpaceOnUse">
<stop stop-color="#4DD0E1"/>
<stop offset="1" stop-color="#00BCD4"/>
</linearGradient>
<linearGradient id="paint6_linear_424_295" x1="11.8974" y1="25.9928" x2="11.8974" y2="33.9717" gradientUnits="userSpaceOnUse">
<stop stop-color="#00BCD4"/>
<stop offset="1" stop-color="#0097A7"/>
</linearGradient>
<radialGradient id="paint7_radial_424_295" cx="0" cy="0" r="1" gradientUnits="userSpaceOnUse" gradientTransform="translate(11.8955 16.7487) scale(7.55291 8.73007)">
<stop offset="0.7945" stop-color="#6D4C41" stop-opacity="0"/>
<stop offset="1" stop-color="#6D4C41"/>
</radialGradient>
<linearGradient id="paint8_linear_424_295" x1="28.0667" y1="24.3359" x2="28.0667" y2="34.7546" gradientUnits="userSpaceOnUse">
<stop offset="0.1609" stop-color="#606060"/>
<stop offset="0.2878" stop-color="#606060"/>
<stop offset="0.449" stop-color="#595959"/>
<stop offset="0.6836" stop-color="#464646"/>
<stop offset="0.962" stop-color="#262626"/>
<stop offset="1" stop-color="#212121"/>
</linearGradient>
<radialGradient id="paint9_radial_424_295" cx="0" cy="0" r="1" gradientUnits="userSpaceOnUse" gradientTransform="translate(27.2903 11.8247) scale(9.73696 10.9852)">
<stop offset="0.7945" stop-color="#6D4C41" stop-opacity="0"/>
<stop offset="1" stop-color="#6D4C41"/>
</radialGradient>
<linearGradient id="paint10_linear_424_295" x1="22.9869" y1="24.2176" x2="22.9869" y2="35.2453" gradientUnits="userSpaceOnUse">
<stop offset="0.1252" stop-color="#757575"/>
<stop offset="0.2997" stop-color="#707070"/>
<stop offset="0.5018" stop-color="#626262"/>
<stop offset="0.7177" stop-color="#4B4B4B"/>
<stop offset="0.9419" stop-color="#2B2B2B"/>
<stop offset="1" stop-color="#212121"/>
</linearGradient>
<linearGradient id="paint11_linear_424_295" x1="31.5467" y1="24.2104" x2="31.5467" y2="35.2453" gradientUnits="userSpaceOnUse">
<stop offset="0.1252" stop-color="#757575"/>
<stop offset="0.2997" stop-color="#707070"/>
<stop offset="0.5018" stop-color="#626262"/>
<stop offset="0.7177" stop-color="#4B4B4B"/>
<stop offset="0.9419" stop-color="#2B2B2B"/>
<stop offset="1" stop-color="#212121"/>
</linearGradient>
<radialGradient id="paint12_radial_424_295" cx="0" cy="0" r="1" gradientUnits="userSpaceOnUse" gradientTransform="translate(27.2533 8.26712) scale(15.1167 12.8793)">
<stop offset="0.0032" stop-color="#757575"/>
<stop offset="0.3326" stop-color="#686868"/>
<stop offset="0.9409" stop-color="#464646"/>
<stop offset="1" stop-color="#424242"/>
</radialGradient>
<radialGradient id="paint13_radial_424_295" cx="0" cy="0" r="1" gradientUnits="userSpaceOnUse" gradientTransform="translate(27.0916 0.789597) rotate(90) scale(8.3186 12.5978)">
<stop offset="0.0032" stop-color="#757575"/>
<stop offset="0.3326" stop-color="#686868"/>
<stop offset="0.9409" stop-color="#464646"/>
<stop offset="1" stop-color="#424242"/>
</radialGradient>
<radialGradient id="paint14_radial_424_295" cx="0" cy="0" r="1" gradientUnits="userSpaceOnUse" gradientTransform="translate(30.2777 9.9926) rotate(6.3674) scale(11.1751 11.1751)">
<stop stop-color="#FAFAFA"/>
<stop offset="1" stop-color="#EEEEEE"/>
</radialGradient>
<radialGradient id="paint15_radial_424_295" cx="0" cy="0" r="1" gradientUnits="userSpaceOnUse" gradientTransform="translate(33.1487 7.55206) rotate(-1.34088) scale(13.0567)">
<stop stop-color="#E0E0E0"/>
<stop offset="0.2274" stop-color="#DBDBDB"/>
<stop offset="0.4939" stop-color="#CDCDCD"/>
<stop offset="0.7789" stop-color="#B5B5B5"/>
<stop offset="1" stop-color="#9E9E9E"/>
</radialGradient>
<radialGradient id="paint16_radial_424_295" cx="0" cy="0" r="1" gradientUnits="userSpaceOnUse" gradientTransform="translate(38.7857 20.6892) scale(3.62939)">
<stop stop-color="#FFA726"/>
<stop offset="0.0404" stop-color="#FFA623"/>
<stop offset="0.5168" stop-color="#FF9800"/>
<stop offset="1" stop-color="#FB8C00"/>
</radialGradient>
<radialGradient id="paint17_radial_424_295" cx="0" cy="0" r="1" gradientUnits="userSpaceOnUse" gradientTransform="translate(40.8919 29.5773) rotate(-129.42) scale(5.78251 6.11361)">
<stop offset="0.3074" stop-color="#BA8D68"/>
<stop offset="1" stop-color="#A47B62"/>
</radialGradient>
<radialGradient id="paint18_radial_424_295" cx="0" cy="0" r="1" gradientUnits="userSpaceOnUse" gradientTransform="translate(45.4364 24.2981) rotate(-58.0408) scale(4.23689)">
<stop stop-color="#A47B62"/>
<stop offset="1" stop-color="#BA8D68"/>
</radialGradient>
<radialGradient id="paint19_radial_424_295" cx="0" cy="0" r="1" gradientUnits="userSpaceOnUse" gradientTransform="translate(43.2128 23.2469) rotate(-28.04) scale(4.35348 4.23338)">
<stop stop-color="#A47B62"/>
<stop offset="1" stop-color="#BA8D68"/>
</radialGradient>
<radialGradient id="paint20_radial_424_295" cx="0" cy="0" r="1" gradientUnits="userSpaceOnUse" gradientTransform="translate(46.4824 23.8886) rotate(-41.201) scale(4.81598)">
<stop stop-color="#A47B62"/>
<stop offset="1" stop-color="#BA8D68"/>
</radialGradient>
<radialGradient id="paint21_radial_424_295" cx="0" cy="0" r="1" gradientUnits="userSpaceOnUse" gradientTransform="translate(46.4379 24.0928) rotate(-33.0513) scale(4.60239)">
<stop stop-color="#A47B62"/>
<stop offset="1" stop-color="#BA8D68"/>
</radialGradient>
<radialGradient id="paint22_radial_424_295" cx="0" cy="0" r="1" gradientUnits="userSpaceOnUse" gradientTransform="translate(45.9239 23.9593) rotate(-50.38) scale(4.60397)">
<stop stop-color="#A47B62"/>
<stop offset="1" stop-color="#BA8D68"/>
</radialGradient>
</defs>
</svg>
